<?xml version="1.0" standalone="no"?>
<!DOCTYPE svg PUBLIC "-//W3C//DTD SVG 1.1//EN" "http://www.w3.org/Graphics/SVG/1.1/DTD/svg11.dtd" >
<svg xmlns="http://www.w3.org/2000/svg" xmlns:xlink="http://www.w3.org/1999/xlink" version="1.1">
<metadata>
Created by FontForge 20161013 at Fri Jan  1 02:30:17 1904
 By ,,,
 - Created with Type 3.2
</metadata>
<defs>
<font id="Geolux10pxNarrow-Regular" horiz-adv-x="600" >
  <font-face 
    font-family="Geolux 10 px Narrow"
    font-weight="400"
    font-stretch="normal"
    units-per-em="2048"
    panose-1="0 0 5 4 0 0 0 0 0 4"
    ascent="1565"
    descent="-483"
    x-height="500"
    cap-height="1000"
    bbox="-6034 -963 2021 1444"
    underline-thickness="109"
    underline-position="-383"
    unicode-range="U+0020-0178"
  />
<missing-glyph horiz-adv-x="1240" 
d="M100 -360v1804h1026v-1804h-1026zM217 -248h795v1577h-795v-1577z" />
    <glyph glyph-name=".notdef" horiz-adv-x="1240" 
d="M100 -360v1804h1026v-1804h-1026zM217 -248h795v1577h-795v-1577z" />
    <glyph glyph-name=".null" horiz-adv-x="0" 
 />
    <glyph glyph-name="nonmarkingreturn" 
 />
    <glyph glyph-name="space" unicode=" " 
 />
    <glyph glyph-name="exclam" unicode="!" horiz-adv-x="500" 
d="M-6034 -787v0v0v0v0zM2021 -963v0v0v0zM200 1000h101l-1 -600h-100v600zM201 100h100v-100h-100v100z" />
    <glyph glyph-name="quotedbl" unicode="&#x22;" horiz-adv-x="500" 
d="M100 1000h100v-400h-100v400zM300 1000h100v-400h-100v400z" />
    <glyph glyph-name="numbersign" unicode="#" horiz-adv-x="700" 
d="M0 700h700v-100h-700v100zM0 400h700v-100h-700v100zM200 900h100v-200h-100v200zM400 900h100v-200h-100v200zM200 300h100v-200h-100v200zM400 300h100v-200h-100v200zM200 600h100v-200h-100v200zM400 600h100v-200h-100v200z" />
    <glyph glyph-name="dollar" unicode="$" horiz-adv-x="700" 
d="M300 1000h100v-1000h-100v1000zM100 200h200v-100h-200v100zM400 900h200v-100h-200v100zM600 400h100v-200h-100v200zM400 200h200v-100h-200v100zM400 500h200v-100h-200v100zM0 800h100v-200h-100v200zM100 600h200v-100h-200v100zM100 900h200v-100h-200v100zM0 200
h100v-100h-100v100zM600 900h100v-100h-100v100z" />
    <glyph glyph-name="percent" unicode="%" horiz-adv-x="700" 
d="M0 1000h200v-200h-200v200zM500 200h200v-200h-200v200zM300 600h100v-100h-100v100zM200 500h100v-100h-100v100zM100 400h100v-100h-100v100zM400 700h100v-100h-100v100zM500 800h100v-100h-100v100zM600 900h100v-100h-100v100zM0 300h100v-100h-100v100z" />
    <glyph glyph-name="ampersand" unicode="&#x26;" horiz-adv-x="700" 
d="M100 1000h300v-100h-300v100zM0 900h100v-300h-100v300zM100 600h300v-100h-300v100zM0 500h100v-400h-100v400zM100 100h400v-100h-400v100zM500 300h100v-200h-100v200zM600 100h100v-100h-100v100zM400 400h100v-100h-100v100zM400 900h100v-300h-100v300zM600 400
h100v-100h-100v100zM300 500h100v-100h-100v100z" />
    <glyph glyph-name="quotesingle" unicode="'" 
d="M100 1000h400v-100h-400v100zM400 900h100v-100h-100v100zM300 800h100v-100h-100v100z" />
    <glyph glyph-name="parenleft" unicode="(" 
d="M400 1000h100v-100h-100v100zM300 900h100v-100h-100v100zM400 100h100v-100h-100v100zM300 200h100v-100h-100v100zM200 800h100v-600h-100v600z" />
    <glyph glyph-name="parenright" unicode=")" 
d="M100 1000h100v-100h-100v100zM200 900h100v-100h-100v100zM300 800h100v-600h-100v600zM200 200h100v-100h-100v100zM100 100h100v-100h-100v100z" />
    <glyph glyph-name="asterisk" unicode="*" horiz-adv-x="700" 
d="M300 800h100v-700h-100v700zM200 500h100v-100h-100v100zM100 400h100v-100h-100v100zM100 600h100v-100h-100v100zM400 500h100v-100h-100v100zM500 600h100v-100h-100v100zM500 400h100v-100h-100v100zM600 700h100v-100h-100v100zM0 700h100v-100h-100v100zM0 300h100
v-100h-100v100zM600 300h100v-100h-100v100z" />
    <glyph glyph-name="plus" unicode="+" horiz-adv-x="700" 
d="M0 500h700v-100h-700v100zM300 800h100v-300h-100v300zM300 400h100v-300h-100v300z" />
    <glyph glyph-name="comma" unicode="," 
d="M100 300h300v-100h-300v100zM300 200h100v-100h-100v100zM200 100h100v-100h-100v100z" />
    <glyph glyph-name="hyphen" unicode="-" horiz-adv-x="700" 
d="M0 500h700v-100h-700v100z" />
    <glyph glyph-name="period" unicode="." 
d="M200 200h200v-200h-200v200z" />
    <glyph glyph-name="slash" unicode="/" horiz-adv-x="700" 
d="M0 200h100v-100h-100v100zM100 300h100v-100h-100v100zM200 400h100v-100h-100v100zM300 500h100v-100h-100v100zM400 600h100v-100h-100v100zM500 700h100v-100h-100v100zM600 800h100v-100h-100v100z" />
    <glyph glyph-name="zero" unicode="0" horiz-adv-x="700" 
d="M100 1000h500v-100h-500v100zM0 900h100v-800h-100v800zM600 900h100v-800h-100v800zM100 100h500v-100h-500v100zM100 300h100v-100h-100v100zM200 400h100v-100h-100v100zM300 500h100v-100h-100v100zM400 600h100v-100h-100v100zM500 700h100v-100h-100v100z" />
    <glyph glyph-name="one" unicode="1" 
d="M200 100h300v-100h-300v100zM300 1000h100v-900h-100v900zM200 900h100v-100h-100v100zM100 800h100v-100h-100v100z" />
    <glyph glyph-name="two" unicode="2" 
d="M0 100h600v-100h-600v100zM100 1000h400v-100h-400v100zM0 900h100v-200h-100v200zM500 900h100v-300h-100v300zM400 600h100v-100h-100v100zM300 500h100v-100h-100v100zM200 400h100v-100h-100v100zM100 300h100v-100h-100v100zM0 200h100v-100h-100v100z" />
    <glyph glyph-name="three" unicode="3" 
d="M100 100h400v-100h-400v100zM0 200h100v-100h-100v100zM100 1000h400v-100h-400v100zM0 900h100v-100h-100v100zM500 900h100v-300h-100v300zM500 500h100v-400h-100v400zM400 600h100v-100h-100v100zM300 600h100v-100h-100v100z" />
    <glyph glyph-name="four" unicode="4" horiz-adv-x="700" 
d="M500 1000h100v-1000h-100v1000zM600 400h100v-100h-100v100zM0 400h500v-100h-500v100zM0 500h100v-100h-100v100zM100 600h100v-100h-100v100zM200 700h100v-100h-100v100zM300 800h100v-100h-100v100zM400 900h100v-100h-100v100z" />
    <glyph glyph-name="five" unicode="5" 
d="M0 200h100v-100h-100v100zM100 100h400v-100h-400v100zM500 400h100v-300h-100v300zM500 500h100v-100h-100v100zM0 600h500v-100h-500v100zM0 1000h100v-400h-100v400zM100 1000h500v-100h-500v100z" />
    <glyph glyph-name="six" unicode="6" 
d="M100 100h400v-100h-400v100zM500 400h100v-300h-100v300zM0 400h100v-300h-100v300zM0 500h100v-100h-100v100zM100 600h400v-100h-400v100zM500 500h100v-100h-100v100zM0 800h100v-300h-100v300zM100 900h100v-100h-100v100zM200 1000h300v-100h-300v100z" />
    <glyph glyph-name="seven" unicode="7" horiz-adv-x="700" 
d="M0 1000h700v-100h-700v100zM300 500h100v-500h-100v500zM600 900h100v-100h-100v100zM500 800h100v-100h-100v100zM400 700h100v-100h-100v100zM300 600h100v-100h-100v100z" />
    <glyph glyph-name="eight" unicode="8" 
d="M100 1000h400v-100h-400v100zM100 100h400v-100h-400v100zM100 600h400v-100h-400v100zM500 900h100v-300h-100v300zM500 500h100v-400h-100v400zM0 500h100v-400h-100v400zM0 900h100v-200h-100v200zM0 700h100v-100h-100v100z" />
    <glyph glyph-name="nine" unicode="9" 
d="M100 1000h400v-100h-400v100zM0 900h100v-300h-100v300zM100 600h400v-100h-400v100zM500 900h100v-700h-100v700zM400 200h100v-100h-100v100zM100 100h300v-100h-300v100z" />
    <glyph glyph-name="colon" unicode=":" 
d="M200 800h200v-200h-200v200zM200 400h200v-200h-200v200z" />
    <glyph glyph-name="semicolon" unicode=";" 
d="M200 800h200v-200h-200v200zM200 400h200v-100h-200v100zM300 300h100v-200h-100v200zM200 100h100v-100h-100v100z" />
    <glyph glyph-name="less" unicode="&#x3c;" horiz-adv-x="500" 
d="M400 100h100v-100h-100v100zM300 200h100v-100h-100v100zM200 300h100v-100h-100v100zM100 400h100v-100h-100v100zM200 700h100v-100h-100v100zM300 800h100v-100h-100v100zM400 900h100v-100h-100v100zM100 600h100v-100h-100v100zM0 500h100v-100h-100v100z" />
    <glyph glyph-name="equal" unicode="=" horiz-adv-x="700" 
d="M0 600h700v-100h-700v100zM0 400h700v-100h-700v100z" />
    <glyph glyph-name="greater" unicode="&#x3e;" horiz-adv-x="500" 
d="M-1 100h100v-100h-100v100zM99 200h100v-100h-100v100zM199 300h100v-100h-100v100zM299 400h100v-100h-100v100zM299 600h100v-100h-100v100zM199 700h100v-100h-100v100zM99 800h100v-100h-100v100zM399 500h100v-100h-100v100zM-1 900h100v-100h-100v100z" />
    <glyph glyph-name="question" unicode="?" 
d="M201 100h100v-100h-100v100zM201 500h100v-200h-100v200zM301 600h99v-100h-99v100zM400 700h100v-100h-99zM500 900h100v-200h-100v200zM100 1000h401v-100h-401v100zM0 900h100v-100h-100v100zM1 800h99v-100h-99v100z" />
    <glyph glyph-name="at" unicode="@" horiz-adv-x="700" 
d="M0 400h100v-300h-100v300zM100 100h400v-100h-400v100zM100 500h300v-100h-300v100zM400 400h100v-300h-100v300zM500 100h100v-100h-100v100zM600 600h100v-500h-100v500zM500 700h100v-100h-100v100zM100 800h400v-100h-400v100zM0 700h100v-100h-100v100z" />
    <glyph glyph-name="A" unicode="A" horiz-adv-x="700" 
d="M200 1000h300v-100h-300v100zM100 900h100v-300h-100v300zM0 600h100v-600h-100v600zM500 900h100v-300h-100v300zM600 600h100v-600h-100v600zM100 400h500v-100h-500v100z" />
    <glyph glyph-name="B" unicode="B" 
d="M0 1000h500v-100h-500v100zM0 100h500v-100h-500v100zM100 900h100v-800h-100v800zM200 600h300v-100h-300v100zM500 900h100v-300h-100v300zM500 500h100v-400h-100v400z" />
    <glyph glyph-name="C" unicode="C" 
d="M100 1000h400v-100h-400v100zM500 900h100v-100h-100v100zM0 900h100v-800h-100v800zM100 100h400v-100h-400v100zM500 200h100v-100h-100v100z" />
    <glyph glyph-name="D" unicode="D" 
d="M0 1000h500v-100h-500v100zM0 100h500v-100h-500v100zM500 900h100v-800h-100v800zM100 900h100v-800h-100v800z" />
    <glyph glyph-name="E" unicode="E" horiz-adv-x="500" 
d="M0 1000h500v-100h-500v100zM0 100h500v-100h-500v100zM0 900h100v-800h-100v800zM100 600h300v-100h-300v100z" />
    <glyph glyph-name="F" unicode="F" horiz-adv-x="500" 
d="M0 1000h100v-1000h-100v1000zM100 1000h400v-100h-400v100zM100 600h300v-100h-300v100z" />
    <glyph glyph-name="G" unicode="G" 
d="M100 1000h400v-100h-400v100zM500 900h100v-100h-100v100zM0 900h100v-800h-100v800zM100 100h400v-100h-400v100zM500 400h100v-300h-100v300zM300 500h300v-100h-300v100z" />
    <glyph glyph-name="H" unicode="H" horiz-adv-x="500" 
d="M0 1000h100v-1000h-100v1000zM400 1000h100v-1000h-100v1000zM100 600h300v-100h-300v100z" />
    <glyph glyph-name="I" unicode="I" horiz-adv-x="400" 
d="M99 1000h101v-1000h-101v1000zM-1 100h100v-100h-100v100zM-1 1000h100v-100h-100v100zM200 1000h100v-100h-100v100zM200 100h100v-100h-100v100z" />
    <glyph glyph-name="J" unicode="J" horiz-adv-x="500" 
d="M100 100h300l1 -100h-301v100zM400 1000h100v-900h-99zM0 200h100v-100h-100v100z" />
    <glyph glyph-name="K" unicode="K" 
d="M0 1000h100v-1000h-100v1000zM100 600h100v-200h-100v200zM200 700h100v-100h-100v100zM300 800h100v-100h-100v100zM200 400h100v-100h-100v100zM300 300h100v-100h-100v100zM400 200h100v-100h-100v100zM500 100h100v-100h-100v100zM400 900h100v-100h-100v100z
M500 1000h100v-100h-100v100z" />
    <glyph glyph-name="L" unicode="L" horiz-adv-x="504" 
d="M0 1000h100v-1000h-100v1000zM100 100h400v-100h-400v100z" />
    <glyph glyph-name="M" unicode="M" horiz-adv-x="700" 
d="M0 1000h100v-1000h-100v1000zM600 1000h100v-1000h-100v1000zM100 900h100v-100h-100v100zM200 800h100v-100h-100v100zM500 900h100v-100h-100v100zM400 800h100v-100h-100v100zM300 700h100v-100h-100v100z" />
    <glyph glyph-name="N" unicode="N" 
d="M0 1000h100v-1000h-100v1000zM500 1000h100v-1000h-100v1000zM100 900h100v-100h-100v100zM200 800h100v-100h-100v100zM300 700h100v-100h-100v100zM400 600h100v-100h-100v100z" />
    <glyph glyph-name="O" unicode="O" 
d="M100 1000h400v-100h-400v100zM0 900h100v-800h-100v800zM100 100h400v-100h-400v100zM500 900h100v-800h-100v800z" />
    <glyph glyph-name="P" unicode="P" 
d="M0 1000h100v-1000h-100v1000zM100 1000h400v-100h-400v100zM500 900h100v-400h-100v400zM100 500h400v-100h-400v100z" />
    <glyph glyph-name="Q" unicode="Q" horiz-adv-x="700" 
d="M100 1000h500v-100h-500v100zM0 900h100v-800h-100v800zM100 100h400v-100h-400v100zM500 200h100v-100h-100v100zM600 100h100v-100h-100v100zM400 300h100v-100h-100v100zM600 900h100v-700h-100v700zM300 400h100v-100h-100v100z" />
    <glyph glyph-name="R" unicode="R" 
d="M0 1000h100v-1000h-100v1000zM100 1000h400v-100h-400v100zM500 900h100v-400h-100v400zM100 500h400v-100h-400v100zM500 100h100v-100h-100v100zM500 200h100v-100h-100v100zM400 300h100v-100h-100v100zM300 400h100v-100h-100v100z" />
    <glyph glyph-name="S" unicode="S" 
d="M100 1000h400v-100h-400v100zM500 900h100v-100h-100v100zM0 900h100v-300h-100v300zM100 600h400v-100h-400v100zM100 100h400v-100h-400v100zM0 200h100v-100h-100v100zM500 500h100v-400h-100v400z" />
    <glyph glyph-name="T" unicode="T" horiz-adv-x="500" 
d="M1 1000h499v-100h-499v100zM201 900h100l-1 -900h-99v900z" />
    <glyph glyph-name="U" unicode="U" 
d="M0 1000h100v-900h-100v900zM500 1000h100v-900h-100v900zM100 100h400v-100h-400v100z" />
    <glyph glyph-name="V" unicode="V" horiz-adv-x="700" 
d="M0 1000h100v-700h-100v700zM600 1000h100v-700h-100v700zM300 100h100v-100h-100v100zM200 200h100v-100h-100v100zM100 300h100v-100h-100v100zM400 200h100v-100h-100v100zM500 300h100v-100h-100v100z" />
    <glyph glyph-name="W" unicode="W" horiz-adv-x="700" 
d="M0 1000h100v-1000h-100v1000zM600 1000h100v-1000h-100v1000zM100 100h100v-100h-100v100zM200 200h100v-100h-100v100zM500 100h100v-100h-100v100zM400 200h100v-100h-100v100zM300 300h100v-100h-100v100zM300 400h100v-100h-100v100zM300 500h100v-100h-100v100z" />
    <glyph glyph-name="X" unicode="X" horiz-adv-x="700" 
d="M0 300h100v-300h-100v300zM100 400h100v-100h-100v100zM200 500h100v-100h-100v100zM300 600h100v-100h-100v100zM400 700h100v-100h-100v100zM500 800h100v-100h-100v100zM600 1000h100v-200h-100v200zM0 1000h100v-200h-100v200zM100 800h100v-100h-100v100zM200 700
h100v-100h-100v100zM400 500h100v-100h-100v100zM500 400h100v-100h-100v100zM600 300h100v-300h-100v300z" />
    <glyph glyph-name="Y" unicode="Y" horiz-adv-x="700" 
d="M300 500h100v-500h-100v500zM400 600h100v-100h-100v100zM500 700h100v-100h-100v100zM600 1000h100v-300h-100v300zM200 600h100v-100h-100v100zM100 700h100v-100h-100v100zM0 1000h100v-300h-100v300z" />
    <glyph glyph-name="Z" unicode="Z" 
d="M0 1000h600v-100h-600v100zM0 100h600v-100h-600v100zM500 799h100v-99h-100v99zM400 700h100v-101h-100v101zM300 599h100v-100l-100 1v99zM200 500h100v-100h-100v100zM100 400h100v-100h-100v100zM0 300h100v-200h-100v200zM500 900h100v-100h-100v100z" />
    <glyph glyph-name="bracketleft" unicode="[" 
d="M0 1000h400v-100h-400v100zM0 900h100v-800h-100v800zM0 100h400v-100h-400v100z" />
    <glyph glyph-name="backslash" unicode="\" horiz-adv-x="700" 
d="M600 100h100v-100h-100v100zM500 200h100v-100h-100v100zM400 300h100v-100h-100v100zM300 400h100v-100h-100v100zM200 500h100v-100h-100v100zM100 600h100v-100h-100v100zM0 700h100v-100h-100v100z" />
    <glyph glyph-name="bracketright" unicode="]" horiz-adv-x="700" 
d="M300 1000h400v-100h-400v100zM300 100h400v-100h-400v100zM600 900h100v-800h-100v800z" />
    <glyph glyph-name="asciicircum" unicode="^" 
d="M300 900h100v-100h-100v100zM200 800h100v-100h-100v100zM100 700h100v-100h-100v100zM400 800h100v-100h-100v100zM500 700h100v-100h-100v100z" />
    <glyph glyph-name="underscore" unicode="_" horiz-adv-x="700" 
d="M0 100h700v-100h-700v100z" />
    <glyph glyph-name="grave" unicode="`" 
d="M100 800h100v-100h-100v100zM200 700h100v-100h-100v100zM300 600h100v-100h-100v100z" />
    <glyph glyph-name="a" unicode="a" 
d="M98 700h400v-100h-400v100zM498 600h103v-600h-103v600zM98 100h400v-100h-400v100zM98 400h400v-100h-400v100zM1 300h97v-200h-97v200z" />
    <glyph glyph-name="b" unicode="b" 
d="M0 1000h100v-1000h-100v1000zM100 100h500v-100h-500v100zM100 600h400v-100h-400v100zM500 500h100v-400h-100v400z" />
    <glyph glyph-name="c" unicode="c" horiz-adv-x="500" 
d="M100 600h400v-100h-400v100zM0 500h100v-400h-100v400zM100 100h400v-100h-400v100z" />
    <glyph glyph-name="d" unicode="d" 
d="M500 1000h100v-1000h-100v1000zM100 100h400v-100h-400v100zM0 400h100v-300h-100v300zM100 600h400v-100h-400v100zM0 500h100v-100h-100v100z" />
    <glyph glyph-name="e" unicode="e" 
d="M100 100h400v-100h-400v100zM0 300h100v-200h-100v200zM0 400h100v-100h-100v100zM100 700h400v-100h-400v100zM500 600h100v-200h-100v200zM0 600h100v-200h-100v200zM100 400h400v-100h-400v100zM500 200h100v-100h-100v100z" />
    <glyph glyph-name="f" unicode="f" 
d="M100 900h100v-900h-100v900zM200 1000h300v-100h-300v100zM500 900h100v-100h-100v100zM0 600h200v-100h-200v100zM200 600h200v-100h-200v100z" />
    <glyph glyph-name="g" unicode="g" 
d="M100 100h400v-100h-400v100zM500 200h100v-100h-100v100zM500 700h100v-500h-100v500zM100 800h400v-100h-400v100zM0 700h100v-300h-100v300zM100 400h400v-100h-400v100z" />
    <glyph glyph-name="h" unicode="h" 
d="M0 1000h100v-1000h-100v1000zM100 500h100v-100h-100v100zM200 600h300v-100h-300v100zM500 500h100v-500h-100v500z" />
    <glyph glyph-name="i" unicode="i" 
d="M200 100h300v-100h-300v100zM300 600h100v-500h-100v500zM200 600h100v-100h-100v100zM300 800h100v-100h-100v100z" />
    <glyph glyph-name="j" unicode="j" horiz-adv-x="500" 
d="M0 200h100v-100h-100v100zM100 100h300v-100h-300v100zM400 600h100v-500h-100v500zM400 800h100v-100h-100v100z" />
    <glyph glyph-name="k" unicode="k" horiz-adv-x="400" 
d="M0 1000h100v-1000h-100v1000zM100 300h100v-100h-100v100zM200 200h100v-100h-100v100zM300 100h100v-100h-100v100zM100 400h100v-100h-100v100zM200 500h100v-100h-100v100zM300 600h100v-100h-100v100z" />
    <glyph glyph-name="l" unicode="l" horiz-adv-x="300" 
d="M-1 100h303v-100h-303v100zM99 1000h103v-900h-103v900zM-1 1000h100v-100h-100v100z" />
    <glyph glyph-name="m" unicode="m" horiz-adv-x="700" 
d="M0 600h100v-600h-100v600zM600 500h100v-500h-100v500zM300 500h100v-500h-100v500zM500 600h100v-100h-100v100zM400 600h100v-100h-100v100zM100 600h200v-100h-200v100z" />
    <glyph glyph-name="n" unicode="n" horiz-adv-x="500" 
d="M0 600h100v-600h-100v600zM100 500h100v-100h-100v100zM200 600h200v-100h-200v100zM400 500h100v-500h-100v500z" />
    <glyph glyph-name="o" unicode="o" 
d="M100 100h400v-100h-400v100zM0 500h100v-400h-100v400zM100 600h400v-100h-400v100zM500 500h100v-400h-100v400z" />
    <glyph glyph-name="p" unicode="p" horiz-adv-x="500" 
d="M0 600h100v-600h-100v600zM100 600h300v-100h-300v100zM100 300h300v-100h-300v100zM400 500h100v-200h-100v200z" />
    <glyph glyph-name="q" unicode="q" horiz-adv-x="500" 
d="M400 600h100v-600h-100v600zM100 600h300v-100h-300v100zM0 500h100v-200h-100v200zM100 300h300v-100h-300v100z" />
    <glyph glyph-name="r" unicode="r" horiz-adv-x="500" 
d="M0 600h100v-600h-100v600zM100 500h100v-100h-100v100zM200 600h200v-100h-200v100zM400 500h100v-100h-100v100zM400 400h100v-100h-100v100z" />
    <glyph glyph-name="s" unicode="s" horiz-adv-x="700" 
d="M0 500h100v-100h-100v100zM100 400h400v-100h-400v100zM500 300h100v-200h-100v200zM100 100h400v-100h-400v100zM0 200h100v-100h-100v100zM0 600h100v-100h-100v100zM100 700h400v-100h-400v100zM500 600h100v-100h-100v100z" />
    <glyph glyph-name="t" unicode="t" 
d="M301 200h-100h100zM201 200h100v-100h-100v100zM301 100h197v-100h-197v100zM498 200h103v-100h-103v100zM1 800h200v-100h-200v100zM301 800h197v-100h-197v100zM201 1000h100v-800h-100v800z" />
    <glyph glyph-name="u" unicode="u" horiz-adv-x="500" 
d="M0 500h100v-400h-100v400zM100 100h201v-100h-201v100zM301 200h100v-100h-100v100zM401 500h97v-500h-97v500z" />
    <glyph glyph-name="v" unicode="v" horiz-adv-x="500" 
d="M0 500h100v-300h-100v300zM100 200h100v-100h-100v100zM200 100h100v-100h-100v100zM300 200h100v-100h-100v100zM400 500h100v-300h-100v300z" />
    <glyph glyph-name="w" unicode="w" horiz-adv-x="700" 
d="M0 500h100v-300h-100v300zM100 200h100v-100h-100v100zM300 300h100v-200h-100v200zM600 500h100v-300h-100v300zM500 200h100v-100h-100v100zM200 100h100v-100h-100v100zM400 100h100v-100h-100v100z" />
    <glyph glyph-name="x" unicode="x" 
d="M100 100h100v-100h-100v100zM200 200h100v-100h-100v100zM500 100h100v-100h-100v100zM400 200h100v-100h-100v100zM300 300h100v-100h-100v100zM200 400h100v-100h-100v100zM100 500h100v-100h-100v100zM400 400h100v-100h-100v100zM500 500h100v-100h-100v100z" />
    <glyph glyph-name="y" unicode="y" horiz-adv-x="500" 
d="M-1 100h203v-100h-203v100zM202 200h100v-100h-100v100zM302 300h97v-100h-97v100zM99 300h103v-100h-103v100zM-1 500h100v-200h-100v200zM399 500h100v-200h-100v200z" />
    <glyph glyph-name="z" unicode="z" horiz-adv-x="500" 
d="M0 100h500v-100h-500v100zM0 200h100v-100h-100v100zM100 300h100v-100h-100v100zM200 400h100v-100h-100v100zM0 600h500v-100h-500v100zM300 500h100v-100h-100v100z" />
    <glyph glyph-name="braceleft" unicode="{" horiz-adv-x="500" 
d="M0 600h100v-100h-100v100zM100 500h100v-400h-100v400zM200 100h100v-100h-100v100zM100 900h100v-300h-100v300zM200 1000h100v-100h-100v100z" />
    <glyph glyph-name="bar" unicode="|" horiz-adv-x="500" 
d="M201 1000h100v-1000h-100v1000z" />
    <glyph glyph-name="braceright" unicode="}" horiz-adv-x="500" 
d="M399 600h100v-100h-100v100zM302 500h97v-400h-97v400zM302 900h97v-300h-97v300zM202 1000h100v-100h-100v100zM202 100h100v-100h-100v100z" />
    <glyph glyph-name="asciitilde" unicode="~" horiz-adv-x="715" 
 />
    <glyph glyph-name="controlDEL" horiz-adv-x="1240" 
 />
    <glyph glyph-name="Agrave" unicode="&#xc0;" horiz-adv-x="700" 
d="M200 700h300v-100h-300v100zM100 600h100v-100h-100v100zM0 500h100v-500h-100v500zM500 600h100v-100h-100v100zM600 500h100v-500h-100v500zM100 300h500v-100h-500v100zM300 900h100v-100h-100v100zM200 1000h100v-100h-100v100z" />
    <glyph glyph-name="Acircumflex" unicode="&#xc2;" horiz-adv-x="700" 
d="M200 700h300v-100h-300v100zM100 600h100v-100h-100v100zM0 500h100v-500h-100v500zM500 600h100v-100h-100v100zM600 500h100v-500h-100v500zM100 300h500v-100h-500v100zM400 900h100v-100h-100v100zM300 1000h100v-100h-100v100zM200 900h100v-100h-100v100z" />
    <glyph glyph-name="AE" unicode="&#xc6;" horiz-adv-x="800" 
d="M200 1000h600v-100h-600v100zM100 900h100v-300h-100v300zM0 600h100v-600h-100v600zM400 900h100v-900h-100v900zM100 400h300v-100h-300v100zM500 100h300v-100h-300v100zM500 500h200v-100h-200v100z" />
    <glyph glyph-name="Ccedilla" unicode="&#xc7;" 
d="M100 1000h400v-100h-400v100zM500 900h100v-100h-100v100zM0 900h100v-600h-100v600zM100 300h400v-100h-400v100zM500 400h100v-100h-100v100zM200 200h100v-100h-100v100zM100 100h100v-100h-100v100z" />
    <glyph glyph-name="Egrave" unicode="&#xc8;" horiz-adv-x="500" 
d="M0 700h500v-100h-500v100zM0 100h500v-100h-500v100zM0 600h100v-500h-100v500zM100 400h300v-100h-300v100zM200 900h100v-100h-100v100zM100 1000h100v-100h-100v100z" />
    <glyph glyph-name="Eacute" unicode="&#xc9;" horiz-adv-x="500" 
d="M0 700h500v-100h-500v100zM0 100h500v-100h-500v100zM0 600h100v-500h-100v500zM100 400h300v-100h-300v100zM200 900h100v-100h-100v100zM300 1000h100v-100h-100v100z" />
    <glyph glyph-name="Ecircumflex" unicode="&#xca;" horiz-adv-x="500" 
d="M0 700h500v-100h-500v100zM0 100h500v-100h-500v100zM0 600h100v-500h-100v500zM100 400h300v-100h-300v100zM100 900h100v-100h-100v100zM200 1000h100v-100h-100v100zM300 900h100v-100h-100v100z" />
    <glyph glyph-name="Edieresis" unicode="&#xcb;" horiz-adv-x="500" 
d="M0 700h500v-100h-500v100zM0 100h500v-100h-500v100zM0 600h100v-500h-100v500zM100 400h300v-100h-300v100zM100 900h100v-100h-100v100zM300 900h100v-100h-100v100z" />
    <glyph glyph-name="Icircumflex" unicode="&#xce;" horiz-adv-x="400" 
d="M100 700h100v-700h-101zM-1 100h100v-100h-100v100zM0 700h100v-100h-100v100zM200 700h100v-100h-100v100zM200 100h100v-100h-100v100zM0 900h100v-100h-100v100zM100 1000h100v-100h-100v100zM200 900h100v-100h-100v100z" />
    <glyph glyph-name="Idieresis" unicode="&#xcf;" horiz-adv-x="400" 
d="M100 700h100v-700h-101zM-1 100h100v-100h-100v100zM0 700h100v-100h-100v100zM200 700h100v-100h-100v100zM200 100h100v-100h-100v100zM0 900h100v-100h-100v100zM200 900h100v-100h-100v100z" />
    <glyph glyph-name="Ocircumflex" unicode="&#xd4;" 
d="M100 700h400v-100h-400v100zM0 600h100v-500h-100v500zM100 100h400v-100h-400v100zM500 600h100v-500h-100v500zM100 900h100v-100h-100v100zM200 1000h200v-100h-200v100zM400 900h100v-100h-100v100z" />
    <glyph glyph-name="Ugrave" unicode="&#xd9;" 
d="M0 700h100v-600h-100v600zM500 700h100v-600h-100v600zM100 100h400v-100h-400v100zM300 900h100v-100h-100v100zM200 1000h100v-100h-100v100z" />
    <glyph glyph-name="Ucircumflex" unicode="&#xdb;" 
d="M0 700h100v-600h-100v600zM500 700h100v-600h-100v600zM100 100h400v-100h-400v100zM400 900h100v-100h-100v100zM200 1000h200v-100h-200v100zM100 900h100v-100h-100v100z" />
    <glyph glyph-name="Udieresis" unicode="&#xdc;" 
d="M0 700h100v-600h-100v600zM500 700h100v-600h-100v600zM100 100h400v-100h-400v100zM400 900h100v-100h-100v100zM100 900h100v-100h-100v100z" />
    <glyph glyph-name="agrave" unicode="&#xe0;" 
d="M98 700h400v-100h-400v100zM498 600h103v-600h-103v600zM98 100h400v-100h-400v100zM98 400h400v-100h-400v100zM1 300h97v-200h-97v200zM300 900h100v-100h-100v100zM200 1000h100v-100h-100v100z" />
    <glyph glyph-name="acircumflex" unicode="&#xe2;" 
d="M98 700h400v-100h-400v100zM498 600h103v-600h-103v600zM98 100h400v-100h-400v100zM98 400h400v-100h-400v100zM1 300h97v-200h-97v200zM400 900h100v-100h-100v100zM300 1000h100v-100h-100v100zM200 900h100v-100h-100v100z" />
    <glyph glyph-name="ae" unicode="&#xe6;" horiz-adv-x="700" 
d="M98 700h202v-100h-202v100zM300 600h100v-600h-100v600zM98 100h202v-100h-202v100zM98 400h202v-100h-202v100zM1 300h97v-200h-97v200zM400 400h300v-100h-300v100zM600 600h100l-3 -200h-97v200zM398 700h202v-100h-202v100zM498 100h202v-100h-202v100zM398 200h102
v-100h-102v100z" />
    <glyph glyph-name="ccedilla" unicode="&#xe7;" horiz-adv-x="500" 
d="M100 600h400v-100h-400v100zM0 500h100v-300h-100v300zM100 200h400v-100h-400v100zM200 100h100v-100h-100v100z" />
    <glyph glyph-name="egrave" unicode="&#xe8;" 
d="M100 100h400v-100h-400v100zM0 300h100v-200h-100v200zM0 400h100v-100h-100v100zM100 700h400v-100h-400v100zM500 600h100v-200h-100v200zM0 600h100v-200h-100v200zM100 400h400v-100h-400v100zM500 200h100v-100h-100v100zM300 900h100v-100h-100v100zM200 1000h100
v-100h-100v100z" />
    <glyph glyph-name="eacute" unicode="&#xe9;" 
d="M100 100h400v-100h-400v100zM0 300h100v-200h-100v200zM0 400h100v-100h-100v100zM100 700h400v-100h-400v100zM500 600h100v-200h-100v200zM0 600h100v-200h-100v200zM100 400h400v-100h-400v100zM500 200h100v-100h-100v100zM200 900h100v-100h-100v100zM300 1000h100
v-100h-100v100z" />
    <glyph glyph-name="ecircumflex" unicode="&#xea;" 
d="M100 100h400v-100h-400v100zM0 300h100v-200h-100v200zM0 400h100v-100h-100v100zM100 700h400v-100h-400v100zM500 600h100v-200h-100v200zM0 600h100v-200h-100v200zM100 400h400v-100h-400v100zM500 200h100v-100h-100v100zM100 900h100v-100h-100v100zM200 1000h200
v-100h-200v100zM400 900h100v-100h-100v100z" />
    <glyph glyph-name="edieresis" unicode="&#xeb;" 
d="M100 100h400v-100h-400v100zM0 300h100v-200h-100v200zM0 400h100v-100h-100v100zM100 700h400v-100h-400v100zM500 600h100v-200h-100v200zM0 600h100v-200h-100v200zM100 400h400v-100h-400v100zM500 200h100v-100h-100v100zM100 900h100v-100h-100v100zM400 900h100
v-100h-100v100z" />
    <glyph glyph-name="icircumflex" unicode="&#xee;" 
d="M300 100h100v-100h-100v100zM300 600h100v-500h-100v500zM400 900h100v-100h-100v100zM300 1000h100v-100h-100v100zM200 900h100v-100h-100v100z" />
    <glyph glyph-name="idieresis" unicode="&#xef;" 
d="M300 100h100v-100h-100v100zM300 600h100v-500h-100v500zM400 900h100v-100h-100v100zM200 900h100v-100h-100v100z" />
    <glyph glyph-name="ocircumflex" unicode="&#xf4;" 
d="M100 100h400v-100h-400v100zM0 500h100v-400h-100v400zM100 600h400v-100h-400v100zM500 500h100v-400h-100v400zM100 900h100v-100h-100v100zM200 1000h200v-100h-200v100zM400 900h100v-100h-100v100z" />
    <glyph glyph-name="odieresis" unicode="&#xf6;" 
d="M100 100h400v-100h-400v100zM0 500h100v-400h-100v400zM100 600h400v-100h-400v100zM500 500h100v-400h-100v400zM100 900h100v-100h-100v100zM400 900h100v-100h-100v100z" />
    <glyph glyph-name="ugrave" unicode="&#xf9;" horiz-adv-x="500" 
d="M0 500h100v-400h-100v400zM100 100h201v-100h-201v100zM301 200h100v-100h-100v100zM401 500h97v-500h-97v500zM200 800h100v-100h-100v100zM100 900h100v-100h-100v100z" />
    <glyph glyph-name="ucircumflex" unicode="&#xfb;" horiz-adv-x="500" 
d="M0 500h100v-400h-100v400zM100 100h201v-100h-201v100zM301 200h100v-100h-100v100zM401 500h97v-500h-97v500zM300 800h100v-100h-100v100zM200 900h100v-100h-100v100zM100 800h100v-100h-100v100z" />
    <glyph glyph-name="udieresis" unicode="&#xfc;" horiz-adv-x="500" 
d="M0 500h100v-400h-100v400zM100 100h201v-100h-201v100zM301 200h100v-100h-100v100zM401 500h97v-500h-97v500zM300 800h100v-100h-100v100zM100 800h100v-100h-100v100z" />
    <glyph glyph-name="ydieresis" unicode="&#xff;" horiz-adv-x="500" 
d="M-1 100h203v-100h-203v100zM202 200h100v-100h-100v100zM302 300h97v-100h-97v100zM99 300h103v-100h-103v100zM-1 500h100v-200h-100v200zM399 500h100v-200h-100v200zM300 800h100v-100h-100v100zM100 800h100v-100h-100v100z" />
    <glyph glyph-name="OE" unicode="&#x152;" 
d="M100 1000h500v-100h-500v100zM0 900h100v-800h-100v800zM100 100h500v-100h-500v100zM300 900h100v-800h-100v800zM400 600h200v-100h-200v100z" />
    <glyph glyph-name="oe" unicode="&#x153;" 
d="M100 100h400v-100h-400v100zM0 600h100v-500h-100v500zM100 700h400v-100h-400v100zM500 600h100v-200h-100v200zM300 400h200v-100h-200v100zM500 200h100v-100h-100v100zM200 600h100v-500h-100v500z" />
    <glyph glyph-name="Ydieresis" unicode="&#x178;" horiz-adv-x="700" 
d="M300 300h100v-300h-100v300zM400 400h100v-100h-100v100zM500 500h100v-100h-100v100zM600 700h100v-200h-100v200zM200 400h100v-100h-100v100zM100 500h100v-100h-100v100zM0 700h100v-200h-100v200zM200 900h100v-100h-100v100zM400 900h100v-100h-100v100z" />
    <glyph glyph-name="glyph73" horiz-adv-x="1240" 
d="M143 715h143v-429h-143v429z" />
  </font>
</defs>
</svg>
