<?xml version="1.0" standalone="no"?>
<!DOCTYPE svg PUBLIC "-//W3C//DTD SVG 1.1//EN" "http://www.w3.org/Graphics/SVG/1.1/DTD/svg11.dtd" >
<svg>
<metadata>
Created by FontForge 20090914 at Mon Oct  9 20:52:05 2017
 By www-data
Copyright (c) 2011-2015, Omnibus-Type (www.omnibus-type.com omnibus.type@gmail.com) with Reserved Font Name 'Jaldi' and 'Asap'
</metadata>
<defs>
<font id="Jaldi-Regular" horiz-adv-x="515" >
  <font-face 
    font-family="Jaldi"
    font-weight="400"
    font-stretch="normal"
    units-per-em="2048"
    panose-1="2 15 5 4 3 2 2 6 2 3"
    ascent="1638"
    descent="-410"
    x-height="930"
    cap-height="1249"
    bbox="-1105 -972.004 4897 2350"
    underline-thickness="50"
    underline-position="-50"
    unicode-range="U+000D-U+FB02"
  />
<missing-glyph horiz-adv-x="914" 
d="M13 1244h888v-1244h-888v1244zM758 1155h-605l304 -452zM404 623l-304 452v-906zM811 1075l-301 -452l301 -454v906zM759 89l-304 453l-300 -453h604z" />
    <glyph glyph-name="fi" unicode="fi" horiz-adv-x="1001" 
d="M209 6.5c-11.333 6.33301 -17 16.167 -17 29.5v766h-71c-24 0 -36 17.667 -36 53v22c0 35.333 12 53 36 53h71v169c0 93.333 23.167 157.5 69.5 192.5s99.5 52.5 159.5 52.5c86.667 0 130 -18 130 -54c0 -6 -1.5 -15.833 -4.5 -29.5s-7.33301 -25.834 -13 -36.501
s-12.167 -16 -19.5 -16c-4 0 -12.333 1.33301 -25 4s-30 4 -52 4c-20 0 -36.833 -3 -50.5 -9s-24.667 -18.667 -33 -38s-12.5 -47.333 -12.5 -84v-155h155c12.667 0 21.834 -4.16699 27.501 -12.5s8.5 -21.833 8.5 -40.5v-22c0 -18.667 -2.83301 -32.167 -8.5 -40.5
s-14.834 -12.5 -27.501 -12.5h-155v-766c0 -13.333 -5.66699 -23.166 -17 -29.499s-29 -9.5 -53 -9.5h-8c-24.667 0 -42.667 3.16699 -54 9.5zM684 1193v105c0 26 24 39 72 39h21c47.333 0 71 -13 71 -39v-105c0 -26 -23.667 -39 -71 -39h-21c-48 0 -72 13 -72 39z
M691 36.001v858c0 26 24 39 72 39h7c47.333 0 71 -13 71 -39v-858c0 -26 -23.667 -39 -71 -39h-7c-48 0 -72 13 -72 39z" />
    <glyph glyph-name="fl" unicode="fl" horiz-adv-x="1051" 
d="M209 6.5c-11.333 6.33301 -17 16.167 -17 29.5v766h-71c-24 0 -36 17.667 -36 53v22c0 35.333 12 53 36 53h71v169c0 93.333 23.167 157.5 69.5 192.5s99.5 52.5 159.5 52.5c86.667 0 130 -18 130 -54c0 -6 -1.5 -15.833 -4.5 -29.5s-7.33301 -25.834 -13 -36.501
s-12.167 -16 -19.5 -16c-4 0 -12.333 1.33301 -25 4s-30 4 -52 4c-20 0 -36.833 -3 -50.5 -9s-24.667 -18.667 -33 -38s-12.5 -47.333 -12.5 -84v-155h155c12.667 0 21.834 -4.16699 27.501 -12.5s8.5 -21.833 8.5 -40.5v-22c0 -18.667 -2.83301 -32.167 -8.5 -40.5
s-14.834 -12.5 -27.501 -12.5h-155v-766c0 -13.333 -5.66699 -23.166 -17 -29.499s-29 -9.5 -53 -9.5h-8c-24.667 0 -42.667 3.16699 -54 9.5zM746 44.001c-46.667 36 -70.001 99.667 -70.001 191v1063c0 26 23.667 39 71 39h7c48 0 72 -13 72 -39v-1049
c0 -48.667 8.5 -82.667 25.5 -102s40.167 -29 69.5 -29c22 0 39.333 1.33301 52 4s21 4 25 4c10.667 0 19.334 -10.667 26.001 -32s10 -38.333 10 -51c0 -35.333 -43 -53 -129 -53c-59.333 0 -112.333 18 -159 54z" />
    <glyph glyph-name="f_f" unicode="ff" horiz-adv-x="1155" 
d="M209 6.5c-11.333 6.33301 -17 16.167 -17 29.5v766h-71c-24 0 -36 17.667 -36 53v22c0 35.333 12 53 36 53h71v169c0 93.333 23.167 157.5 69.5 192.5s99.5 52.5 159.5 52.5c86.667 0 130 -18 130 -54c0 -6 -1.5 -15.833 -4.5 -29.5s-7.33301 -25.834 -13 -36.501
s-12.167 -16 -19.5 -16c-4 0 -12.333 1.33301 -25 4s-30 4 -52 4c-20 0 -36.833 -3 -50.5 -9s-24.667 -18.667 -33 -38s-12.5 -47.333 -12.5 -84v-155h155c12.667 0 21.834 -4.16699 27.501 -12.5s8.5 -21.833 8.5 -40.5v-22c0 -18.667 -2.83301 -32.167 -8.5 -40.5
s-14.834 -12.5 -27.501 -12.5h-155v-766c0 -13.333 -5.66699 -23.166 -17 -29.499s-29 -9.5 -53 -9.5h-8c-24.667 0 -42.667 3.16699 -54 9.5zM787 6.50098c-11.333 6.33301 -17 16.167 -17 29.5v766h-71c-24 0 -36 17.667 -36 53v22c0 35.333 12 53 36 53h71v169
c0 93.333 23.167 157.5 69.5 192.5s99.5 52.5 159.5 52.5c86.667 0 130 -18 130 -54c0 -6 -1.5 -15.833 -4.5 -29.5s-7.33301 -25.834 -13 -36.501s-12.167 -16 -19.5 -16c-4 0 -12.333 1.33301 -25 4s-30 4 -52 4c-20 0 -36.833 -3 -50.5 -9s-24.667 -18.667 -33 -38
s-12.5 -47.333 -12.5 -84v-155h155c12.667 0 21.834 -4.16699 27.501 -12.5s8.5 -21.833 8.5 -40.5v-22c0 -18.667 -2.83301 -32.167 -8.5 -40.5s-14.834 -12.5 -27.501 -12.5h-155v-766c0 -13.333 -5.66699 -23.166 -17 -29.499s-29 -9.5 -53 -9.5h-8
c-24.667 0 -42.667 3.16699 -54 9.5z" />
    <glyph glyph-name=".notdef" horiz-adv-x="914" 
d="M13 1244h888v-1244h-888v1244zM758 1155h-605l304 -452zM404 623l-304 452v-906zM811 1075l-301 -452l301 -454v906zM759 89l-304 453l-300 -453h604z" />
    <glyph glyph-name="nonmarkingreturn" unicode="&#xd;" horiz-adv-x="427" 
 />
    <glyph glyph-name="space" unicode=" " horiz-adv-x="427" 
 />
    <glyph glyph-name="exclam" unicode="!" horiz-adv-x="522" 
d="M199 399l0.000976562 810c0 26.667 24 40 72 40h35c46 0 69 -13.333 69 -40c-6.66699 -120 -17.334 -300 -32.001 -540l-16 -270c-1.33301 -26 -19.333 -39 -54 -39h-20c-36 0 -54 13 -54 39zM195.001 6.5c-11.333 6.33301 -17 16.166 -17 29.499v117
c0 26 23.667 39 71 39h31c46.667 0 70 -13 70 -39v-117c0 -13.333 -5.66699 -23.166 -17 -29.499s-29 -9.5 -53 -9.5h-31c-24.667 0 -42.667 3.16699 -54 9.5z" />
    <glyph glyph-name="quotedbl" unicode="&#x22;" horiz-adv-x="568" 
d="M128 860l-39 328v21c0 26.667 23.667 40 71 40h18c47.333 0 71 -13.333 71 -40c0 -7.33301 -10.333 -95 -31 -263c-0.666992 -9.33301 -4 -38 -10 -86c-2.66699 -14 -15.667 -21 -39 -21h-2c-22.667 0 -35.667 7 -39 21zM356 860l-38.999 328v21
c0 26.667 23.333 40 70 40h19c46.667 0 70 -13.333 70 -40c0 -7.33301 -4.66699 -50.5 -14 -129.5l-27 -219.5c-2.66699 -14 -15.334 -21 -38.001 -21h-3c-21.333 0 -34 7 -38 21z" />
    <glyph glyph-name="numbersign" unicode="#" horiz-adv-x="949" 
d="M148.5 3.5c-7.66699 4.33301 -11.5039 12.168 -11.5039 23.501c0 6 9 58 27 156l30 165h-135c-12.667 0 -21.667 4.33301 -27 13s-8 22.334 -8 41.001v30c0 18.667 2.66699 32.334 8 41.001s14.333 13 27 13h161l46 261h-143c-12.667 0 -21.834 4.16699 -27.501 12.5
s-8.5 21.833 -8.5 40.5v31c0 18.667 2.83301 32.167 8.5 40.5s14.834 12.5 27.501 12.5h167l55 297c2 14 7.83301 24 17.5 30s29.834 9 60.501 9h7c16.667 0 29.334 -2.5 38.001 -7.5s13 -11.5 13 -19.5l-60 -309h212l53 297c2 14 7.83301 24 17.5 30s29.834 9 60.501 9h9
c16.667 0 29.334 -2.5 38.001 -7.5s13 -11.5 13 -19.5l-56 -309h121c12.667 0 21.834 -4.16699 27.501 -12.5s8.5 -21.833 8.5 -40.5v-31c0 -18.667 -2.83301 -32.167 -8.5 -40.5s-14.834 -12.5 -27.501 -12.5h-147l-44 -261h134c12.667 0 21.834 -4.33301 27.501 -13
s8.5 -22.334 8.5 -41.001v-30c0 -18.667 -2.83301 -32.334 -8.5 -41.001s-14.834 -13 -27.501 -13h-163l-55 -312c-2.66699 -14 -9.16699 -24 -19.5 -30s-29.5 -9 -57.5 -9h-7c-18 0 -30.667 2.16699 -38 6.5s-11 12.166 -11 23.499c0 6 4.5 34.333 13.5 85l42.5 236h-210
l-56 -312c-2 -10 -5 -17.667 -9 -23s-11.167 -9.33301 -21.5 -12s-25.833 -4 -46.5 -4h-7c-18 0 -30.833 2.16699 -38.5 6.5zM562.996 486.002l47 261h-209l-47 -261h209z" />
    <glyph glyph-name="dollar" unicode="$" horiz-adv-x="882" 
d="M422.5 -119.5c-5.66699 4.33301 -8.50098 11.5039 -8.50098 21.5039v88c-63.333 1.33301 -121.833 9.16602 -175.5 23.499s-96.334 31.333 -128.001 51s-47.5 37.834 -47.5 54.501c0 9.33301 3.83301 21.666 11.5 36.999s16.334 29 26.001 41s17.834 18 24.501 18
c4 0 14.667 -5.33301 32 -16c38 -22 76.667 -40.5 116 -55.5s86.333 -23.5 141 -25.5v458c-72 28 -129.5 53.667 -172.5 77s-79.833 57.333 -110.5 102s-46 102.334 -46 173.001c0 57.333 13.5 108.666 40.5 153.999s65.167 82 114.5 110s107.333 45.333 174 52v75
c0 10 2.83301 17.333 8.5 22s14.834 7 27.501 7s21.834 -2.33301 27.501 -7s8.5 -12 8.5 -22v-70c36 -1.33301 76.167 -6.5 120.5 -15.5s82 -21.167 113 -36.5s46.5 -32 46.5 -50c0 -8.66699 -3.5 -20.5 -10.5 -35.5s-15 -28.5 -24 -40.5s-16.167 -18 -21.5 -18
c-6.66699 0 -19.334 5 -38.001 15c-29.333 15.333 -57.833 27.666 -85.5 36.999s-61.167 14.666 -100.5 15.999v-415c72.667 -26.667 131.334 -51.834 176.001 -75.501s83.167 -59 115.5 -106s48.5 -108.5 48.5 -184.5c0 -66.667 -13.833 -125.167 -41.5 -175.5
s-67.167 -90.333 -118.5 -120s-111.333 -47.5 -180 -53.5v-89c0 -10 -2.83301 -17.167 -8.5 -21.5s-14.834 -6.5 -27.501 -6.5s-21.834 2.16699 -27.501 6.5zM413.999 1114c-52 -8.66699 -92.833 -29.332 -122.5 -61.999s-44.5 -76.334 -44.5 -131.001
c0 -46.667 14.333 -84.167 43 -112.5s70 -53.833 124 -76.5v382zM614.499 196.506c33 39 49.5 86.833 49.5 143.5c0 51.333 -15.5 92.5 -46.5 123.5s-74.833 59.167 -131.5 84.5v-425c52.667 10 95.5 34.5 128.5 73.5z" />
    <glyph glyph-name="percent" unicode="%" horiz-adv-x="1360" 
d="M177.5 739.5c-47 41.667 -70.5 116.5 -70.5 224.5c0 108.667 23 184.5 69 227.5s104 64.5 174 64.5c68 0 125.667 -21.667 173 -65s71 -119 71 -227c0 -107.333 -23.833 -182 -71.5 -224s-105.167 -63 -172.5 -63c-68 0 -125.5 20.833 -172.5 62.5zM298 -8
c-8 3.33301 -12 7 -12 11c0 6 2.33301 12.333 7 19l664 1200c6 10.667 15 19 27 25s26.333 9 43 9h10c12.667 0 23 -1.5 31 -4.5s12 -7.16699 12 -12.5c0 -2 -1 -4.66699 -3 -8s-3.66699 -6.33301 -5 -9l-663 -1200c-11.333 -23.333 -35 -35 -71 -35h-9
c-12.667 0 -23 1.66699 -31 5zM481 964c0 56.667 -8.5 103.332 -25.5 139.999s-52.167 55 -105.5 55c-52 0 -85.833 -18.167 -101.5 -54.5s-23.5 -83.166 -23.5 -140.499c0 -56 8 -101.5 24 -136.5s49.667 -52.5 101 -52.5c87.333 0 131 63 131 189zM836.5 53.498
c-47 41.667 -70.5 116.5 -70.5 224.5c0 108.667 23 184.5 69 227.5s104.333 64.5 175 64.5c68 0 125.667 -21.667 173 -65s71 -119 71 -227c0 -107.333 -24 -182 -72 -224s-105.333 -63 -172 -63c-68.667 0 -126.5 20.833 -173.5 62.5zM1140 277.998
c0 56.667 -8.33203 103.332 -24.999 139.999s-51.667 55 -105 55c-52 0 -86 -18.167 -102 -54.5s-24 -83.166 -24 -140.499c0 -56 8.16699 -101.5 24.5 -136.5s50.166 -52.5 101.499 -52.5c86.667 0 130 63 130 189z" />
    <glyph glyph-name="ampersand" unicode="&#x26;" horiz-adv-x="1109" 
d="M1069 110c6 -10.667 10.501 -22.833 13.501 -36.5s4.5 -23.834 4.5 -30.501c0 -35.333 -43.333 -53 -130 -53c-80 0 -140.667 25.333 -182 76c-35.333 -21.333 -77.5 -39.333 -126.5 -54s-103.167 -22 -162.5 -22c-64.667 0 -127.167 12.667 -187.5 38
s-110.333 65.666 -150 120.999s-59.5 126 -59.5 212c0 59.333 10.833 112 32.5 158s49.667 83.167 84 111.5s70.5 47.5 108.5 57.5v8c-53.333 20 -97.333 52.833 -132 98.5s-52 99.834 -52 162.501c0 64.667 15.333 119.5 46 164.5s73 78.667 127 101s116 33.5 186 33.5
c38.667 0 73.5 -4.33301 104.5 -13s46.5 -23.667 46.5 -45c0 -4.66699 -1.5 -14.167 -4.5 -28.5s-7.33301 -27.666 -13 -39.999s-12.834 -18.5 -21.501 -18.5c-1.33301 0 -8.66602 1.33301 -21.999 4c-32.667 8.66699 -61.334 13 -86.001 13c-82 0 -138 -19.333 -168 -58
s-45 -82 -45 -130c0 -32.667 8.33301 -65.5 25 -98.5s42.834 -60.667 78.501 -83s80.167 -33.5 133.5 -33.5h210l22 188c2 26 20.667 39 56 39h19c17.333 0 30.5 -3.5 39.5 -10.5s13.5 -16.5 13.5 -28.5v-188h149c12.667 0 21.667 -4.16699 27 -12.5s8 -21.833 8 -40.5v-22
c0 -18 -2.66699 -31.333 -8 -40s-14.333 -13 -27 -13h-149v-348c0 -48.667 8.66699 -82.667 26 -102s40.666 -29 69.999 -29c22 0 39.167 1.33301 51.5 4s20.5 4 24.5 4c7.33301 0 14 -5.33301 20 -16zM283.501 218.001c26.333 -36.667 58.8311 -62.5 97.498 -77.5
s78.334 -22.5 119.001 -22.5c39.333 0 78.833 6.16699 118.5 18.5s76.834 27.5 111.501 45.5c-2 17.333 -3 35 -3 53v362h-217c-86 0 -151.833 -17.5 -197.5 -52.5s-68.5 -95.5 -68.5 -181.5c0 -60 13.167 -108.333 39.5 -145z" />
    <glyph glyph-name="quotesingle" unicode="'" horiz-adv-x="326" 
d="M128 860l-39 328v21c0 26.667 23.667 40 71 40h18c47.333 0 71 -13.333 71 -40c0 -7.33301 -10.333 -95 -31 -263c-0.666992 -9.33301 -4 -38 -10 -86c-2.66699 -14 -15.667 -21 -39 -21h-2c-22.667 0 -35.667 7 -39 21z" />
    <glyph glyph-name="parenleft" unicode="(" horiz-adv-x="536" 
d="M425 -358c-66 60.667 -123.498 135.672 -172.498 225.005s-87 188.666 -114 297.999s-40.5 223.666 -40.5 342.999s13.5 233.833 40.5 343.5s65 209 114 298s106.5 163.833 172.5 224.5c11.333 12 23.666 18 36.999 18c12 0 23.833 -4.5 35.5 -13.5
s17.5 -19.167 17.5 -30.5c0 -12 -5 -25 -15 -39c-80.667 -94.667 -143.834 -211.834 -189.501 -351.501s-68.5 -289.5 -68.5 -449.5c0 -158.667 22.667 -307.834 68 -447.501s108 -257.167 188 -352.5c10.667 -12.667 16 -24.334 16 -35.001
c0 -10 -5.16699 -20.833 -15.5 -32.5s-21.833 -17.5 -34.5 -17.5c-13.333 0 -26.333 6.33301 -39 19z" />
    <glyph glyph-name="parenright" unicode=")" horiz-adv-x="536" 
d="M35.5 -360c-12.333 10 -18.499 20.334 -18.499 31.001c0 6.66699 4 15.667 12 27c82 94.667 146.5 212.667 193.5 354s70.5 293.333 70.5 456c0 159.333 -22.667 308.833 -68 448.5s-108 257.167 -188 352.5c-10 12 -15 23.667 -15 35c0 10 5 20.833 15 32.5
s21.333 17.5 34 17.5c13.333 0 26.666 -6.66699 39.999 -20c65.333 -60.667 122.5 -135.5 171.5 -224.5s87 -188.333 114 -298s40.5 -224.167 40.5 -343.5c0 -118.667 -13.5 -232.834 -40.5 -342.501s-65 -209.167 -114 -298.5s-106.167 -164.333 -171.5 -225
c-12 -11.333 -24.667 -17 -38 -17c-12.667 0 -25.167 5 -37.5 15z" />
    <glyph glyph-name="asterisk" unicode="*" horiz-adv-x="664" 
d="M139 748.5c-8.66699 7.66699 -13 15.167 -13 22.5c0 8 3 16 9 24l126 176l-174 56c-16 5.33301 -24 14.333 -24 27s3 23 9 31s13.333 12 22 12c7.33301 0 13 -0.666992 17 -2l175 -56v186c0 12.667 2.83301 21.834 8.5 27.501s14.834 8.5 27.501 8.5
s21.834 -2.83301 27.501 -8.5s8.5 -14.834 8.5 -27.501v-186l176 56c3.33301 1.33301 8.33301 2 15 2c8 0 15.5 -3.66699 22.5 -11s10.5 -17.333 10.5 -30c0 -14 -8.66699 -23.667 -26 -29l-175 -56l127 -176c6 -8.66699 9 -16.667 9 -24s-4.33301 -14.833 -13 -22.5
s-17.334 -11.5 -26.001 -11.5c-10 0 -18.667 5 -26 15l-130 180l-130 -180c-8 -10 -17 -15 -27 -15c-8.66699 0 -17.334 3.83301 -26.001 11.5z" />
    <glyph glyph-name="plus" unicode="+" horiz-adv-x="996" 
d="M452.5 5c-8.33301 5.33301 -12.499 14.334 -12.499 27.001v318h-319c-12.667 0 -21.834 3.33301 -27.501 10s-8.5 19 -8.5 37v12c0 19.333 3 34.166 9 44.499s15 15.5 27 15.5h319v319c0 12 4.16699 21 12.5 27s21.833 9 40.5 9h12c35.333 0 53 -12 53 -36v-319h317
c12 0 21 -4.16699 27 -12.5s9 -21.833 9 -40.5v-12c0 -36 -12 -54 -36 -54h-317v-318c0 -12.667 -4.16699 -21.667 -12.5 -27s-21.833 -8 -40.5 -8h-12c-18.667 0 -32.167 2.66699 -40.5 8z" />
    <glyph glyph-name="comma" unicode="," horiz-adv-x="353" 
d="M37.5 -200c-10.333 4 -15.5 11 -15.5 21c0 4.66699 2.16699 11.834 6.5 21.501s7.16602 16.5 8.49902 20.5c20.667 40 36 81.833 46 125.5s15 92.5 15 146.5c0 17.333 6 31.166 18 41.499s29.667 15.5 53 15.5h17c22 0 39.167 -4.5 51.5 -13.5s18.5 -20.833 18.5 -35.5
c0 -66 -10.667 -125.667 -32 -179s-46.5 -95 -75.5 -125s-54.167 -45 -75.5 -45c-13.333 0 -25.166 2 -35.499 6z" />
    <glyph glyph-name="hyphen" unicode="-" horiz-adv-x="570" 
d="M86.5 421.5c-5.66699 8.33301 -8.5 21.833 -8.5 40.5v19c0 18 2.83301 31.333 8.5 40s14.834 13 27.501 13h336c12.667 0 21.834 -4.33301 27.501 -13s8.5 -22 8.5 -40v-19c0 -18.667 -2.83301 -32.167 -8.5 -40.5s-14.834 -12.5 -27.501 -12.5h-336
c-12.667 0 -21.834 4.16699 -27.501 12.5z" />
    <glyph glyph-name="period" unicode="." horiz-adv-x="353" 
d="M108 6.5c-11.333 6.33301 -17 16.166 -17 29.499v117c0 26 23.667 39 71 39h30c47.333 0 71 -13 71 -39v-117c0 -13.333 -5.66699 -23.166 -17 -29.499s-29.333 -9.5 -54 -9.5h-30c-24.667 0 -42.667 3.16699 -54 9.5z" />
    <glyph glyph-name="slash" unicode="/" horiz-adv-x="658" 
d="M-6 -125.5c-8 6.33301 -12 14.833 -12 25.5s1.66699 19.667 5 27l552 1282c12 27.333 32.667 41 62 41h8c27.333 0 41 -11.667 41 -35c0 -11.333 -1.66699 -20.333 -5 -27l-551 -1282c-6 -14.667 -13.5 -25.167 -22.5 -31.5s-20.833 -9.5 -35.5 -9.5h-7
c-15.333 0 -27 3.16699 -35 9.5z" />
    <glyph glyph-name="zero" unicode="0" horiz-adv-x="952" 
d="M270 58c-60.667 45.333 -109.167 115.333 -145.5 210s-54.5 213 -54.5 355c0 141.333 18.167 259.333 54.5 354s84.833 164.834 145.5 210.501s128.334 68.5 203.001 68.5s142.834 -22.833 204.501 -68.5s110.834 -115.834 147.501 -210.501s55 -212.667 55 -354
c0 -142 -18.333 -260.333 -55 -355s-85.834 -164.667 -147.501 -210s-129.834 -68 -204.501 -68s-142.334 22.667 -203.001 68zM599.5 169c38.333 34 69.5 88.6689 93.5 164.002s36 172 36 290c0 117.333 -12 213.666 -36 288.999s-55.167 130.166 -93.5 164.499
s-80.5 51.5 -126.5 51.5c-45.333 0 -87.166 -17 -125.499 -51s-69.166 -88.833 -92.499 -164.5s-35 -172.167 -35 -289.5c0 -118 11.667 -214.667 35 -290s54.166 -130 92.499 -164s80.166 -51 125.499 -51c46 0 88.167 17 126.5 51z" />
    <glyph glyph-name="one" unicode="1" horiz-adv-x="952" 
d="M85 13c-5.33301 8.66699 -8 22 -8 40v22c0 18.667 2.66699 32.167 8 40.5s14.333 12.5 27 12.5h309v959l-314 -54c-11.333 0 -20.166 10.167 -26.499 30.5s-9.5 40.5 -9.5 60.5c0 9.33301 2.66699 16.5 8 21.5s13.666 8.83301 24.999 11.5l411 92
c14 0 26.833 -3.83301 38.5 -11.5s17.5 -16.5 17.5 -26.5v-1083h263c24 0 36 -17.667 36 -53v-22c0 -35.333 -12 -53 -36 -53h-722c-12.667 -0 -21.667 4.33301 -27 13z" />
    <glyph glyph-name="two" unicode="2" horiz-adv-x="952" 
d="M101 25c-6.66699 16.667 -9.99805 34.3359 -9.99805 53.0029c0 16.667 2.33301 27 7 31l458 575c37.333 48.667 64.5 87.167 81.5 115.5s27.833 52.166 32.5 71.499s7 43 7 71c0 57.333 -19.833 102.666 -59.5 135.999s-93.834 50 -162.501 50
c-49.333 0 -91.333 -6.66699 -126 -20s-68 -30.333 -100 -51c-20 -13.333 -33.333 -20 -40 -20c-6 0 -13.667 5.5 -23 16.5s-17.5 23.667 -24.5 38s-10.5 25.833 -10.5 34.5c0 23.333 18.333 44.833 55 64.5s80.667 35.5 132 47.5s96 18 134 18
c76.667 0 143.5 -12.333 200.5 -37s101 -59.667 132 -105s46.5 -99 46.5 -161c0 -58.667 -9 -110.167 -27 -154.5s-51.833 -99.333 -101.5 -165s-142.834 -181.834 -279.501 -348.501l-130 -159h512c12.667 0 21.834 -4 27.501 -12s8.5 -21.667 8.5 -41v-20
c0 -18 -2.83301 -31.333 -8.5 -40s-14.834 -13 -27.501 -13h-679c-10 -0 -18.333 8.33301 -25 25z" />
    <glyph glyph-name="three" unicode="3" horiz-adv-x="952" 
d="M256 5.5c-54.667 10.333 -97.667 23.3301 -129 38.9971s-47 31.167 -47 46.5c0 10.667 3.83301 23 11.5 37s16.5 26 26.5 36s18.333 15 25 15c6 0 22 -4.66699 48 -14c37.333 -14 73.5 -25.333 108.5 -34s76.167 -13 123.5 -13c40.667 0 80.334 7.5 119.001 22.5
s71.167 40.833 97.5 77.5s39.5 85 39.5 145c0 86 -22.833 146.5 -68.5 181.5s-111.5 52.5 -197.5 52.5h-59c-12.667 0 -21.667 4.33301 -27 13s-8 22 -8 40v20c0 19.333 2.66699 33.166 8 41.499s14.333 12.5 27 12.5h52c56.667 0 102.667 12.667 138 38
s60.5 55.833 75.5 91.5s22.5 70.167 22.5 103.5c0 26.667 -6.16699 52.834 -18.5 78.501s-34.333 47.5 -66 65.5s-74.167 27 -127.5 27c-48.667 0 -89.334 -4.33301 -122.001 -13s-64.334 -20 -95.001 -34c-2 -0.666992 -7.66699 -3 -17 -7s-16.666 -6 -21.999 -6
c-6 0 -13.667 5.83301 -23 17.5s-17.5 25 -24.5 40s-10.5 26.833 -10.5 35.5c0 16.667 18.167 32.334 54.5 47.001s79.833 26.334 130.5 35.001s95 13 133 13c71.333 0 134 -11.833 188 -35.5s96 -59.167 126 -106.5s45 -105.333 45 -174c0 -58 -17.5 -108.167 -52.5 -150.5
s-78.5 -73.5 -130.5 -93.5v-8c38 -10 74 -29.167 108 -57.5s61.833 -65.5 83.5 -111.5s32.5 -98.667 32.5 -158c0 -86 -19.833 -156.667 -59.5 -212s-89.667 -95.666 -150 -120.999s-122.833 -38 -187.5 -38c-66 0 -126.333 5.16699 -181 15.5z" />
    <glyph glyph-name="four" unicode="4" horiz-adv-x="952" 
d="M628.5 6.5c-8.33301 6.33301 -12.5 16.168 -12.5 29.501v261h-541c-9.33301 0 -18.833 10.667 -28.5 32s-14.5 40.666 -14.5 57.999c0 11.333 1.33301 18.333 4 21l585 815c6 8 14.5 14.333 25.5 19s22.5 7 34.5 7h29c35.333 0 53 -13.333 53 -40v-784h119
c24 0 36 -17.667 36 -53v-22c0 -35.333 -12 -53 -36 -53h-119v-261c0 -26 -17.667 -39 -53 -39h-41c-18.667 0 -32.167 3.16699 -40.5 9.5zM616 425.002v565l-7 4l-401 -569h408z" />
    <glyph glyph-name="five" unicode="5" horiz-adv-x="952" 
d="M246.5 6.5c-51 11 -90.834 24.834 -119.501 41.501s-43 33 -43 49c0 10.667 3.66699 23 11 37s16 26.167 26 36.5s18.333 15.5 25 15.5s22 -5.33301 46 -16c34.667 -15.333 68.834 -27.833 102.501 -37.5s73.5 -14.5 119.5 -14.5c49.333 0 95 9.83301 137 29.5
s75.667 49.167 101 88.5s38 87 38 143c0 79.333 -27.333 139.833 -82 181.5s-134 62.5 -238 62.5h-151c-19.333 0 -32.5 4 -39.5 12s-10.5 21.667 -10.5 41l30 515c0.666992 18.667 5.66699 32.167 15 40.5s23.333 12.5 42 12.5h473c12.667 0 21.667 -4.16699 27 -12.5
s8 -21.833 8 -40.5v-21c0 -18.667 -2.66699 -32.334 -8 -41.001s-14.333 -13 -27 -13h-386l-23 -365h93c71.333 0 139.5 -11.833 204.5 -35.5s118.833 -63.167 161.5 -118.5s64 -128 64 -218c0 -96.667 -20.5 -174 -61.5 -232s-93.333 -98.667 -157 -122
s-133.167 -35 -208.5 -35c-62 0 -118.5 5.5 -169.5 16.5z" />
    <glyph glyph-name="six" unicode="6" horiz-adv-x="952" 
d="M187 108c-64 78 -95.999 188.666 -95.999 331.999c0 156 37 295.167 111 417.5s158.167 218.166 252.5 287.499s165.833 104 214.5 104c11.333 0 21.333 -6 30 -18s15.5 -25.667 20.5 -41s7.5 -27.333 7.5 -36s-4.66699 -15 -14 -19
c-116.667 -48.667 -211.5 -113.834 -284.5 -195.501s-124.5 -174.167 -154.5 -277.5c68.667 38.667 148.667 58 240 58c63.333 0 120.666 -14.833 171.999 -44.5s92 -71.667 122 -126s45 -117.166 45 -188.499c0 -73.333 -16.833 -138.166 -50.5 -194.499
s-79.667 -99.666 -138 -129.999s-123.5 -45.5 -195.5 -45.5c-124 0 -218 39 -282 117zM582.001 144.999c34.667 17.333 63.499 43.667 86.499 79s34.5 78.666 34.5 129.999c0 55.333 -10.833 100.833 -32.5 136.5s-50.167 61.5 -85.5 77.5s-74 24 -116 24
c-76.667 0 -150.667 -20 -222 -60l-2 -21c-0.666992 -7.33301 -1.66699 -20.166 -3 -38.499s-2 -34.166 -2 -47.499c0 -112.667 22.833 -191.834 68.5 -237.501s102.167 -68.5 169.5 -68.5c34.667 0 69.334 8.66699 104.001 26z" />
    <glyph glyph-name="seven" unicode="7" horiz-adv-x="952" 
d="M190 3.5c-12 4.33301 -17.999 12.8311 -17.999 25.498c0 2 0.833008 5.16699 2.5 9.5l4.5 11.5l514 1066h-560c-12 0 -20.833 4.33301 -26.5 13s-8.5 22.334 -8.5 41.001v21c0 18.667 2.83301 32.167 8.5 40.5s14.5 12.5 26.5 12.5h703
c7.33301 0 15.166 -10.667 23.499 -32s12.5 -40.666 12.5 -57.999c0 -6 -1.33301 -12.333 -4 -19l-527 -1110c-4 -8.66699 -12.167 -15.5 -24.5 -20.5s-27.5 -7.5 -45.5 -7.5h-22c-27.333 0 -47 2.16699 -59 6.5z" />
    <glyph glyph-name="eight" unicode="8" horiz-adv-x="952" 
d="M278 30.5c-58 27 -103.666 68.167 -136.999 123.5s-50 124 -50 206c0 86.667 17.167 153.5 51.5 200.5s82.833 85.5 145.5 115.5c-44.667 26.667 -80.334 62.5 -107.001 107.5s-40 99.5 -40 163.5c0 65.333 14.833 121.333 44.5 168s70 81.834 121 105.501
s108.167 35.5 171.5 35.5s120.833 -11.833 172.5 -35.5s92.667 -58.834 123 -105.501s45.5 -102.667 45.5 -168c0 -126.667 -57.333 -216.667 -172 -270c44 -19.333 81.333 -41.333 112 -66s55.167 -57.5 73.5 -98.5s27.5 -91.833 27.5 -152.5
c0 -82 -16.833 -150.667 -50.5 -206s-79.5 -96.5 -137.5 -123.5s-123.667 -40.5 -197 -40.5s-139 13.5 -197 40.5zM629.001 820.5c27.333 35.667 41.002 77.833 41.002 126.5c0 60 -18 105.167 -54 135.5s-82 45.5 -138 45.5c-55.333 0 -100.5 -15 -135.5 -45
s-52.5 -75.333 -52.5 -136c0 -44.667 9.83301 -80.834 29.5 -108.501s44.667 -49.167 75 -64.5s71.166 -31.666 122.499 -48.999c47.333 28 84.666 59.833 111.999 95.5zM593.003 145.499c35.333 18.333 63.334 45.668 84.001 82.001s31 80.5 31 132.5
c0 48.667 -10.833 88.167 -32.5 118.5s-48.5 53.666 -80.5 69.999s-75.667 34.166 -131 53.499l-56 21c-51.333 -30 -91.5 -65.5 -120.5 -106.5s-43.5 -93.167 -43.5 -156.5c0 -52 10.167 -96.167 30.5 -132.5s48 -63.666 83 -81.999s74.167 -27.5 117.5 -27.5
s82.666 9.16699 117.999 27.5z" />
    <glyph glyph-name="nine" unicode="9" horiz-adv-x="952" 
d="M253 15c-8.66699 12 -15.498 25.499 -20.498 40.499s-7.5 26.833 -7.5 35.5c0 9.33301 4.66699 16 14 20c116.667 48 211.5 112.667 284.5 194s124.167 174 153.5 278c-65.333 -38.667 -145.333 -58 -240 -58c-62.667 0 -119.834 14.833 -171.501 44.5
s-92.5 71.667 -122.5 126s-45 117.166 -45 188.499c0 73.333 16.833 138 50.5 194s79.667 99.333 138 130s123.5 46 195.5 46c124 0 218 -39 282 -117s96 -188.667 96 -332c0 -155.333 -36.833 -294.166 -110.5 -416.499s-157.834 -218.166 -252.501 -287.499
s-166 -104 -214 -104c-11.333 0 -21.333 6 -30 18zM604.002 670.499c38 11.667 71.334 25.8291 100.001 42.4961c4.66699 42 7 77.333 7 106c0 113.333 -22.833 192.833 -68.5 238.5s-102.167 68.5 -169.5 68.5c-34.667 0 -69.167 -8.66699 -103.5 -26
s-63 -43.666 -86 -78.999s-34.5 -78.666 -34.5 -129.999c0 -55.333 10.833 -100.666 32.5 -135.999s50.167 -61.166 85.5 -77.499s73.666 -24.5 114.999 -24.5c43.333 0 84 5.83301 122 17.5z" />
    <glyph glyph-name="colon" unicode=":" horiz-adv-x="353" 
d="M91 777v117c0 13.333 5.66699 23.166 17 29.499s29.333 9.5 54 9.5h30c24.667 0 42.667 -3.16699 54 -9.5s17 -16.166 17 -29.499v-117c0 -26 -23.667 -39 -71 -39h-30c-47.333 0 -71 13 -71 39zM108 6.5c-11.333 6.33301 -17 16.166 -17 29.499v117
c0 26 23.667 39 71 39h30c47.333 0 71 -13 71 -39v-117c0 -13.333 -5.66699 -23.166 -17 -29.499s-29.333 -9.5 -54 -9.5h-30c-24.667 0 -42.667 3.16699 -54 9.5z" />
    <glyph glyph-name="semicolon" unicode=";" horiz-adv-x="353" 
d="M91 777v117c0 13.333 5.66699 23.166 17 29.499s29.333 9.5 54 9.5h30c24.667 0 42.667 -3.16699 54 -9.5s17 -16.166 17 -29.499v-117c0 -26 -23.667 -39 -71 -39h-30c-47.333 0 -71 13 -71 39zM37.5 -200c-10.333 4 -15.5 11 -15.5 21
c0 4.66699 2.16699 11.834 6.5 21.501s7.16602 16.5 8.49902 20.5c20.667 40 36 81.833 46 125.5s15 92.5 15 146.5c0 17.333 6 31.166 18 41.499s29.667 15.5 53 15.5h17c22 0 39.167 -4.5 51.5 -13.5s18.5 -20.833 18.5 -35.5c0 -66 -10.667 -125.667 -32 -179
s-46.5 -95 -75.5 -125s-54.167 -45 -75.5 -45c-13.333 0 -25.166 2 -35.499 6z" />
    <glyph glyph-name="less" unicode="&#x3c;" horiz-adv-x="996" 
d="M848 18l-730 309.002c-30 13.333 -45 34 -45 62v31c0 28 15 48.667 45 62l730 310c10 3.33301 19 5 27 5c10.667 0 19.667 -4 27 -12s11 -19.333 11 -34v-26c0 -14.667 -3.66699 -27.334 -11 -38.001s-18 -18.334 -32 -23.001l-633 -258l633 -260
c28.667 -13.333 43 -34 43 -62v-25c0 -14.667 -3.66699 -26 -11 -34s-16.333 -12 -27 -12c-8 0 -17 1.66699 -27 5z" />
    <glyph glyph-name="equal" unicode="=" horiz-adv-x="996" 
d="M99 496.5c-9.33301 9.66699 -14.001 22.832 -14.001 39.499v12c0 17.333 4.66699 30.5 14 39.5s22.333 13.5 39 13.5h719c36 0 54 -17.667 54 -53v-12c0 -17.333 -4.66699 -30.666 -14 -39.999s-22.666 -14 -39.999 -14h-719c-16.667 0 -29.667 4.83301 -39 14.5z
M98.999 204.998c-9.33301 9.33301 -14 22.333 -14 39v14c0 17.333 4.66699 30.666 14 39.999s22.333 14 39 14h719c17.333 0 30.666 -4.66699 39.999 -14s14 -22.666 14 -39.999v-14c0 -17.333 -4.66699 -30.5 -14 -39.5s-22.666 -13.5 -39.999 -13.5h-719
c-16.667 0 -29.667 4.66699 -39 14z" />
    <glyph glyph-name="greater" unicode="&#x3e;" horiz-adv-x="996" 
d="M92.5 22.5c-7 8.33301 -10.5 20.167 -10.5 35.5v24c0 28 14.333 49 43 63l633 259l-633 258c-28.667 10 -43 30.667 -43 62v25c0 14 3.5 25.167 10.5 33.5s15.833 12.5 26.5 12.5c8 0 17 -1.66699 27 -5l731 -309c29.333 -13.333 44 -34.333 44 -63v-31
c0 -28 -14.667 -48.333 -44 -61l-731 -309c-10.667 -4.66699 -19.667 -7 -27 -7c-10.667 0 -19.5 4.16699 -26.5 12.5z" />
    <glyph glyph-name="question" unicode="?" horiz-adv-x="792" 
d="M265 401c0 40 13.3311 84.8291 39.998 134.496s64.334 98.834 113.001 147.501c40.667 40.667 71.667 73 93 97s39.333 49.5 54 76.5s22 54.5 22 82.5c0 123.333 -74.667 185 -224 185c-33.333 0 -63.666 -4.16699 -90.999 -12.5s-56.333 -19.5 -87 -33.5
c-21.333 -10 -35.333 -15 -42 -15c-6 0 -13.5 5.83301 -22.5 17.5s-17.167 24.834 -24.5 39.501s-11 26 -11 34c0 19.333 16 36.833 48 52.5s71.833 27.834 119.5 36.501s93.834 13 138.501 13c76 0 141.667 -13.5 197 -40.5s97.166 -63.333 125.499 -109
s42.5 -95.5 42.5 -149.5c0 -40 -8.33301 -77.667 -25 -113s-37.167 -67.166 -61.5 -95.499s-56.833 -62.833 -97.5 -103.5c-34.667 -34 -62.5 -62.833 -83.5 -86.5s-39.333 -49.5 -55 -77.5s-25.5 -57 -29.5 -87c-1.33301 -11.333 -6.5 -19.833 -15.5 -25.5
s-23.5 -8.5 -43.5 -8.5h-26c-36 0 -54 13.667 -54 41zM258.998 6.49609c-11.333 6.33301 -17.001 16.166 -17.001 29.499v117c0 26 24 39 72 39h29c47.333 0 71 -13 71 -39v-117c0 -13.333 -5.66699 -23.166 -17 -29.499s-29.333 -9.5 -54 -9.5h-29
c-25.333 0 -43.666 3.16699 -54.999 9.5z" />
    <glyph glyph-name="at" unicode="@" horiz-adv-x="1732" 
d="M1260 1182c89.333 -48 158.497 -115.664 207.497 -202.997s73.5 -188.333 73.5 -303c0 -107.333 -15.833 -205 -47.5 -293s-75.667 -157.667 -132 -209s-120.5 -77 -192.5 -77c-36.667 0 -68.167 6.66699 -94.5 20s-46.5 31.166 -60.5 53.499s-21 46.833 -21 73.5v12
c-30.667 -54.667 -66.5 -94.834 -107.5 -120.501s-85.5 -38.5 -133.5 -38.5c-40 0 -79.333 9.66699 -118 29s-71.5 53 -98.5 101s-40.5 112.333 -40.5 193c0 92.667 15.5 175.167 46.5 247.5s74.833 128.833 131.5 169.5s122.334 61 197.001 61
c42.667 0 80.5 -8.5 113.5 -25.5s60.833 -36.5 83.5 -58.5l10 28c6.66699 19.333 13 32.5 19 39.5s17 10.5 33 10.5h11c14 0 24 -3 30 -9s9 -15.333 9 -28l-33.5 -325c-16.333 -159.333 -24.5 -247.666 -24.5 -264.999c0 -49.333 23.333 -74 70 -74
c43.333 0 84.5 22.5 123.5 67.5s70.5 104.833 94.5 179.5s36 154 36 238c0 98.667 -20.667 185.834 -62 261.501s-99.5 134.167 -174.5 175.5s-161.5 62 -259.5 62c-129.333 0 -247.666 -33.333 -354.999 -100s-192.166 -157.5 -254.499 -272.5s-93.5 -242.167 -93.5 -381.5
c0 -111.333 20.333 -209.833 61 -295.5s97.5 -152.334 170.5 -200.001s156.833 -71.5 251.5 -71.5c50.667 0 92.5 3.66699 125.5 11s65.167 16.666 96.5 27.999c3.33301 1.33301 10.833 3.83301 22.5 7.5s21.5 5.5 29.5 5.5c16 0 24 -13.667 24 -41
c0 -21.333 -17.333 -38.833 -52 -52.5s-75.167 -23.334 -121.5 -29.001s-87.833 -8.5 -124.5 -8.5c-114 0 -214.833 27.167 -302.5 81.5s-155.667 130.333 -204 228s-72.5 209.834 -72.5 336.501c0 153.333 35.333 293.666 106 420.999s167 227.833 289 301.5
s256.667 110.5 404 110.5c118 0 221.667 -24 311 -72zM1014 496.003c12 128 22.001 204.999 30.001 230.999c-48.667 40.667 -103.334 61 -164.001 61c-93.333 0 -159.333 -33.667 -198 -101s-58 -153.666 -58 -258.999c0 -79.333 14.333 -136.333 43 -171
s66.667 -52 114 -52c40 0 80.833 19.333 122.5 58s77.167 102.667 106.5 192z" />
    <glyph glyph-name="A" unicode="A" horiz-adv-x="1090" 
d="M40 4.5c-12 5 -18.002 12.5 -18.002 22.5c0 4.66699 1.66699 12.667 5 24l421 1169c6.66699 19.333 30.334 29 71.001 29h52c40.667 0 64.334 -9.66699 71.001 -29l421 -1170c3.33301 -7.33301 5 -15 5 -23c0 -20 -25 -30 -75 -30h-15c-41.333 0 -65.333 9.33301 -72 28
l-104 292h-522l-102 -292c-6 -18.667 -29.667 -28 -71 -28h-9c-26.667 0 -46 2.5 -58 7.5zM753.998 452l-186.001 529c-5.33301 14.667 -9.66602 31.334 -12.999 50.001s-6.33301 36.667 -9 54h-4c-8 -44.667 -17 -79.334 -27 -104.001l-186 -529h425z" />
    <glyph glyph-name="B" unicode="B" horiz-adv-x="1054" 
d="M185 13c-8.66699 8.66699 -13 21.999 -13 39.999v1138c0 18.667 4.33301 32.167 13 40.5s22.334 12.5 41.001 12.5h318c86.667 0 159.667 -13 219 -39s104 -62.667 134 -110s45 -102.333 45 -165c0 -38.667 -9 -77.167 -27 -115.5s-42 -71.333 -72 -99
s-62 -46.167 -96 -55.5v-7c0 4.66699 23 -4.16602 69 -26.499s87.5 -55.333 124.5 -99s55.5 -100.167 55.5 -169.5c0 -238.667 -154.667 -358 -464 -358h-306c-18.667 -0 -32.334 4.33301 -41.001 13zM536 707.999c46.667 0 88.667 9.16602 126 27.499s66.5 43.333 87.5 75
s31.5 66.834 31.5 105.501c0 66.667 -20 115.5 -60 146.5s-104 46.5 -192 46.5h-200v-401h207zM589 134.998c78 0 138.334 20.5 181.001 61.5s64 97.167 64 168.5c0 66 -23.333 117.167 -70 153.5s-115.334 54.5 -206.001 54.5h-229v-438h260z" />
    <glyph glyph-name="C" unicode="C" horiz-adv-x="1101" 
d="M242 144c-93.333 102.667 -140.004 262.335 -140.004 479.002c0 422 191.667 633 575 633c56 0 110.333 -5.83301 163 -17.5s95.334 -26.167 128.001 -43.5s49 -34 49 -50c0 -10 -3.5 -23.333 -10.5 -40s-15.167 -31.334 -24.5 -44.001s-17.666 -19 -24.999 -19
c-3.33301 0 -12.666 4.33301 -27.999 13c-34.667 18.667 -71 34.334 -109 47.001s-84.333 19 -139 19c-143.333 0 -248.833 -39.833 -316.5 -119.5s-101.5 -206.5 -101.5 -380.5c0 -170 33.5 -295.167 100.5 -375.5s170.5 -120.5 310.5 -120.5c58.667 0 109 7 151 21
s82.333 31.333 121 52c18.667 10 30 15 34 15c7.33301 0 15.833 -6.33301 25.5 -19s18.167 -26.834 25.5 -42.501s11 -26.834 11 -33.501c0 -16.667 -16.833 -35.167 -50.5 -55.5s-78.667 -37.5 -135 -51.5s-117.166 -21 -182.499 -21c-194.667 0 -338.667 51.333 -432 154z
" />
    <glyph glyph-name="D" unicode="D" horiz-adv-x="1236" 
d="M185 13c-8.66699 8.66699 -13 22.001 -13 40.001v1138c0 18.667 4.33301 32.167 13 40.5s22.334 12.5 41.001 12.5h359c166.667 0 300 -49.333 400 -148s150 -256.334 150 -473.001c0 -218 -50 -376.333 -150 -475s-233.333 -148 -400 -148h-359
c-18.667 -0 -32.334 4.33301 -41.001 13zM573 135.001c120 0 216.667 39.168 290 117.501s110 201.833 110 370.5c0 113.333 -17.333 206.166 -52 278.499s-82 125 -142 158s-128.667 49.5 -206 49.5h-244v-974h244z" />
    <glyph glyph-name="E" unicode="E" horiz-adv-x="971" 
d="M185 13c-8.66699 8.66699 -13 22.001 -13 40.001v1138c0 18.667 4.33301 32.167 13 40.5s22.334 12.5 41.001 12.5h620c12.667 0 21.834 -4 27.501 -12s8.5 -21.667 8.5 -41v-29c0 -18 -2.83301 -31.333 -8.5 -40s-14.834 -13 -27.501 -13h-517v-405h464
c12.667 0 21.834 -4.33301 27.501 -13s8.5 -22.334 8.5 -41.001v-27c0 -18.667 -2.83301 -32.167 -8.5 -40.5s-14.834 -12.5 -27.501 -12.5h-464v-435h519c12.667 0 21.834 -4.16699 27.501 -12.5s8.5 -21.833 8.5 -40.5v-29c0 -18 -2.83301 -31.333 -8.5 -40
s-14.834 -13 -27.501 -13h-622c-18.667 -0 -32.334 4.33301 -41.001 13z" />
    <glyph glyph-name="F" unicode="F" horiz-adv-x="894" 
d="M172 36l-0.000976562 1155c0 18.667 4.33301 32.167 13 40.5s22.334 12.5 41.001 12.5h560c12.667 0 21.667 -4.16699 27 -12.5s8 -21.833 8 -40.5v-29c0 -18 -2.66699 -31.333 -8 -40s-14.333 -13 -27 -13h-457v-405h425c12 0 21 -4.33301 27 -13s9 -22.334 9 -41.001
v-27c0 -18.667 -3 -32.167 -9 -40.5s-15 -12.5 -27 -12.5h-425v-534c0 -26 -23.667 -39 -71 -39h-14c-48 0 -72 13 -72 39z" />
    <glyph glyph-name="G" unicode="G" horiz-adv-x="1195" 
d="M242 144.5c-93.333 103 -140.007 258.833 -140.007 467.5c0 429.333 191.667 644 575 644c56 0 110.333 -5.83301 163 -17.5s95.334 -26.167 128.001 -43.5s49 -34 49 -50c0 -10 -3.5 -23.333 -10.5 -40s-15.167 -31.334 -24.5 -44.001s-17.666 -19 -24.999 -19
c-3.33301 0 -12.666 4.33301 -27.999 13c-34.667 18.667 -71 34.334 -109 47.001s-84.333 19 -139 19c-150.667 0 -258 -41.5 -322 -124.5s-96 -205.833 -96 -368.5c0 -153.333 29.833 -275.5 89.5 -366.5s162.834 -136.5 309.501 -136.5
c44.667 0 87.834 2.16699 129.501 6.5s74.834 9.83301 99.501 16.5v359h-208c-12.667 0 -21.834 4.16699 -27.501 12.5s-8.5 21.833 -8.5 40.5v29c0 18.667 2.83301 32.167 8.5 40.5s14.834 12.5 27.501 12.5h311c18.667 0 32.334 -4.16699 41.001 -12.5
s13 -21.833 13 -40.5v-471c0 -46 -37.333 -78.833 -112 -98.5s-170 -29.5 -286 -29.5c-178.667 0 -314.667 51.5 -408 154.5z" />
    <glyph glyph-name="H" unicode="H" horiz-adv-x="1303" 
d="M172 36v1173c0 26.667 24 40 72 40h14c47.333 0 71 -13.333 71 -40v-503h644v503c0 26.667 23.667 40 71 40h14c47.333 0 71 -13.333 71 -40v-1173c0 -13.333 -5.66699 -23.166 -17 -29.499s-29.333 -9.5 -54 -9.5h-14c-24.667 0 -42.667 3.16699 -54 9.5
s-17 16.166 -17 29.499v535h-644v-535c0 -26 -23.667 -39 -71 -39h-14c-48 0 -72 13 -72 39z" />
    <glyph glyph-name="I" unicode="I" horiz-adv-x="502" 
d="M172 36v1173c0 26.667 24 40 72 40h14c47.333 0 71 -13.333 71 -40v-1173c0 -26 -23.667 -39 -71 -39h-14c-48 0 -72 13 -72 39z" />
    <glyph glyph-name="J" unicode="J" horiz-adv-x="715" 
d="M65.5 2c-37 8 -55.5 22.665 -55.5 43.998c0 4.66699 1.66699 15.334 5 32.001s7.83301 32 13.5 46s12.834 21 21.501 21c1.33301 0 8.66602 -1.33301 21.999 -4c17.333 -4 32.5 -7.16699 45.5 -9.5s27.833 -3.5 44.5 -3.5c88 0 151.5 17.333 190.5 52
s58.5 90.334 58.5 167.001v862c0 26.667 23.667 40 71 40h14c48 0 72 -13.333 72 -40v-844c0 -118 -30.167 -210 -90.5 -276s-155.833 -99 -286.5 -99c-46.667 0 -88.5 4 -125.5 12z" />
    <glyph glyph-name="K" unicode="K" horiz-adv-x="1024" 
d="M172 36l0.000976562 1173c0 26.667 24 40 72 40h14c47.333 0 71 -13.333 71 -40v-544h7l437 558c8 8.66699 20.833 15.167 38.5 19.5s37.167 6.5 58.5 6.5h17c20 0 35.333 -2.33301 46 -7s16 -10.334 16 -17.001c0 -10.667 -5.66699 -22.667 -17 -36l-444 -554l538 -585
c10.667 -11.333 16 -20.666 16 -27.999c0 -10 -5.83301 -16.667 -17.5 -20s-31.834 -5 -60.501 -5h-22c-25.333 0 -45.5 1.33301 -60.5 4s-27.167 9 -36.5 19l-509 572h-7v-556c0 -26 -23.667 -39 -71 -39h-14c-48 0 -72 13 -72 39z" />
    <glyph glyph-name="L" unicode="L" horiz-adv-x="860" 
d="M185 13c-8.66699 8.66699 -12.999 22 -12.999 40v1156c0 26.667 24 40 72 40h14c47.333 0 71 -13.333 71 -40v-1074h489c12.667 0 21.667 -4.16699 27 -12.5s8 -21.833 8 -40.5v-29c0 -18 -2.66699 -31.333 -8 -40s-14.333 -13 -27 -13h-592
c-18.667 -0 -32.334 4.33301 -41.001 13z" />
    <glyph glyph-name="M" unicode="M" horiz-adv-x="1498" 
d="M177 6.5c-11.333 6.33301 -17.002 16.168 -17.002 29.501v1173c0 26.667 24 40 72 40h63c39.333 0 64.333 -11 75 -33l336 -583l46 -112l46 102l337 593c11.333 22 36 33 74 33h59c47.333 0 71 -13.333 71 -40v-1173c0 -26 -23.667 -39 -71 -39h-12
c-25.333 0 -43.666 3.16699 -54.999 9.5s-17 16.166 -17 29.499v957l-3 -8l-354 -615c-4.66699 -8 -10 -13.833 -16 -17.5s-13.667 -5.5 -23 -5.5h-71c-18 0 -31.333 7.66699 -40 23l-362 633v-967c0 -26 -23.667 -39 -71 -39h-12c-25.333 0 -43.666 3.16699 -54.999 9.5z
" />
    <glyph glyph-name="N" unicode="N" horiz-adv-x="1278" 
d="M177 6.5c-11.333 6.33301 -17.001 16.166 -17.001 29.499v1173c0 26.667 24 40 72 40h37c18.667 0 33.5 -2.66699 44.5 -8s20.833 -14 29.5 -26l568 -857l53 -100v951c0 26.667 23.333 40 70 40h14c46.667 0 70 -13.333 70 -40v-1173
c0 -13.333 -5.66699 -23.166 -17 -29.499s-29 -9.5 -53 -9.5h-36c-16.667 0 -30 2 -40 6s-17.667 10.333 -23 19l-586 884l-48 92v-962c0 -26 -23.667 -39 -71 -39h-12c-25.333 0 -43.666 3.16699 -54.999 9.5z" />
    <glyph glyph-name="O" unicode="O" horiz-adv-x="1300" 
d="M242 152c-93.333 108 -140 266 -140 474c0 207.333 46.5 364.166 139.5 470.499s228.833 159.5 407.5 159.5c179.333 0 315.666 -53.167 408.999 -159.5s140 -263.166 140 -470.499c0 -208 -46.667 -366 -140 -474s-229.666 -162 -408.999 -162
c-178 0 -313.667 54 -407 162zM937 253.5c66.667 85.667 100 209.832 100 372.499s-33.167 285.834 -99.5 369.501s-162.5 125.5 -288.5 125.5c-125.333 0 -221 -41.833 -287 -125.5s-99 -206.834 -99 -369.501c0 -163.333 33 -287.666 99 -372.999s161.667 -128 287 -128
s221.333 42.833 288 128.5z" />
    <glyph glyph-name="P" unicode="P" horiz-adv-x="1014" 
d="M168.5 6.5c-11 6.33301 -16.5 16.166 -16.5 29.499v1155c0 19.333 4.16699 33 12.5 41s21.833 12 40.5 12h360c104 0 196.167 -24.833 276.5 -74.5s120.5 -140.834 120.5 -273.501c0 -98.667 -23 -175.167 -69 -229.5s-97.667 -90.666 -155 -108.999
s-109 -27.5 -155 -27.5h-276v-494c0 -13.333 -5.66699 -23.166 -17 -29.499s-29 -9.5 -53 -9.5h-15c-24.667 0 -42.5 3.16699 -53.5 9.5zM585 665c30 0 61.333 6.50195 94 19.502s61 36.667 85 71s36 81.166 36 140.499c0 79.333 -23.5 134.666 -70.5 165.999
s-103.5 47 -169.5 47h-253v-444h278z" />
    <glyph glyph-name="Q" unicode="Q" horiz-adv-x="1300" 
d="M863 -158.5l-324.002 127.501c-50.667 21.333 -84.667 35 -102 41c-112 45.333 -195.833 118.166 -251.5 218.499s-83.5 229.833 -83.5 388.5c0 208.667 46.667 367.334 140 476.001s229 163 407 163c178.667 0 314.834 -54.5 408.501 -163.5s140.5 -267.5 140.5 -475.5
c0 -168 -30.5 -303.5 -91.5 -406.5s-149.5 -170.167 -265.5 -201.5v-7l350 -111c16.667 -4.66699 25 -13.334 25 -26.001c0 -8.66699 -3.66699 -23.667 -11 -45s-16.666 -40.5 -27.999 -57.5s-23 -25.5 -35 -25.5c-8.66699 0 -101.667 34.833 -279 104.5zM935.998 247.501
c67.333 85.667 101 208.832 101 369.499c0 107.333 -15.167 198.666 -45.5 273.999s-74.5 132.5 -132.5 171.5s-128 58.5 -210 58.5c-81.333 0 -150.833 -19.5 -208.5 -58.5s-101.667 -96.167 -132 -171.5s-45.5 -166.666 -45.5 -273.999
c0 -161.333 33.5 -284.666 100.5 -369.999s162.167 -128 285.5 -128c124 0 219.667 42.833 287 128.5z" />
    <glyph glyph-name="R" unicode="R" horiz-adv-x="1085" 
d="M172 36v1155c0 18.667 4.33301 32.167 13 40.5s22.334 12.5 41.001 12.5h299c142 0 248.833 -25 320.5 -75s107.5 -129.667 107.5 -239c0 -74 -17.833 -136.167 -53.5 -186.5s-85.834 -88.166 -150.501 -113.499v-7c34.667 -12 63.167 -35.167 85.5 -69.5
s47.166 -85.166 74.499 -152.499l139 -351c3.33301 -12 5 -20.333 5 -25c0 -18.667 -25 -28 -75 -28h-18c-18 0 -33.5 2.5 -46.5 7.5s-21.167 11.833 -24.5 20.5l-135 349c-17.333 45.333 -37.666 80.666 -60.999 105.999s-51 43 -83 53s-72.333 15 -121 15h-160v-512
c0 -26 -23.667 -39 -71 -39h-14c-48 0 -72 13 -72 39zM563 682.999c42 0 80.5 10 115.5 30s62.667 46.833 83 80.5s30.5 69.5 30.5 107.5c0 70 -21.333 122.167 -64 156.5s-101.667 51.5 -177 51.5h-222v-426h234z" />
    <glyph glyph-name="S" unicode="S" horiz-adv-x="889" 
d="M251.5 11.5c-56.333 14.333 -101.334 31.6709 -135.001 52.0039s-50.5 38.833 -50.5 55.5c0 9.33301 3.83301 21.666 11.5 36.999s16.5 29 26.5 41s18 18 24 18c5.33301 0 17 -5.33301 35 -16c41.333 -21.333 82.333 -39 123 -53s90 -21 148 -21
c45.333 0 85.666 8.66699 120.999 26s62.833 41.833 82.5 73.5s29.5 68.167 29.5 109.5c0 44 -11.833 80.5 -35.5 109.5s-52.334 52 -86.001 69s-82.5 38.167 -146.5 63.5c-69.333 26.667 -124.166 51.5 -164.499 74.5s-74.666 56.5 -102.999 100.5s-42.5 102.333 -42.5 175
c0 63.333 16.333 120.166 49 170.499s79 89.5 139 117.5s129 42 207 42c35.333 0 75.666 -4.83301 120.999 -14.5s84.166 -22.834 116.499 -39.501s48.5 -35 48.5 -55c0 -8.66699 -3.5 -20.5 -10.5 -35.5s-15.167 -28.5 -24.5 -40.5s-16.666 -18 -21.999 -18
c-6 0 -18 5 -36 15c-30 16 -59.667 28.833 -89 38.5s-65 14.5 -107 14.5c-68.667 0 -124.167 -17.667 -166.5 -53s-63.5 -84.666 -63.5 -147.999c0 -38 9.33301 -69.333 28 -94s42.334 -44.334 71.001 -59.001s68.667 -31.667 120 -51
c3.33301 -0.666992 11 -3.33398 23 -8.00098c70.667 -27.333 128.5 -53.833 173.5 -79.5s83.333 -62.5 115 -110.5s47.5 -109.333 47.5 -184c0 -70 -16.167 -131 -48.5 -183s-78.333 -91.833 -138 -119.5s-129.167 -41.5 -208.5 -41.5
c-65.333 0 -126.166 7.16699 -182.499 21.5z" />
    <glyph glyph-name="T" unicode="T" horiz-adv-x="976" 
d="M430 6.5c-11.333 6.33301 -17 16.167 -17 29.5v1073h-342c-12.667 0 -21.667 4.33301 -27 13s-8 22 -8 40v29c0 18.667 2.66699 32.167 8 40.5s14.333 12.5 27 12.5h834c12.667 0 21.667 -4.16699 27 -12.5s8 -21.833 8 -40.5v-29c0 -18 -2.66699 -31.333 -8 -40
s-14.333 -13 -27 -13h-335v-1073c0 -26 -24 -39 -72 -39h-14c-24.667 0 -42.667 3.16699 -54 9.5z" />
    <glyph glyph-name="U" unicode="U" horiz-adv-x="1266" 
d="M369 38.5c-72.667 32.333 -127.667 79.167 -165 140.5s-56 134.666 -56 219.999v810c0 26.667 23.667 40 71 40h14c47.333 0 71 -13.333 71 -40v-816c0 -52 14.333 -98.333 43 -139s68 -72.334 118 -95.001s106 -34 168 -34c62.667 0 119 11.5 169 34.5
s89.167 54.833 117.5 95.5s42.5 86.667 42.5 138v816c0 26.667 23.667 40 71 40h15c46.667 0 70 -13.333 70 -40v-810c0 -85.333 -18.667 -158.666 -56 -219.999s-92.333 -108.166 -165 -140.499s-160.667 -48.5 -264 -48.5s-191.333 16.167 -264 48.5z" />
    <glyph glyph-name="V" unicode="V" horiz-adv-x="1097" 
d="M450 25l-407.001 1170c-4 8 -6 15.667 -6 23c0 9.33301 6.5 16.833 19.5 22.5s32.167 8.5 57.5 8.5h16c40.667 0 64.334 -9.66699 71.001 -29l329 -949l18 -93h5l20 95l328 947c7.33301 19.333 31.333 29 72 29h10c51.333 0 77 -10.333 77 -31c0 -6.66699 -2 -15 -6 -25
l-407 -1168c-6 -18.667 -29.667 -28 -71 -28h-55c-41.333 0 -65 9.33301 -71 28z" />
    <glyph glyph-name="W" unicode="W" horiz-adv-x="1568" 
d="M336 25l-304 1168c-0.666992 3.33301 -1.66699 7.66602 -3 12.999s-2 9.33301 -2 12c0 9.33301 6.33301 16.833 19 22.5s32 8.5 58 8.5h17c19.333 0 35.333 -2.33301 48 -7s20.334 -12 23.001 -22l226 -875c4 -17.333 12.667 -61.666 26 -132.999
c3.33301 -20.667 5.33301 -31.667 6 -33c14.667 61.333 29 118.333 43 171l215 868c4.66699 20.667 27.667 31 69 31h28c42 0 65.333 -10.333 70 -31l220 -875c6.66699 -26 13.167 -57 19.5 -93s10.166 -59.667 11.499 -71l43 169l215 872c4.66699 19.333 28 29 70 29h11
c50.667 0 76 -10.333 76 -31c0 -4.66699 -1.66699 -13 -5 -25l-307 -1168c-5.33301 -18.667 -29.333 -28 -72 -28h-72c-43.333 0 -67 9.33301 -71 28l-195 724l-36 231l-38 -231l-194 -724c-4 -18.667 -27.333 -28 -70 -28h-73c-44 0 -68 9.33301 -72 28z" />
    <glyph glyph-name="X" unicode="X" horiz-adv-x="1087" 
d="M55 4c-12.667 4.66699 -19 12.332 -19 22.999c0 8 4.66699 18.667 14 32l398 590l-356 537c-9.33301 14 -14 24.667 -14 32c0 20.667 27.333 31 82 31h26c37.333 0 62.333 -9 75 -27l285 -429l293 430c6 8.66699 16 15.167 30 19.5s29.667 6.5 47 6.5h10
c29.333 0 50.333 -2.5 63 -7.5s19 -12.833 19 -23.5c0 -4 -1.5 -8.83301 -4.5 -14.5l-9.5 -17.5l-356 -528l401 -599c9.33301 -13.333 14 -24 14 -32c0 -10 -6.33301 -17.5 -19 -22.5s-33.667 -7.5 -63 -7.5h-29c-20 0 -36 1.83301 -48 5.5s-21.333 10.834 -28 21.501
l-327 488l-331 -490c-10 -16.667 -35.667 -25 -77 -25h-13c-29.333 0 -50.333 2.33301 -63 7z" />
    <glyph glyph-name="Y" unicode="Y" horiz-adv-x="994" 
d="M418 36l-0.000976562 601.999l-372 548c-9.33301 12.667 -14 23.334 -14 32.001c0 20.667 27.333 31 82 31h19c20 0 36.167 -2 48.5 -6s21.833 -11 28.5 -21l292 -437l298 438c10.667 17.333 37.334 26 80.001 26h12c24.667 -1.33301 42.5 -4.5 53.5 -9.5
s16.5 -12.167 16.5 -21.5c0 -6 -5 -16.667 -15 -32l-372 -553v-597c0 -26 -24 -39 -72 -39h-14c-47.333 0 -71 13 -71 39z" />
    <glyph glyph-name="Z" unicode="Z" horiz-adv-x="1095" 
d="M82.5 33.5c-9.66699 22.333 -14.5 42.502 -14.5 60.502c0 9.33301 1.66699 16.666 5 21.999l729 993h-640c-12.667 0 -21.834 4.83301 -27.501 14.5s-8.5 25.167 -8.5 46.5v14c0 21.333 2.83301 36.666 8.5 45.999s14.834 14 27.501 14h814
c4 0 9.16699 -5.33301 15.5 -16s11.833 -23.334 16.5 -38.001s7 -28 7 -40c0 -8.66699 -1.66699 -15.667 -5 -21l-729 -994h695c12.667 0 21.834 -4.66699 27.501 -14s8.5 -24.666 8.5 -45.999v-14c0 -21.333 -2.83301 -36.833 -8.5 -46.5s-14.834 -14.5 -27.501 -14.5h-865
c-9.33301 0 -18.833 11.167 -28.5 33.5z" />
    <glyph glyph-name="bracketleft" unicode="[" horiz-adv-x="517" 
d="M172.5 -233c-8.33301 8.66699 -12.502 22.335 -12.502 41.002v1504c0 18.667 4.16699 32.167 12.5 40.5s21.833 12.5 40.5 12.5h215c13.333 0 22.666 -3.83301 27.999 -11.5s8 -20.834 8 -39.501v-9c0 -18.667 -2.66699 -31.834 -8 -39.501s-14.666 -11.5 -27.999 -11.5
h-136v-1389h136c12.667 0 21.834 -4 27.501 -12s8.5 -21.333 8.5 -40v-7c0 -18.667 -2.66699 -32 -8 -40s-14.666 -12 -27.999 -12h-215c-18.667 0 -32.167 4.33301 -40.5 13z" />
    <glyph glyph-name="backslash" unicode="\" horiz-adv-x="642" 
d="M546 -26.5c-8.66699 6.33301 -16.667 16.8311 -24 31.498l-507 1181c-4 7.33301 -6 16.333 -6 27s3.5 19.334 10.5 26.001s17.5 10 31.5 10h8c29.333 0 50 -13.667 62 -41l509 -1181c3.33301 -10 5 -19 5 -27c0 -11.333 -4 -20.166 -12 -26.499s-19.333 -9.5 -34 -9.5h-7
c-15.333 0 -27.333 3.16699 -36 9.5z" />
    <glyph glyph-name="bracketright" unicode="]" horiz-adv-x="517" 
d="M61.5 -234c-5.66699 8 -8.5 21.334 -8.5 40.001v7c0 18.667 2.83301 32 8.5 40s14.834 12 27.501 12h137v1389h-137c-12.667 0 -21.834 4 -27.501 12s-8.5 21 -8.5 39v9c0 18 2.83301 31 8.5 39s14.834 12 27.501 12h215c18.667 0 32.334 -4.16699 41.001 -12.5
s13 -21.833 13 -40.5v-1504c0 -18.667 -4.33301 -32.334 -13 -41.001s-22.334 -13 -41.001 -13h-215c-12.667 0 -21.834 4 -27.501 12z" />
    <glyph glyph-name="asciicircum" unicode="^" horiz-adv-x="800" 
d="M107 579.5c-8.66699 6.33301 -13.001 15.166 -13.001 26.499c0 6 2 14.333 6 25l222 550c5.33301 13.333 12.833 22.5 22.5 27.5s22.167 7.5 37.5 7.5h36c16 0 28.5 -2.5 37.5 -7.5s16.5 -14.167 22.5 -27.5l223 -550c3.33301 -8.66699 5 -17 5 -25
c0 -11.333 -4.16699 -20.166 -12.5 -26.499s-20.166 -9.5 -35.499 -9.5h-8c-31.333 0 -51.666 13.333 -60.999 40l-188 464l-191 -464c-6 -14 -13.833 -24.167 -23.5 -30.5s-21.834 -9.5 -36.501 -9.5h-7c-15.333 0 -27.333 3.16699 -36 9.5z" />
    <glyph glyph-name="underscore" unicode="_" horiz-adv-x="949" 
d="M-29 -237.5c-5.33301 5.66699 -8 14.834 -8 27.501v14c0 12.667 2.66699 21.834 8 27.501s14.333 8.5 27 8.5h954c12 0 20.667 -2.83301 26 -8.5s8 -14.834 8 -27.501v-14c0 -12.667 -2.66699 -21.834 -8 -27.501s-14 -8.5 -26 -8.5h-954
c-12.667 0 -21.667 2.83301 -27 8.5z" />
    <glyph glyph-name="grave" unicode="`" horiz-adv-x="570" 
d="M337.5 1049c-15.667 5.33301 -28.5 13 -38.5 23l-72 82c-43.333 49.333 -70.166 80.5 -80.499 93.5s-15.5 23.167 -15.5 30.5c0 9.33301 6.83301 15.666 20.5 18.999s35.5 5 65.5 5c28.667 0 51.667 -3.5 69 -10.5s31 -18.833 41 -35.5
c43.333 -75.333 71.333 -125.166 84 -149.499s19 -40.5 19 -48.5c0 -6 -3.16699 -10.333 -9.5 -13s-16.833 -4 -31.5 -4c-18.667 0 -35.834 2.66699 -51.501 8z" />
    <glyph glyph-name="a" unicode="a" horiz-adv-x="969" 
d="M171 57c-56 44.667 -84 110.995 -84 198.995c0 92.667 28.333 162.5 85 209.5s125.834 77.333 207.501 91s180.834 21.5 297.501 23.5v84c0 44.667 -15.167 80.5 -45.5 107.5s-80.166 40.5 -149.499 40.5c-52.667 0 -98.834 -6.16699 -138.501 -18.5
s-76.834 -27.166 -111.501 -44.499c-14.667 -7.33301 -23.667 -11 -27 -11c-8 0 -16.833 5.83301 -26.5 17.5s-18 24.834 -25 39.501s-10.5 25.334 -10.5 32.001c0 15.333 15.833 32 47.5 50s73.167 33 124.5 45s105 18 161 18c111.333 0 197.666 -24.333 258.999 -73
s92 -117 92 -205v-399c0 -77.333 3.5 -133.166 10.5 -167.499s10.5 -53.166 10.5 -56.499c0 -14.667 -11.167 -25.167 -33.5 -31.5s-43.166 -9.5 -62.499 -9.5c-16 0 -27.833 9 -35.5 27s-15.167 44 -22.5 78l-4 20c-36.667 -40.667 -79.834 -73 -129.501 -97
s-106.167 -36 -169.5 -36c-90.667 0 -164 22.333 -220 67zM549 150.995c41.333 21.333 84.001 51.668 128.001 91.001v210c-88 -0.666992 -160.333 -4.33398 -217 -11.001s-106.334 -23.5 -149.001 -50.5s-64 -68.833 -64 -125.5c0 -47.333 12.833 -83.5 38.5 -108.5
s63.5 -37.5 113.5 -37.5c58.667 0 108.667 10.667 150 32z" />
    <glyph glyph-name="b" unicode="b" horiz-adv-x="1012" 
d="M288 123c-5.33301 -36.667 -15 -71.666 -29 -104.999c-2.66699 -8 -7.83398 -13.5 -15.501 -16.5s-18.167 -4.5 -31.5 -4.5h-7c-18.667 0 -32.167 3.16699 -40.5 9.5s-12.5 16.166 -12.5 29.499v1262c0 26 23.333 39 70 39h8c46.667 0 70 -13 70 -39v-448
c38.667 29.333 78 51.666 118 66.999s85.667 23 137 23c70.667 0 133.334 -18.333 188.001 -55s97.167 -90.667 127.5 -162s45.5 -157 45.5 -257c0 -92 -14 -174.167 -42 -246.5s-68 -128.666 -120 -168.999s-113 -60.5 -183 -60.5c-104 0 -198.333 44.333 -283 133z
M702.5 212.501c37.667 62.333 56.5 150.832 56.5 265.499c0 106.667 -20 188 -60 244s-99.333 85 -178 87c-39.333 0 -78 -6.66699 -116 -20s-73 -33.333 -105 -60v-487c36.667 -39.333 76 -69.666 118 -90.999s83 -32 123 -32c70 0 123.833 31.167 161.5 93.5z" />
    <glyph glyph-name="c" unicode="c" horiz-adv-x="862" 
d="M200.5 103.5c-72.333 75.667 -108.498 197.503 -108.498 365.503c0 170 40.333 291 121 363s181 108 301 108c44.667 0 87.667 -3.83301 129 -11.5s74.666 -17.834 99.999 -30.501s38 -26 38 -40c0 -9.33301 -3.16699 -21.666 -9.5 -36.999s-14 -28.833 -23 -40.5
s-17.167 -17.5 -24.5 -17.5c-2 0 -5 0.833008 -9 2.5l-11 4.5c-60 28 -124.667 42 -194 42c-82 0 -145.333 -26.833 -190 -80.5s-67 -139.834 -67 -258.501c0 -84 9 -151.833 27 -203.5s47.167 -89.834 87.5 -114.501s94.166 -37 161.499 -37c74 0 140.667 15.333 200 46
c6 1.33301 10.5 2.83301 13.5 4.5s5.16699 2.5 6.5 2.5c7.33301 0 15.666 -5.66699 24.999 -17s17.5 -24.333 24.5 -39s10.5 -26.334 10.5 -35.001c0 -14 -12.667 -28 -38 -42s-59.5 -25.5 -102.5 -34.5s-89.167 -13.5 -138.5 -13.5
c-147.333 0 -257.166 37.833 -329.499 113.5z" />
    <glyph glyph-name="d" unicode="d" horiz-adv-x="1005" 
d="M255 50.5c-52 40.333 -92.1689 96.4951 -120.502 168.495s-42.5 153.667 -42.5 245c0 100.667 15.167 186.834 45.5 258.501s72.833 125.834 127.5 162.501s117.667 55 189 55c51.333 0 96.833 -7.66699 136.5 -23s78.834 -37.666 117.501 -66.999v448
c0 26 23.333 39 70 39h8c47.333 0 71 -13 71 -39v-1035c0 -77.333 3.66699 -133.166 11 -167.499s11 -53.166 11 -56.499c0 -14.667 -11.167 -25.167 -33.5 -31.5s-43.166 -9.5 -62.499 -9.5c-13.333 0 -24 6.33301 -32 19s-13.5 25.5 -16.5 38.5s-7.83301 35.5 -14.5 67.5
c-84.667 -88.667 -179 -133 -283 -133c-69.333 0 -130 20.167 -182 60.5zM590.498 150.995c42.333 21.333 81.499 51.667 117.499 91v487c-64 53.333 -137 80 -219 80c-79.333 -2 -139.166 -31 -179.499 -87s-60.5 -137.333 -60.5 -244
c0 -114.667 18.833 -203.167 56.5 -265.5s91.834 -93.5 162.501 -93.5c39.333 0 80.166 10.667 122.499 32z" />
    <glyph glyph-name="e" unicode="e" horiz-adv-x="959" 
d="M205.5 105.5c-71.667 77 -107.5 194.835 -107.5 353.502c0 157.333 35 276.833 105 358.5s173 122.5 309 122.5c121.333 0 212.833 -39.333 274.5 -118s92.5 -194 92.5 -346c0 -6.66699 -3.5 -15.834 -10.5 -27.501s-15.333 -22 -25 -31s-17.834 -13.5 -24.501 -13.5
h-561c7.33301 -99.333 32.833 -171.833 76.5 -217.5s109.5 -68.5 197.5 -68.5c49.333 0 91.833 6 127.5 18s70.167 26.667 103.5 44c3.33301 1.33301 8.33301 3.66602 15 6.99902s11.334 5 14.001 5c7.33301 0 15.833 -5.83301 25.5 -17.5s18 -24.667 25 -39
s10.5 -24.833 10.5 -31.5c0 -14.667 -14.667 -31 -44 -49s-68.5 -33.333 -117.5 -46s-101.5 -19 -157.5 -19c-147.333 0 -256.833 38.5 -328.5 115.5zM720 532.002c0 186.667 -71 280 -213 280c-152.667 0 -235.667 -93.333 -249 -280h462z" />
    <glyph glyph-name="f" unicode="f" horiz-adv-x="578" 
d="M209 6.5c-11.333 6.33301 -17 16.167 -17 29.5v766h-71c-24 0 -36 17.667 -36 53v22c0 35.333 12 53 36 53h71v169c0 93.333 23.167 157.5 69.5 192.5s99.5 52.5 159.5 52.5c86.667 0 130 -18 130 -54c0 -6 -1.5 -15.833 -4.5 -29.5s-7.33301 -25.834 -13 -36.501
s-12.167 -16 -19.5 -16c-4 0 -12.333 1.33301 -25 4s-30 4 -52 4c-20 0 -36.833 -3 -50.5 -9s-24.667 -18.667 -33 -38s-12.5 -47.333 -12.5 -84v-155h155c12.667 0 21.834 -4.16699 27.501 -12.5s8.5 -21.833 8.5 -40.5v-22c0 -18.667 -2.83301 -32.167 -8.5 -40.5
s-14.834 -12.5 -27.501 -12.5h-155v-766c0 -13.333 -5.66699 -23.166 -17 -29.499s-29 -9.5 -53 -9.5h-8c-24.667 0 -42.667 3.16699 -54 9.5z" />
    <glyph glyph-name="g" unicode="g" horiz-adv-x="971" 
d="M181 -324c-66 35.333 -98.999 90.999 -98.999 166.999c0 52 15 97.333 45 136s69 67.667 117 87l2 4c-23.333 18 -41.166 38.667 -53.499 62s-18.5 51 -18.5 83c0 77.333 33.333 139.333 100 186c-50 24 -88 57.833 -114 101.5s-39 92.834 -39 147.501s13.5 104 40.5 148
s66.833 78.667 119.5 104s116 38 190 38c39.333 0 74.333 -3.33301 105 -10h323c12.667 0 21.834 -4.16699 27.501 -12.5s8.5 -21.833 8.5 -40.5v-22c0 -18.667 -2.83301 -32.167 -8.5 -40.5s-14.834 -12.5 -27.501 -12.5c-44.667 0 -86 1.66699 -124 5l-2 -3
c15.333 -21.333 26.833 -45.166 34.5 -71.499s11.5 -53.833 11.5 -82.5c0 -54.667 -13.5 -104 -40.5 -148s-66.667 -78.667 -119 -104s-115.833 -38 -190.5 -38c-56 -2 -98.167 -12.333 -126.5 -31s-42.5 -49.334 -42.5 -92.001c0 -31.333 10.167 -55.333 30.5 -72
s45.833 -28.334 76.5 -35.001s73.334 -13 128.001 -19l52 -6c55.333 -7.33301 101.666 -17.333 138.999 -30s68.166 -33.667 92.499 -63s36.5 -69.666 36.5 -120.999c0 -86 -34.333 -152.167 -103 -198.5s-169.334 -69.5 -302.001 -69.5c-113.333 0 -203 17.667 -269 53z
M625.001 517.999c38.667 26.667 58 70.334 58 131.001c0 114.667 -71.333 172 -214 172c-140.667 0 -211 -57.333 -211 -172c0 -60.667 19.167 -104.334 57.5 -131.001s89.5 -40 153.5 -40c65.333 0 117.333 13.333 156 40zM653.001 -223.501c40 21.667 60 54.499 60 98.499
c0 28.667 -10.667 50.834 -32 66.501s-47.5 26.667 -78.5 33s-71.833 12.166 -122.5 17.499c-34.667 4 -63.167 7.66699 -85.5 11s-42.833 8 -61.5 14c-78.667 -33.333 -118 -81.666 -118 -144.999c0 -85.333 84.667 -128 254 -128c82.667 0 144 10.833 184 32.5z" />
    <glyph glyph-name="h" unicode="h" horiz-adv-x="1005" 
d="M164 36l-0.00195312 1262c0 26 23.667 39 71 39h7c48 0 72 -13 72 -39v-480c34.667 35.333 75.334 64.5 122.001 87.5s96.334 34.5 149.001 34.5c74.667 0 140.5 -21 197.5 -63s85.5 -116.667 85.5 -224v-617c0 -26 -23.667 -39 -71 -39h-7c-48 0 -72 13 -72 39v602
c0 54 -15.333 96.333 -46 127s-75.667 46 -135 46c-39.333 0 -75.5 -9.33301 -108.5 -28s-60.333 -38.834 -82 -60.501s-32.5 -33.834 -32.5 -36.501v-650c0 -26 -24 -39 -72 -39h-7c-47.333 0 -71 13 -71 39z" />
    <glyph glyph-name="i" unicode="i" horiz-adv-x="471" 
d="M155 1193v105c0 26 23.667 39 71 39h21c48 0 72 -13 72 -39v-105c0 -26 -24 -39 -72 -39h-21c-47.333 0 -71 13 -71 39zM162 36v858c0 26 23.667 39 71 39h7c48 0 72 -13 72 -39v-858c0 -26 -24 -39 -72 -39h-7c-47.333 0 -71 13 -71 39z" />
    <glyph glyph-name="j" unicode="j" horiz-adv-x="491" 
d="M172 1193v105c0 26 24 39 72 39h21c47.333 0 71 -13 71 -39v-105c0 -26 -23.667 -39 -71 -39h-21c-48 0 -72 13 -72 39zM-31 -324c0 6.66699 1.5 16.833 4.5 30.5s7.5 26 13.5 37s12.667 16.5 20 16.5c4 0 12.333 -1.5 25 -4.5s30 -4.5 52 -4.5
c29.333 0 52.5 9.5 69.5 28.5s25.5 53.167 25.5 102.5v1012c0 26 24 39 72 39h7c47.333 0 71 -13 71 -39v-1025c0 -92 -23.333 -156 -70 -192s-99.667 -54 -159 -54c-87.333 0 -131 17.667 -131 53z" />
    <glyph glyph-name="k" unicode="k" horiz-adv-x="926" 
d="M167 36l-0.000976562 1262c0 26 24 39 72 39h7c47.333 0 71 -13 71 -39v-795h7l340 406c12.667 16 44 24 94 24h6c20.667 0 36.334 -2 47.001 -6s16 -9.33301 16 -16c0 -10 -6 -22 -18 -36l-331 -391l367 -434c10 -11.333 15 -20.666 15 -27.999
c0 -10 -5.66699 -16.667 -17 -20s-31.333 -5 -60 -5h-8c-24.667 0 -44.667 1.33301 -60 4s-27.333 9 -36 19l-355 422h-7v-406c0 -26 -23.667 -39 -71 -39h-7c-48 0 -72 13 -72 39z" />
    <glyph glyph-name="l" unicode="l" horiz-adv-x="529" 
d="M216 44c-46.667 36 -69.999 99.667 -69.999 191v1063c0 26 23.667 39 71 39h8c46.667 0 70 -13 70 -39v-1049c0 -48.667 8.66699 -82.667 26 -102s40.666 -29 69.999 -29c22 0 39.333 1.33301 52 4s21 4 25 4c10.667 0 19.5 -10.667 26.5 -32s10.5 -38.333 10.5 -51
c0 -35.333 -43.333 -53 -130 -53c-59.333 0 -112.333 18 -159 54z" />
    <glyph glyph-name="m" unicode="m" horiz-adv-x="1508" 
d="M1290 877c56 -42 84.002 -116.664 84.002 -223.997v-617c0 -13.333 -5.66699 -23.166 -17 -29.499s-29.333 -9.5 -54 -9.5h-6c-25.333 0 -43.666 3.16699 -54.999 9.5s-17 16.166 -17 29.499v602c0 54 -14.5 96.333 -43.5 127s-71.5 46 -127.5 46
c-46.667 0 -88.834 -13.5 -126.501 -40.5s-68.167 -55.167 -91.5 -84.5c1.33301 -16 2 -28 2 -36v-614c0 -26 -24 -39 -72 -39h-7c-47.333 0 -71 13 -71 39v602c0 54 -14.5 96.333 -43.5 127s-71.5 46 -127.5 46c-38.667 0 -74 -9.16699 -106 -27.5
s-58.5 -38.166 -79.5 -59.499s-31.5 -33.333 -31.5 -36v-652c0 -13.333 -5.5 -23.166 -16.5 -29.499s-28.833 -9.5 -53.5 -9.5h-8c-24.667 0 -42.5 3.16699 -53.5 9.5s-16.5 16.166 -16.5 29.499v624c0 77.333 -3.66699 133.166 -11 167.499s-11 53.166 -11 56.499
c0 14.667 11.167 25.167 33.5 31.5s43.166 9.5 62.499 9.5c16.667 0 29 -9 37 -27s13.833 -36.333 17.5 -55s6.16699 -30.667 7.5 -36c32.667 38 72.667 69.667 120 95s97.333 38 150 38c54 0 104.333 -10.833 151 -32.5s81 -59.834 103 -114.501
c36.667 43.333 79.667 78.666 129 105.999s100.666 41 153.999 41c74 0 139 -21 195 -63z" />
    <glyph glyph-name="n" unicode="n" horiz-adv-x="990" 
d="M170 6.5c-11.333 6.33301 -17.002 16.168 -17.002 29.501v624c0 77.333 -3.66699 133.166 -11 167.499s-11 53.166 -11 56.499c0 14.667 11.167 25.167 33.5 31.5s43.5 9.5 63.5 9.5c16.667 0 29 -9 37 -27s13.833 -36.333 17.5 -55s6.16699 -30.667 7.5 -36
c37.333 42 80.5 74.667 129.5 98s98.5 35 148.5 35c90.667 0 161.5 -25.5 212.5 -76.5s76.5 -121.167 76.5 -210.5v-617c0 -13.333 -5.66699 -23.166 -17 -29.499s-29.333 -9.5 -54 -9.5h-8c-24 0 -41.667 3.16699 -53 9.5s-17 16.166 -17 29.499v602
c0 54.667 -15.833 97.167 -47.5 127.5s-76.167 45.5 -133.5 45.5c-40 0 -80.167 -11.167 -120.5 -33.5s-75.166 -52.833 -104.499 -91.5v-650c0 -13.333 -5.66699 -23.166 -17 -29.499s-29 -9.5 -53 -9.5h-7c-25.333 0 -43.666 3.16699 -54.999 9.5z" />
    <glyph glyph-name="o" unicode="o" horiz-adv-x="1012" 
d="M203.5 110.5c-70.333 80.333 -105.5 197.167 -105.5 350.5s35.667 271.5 107 354.5s173 124.5 305 124.5c130.667 0 230.667 -41.167 300 -123.5s104 -200.833 104 -355.5c0 -154 -34.167 -271 -102.5 -351s-168.833 -120 -301.5 -120
c-134 0 -236.167 40.167 -306.5 120.5zM697 202.501c41.333 56.333 62 143.498 62 261.498c0 118.667 -20.667 206.334 -62 263.001s-105.333 85 -192 85c-86 0 -149.333 -28.167 -190 -84.5s-61 -144.166 -61 -263.499c0 -118.667 20.167 -206 60.5 -262
s103.833 -84 190.5 -84s150.667 28.167 192 84.5z" />
    <glyph glyph-name="p" unicode="p" horiz-adv-x="1019" 
d="M153 -331l0.000976562 991.003c0 77.333 -3.66699 133.166 -11 167.499s-11 53.166 -11 56.499c0 14.667 11.167 25.167 33.5 31.5s43.5 9.5 63.5 9.5c16.667 0 29 -9 37 -27s13.833 -36.333 17.5 -55s6.16699 -30.667 7.5 -36c84.667 88.667 179 133 283 133
c71.333 0 133 -20.333 185 -61s91.667 -97 119 -169s41 -154 41 -246c0 -100 -15.167 -185.667 -45.5 -257s-72.833 -125.333 -127.5 -162s-117.667 -55 -189 -55c-51.333 0 -96.833 7.66699 -136.5 23s-78.834 37.666 -117.501 66.999v-411c0 -26 -23.333 -39 -70 -39h-7
c-48 0 -72 13 -72 39zM701.001 208.003c40 56 60.001 137.332 60.001 243.999c0 114.667 -18.833 203.167 -56.5 265.5s-91.834 93.5 -162.501 93.5c-39.333 0 -80.166 -10.667 -122.499 -32s-81.5 -51.666 -117.5 -90.999v-487c65.333 -53.333 138.666 -80 219.999 -80
c79.333 2 139 31 179 87z" />
    <glyph glyph-name="q" unicode="q" horiz-adv-x="1007" 
d="M708 -331v411.002c-38.667 -29.333 -77.834 -51.666 -117.501 -66.999s-85.167 -23 -136.5 -23c-71.333 0 -134.166 18.333 -188.499 55s-96.833 90.5 -127.5 161.5s-46 156.167 -46 255.5c0 93.333 14 176.166 42 248.499s68.167 128.666 120.5 168.999
s113.166 60.5 182.499 60.5c104 0 198.333 -44.333 283 -133c8.66699 45.333 18.334 80.666 29.001 105.999c3.33301 7.33301 8.83301 12.5 16.5 15.5s18.167 4.5 31.5 4.5h7c35.333 0 53 -13 53 -39v-1225c0 -26 -23.667 -39 -71 -39h-8c-46.667 0 -70 13 -70 39z
M708 201.002l0.000976562 487.001c-36 39.333 -75.167 69.666 -117.5 90.999s-83.166 32 -122.499 32c-70.667 0 -124.834 -31.167 -162.501 -93.5s-56.5 -150.833 -56.5 -265.5c0 -106.667 20 -188 60 -244s99.667 -85 179 -87c81.333 0 154.666 26.667 219.999 80z" />
    <glyph glyph-name="r" unicode="r" horiz-adv-x="650" 
d="M177 6.5c-11.333 6.33301 -17 16.168 -17 29.501v624c0 77.333 -3.66699 133.166 -11 167.499s-11 53.166 -11 56.499c0 14.667 11.167 25.167 33.5 31.5s43.5 9.5 63.5 9.5c16 0 28 -8.5 36 -25.5s15 -40.833 21 -71.5l5 -21c63.333 88.667 132 133 206 133
c34 0 59.667 -6.16699 77 -18.5s26 -28.833 26 -49.5c0 -20 -3.5 -41.167 -10.5 -63.5s-15.167 -33.5 -24.5 -33.5c-4.66699 0 -13 2 -25 6c-10.667 4.66699 -21.334 8.16699 -32.001 10.5s-24.334 3.5 -41.001 3.5c-27.333 0 -53.166 -8 -77.499 -24
s-44.833 -33.667 -61.5 -53s-25 -30 -25 -32v-650c0 -13.333 -5.66699 -23.166 -17 -29.499s-29 -9.5 -53 -9.5h-7c-25.333 0 -43.666 3.16699 -54.999 9.5z" />
    <glyph glyph-name="s" unicode="s" horiz-adv-x="734" 
d="M205 2c-43.333 12.667 -77.8311 28.168 -103.498 46.501s-38.5 34.5 -38.5 48.5c0 6.66699 3.5 17.334 10.5 32.001s15.333 27.834 25 39.501s18.5 17.5 26.5 17.5c2 0 8 -3.33301 18 -10c26.667 -17.333 54.834 -32 84.501 -44s65.167 -18 106.5 -18
c116 0 174 48 174 144c0 27.333 -5.5 50.333 -16.5 69s-29.333 35.167 -55 49.5s-60.834 28.166 -105.501 41.499c-64 18.667 -113.833 40 -149.5 64s-60.834 52.167 -75.501 84.5s-22 71.5 -22 117.5c0 49.333 12.5 93.666 37.5 132.999s60 70 105 92s95.833 33 152.5 33
c39.333 0 77.166 -3.66699 113.499 -11s65.666 -16.833 87.999 -28.5s33.5 -23.834 33.5 -36.501c0 -9.33301 -3.16699 -21.833 -9.5 -37.5s-14.166 -29.334 -23.499 -41.001s-17.666 -17.5 -24.999 -17.5c-1.33301 0 -9.66602 4.16699 -24.999 12.5s-34.833 16 -58.5 23
s-49.834 10.5 -78.501 10.5c-45.333 0 -82.833 -10.167 -112.5 -30.5s-44.5 -47.5 -44.5 -81.5c0 -40 10.667 -72 32 -96s56.666 -43.667 105.999 -59c76 -23.333 134 -46.666 174 -69.999s68.5 -51.833 85.5 -85.5s25.5 -77.834 25.5 -132.501
c0 -52 -14 -99.167 -42 -141.5s-66 -75.666 -114 -99.999s-101 -36.5 -159 -36.5c-50 0 -96.667 6.33301 -140 19z" />
    <glyph glyph-name="t" unicode="t" horiz-adv-x="609" 
d="M261 44c-46.667 36 -70.001 99.666 -70.001 190.999v567h-89c-12.667 0 -21.834 4.16699 -27.501 12.5s-8.5 21.833 -8.5 40.5v22c0 18.667 2.83301 32.167 8.5 40.5s14.834 12.5 27.501 12.5h89l21 186c1.33301 26 20.333 39 57 39h17
c18.667 0 32.334 -3.16699 41.001 -9.5s13 -16.166 13 -29.499v-186h149c12.667 0 21.834 -4.16699 27.501 -12.5s8.5 -21.833 8.5 -40.5v-22c0 -18.667 -2.83301 -32.167 -8.5 -40.5s-14.834 -12.5 -27.501 -12.5h-149v-553c0 -48.667 8.5 -82.667 25.5 -102
s40.167 -29 69.5 -29c22.667 0 40.167 1.33301 52.5 4s20.5 4 24.5 4c10.667 0 19.5 -10.667 26.5 -32s10.5 -38.333 10.5 -51c0 -35.333 -43 -53 -129 -53c-59.333 0 -112.333 18 -159 54z" />
    <glyph glyph-name="u" unicode="u" horiz-adv-x="990" 
d="M210 66.5c-51.333 51 -77 121.498 -77 211.498v616c0 26 24 39 72 39h7c47.333 0 71 -13 71 -39v-602c0 -54.667 15.833 -97.167 47.5 -127.5s76.167 -45.5 133.5 -45.5c40 0 80 11.167 120 33.5s74.667 52.833 104 91.5v650c0 26 23.667 39 71 39h7c48 0 72 -13 72 -39
v-631c0 -77.333 3.33301 -133.166 10 -167.499s10 -53.166 10 -56.499c0 -14.667 -11 -25.167 -33 -31.5s-42.667 -9.5 -62 -9.5c-16.667 0 -29 9.5 -37 28.5s-13.833 38.5 -17.5 58.5s-6.16699 32.667 -7.5 38c-37.333 -42 -80.5 -74.667 -129.5 -98s-98.5 -35 -148.5 -35
c-90.667 0 -161.667 25.5 -213 76.5z" />
    <glyph glyph-name="v" unicode="v" horiz-adv-x="862" 
d="M329 25l-286.001 855.001c-4 12 -6 19.667 -6 23c0 9.33301 6.33301 16.666 19 21.999s32 8 58 8h9c41.333 0 65 -9.33301 71 -28l181 -567c14.667 -44 31.667 -104 51 -180l11 -42h8l12 53c14.667 70 28.334 125 41.001 165l183 571c6 18.667 30.333 28 73 28h5
c44.667 0 67 -10 67 -30c0 -6.66699 -2.33301 -14.667 -7 -24l-285 -854c-6 -18.667 -30 -28 -72 -28h-61c-42 0 -66 9.33301 -72 28z" />
    <glyph glyph-name="w" unicode="w" horiz-adv-x="1328" 
d="M297 25l-234.001 843c-6.66699 18.667 -10 30.334 -10 35.001c0 20 27.333 30 82 30c42.667 0 66.334 -9.33301 71.001 -28l150 -569c2.66699 -9.33301 11.334 -47.333 26.001 -114c3.33301 -18 9.66602 -47.667 18.999 -89c13.333 82 28 150.333 44 205l147 565
c4.66699 20 28 30 70 30h12c40.667 0 64 -10 70 -30l148 -565c16 -58.667 29.333 -116.334 40 -173.001l5 -30c18.667 98.667 32.334 165 41.001 199l150 571c4.66699 18.667 28.667 28 72 28c47.333 0 71 -10 71 -30c0 -7.33301 -1.66699 -15.333 -5 -24l-239 -854
c-4 -18.667 -27.333 -28 -70 -28h-54c-42 0 -65 9.33301 -69 28l-143 564c-8.66699 36.667 -17.334 82.667 -26.001 138c-8.66699 -58 -17.667 -103.667 -27 -137l-145 -565c-4 -18.667 -28 -28 -72 -28h-53c-43.333 0 -67 9.33301 -71 28z" />
    <glyph glyph-name="x" unicode="x" horiz-adv-x="862" 
d="M53.5 4c-11.667 4.66699 -17.5 12.335 -17.5 23.002c0 8 4.66699 18.667 14 32l288 417l-267 396c-8.66699 13.333 -13 23.666 -13 30.999c0 10.667 6 18.334 18 23.001s32.667 7 62 7h17c20 0 36 -1.83301 48 -5.5s21.667 -10.834 29 -21.501l169 -253
c10 -16 22 -37 36 -63l14 24l24 39l170 256c10.667 16 37.334 24 80.001 24h7c27.333 0 46.666 -2.33301 57.999 -7s17 -12.334 17 -23.001c0 -8 -4.66699 -18.333 -14 -31l-268 -391l287 -422c10 -14.667 15 -25.334 15 -32.001c0 -10 -6.33301 -17.5 -19 -22.5
s-33.667 -7.5 -63 -7.5h-16c-20.667 0 -36.834 1.83301 -48.501 5.5s-20.834 10.834 -27.501 21.501l-189 282c-10.667 16 -19 29.5 -25 40.5s-10 18.167 -12 21.5c-1.33301 -2.66699 -5.16602 -9.5 -11.499 -20.5s-15.166 -24.833 -26.499 -41.5l-191 -284
c-11.333 -16.667 -38 -25 -80 -25h-6c-27.333 0 -46.833 2.33301 -58.5 7z" />
    <glyph glyph-name="y" unicode="y" horiz-adv-x="855" 
d="M191 -341c0 4.66699 2.66699 14.334 8 29.001l149 362l-311 830l-3 11.5c-1.33301 5 -2 8.83301 -2 11.5c0 9.33301 6.33301 16.666 19 21.999s32 8 58 8h14c40 0 63.667 -9.33301 71 -28l181 -482c16 -42 35 -101.667 57 -179h3l21 66l17 51.5
c8 24.333 15.333 44.833 22 61.5l177 482c6 18.667 30.333 28 73 28h6c46.667 0 70 -10 70 -30c0 -4.66699 -1.66699 -12.667 -5 -24l-456 -1212c-10.667 -24.667 -38.667 -37 -84 -37h-27c-38.667 0 -58 9.66699 -58 29z" />
    <glyph glyph-name="z" unicode="z" horiz-adv-x="870" 
d="M80 32.5c-9.33301 21.667 -14.001 41.166 -14.001 58.499c0 6.66699 1.66699 13.334 5 20.001l521 691h-455c-12.667 0 -21.667 4.16699 -27 12.5s-8 21.833 -8 40.5v22c0 18.667 2.66699 32.167 8 40.5s14.333 12.5 27 12.5h624c8 0 16 -11 24 -33s12 -41.667 12 -59
c0 -6 -1.33301 -12.333 -4 -19l-519 -691h489c12.667 0 21.667 -4.16699 27 -12.5s8 -21.833 8 -40.5v-22c0 -18 -2.66699 -31.333 -8 -40s-14.333 -13 -27 -13h-658c-7.33301 -0 -15.666 10.833 -24.999 32.5z" />
    <glyph glyph-name="braceleft" unicode="{" horiz-adv-x="488" 
d="M248.5 -228.5c-21 11.667 -39.168 33 -54.501 64s-23 72.833 -23 125.5v297c0 65.333 -6 115.833 -18 151.5s-36.333 61.834 -73 78.501c-15.333 6 -26.5 13.5 -33.5 22.5s-10.5 21.5 -10.5 37.5v25c0 15.333 3.66699 27.666 11 36.999s18.333 17 33 23
c36.667 16.667 61 42.667 73 78s18 85.666 18 150.999v297c0 52 7.66699 93.333 23 124s33.5 52 54.5 64s41.167 18 60.5 18h90c12 0 20.833 -4 26.5 -12s8.5 -21 8.5 -39v-7c0 -18 -2.83301 -31 -8.5 -39s-14.5 -12 -26.5 -12h-39c-24 0 -40.167 -8.66699 -48.5 -26
s-12.5 -45 -12.5 -83v-313c0 -74.667 -15 -133.5 -45 -176.5s-61.333 -76.167 -94 -99.5c14 -6 31.833 -19.667 53.5 -41s41.334 -51.666 59.001 -90.999s26.5 -86 26.5 -140v-311c0 -38 4.16699 -65.833 12.5 -83.5s24.5 -26.5 48.5 -26.5h39
c12 0 20.833 -4.16699 26.5 -12.5s8.5 -21.5 8.5 -39.5v-7c0 -18.667 -2.83301 -32 -8.5 -40s-14.5 -12 -26.5 -12h-90c-19.333 0 -39.5 5.83301 -60.5 17.5z" />
    <glyph glyph-name="bar" unicode="|" horiz-adv-x="445" 
d="M171 -210v1540c0 26 14 39 42 39h19c28 0 42 -13 42 -39v-1540c0 -26 -14 -39 -42 -39h-19c-28 0 -42 13 -42 39z" />
    <glyph glyph-name="braceright" unicode="}" horiz-adv-x="488" 
d="M61.5 -234c-5.66699 8 -8.49805 21.334 -8.49805 40.001v7c0 18.667 2.83301 32 8.5 40s14.834 12 27.501 12h39c23.333 0 39.333 9 48 27s13 45.667 13 83v311c0 54 8.83301 100.667 26.5 140s37.167 69.666 58.5 90.999s39 35 53 41c-92 67.333 -138 159.333 -138 276
v313c0 37.333 -4.33301 64.833 -13 82.5s-24.667 26.5 -48 26.5h-39c-12.667 0 -21.834 4 -27.501 12s-8.5 21 -8.5 39v7c0 18 2.83301 31 8.5 39s14.834 12 27.501 12h89c19.333 0 39.666 -6 60.999 -18s39.666 -33.333 54.999 -64s23 -72 23 -124v-297
c0 -65.333 6 -115.666 18 -150.999s36.333 -61.333 73 -78c14.667 -6.66699 25.667 -14.667 33 -24s11 -21.333 11 -36v-25c0 -15.333 -3.66699 -27.5 -11 -36.5s-18.333 -16.833 -33 -23.5c-36.667 -16.667 -61 -42.834 -73 -78.501s-18 -86.167 -18 -151.5v-297
c0 -52.667 -7.66699 -94.5 -23 -125.5s-33.5 -52.333 -54.5 -64s-41.5 -17.5 -61.5 -17.5h-89c-12.667 0 -21.834 4 -27.501 12z" />
    <glyph glyph-name="asciitilde" unicode="~" horiz-adv-x="973" 
d="M140 411c-7.33301 2.66699 -12.5 5.49707 -15.5 8.49707s-4.5 7.16699 -4.5 12.5c0 8.66699 2.33301 16.334 7 23.001c22 44 48.667 75.5 80 94.5s69.333 28.5 114 28.5c28.667 0 58.167 -3.5 88.5 -10.5s67.5 -17.167 111.5 -30.5c37.333 -12 68.833 -21 94.5 -27
s49.167 -9 70.5 -9c19.333 0 35.833 3.83301 49.5 11.5s27.5 21.167 41.5 40.5c7.33301 9.33301 14.333 16 21 20s13.667 6 21 6c5.33301 0 12.333 -1.66699 21 -5l16 -5c9.33301 -2.66699 15.833 -5.66699 19.5 -9s5.5 -7.66602 5.5 -12.999c0 -7.33301 -3 -15.333 -9 -24
c-22 -43.333 -48.5 -74.333 -79.5 -93s-68.167 -28 -111.5 -28c-30.667 0 -61.5 3.5 -92.5 10.5s-70.167 17.5 -117.5 31.5c-38.667 12 -70.167 20.833 -94.5 26.5s-46.833 8.5 -67.5 8.5c-17.333 0 -32.666 -4.16699 -45.999 -12.5s-27.333 -22.166 -42 -41.499
c-7.33301 -9.33301 -13.833 -16 -19.5 -20s-11.834 -6 -18.501 -6c-4.66699 0 -12 1.66699 -22 5z" />
    <glyph glyph-name="uni00A0" unicode="&#xa0;" horiz-adv-x="427" 
 />
    <glyph glyph-name="exclamdown" unicode="&#xa1;" horiz-adv-x="522" 
d="M171 777v117c0 13.333 5.66699 23.166 17 29.499s29.333 9.5 54 9.5h31c24 0 41.667 -3.16699 53 -9.5s17 -16.166 17 -29.499v-117c0 -26 -23.333 -39 -70 -39h-31c-47.333 0 -71 13 -71 39zM146 -280c0 18.667 9.33203 181.334 27.999 488.001
c2.66699 47.333 5.83398 98.666 9.50098 153.999s7.16699 112 10.5 170c2 26 20.333 39 55 39h20c35.333 0 53 -13 53 -39v-812c0 -26 -23.667 -39 -71 -39h-36c-46 0 -69 13 -69 39z" />
    <glyph glyph-name="cent" unicode="&#xa2;" horiz-adv-x="865" 
d="M486.5 -126.5c-5.66699 4.33301 -8.49902 11.4971 -8.49902 21.4971v96c-128 7.33301 -223.333 49 -286 125s-94 193.667 -94 353c0 162 35.667 279.167 107 351.5s162.333 111.833 273 118.5v69c0 19.333 12 29 36 29c23.333 0 35 -9.66699 35 -29v-69
c39.333 -2 76 -7 110 -15s61.167 -17.833 81.5 -29.5s30.5 -23.834 30.5 -36.501c0 -9.33301 -3.16699 -21.666 -9.5 -36.999s-13.833 -28.833 -22.5 -40.5s-16.667 -17.5 -24 -17.5c-0.666992 0 -7 2.33301 -19 7c-48.667 22.667 -97.667 36.334 -147 41.001v-693
c56 3.33301 112.333 18.333 169 45c12 5.33301 19.333 8 22 8c7.33301 0 15.666 -5.66699 24.999 -17s17.5 -24.333 24.5 -39s10.5 -26.334 10.5 -35.001c0 -13.333 -11.333 -26.666 -34 -39.999s-53.167 -24.666 -91.5 -33.999s-80.166 -14.666 -125.499 -15.999v-95
c0 -10 -2.66699 -17.167 -8 -21.5s-14.333 -6.5 -27 -6.5s-21.834 2.16699 -27.501 6.5zM478.001 810.997c-71.333 -6.66699 -126.167 -36.999 -164.5 -90.999s-57.5 -136.333 -57.5 -247c0 -77.333 7.33301 -140.833 22 -190.5s38.167 -87.834 70.5 -114.501
s75.5 -43 129.5 -49v692z" />
    <glyph glyph-name="sterling" unicode="&#xa3;" horiz-adv-x="873" 
d="M59 53l0.00195312 28.9971c0 14.667 4.66699 26.167 14 34.5s23.666 17.5 42.999 27.5c20 10 36.333 19.833 49 29.5s23.667 23.334 33 41.001s14 40.5 14 68.5v320h-98c-12.667 0 -21.834 4.33301 -27.501 13s-8.5 22.334 -8.5 41.001v20
c0 18.667 2.83301 32.167 8.5 40.5s14.834 12.5 27.501 12.5h98v156c0 246.667 121.333 370 364 370c45.333 0 86.666 -4.33301 123.999 -13s56 -23.667 56 -45c0 -4.66699 -1.5 -14.167 -4.5 -28.5s-7.33301 -27.666 -13 -39.999s-12.834 -18.5 -21.501 -18.5
c-1.33301 0 -8.66602 1.33301 -21.999 4c-17.333 4 -32.666 7.16699 -45.999 9.5s-28.333 3.5 -45 3.5c-84.667 0 -146.334 -18.667 -185.001 -56s-58 -96.666 -58 -177.999v-164h262c12 0 20.833 -4.16699 26.5 -12.5s8.5 -21.833 8.5 -40.5v-20
c0 -18.667 -2.83301 -32.334 -8.5 -41.001s-14.5 -13 -26.5 -13h-262v-160c0 -74.667 -5.33301 -133.834 -16 -177.501s-23.167 -74.667 -37.5 -93s-30.5 -33.166 -48.5 -44.499h499c12.667 0 21.667 -4.16699 27 -12.5s8 -21.833 8 -40.5v-22
c0 -18 -2.66699 -31.333 -8 -40s-14.333 -13 -27 -13h-664c-23.333 0 -35 17.667 -35 53z" />
    <glyph glyph-name="currency" unicode="&#xa4;" horiz-adv-x="949" 
d="M185 258.5c-6 3 -11.3301 7.16602 -15.9971 12.499l-4 3c-8.66699 10 -13 20 -13 30c0 13.333 6.33301 26.333 19 39l42 43c-19.333 25.333 -34.166 54 -44.499 86s-15.5 65.667 -15.5 101c0 69.333 20 131.333 60 186l-42 41c-12 12 -18 25 -18 39
c0 8.66699 3.66699 18.334 11 29.001l7 9c7.33301 9.33301 16.666 14 27.999 14c13.333 0 26.666 -7 39.999 -21l42 -43c26.667 20 56 35.333 88 46s65 16 99 16c67.333 0 129 -20 185 -60l43 43c11.333 11.333 22.666 17 33.999 17c5.33301 0 11.166 -1.33301 17.499 -4
s11.833 -6.66699 16.5 -12l4 -3c6 -7.33301 10.333 -13.166 13 -17.499s4 -8.83301 4 -13.5c0 -12 -7 -25 -21 -39l-42 -42c20 -26.667 35.5 -55.667 46.5 -87s16.5 -64 16.5 -98c0 -34.667 -5.5 -68 -16.5 -100s-26.5 -61 -46.5 -87l42 -43c14 -12.667 21 -25 21 -37
c0 -4.66699 -2 -10.334 -6 -17.001s-8.33301 -12 -13 -16l-2 -2c-9.33301 -11.333 -20 -17 -32 -17c-13.333 0 -25.333 6.66699 -36 20l-43 43c-57.333 -39.333 -119 -59 -185 -59c-34 0 -66.833 5.16699 -98.5 15.5s-60.5 24.833 -86.5 43.5l-44 -44
c-12 -12.667 -24.667 -19 -38 -19c-4.66699 0 -10 1.5 -16 4.5zM572.003 394.499c32 18.333 57.333 43.333 76 75s28 66.167 28 103.5s-9.33301 71.833 -28 103.5s-44 57 -76 76s-66.667 28.5 -104 28.5s-71.833 -9.5 -103.5 -28.5s-56.834 -44.333 -75.501 -76
s-28 -66.167 -28 -103.5s9.33301 -71.833 28 -103.5s43.834 -56.667 75.501 -75s66.167 -27.5 103.5 -27.5s72 9.16699 104 27.5z" />
    <glyph glyph-name="yen" unicode="&#xa5;" horiz-adv-x="994" 
d="M947 1186l-293.001 -434.001h221c12 0 21 -4.16699 27 -12.5s9 -21.833 9 -40.5v-15c0 -35.333 -12 -53 -36 -53h-300v-170h300c24 0 36 -17.667 36 -53v-15c0 -35.333 -12 -53 -36 -53h-300v-304c0 -26 -24 -39 -72 -39h-14c-47.333 0 -71 13 -71 39v304h-297
c-24 0 -36 17.667 -36 53v15c0 35.333 12 53 36 53h297v170h-297c-24 0 -36 17.667 -36 53v15c0 18.667 3 32.167 9 40.5s15 12.5 27 12.5h220l-295 434c-9.33301 12.667 -14 23.334 -14 32.001c0 20.667 27.333 31 82 31h19c20 0 36.167 -2 48.5 -6s21.833 -11 28.5 -21
l292 -437l298 438c10.667 17.333 37.334 26 80.001 26h12c24.667 -1.33301 42.5 -4.5 53.5 -9.5s16.5 -12.167 16.5 -21.5c0 -6 -5 -16.667 -15 -32z" />
    <glyph glyph-name="brokenbar" unicode="&#xa6;" horiz-adv-x="445" 
d="M171 756v574c0 26 14 39 42 39h19c28 0 42 -13 42 -39v-574c0 -26 -14 -39 -42 -39h-19c-28 0 -42 13 -42 39zM171 -210v573c0 26 14 39 42 39h19c28 0 42 -13 42 -39v-573c0 -26 -14 -39 -42 -39h-19c-28 0 -42 13 -42 39z" />
    <glyph glyph-name="section" unicode="&#xa7;" horiz-adv-x="763" 
d="M251.5 0.5c-36.333 7 -65.4961 16.1631 -87.4961 27.4961s-33 23.333 -33 36c0 9.33301 3.16699 21.833 9.5 37.5s14.166 29.334 23.499 41.001s17.666 17.5 24.999 17.5c1.33301 0 9.66602 -3.83301 24.999 -11.5s34.5 -14.667 57.5 -21s48.5 -9.5 76.5 -9.5
c48.667 0 85.5 9.83301 110.5 29.5s37.5 45.5 37.5 77.5c0 24 -6.66699 43.667 -20 59s-30.166 27.5 -50.499 36.5s-48.5 19.5 -84.5 31.5c-52.667 16.667 -95.834 33.834 -129.501 51.501s-62.5 45.334 -86.5 83.001s-36 88.167 -36 151.5
c0 42.667 8.66699 81.334 26 116.001s40.333 64.334 69 89.001c-45.333 42 -68 95.333 -68 160c0 57.333 13.333 105 40 143s61.667 65.833 105 83.5s90 26.5 140 26.5c39.333 0 76.833 -3.5 112.5 -10.5s64.5 -16.333 86.5 -28s33 -23.834 33 -36.501
c0 -9.33301 -3.16699 -21.833 -9.5 -37.5s-14 -29.334 -23 -41.001s-17.167 -17.5 -24.5 -17.5c-1.33301 0 -9.66602 3.83301 -24.999 11.5s-35 14.834 -59 21.501s-50 10 -78 10c-48 0 -84.167 -10 -108.5 -30s-36.5 -46 -36.5 -78c0 -24 6.66699 -43.667 20 -59
s30.166 -27.5 50.499 -36.5s48.166 -19.167 83.499 -30.5c52 -16 94.833 -32.833 128.5 -50.5s62.5 -45.167 86.5 -82.5s36 -87.666 36 -150.999c0 -86.667 -32.667 -155.334 -98 -206.001c47.333 -39.333 71 -92 71 -158c0 -58.667 -13.333 -107.167 -40 -145.5
s-61.334 -66.333 -104.001 -84s-88.667 -26.5 -138 -26.5c-39.333 0 -77.166 3.5 -113.499 10.5zM522.004 609.996c0 32.667 -8.16602 59.334 -24.499 80.001s-36.833 36.667 -61.5 48s-56.667 23 -96 35c-28.667 -8 -52.5 -22.833 -71.5 -44.5s-28.5 -51.834 -28.5 -90.501
c0 -34 8 -61.333 24 -82s36.167 -36.5 60.5 -47.5s57.166 -22.833 98.499 -35.5c66 16 99 61.667 99 137z" />
    <glyph glyph-name="dieresis" unicode="&#xa8;" horiz-adv-x="570" 
d="M84 1118v91c0 26.667 26 40 78 40c47.333 0 71 -13.333 71 -40v-91c0 -25.333 -26 -38 -78 -38c-47.333 0 -71 12.667 -71 38zM340 1118v91c0 26.667 26 40 78 40c47.333 0 71 -13.333 71 -40v-91c0 -25.333 -26 -38 -78 -38c-47.333 0 -71 12.667 -71 38z" />
    <glyph glyph-name="copyright" unicode="&#xa9;" horiz-adv-x="1314" 
d="M335.5 76.5c-97.667 57 -175 134.5 -232 232.5s-85.5 205 -85.5 321s28.5 222.333 85.5 319s134.333 173.167 232 229.5s204.834 84.5 321.501 84.5c116 0 223 -28.167 321 -84.5s175.667 -133 233 -230s86 -203.167 86 -318.5c0 -116 -28.667 -222.833 -86 -320.5
s-135 -175.167 -233 -232.5s-205 -86 -321 -86c-116.667 0 -223.834 28.5 -321.501 85.5zM934.5 151.5c85 49.667 152.334 116.833 202.001 201.5s74.5 177 74.5 277s-24.833 191.833 -74.5 275.5s-117 149.834 -202 198.501s-177.5 73 -277.5 73s-192.333 -24.333 -277 -73
s-151.834 -114.834 -201.501 -198.501s-74.5 -175.5 -74.5 -275.5c0 -99.333 24.833 -191.5 74.5 -276.5s117 -152.333 202 -202s177.167 -74.5 276.5 -74.5c100 0 192.5 24.833 277.5 74.5zM427.001 335.999c-56 61.333 -84.002 156.332 -84.002 284.999
c0 126.667 29 221.5 87 284.5s144 94.5 258 94.5c33.333 0 65.833 -3.5 97.5 -10.5s57.167 -15.833 76.5 -26.5s29 -20.667 29 -30s-4.5 -21.833 -13.5 -37.5s-17.167 -23.5 -24.5 -23.5c-1.33301 0 -9.66602 4.33301 -24.999 13s-34.666 16.667 -57.999 24s-50 11 -80 11
c-86 0 -149.167 -24 -189.5 -72s-60.5 -123.667 -60.5 -227c0 -102 20 -177 60 -225s101.333 -72 184 -72c35.333 0 65.833 4.33301 91.5 13s49.167 19 70.5 31l11.5 5.5c5 2.33301 8.5 3.5 10.5 3.5c6.66699 0 14.5 -7.66699 23.5 -23s13.5 -26.666 13.5 -33.999
c0 -10 -10.167 -21 -30.5 -33s-47.333 -22.167 -81 -30.5s-70.167 -12.5 -109.5 -12.5c-115.333 0 -201 30.667 -257 92z" />
    <glyph glyph-name="ordfeminine" unicode="&#xaa;" horiz-adv-x="568" 
d="M122 818.5c-28 22.333 -42.0029 54.834 -42.0029 97.501c0 46 14 80.667 42 104s62.333 38.166 103 44.499s90.334 9.83301 149.001 10.5v43c0 21.333 -7.83301 38.833 -23.5 52.5s-40.5 20.5 -74.5 20.5c-25.333 0 -47.666 -2.83301 -66.999 -8.5
s-35.5 -11.667 -48.5 -18s-20.5 -9.5 -22.5 -9.5c-5.33301 0 -11.833 5.66699 -19.5 17s-11.5 20 -11.5 26c0 8 8 16.5 24 25.5s36.833 16.667 62.5 23s52.167 9.5 79.5 9.5c54 0 96.5 -12.5 127.5 -37.5s46.5 -59.167 46.5 -102.5v-196c0 -38 1.66699 -65.5 5 -82.5
s5 -26.5 5 -28.5c0 -6.66699 -5.5 -11.5 -16.5 -14.5s-21.5 -4.5 -31.5 -4.5c-9.33301 0 -16.166 5.83301 -20.499 17.5s-7.5 26.5 -9.5 44.5c-40 -44.667 -89.667 -67 -149 -67c-44 0 -80 11.167 -108 33.5zM309.997 865.001c21.333 10 42.667 24.668 64 44.001v105
c-43.333 0 -79.333 -1.5 -108 -4.5s-53.5 -11.333 -74.5 -25s-31.5 -34.834 -31.5 -63.501c0 -47.333 24.333 -71 73 -71c30 0 55.667 5 77 15z" />
    <glyph glyph-name="guillemotleft" unicode="&#xab;" horiz-adv-x="838" 
d="M333 131l-231 278c-16 18 -24 34.667 -24 50c0 14.667 8 31 24 49l231 278c12 14 25 21 39 21c12 0 25.333 -5.83301 40 -17.5s22 -24.5 22 -38.5c0 -10 -4.66699 -22 -14 -36l-198 -256l198 -258c9.33301 -14 14 -25.333 14 -34c0 -11.333 -6.83301 -23.833 -20.5 -37.5
s-27.5 -20.5 -41.5 -20.5c-12.667 0 -25.667 7.33301 -39 22zM638 131l-230.001 277.999c-16 18 -24 34.667 -24 50c0 14.667 8 31 24 49l230 278c12 14 25 21 39 21c12.667 0 26.334 -5.83301 41.001 -17.5s22 -24.5 22 -38.5c0 -10.667 -5 -22.667 -15 -36l-196 -256
l196 -258c10 -13.333 15 -24.666 15 -33.999c0 -11.333 -7 -23.833 -21 -37.5s-28 -20.5 -42 -20.5c-12.667 0 -25.667 7.33301 -39 22z" />
    <glyph glyph-name="logicalnot" unicode="&#xac;" horiz-adv-x="996" 
d="M798 176v294.999h-694c-12.667 0 -21.834 4.33301 -27.501 13s-8.5 22.334 -8.5 41.001v23c0 18.667 2.83301 32.167 8.5 40.5s14.834 12.5 27.501 12.5h771c18.667 0 32.167 -4.16699 40.5 -12.5s12.5 -21.833 12.5 -40.5v-372c0 -26 -17.667 -39 -53 -39h-23
c-36 0 -54 13 -54 39z" />
    <glyph glyph-name="uni00AD" unicode="&#xad;" horiz-adv-x="570" 
d="M86.5 421.5c-5.66699 8.33301 -8.5 21.833 -8.5 40.5v19c0 18 2.83301 31.333 8.5 40s14.834 13 27.501 13h336c12.667 0 21.834 -4.33301 27.501 -13s8.5 -22 8.5 -40v-19c0 -18.667 -2.83301 -32.167 -8.5 -40.5s-14.834 -12.5 -27.501 -12.5h-336
c-12.667 0 -21.834 4.16699 -27.501 12.5z" />
    <glyph glyph-name="registered" unicode="&#xae;" horiz-adv-x="1314" 
d="M335.5 76.5c-97.667 57 -175 134.5 -232 232.5s-85.5 205 -85.5 321s28.5 222.333 85.5 319s134.333 173.167 232 229.5s204.834 84.5 321.501 84.5c116 0 223 -28.167 321 -84.5s175.667 -133 233 -230s86 -203.167 86 -318.5c0 -116 -28.667 -222.833 -86 -320.5
s-135 -175.167 -233 -232.5s-205 -86 -321 -86c-116.667 0 -223.834 28.5 -321.501 85.5zM934.5 151.5c85 49.667 152.334 116.833 202.001 201.5s74.5 177 74.5 277s-24.833 191.833 -74.5 275.5s-117 149.834 -202 198.501s-177.5 73 -277.5 73s-192.333 -24.333 -277 -73
s-151.834 -114.834 -201.501 -198.501s-74.5 -175.5 -74.5 -275.5c0 -99.333 24.833 -191.5 74.5 -276.5s117 -152.333 202 -202s177.167 -74.5 276.5 -74.5c100 0 192.5 24.833 277.5 74.5zM443.001 280.999l-0.00292969 681c0 11.333 2.5 19.5 7.5 24.5
s13.167 7.5 24.5 7.5h175c84 0 147.167 -14.833 189.5 -44.5s63.5 -76.5 63.5 -140.5c0 -44 -10.667 -80.833 -32 -110.5s-50.666 -52.167 -87.999 -67.5v-3c20 -7.33301 36.333 -20.833 49 -40.5s27.667 -50.167 45 -91.5l82 -206
c0.666992 -3.33301 1.33398 -6.16602 2.00098 -8.49902s1 -4.83301 1 -7.5c0 -4.66699 -3.83301 -8.5 -11.5 -11.5s-18.5 -4.5 -32.5 -4.5h-12c-10 0 -18.667 1.5 -26 4.5s-12 6.83301 -14 11.5l-80 207c-15.333 39.333 -34.666 66.166 -57.999 80.499s-56 21.5 -98 21.5
h-94v-302c0 -15.333 -14.333 -23 -43 -23h-7c-28.667 0 -43 7.66699 -43 23zM673.998 663.999c24.667 0 47.167 5.83398 67.5 17.501s36.333 27.167 48 46.5s17.5 40.666 17.5 63.999c0 41.333 -12.333 72 -37 92s-59 30 -103 30h-131v-250h138z" />
    <glyph glyph-name="macron" unicode="&#xaf;" horiz-adv-x="570" 
d="M56.5 1101c-5.66699 8.66699 -8.5 22.332 -8.5 40.999v17c0 18.667 2.83301 32.334 8.5 41.001s14.834 13 27.501 13h397c12 0 20.667 -4.33301 26 -13s8 -22.334 8 -41.001v-17c0 -19.333 -2.66699 -33.166 -8 -41.499s-14 -12.5 -26 -12.5h-397
c-12.667 0 -21.834 4.33301 -27.501 13z" />
    <glyph glyph-name="degree" unicode="&#xb0;" horiz-adv-x="614" 
d="M184.5 816.5c-35.667 21 -64 49.334 -85 85.001s-31.5 74.834 -31.5 117.501s10.5 82.167 31.5 118.5s49.333 65.166 85 86.499s74.834 32 117.501 32s82.167 -10.667 118.5 -32s65.166 -50.333 86.499 -87s32 -76 32 -118c0 -42.667 -10.667 -81.834 -32 -117.501
s-50.166 -64 -86.499 -85s-75.833 -31.5 -118.5 -31.5s-81.834 10.5 -117.501 31.5zM376.5 885.501c23 13.667 41.333 32.334 55 56.001s20.5 49.5 20.5 77.5s-6.83301 54 -20.5 78s-32 43 -55 57s-47.833 21 -74.5 21s-51.334 -7 -74.001 -21s-40.5 -33 -53.5 -57
s-19.5 -50 -19.5 -78s6.5 -53.833 19.5 -77.5s30.833 -42.334 53.5 -56.001s47.334 -20.5 74.001 -20.5s51.5 6.83301 74.5 20.5z" />
    <glyph glyph-name="plusminus" unicode="&#xb1;" horiz-adv-x="996" 
d="M454 244c-9.33301 9.33301 -14.001 22.333 -14.001 39v299h-302c-16.667 0 -29.667 4.66699 -39 14s-14 22.333 -14 39v12c0 18 4.66699 31.5 14 40.5s22.333 13.5 39 13.5h302v300c0 35.333 17.667 53 53 53h12c35.333 0 53 -17.667 53 -53v-300h299c36 0 54 -18 54 -54
v-12c0 -17.333 -4.66699 -30.5 -14 -39.5s-22.666 -13.5 -39.999 -13.5h-299v-299c0 -35.333 -17.667 -53 -53 -53h-12c-16.667 0 -29.667 4.66699 -39 14zM81.499 13.5c-9 9 -13.5 22.167 -13.5 39.5v24c0 17.333 4.5 30.5 13.5 39.5s22.167 13.5 39.5 13.5h754
c35.333 0 53 -17.667 53 -53v-24c0 -35.333 -17.667 -53 -53 -53h-754c-17.333 0 -30.5 4.5 -39.5 13.5z" />
    <glyph glyph-name="uni00B2" unicode="&#xb2;" horiz-adv-x="570" 
d="M69 544.5c-4 9.66699 -5.99805 19.833 -5.99805 30.5c0 8.66699 1 14.334 3 17.001l265 333c21.333 29.333 36.833 52 46.5 68s16 29.667 19 41s4.5 24.666 4.5 39.999c0 32 -11.333 57.5 -34 76.5s-54 28.5 -94 28.5c-28.667 0 -52.834 -3.83301 -72.501 -11.5
s-38.834 -17.167 -57.501 -28.5c-13.333 -7.33301 -21.333 -11 -24 -11c-5.33301 0 -12.333 6.5 -21 19.5s-13 23.5 -13 31.5c0 13.333 10.667 25.833 32 37.5s46.833 20.834 76.5 27.501s55.5 10 77.5 10c67.333 0 120.5 -15.5 159.5 -46.5s58.5 -73.5 58.5 -127.5
c0 -25.333 -2.66699 -47.666 -8 -66.999s-15.5 -41 -30.5 -65s-37.833 -56 -68.5 -96l-203 -249h296c7.33301 0 12.5 -2.33301 15.5 -7s4.5 -12.334 4.5 -23.001v-13c0 -10.667 -1.5 -18.334 -4.5 -23.001s-8.16699 -7 -15.5 -7h-391c-6 0 -11 4.83301 -15 14.5z" />
    <glyph glyph-name="uni00B3" unicode="&#xb3;" horiz-adv-x="570" 
d="M179.5 530.5c-31.667 6.33301 -56.6709 14 -75.0039 23s-27.5 17.833 -27.5 26.5c0 9.33301 4.5 20.166 13.5 32.499s16.167 18.5 21.5 18.5c2.66699 0 7.33398 -1 14.001 -3s11.667 -3.66699 15 -5c46 -18 90.333 -27 133 -27c38.667 0 73.167 11 103.5 33
s45.5 58 45.5 108s-13.167 85.167 -39.5 105.5s-64.5 30.5 -114.5 30.5h-32c-14.667 0 -22 10.667 -22 32v11c0 20.667 7.33301 31 22 31h28c32.667 0 59.334 7.33301 80.001 22s35.334 32.334 44.001 53.001s13 40.334 13 59.001c0 26 -9.33301 49.167 -28 69.5
s-50 30.5 -94 30.5c-28 0 -51.5 -2.5 -70.5 -7.5s-37.167 -11.167 -54.5 -18.5c-10.667 -5.33301 -18.667 -8 -24 -8c-6 0 -13 6.83301 -21 20.5s-12 24.5 -12 32.5c0 10 10.5 19.333 31.5 28s46 15.5 75 20.5s54.5 7.5 76.5 7.5c64 0 115 -15.667 153 -47s57 -77 57 -137
c0 -33.333 -10 -61.833 -30 -85.5s-45.667 -41.834 -77 -54.501v-7c35.333 -8.66699 65.833 -29.5 91.5 -62.5s38.5 -74.833 38.5 -125.5c0 -50 -11.5 -91.167 -34.5 -123.5s-52.167 -55.833 -87.5 -70.5s-71.666 -22 -108.999 -22s-71.833 3.16699 -103.5 9.5z" />
    <glyph glyph-name="acute" unicode="&#xb4;" horiz-adv-x="570" 
d="M131 1058c0 8 5.99805 23.3311 17.998 45.998s40.667 73.334 86 152.001c9.33301 16 22.833 27.667 40.5 35s40.834 11 69.501 11c30 0 51.667 -1.66699 65 -5s20 -9.66602 20 -18.999c0 -6 -2.66699 -13 -8 -21s-18.166 -23.667 -38.499 -47l-77.5 -89l-43 -49
c-9.33301 -10 -22 -17.667 -38 -23s-33.667 -8 -53 -8c-27.333 0 -41 5.66699 -41 17z" />
    <glyph glyph-name="uni00B5" unicode="&#xb5;" horiz-adv-x="1007" 
d="M866 95.5c7.33301 -34.333 10.999 -53.168 10.999 -56.501c0 -14.667 -11.167 -25.167 -33.5 -31.5s-43.166 -9.5 -62.499 -9.5c-16.667 0 -28.834 9 -36.501 27s-15.167 44 -22.5 78l-4 20c-37.333 -42 -80.333 -74.667 -129 -98s-97.667 -35 -147 -35
c-51.333 0 -98.666 8.33301 -141.999 25v-346c0 -26 -23.333 -39 -70 -39h-8c-46.667 0 -70 13 -70 39v1225c0 13.333 5.5 23.166 16.5 29.499s28.833 9.5 53.5 9.5h8c24.667 0 42.5 -3.16699 53.5 -9.5s16.5 -16.166 16.5 -29.499v-602c0 -54 16 -96.333 48 -127
s76.667 -46 134 -46c40 0 80 11.167 120 33.5s74.667 52.833 104 91.5v650c0 13.333 5.66699 23.166 17 29.499s29.333 9.5 54 9.5h8c24 0 41.667 -3.16699 53 -9.5s17 -16.166 17 -29.499v-631c0 -77.333 3.66699 -133.166 11 -167.499z" />
    <glyph glyph-name="paragraph" unicode="&#xb6;" horiz-adv-x="916" 
d="M432 -269l-0.000976562 709.002c-66 7.33301 -126.333 29.666 -181 66.999s-98 85.333 -130 144s-48 122 -48 190c0 72.667 18.167 139.834 54.5 201.501s85.333 110.667 147 147s128.834 54.5 201.501 54.5h379c12.667 0 21.834 -3.33301 27.501 -10
s8.5 -17.334 8.5 -32.001v-25c0 -14.667 -2.83301 -25.334 -8.5 -32.001s-14.834 -10 -27.501 -10h-63v-1404c0 -25.333 -14.333 -38 -43 -38h-25c-28.667 0 -43 12.667 -43 38v1404h-139v-1404c0 -25.333 -14 -38 -42 -38h-25c-28.667 0 -43 12.667 -43 38z" />
    <glyph glyph-name="periodcentered" unicode="&#xb7;" horiz-adv-x="475" 
d="M186 575.5c-17.333 17.667 -26 39.167 -26 64.5c0 26 8.66699 47.833 26 65.5s39 26.5 65 26.5c25.333 0 47 -9 65 -27s27 -39.667 27 -65s-9 -46.833 -27 -64.5s-39.667 -26.5 -65 -26.5c-26 0 -47.667 8.83301 -65 26.5z" />
    <glyph glyph-name="cedilla" unicode="&#xb8;" horiz-adv-x="570" 
d="M439 -114c33.333 -18 49.998 -51.668 49.998 -101.001c0 -62 -19.5 -104 -58.5 -126s-87.5 -33 -145.5 -33c-28 0 -58.167 3.16699 -90.5 9.5s-59.5 15.333 -81.5 27s-33 25.167 -33 40.5c0 12.667 2.66699 23.5 8 32.5s14 13.5 26 13.5c6 0 13.833 -1.66699 23.5 -5
s16.834 -5.66602 21.501 -6.99902c19.333 -7.33301 36.833 -13 52.5 -17s32.167 -6 49.5 -6c28.667 0 52.834 4 72.501 12s29.5 24.333 29.5 49c0 20 -6 34.5 -18 43.5s-29.333 17.167 -52 24.5c-16 5.33301 -27.833 10.333 -35.5 15s-11.5 11.667 -11.5 21
c0 7.33301 2 18 6 32s13.333 43.667 28 89h76l-25 -87h7c34 0 67.667 -9 101 -27z" />
    <glyph glyph-name="uni00B9" unicode="&#xb9;" horiz-adv-x="386" 
d="M237 535c-7.33301 4 -11.001 10 -11.001 18v601l-132 -28c-7.33301 0 -12.666 5.66699 -15.999 17s-5 23.333 -5 36c0 10 6 16.333 18 19l189 51c8 0 15.333 -2.16699 22 -6.5s10 -9.5 10 -15.5v-674c0 -8 -4 -14 -12 -18s-17 -6 -27 -6h-10c-10 0 -18.667 2 -26 6z" />
    <glyph glyph-name="ordmasculine" unicode="&#xba;" horiz-adv-x="599" 
d="M150 844.5c-34.667 39.667 -51.998 97.167 -51.998 172.5c0 76.667 17.667 135.667 53 177s85.666 62 150.999 62c64 0 113.333 -20.5 148 -61.5s52 -100.167 52 -177.5c0 -75.333 -17 -132.833 -51 -172.5s-83.667 -59.5 -149 -59.5
c-66.667 0 -117.334 19.833 -152.001 59.5zM394.502 890c20.333 28 30.5 71 30.5 129c0 58.667 -10.167 102 -30.5 130s-52.166 42 -95.499 42s-75 -13.833 -95 -41.5s-30 -71.167 -30 -130.5c0 -58 10.167 -101 30.5 -129s51.833 -42 94.5 -42
c43.333 0 75.166 14 95.499 42z" />
    <glyph glyph-name="guillemotright" unicode="&#xbb;" horiz-adv-x="838" 
d="M117.5 129.5c-13.667 13.667 -20.5 26.167 -20.5 37.5c0 10 4.66699 21.333 14 34l196 258l-196 256c-9.33301 12.667 -14 24.667 -14 36c0 14 7.33301 26.833 22 38.5s28 17.5 40 17.5c14 0 27 -7 39 -21l230 -278c16 -18 24 -34.333 24 -49c0 -15.333 -8 -32 -24 -50
l-230 -278c-13.333 -14.667 -26.333 -22 -39 -22c-14 0 -27.833 6.83301 -41.5 20.5zM422.5 129.5c-13.667 13.667 -20.5 26.167 -20.5 37.5c0 8.66699 4.66699 20 14 34l198 258l-198 256c-9.33301 14 -14 26 -14 36c0 14 7.33301 26.833 22 38.5s28 17.5 40 17.5
c14 0 27 -7 39 -21l231 -278c16 -18 24 -34.333 24 -49c0 -15.333 -8 -32 -24 -50l-231 -278c-13.333 -14.667 -26.333 -22 -39 -22c-14 0 -27.833 6.83301 -41.5 20.5z" />
    <glyph glyph-name="onequarter" unicode="&#xbc;" horiz-adv-x="1193" 
d="M160 9c0 5.33301 2.33301 11.334 7 18.001l722 1193c11.333 20 29 30 53 30h24c16 0 24 -4.33301 24 -13c0 -2 -0.833008 -4.83301 -2.5 -8.5s-3.16699 -6.5 -4.5 -8.5l-722 -1193c-6 -10.667 -13.167 -18.334 -21.5 -23.001s-18.833 -7 -31.5 -7h-22
c-17.333 0 -26 4 -26 12zM237 535.001c-7.33301 4 -11.001 10 -11.001 18v601l-132 -28c-7.33301 0 -12.666 5.66699 -15.999 17s-5 23.333 -5 36c0 10 6 16.333 18 19l189 51c8 0 15.333 -2.16699 22 -6.5s10 -9.5 10 -15.5v-674c0 -8 -4 -14 -12 -18s-17 -6 -27 -6h-10
c-10 0 -18.667 2 -26 6zM941.999 20.001l0.00195312 135h-311c-4.66699 0 -10 6.33301 -16 19s-9 24 -9 34c0 6 1 10 3 12l337 484c3.33301 4.66699 8.16602 8.16699 14.499 10.5s13.166 3.5 20.499 3.5h17c19.333 0 29 -7.33301 29 -22v-466h70
c6.66699 0 11.5 -2.5 14.5 -7.5s4.5 -12.833 4.5 -23.5v-12c0 -11.333 -1.5 -19.5 -4.5 -24.5s-7.83301 -7.5 -14.5 -7.5h-70v-135c0 -15.333 -9.66699 -23 -29 -23h-24c-21.333 0 -32 7.66699 -32 23zM942.001 230.001v232l4 111l-6 3l-232 -346h234z" />
    <glyph glyph-name="onehalf" unicode="&#xbd;" horiz-adv-x="1326" 
d="M160 9c0 5.33301 2.33301 11.334 7 18.001l722 1193c11.333 20 29 30 53 30h24c16 0 24 -4.33301 24 -13c0 -2 -0.833008 -4.83301 -2.5 -8.5s-3.16699 -6.5 -4.5 -8.5l-722 -1193c-6 -10.667 -13.167 -18.334 -21.5 -23.001s-18.833 -7 -31.5 -7h-22
c-17.333 0 -26 4 -26 12zM237 535.001c-7.33301 4 -11.001 10 -11.001 18v601l-132 -28c-7.33301 0 -12.666 5.66699 -15.999 17s-5 23.333 -5 36c0 10 6 16.333 18 19l189 51c8 0 15.333 -2.16699 22 -6.5s10 -9.5 10 -15.5v-674c0 -8 -4 -14 -12 -18s-17 -6 -27 -6h-10
c-10 0 -18.667 2 -26 6zM798.999 14.501c-4 9.66699 -5.99902 19.5029 -5.99902 29.5029c0 7.33301 1.33301 13.666 4 18.999l249 312c26 34 45 60.5 57 79.5s19.667 34.5 23 46.5s5 26.333 5 43c0 32.667 -11.333 58.334 -34 77.001s-54 28 -94 28
c-28 0 -51.5 -3.66699 -70.5 -11s-38.5 -17 -58.5 -29c-1.33301 -0.666992 -4.83301 -2.83398 -10.5 -6.50098s-10.167 -5.5 -13.5 -5.5c-5.33301 0 -12.333 6.66699 -21 20s-13 24 -13 32c0 13.333 10.667 25.666 32 36.999s46.666 20.5 75.999 27.5s55 10.5 77 10.5
c68 0 121.5 -15.5 160.5 -46.5s58.5 -73.833 58.5 -128.5c0 -24 -2 -44.5 -6 -61.5s-12.333 -36.667 -25 -59s-32.667 -51.5 -60 -87.5l-218 -268h294c7.33301 0 12.5 -2.33301 15.5 -7s4.5 -12.334 4.5 -23.001v-12c0 -11.333 -1.5 -19.333 -4.5 -24s-8.16699 -7 -15.5 -7
h-391c-6 0 -11 4.83301 -15 14.5z" />
    <glyph glyph-name="threequarters" unicode="&#xbe;" horiz-adv-x="1312" 
d="M172.5 530.5c-31.667 6.33301 -56.666 14 -74.999 23s-27.5 17.833 -27.5 26.5c0 9.33301 4.33301 20.166 13 32.499s16 18.5 22 18.5c3.33301 0 13.333 -3 30 -9c22 -8 42.833 -14.333 62.5 -19s42.5 -7 68.5 -7c39.333 0 74.166 11 104.499 33s45.5 58 45.5 108
s-13.333 85.167 -40 105.5s-65 30.5 -115 30.5h-31c-14.667 0 -22 10.667 -22 32v11c0 20.667 7.33301 31 22 31h28c32.667 0 59.167 7.33301 79.5 22s34.833 32.334 43.5 53.001s13 40.334 13 59.001c0 26 -9.16699 49.167 -27.5 69.5s-49.5 30.5 -93.5 30.5
c-45.333 0 -87 -8.66699 -125 -26c-10.667 -5.33301 -18.334 -8 -23.001 -8c-6 0 -13.167 6.66699 -21.5 20s-12.5 24.333 -12.5 33c0 10 10.5 19.333 31.5 28s46 15.5 75 20.5s54.5 7.5 76.5 7.5c64 0 115 -15.667 153 -47s57 -77 57 -137
c0 -33.333 -10.167 -61.833 -30.5 -85.5s-45.833 -41.834 -76.5 -54.501v-7c35.333 -8.66699 65.833 -29.5 91.5 -62.5s38.5 -74.833 38.5 -125.5c0 -50 -11.5 -91.167 -34.5 -123.5s-52.167 -55.833 -87.5 -70.5s-71.666 -22 -108.999 -22s-71.833 3.16699 -103.5 9.5z
M276.001 9c0 5.33301 2.33301 11.333 7 18l722 1193c6 10.667 13.167 18.334 21.5 23.001s18.833 7 31.5 7h23c16.667 0 25 -4.33301 25 -13c0 -2 -0.833008 -4.83301 -2.5 -8.5s-3.16699 -6.5 -4.5 -8.5l-722 -1193c-6 -10.667 -13.167 -18.334 -21.5 -23.001
s-18.833 -7 -31.5 -7h-24c-16 0 -24 4 -24 12zM1065 20v135h-311c-4.66699 0 -10 6.33301 -16 19s-9 24 -9 34c0 6 0.333008 10 1 12l338 484c3.33301 4.66699 8.33301 8.16699 15 10.5s13.667 3.5 21 3.5h17c19.333 0 29 -7.33301 29 -22v-466h70
c6.66699 0 11.5 -2.5 14.5 -7.5s4.5 -12.833 4.5 -23.5v-12c0 -11.333 -1.5 -19.5 -4.5 -24.5s-7.83301 -7.5 -14.5 -7.5h-70v-135c0 -15.333 -9.66699 -23 -29 -23h-24c-21.333 0 -32 7.66699 -32 23zM1065 230v232l3 111l-5 3l-232 -346h234z" />
    <glyph glyph-name="questiondown" unicode="&#xbf;" horiz-adv-x="756" 
d="M379 777v116.999c0 26 23.667 39 71 39h31c24 0 41.667 -3.16699 53 -9.5s17 -16.166 17 -29.499v-117c0 -26 -23.333 -39 -70 -39h-31c-47.333 0 -71 13 -71 39zM202 -285.501c-55.333 27 -97.165 63.1719 -125.498 108.505s-42.5 95.333 -42.5 150
c0 40 8.33301 77.667 25 113s37.167 67.166 61.5 95.499s56.833 62.833 97.5 103.5c34.667 34 62.5 62.833 83.5 86.5s39.333 49.5 55 77.5s25.5 57 29.5 87c1.33301 12 6.33301 20.833 15 26.5s23.334 8.5 44.001 8.5h26c18 0 31.5 -3.66699 40.5 -11
s13.5 -17.333 13.5 -30c0 -40 -13.5 -85 -40.5 -135s-64.5 -99.333 -112.5 -148c-39.333 -39.333 -70 -71.333 -92 -96s-40.333 -50.5 -55 -77.5s-22 -54.5 -22 -82.5c0 -123.333 74.667 -185 224 -185c33.333 0 63.666 4.16699 90.999 12.5s56.333 19.5 87 33.5
c21.333 10 35.333 15 42 15c6 0 13.5 -5.83301 22.5 -17.5s17 -24.834 24 -39.501s10.5 -26.334 10.5 -35.001c0 -18.667 -15.833 -35.834 -47.5 -51.501s-71.334 -27.834 -119.001 -36.501s-93.834 -13 -138.501 -13c-76 0 -141.667 13.5 -197 40.5z" />
    <glyph glyph-name="Agrave" unicode="&#xc0;" horiz-adv-x="1090" 
d="M40 4.5c-12 5 -18.002 12.5 -18.002 22.5c0 4.66699 1.66699 12.667 5 24l421 1169c6.66699 19.333 30.334 29 71.001 29h52c40.667 0 64.334 -9.66699 71.001 -29l421 -1170c3.33301 -7.33301 5 -15 5 -23c0 -20 -25 -30 -75 -30h-15c-41.333 0 -65.333 9.33301 -72 28
l-104 292h-522l-102 -292c-6 -18.667 -29.667 -28 -71 -28h-9c-26.667 0 -46 2.5 -58 7.5zM753.998 452l-186.001 529c-5.33301 14.667 -9.66602 31.334 -12.999 50.001s-6.33301 36.667 -9 54h-4c-8 -44.667 -17 -79.334 -27 -104.001l-186 -529h425zM542.497 1363
c-15.667 5.33301 -28.5 13 -38.5 23l-72 82c-43.333 49.333 -70.166 80.5 -80.499 93.5s-15.5 23.167 -15.5 30.5c0 9.33301 6.83301 15.666 20.5 18.999s35.5 5 65.5 5c28.667 0 51.667 -3.5 69 -10.5s31 -18.833 41 -35.5c43.333 -75.333 71.333 -125.166 84 -149.499
s19 -40.5 19 -48.5c0 -6 -3.16699 -10.333 -9.5 -13s-16.833 -4 -31.5 -4c-18.667 0 -35.834 2.66699 -51.501 8z" />
    <glyph glyph-name="Aacute" unicode="&#xc1;" horiz-adv-x="1090" 
d="M40 4.5c-12 5 -18.002 12.5 -18.002 22.5c0 4.66699 1.66699 12.667 5 24l421 1169c6.66699 19.333 30.334 29 71.001 29h52c40.667 0 64.334 -9.66699 71.001 -29l421 -1170c3.33301 -7.33301 5 -15 5 -23c0 -20 -25 -30 -75 -30h-15c-41.333 0 -65.333 9.33301 -72 28
l-104 292h-522l-102 -292c-6 -18.667 -29.667 -28 -71 -28h-9c-26.667 0 -46 2.5 -58 7.5zM753.998 452l-186.001 529c-5.33301 14.667 -9.66602 31.334 -12.999 50.001s-6.33301 36.667 -9 54h-4c-8 -44.667 -17 -79.334 -27 -104.001l-186 -529h425zM473.997 1372
c0 8 5.99805 23.3311 17.998 45.998s40.667 73.334 86 152.001c9.33301 16 22.833 27.667 40.5 35s40.834 11 69.501 11c30 0 51.667 -1.66699 65 -5s20 -9.66602 20 -18.999c0 -6 -2.66699 -13 -8 -21s-18.166 -23.667 -38.499 -47l-77.5 -89l-43 -49
c-9.33301 -10 -22 -17.667 -38 -23s-33.667 -8 -53 -8c-27.333 0 -41 5.66699 -41 17z" />
    <glyph glyph-name="Acircumflex" unicode="&#xc2;" horiz-adv-x="1090" 
d="M40 4.5c-12 5 -18.002 12.5 -18.002 22.5c0 4.66699 1.66699 12.667 5 24l421 1169c6.66699 19.333 30.334 29 71.001 29h52c40.667 0 64.334 -9.66699 71.001 -29l421 -1170c3.33301 -7.33301 5 -15 5 -23c0 -20 -25 -30 -75 -30h-15c-41.333 0 -65.333 9.33301 -72 28
l-104 292h-522l-102 -292c-6 -18.667 -29.667 -28 -71 -28h-9c-26.667 0 -46 2.5 -58 7.5zM753.998 452l-186.001 529c-5.33301 14.667 -9.66602 31.334 -12.999 50.001s-6.33301 36.667 -9 54h-4c-8 -44.667 -17 -79.334 -27 -104.001l-186 -529h425zM330.997 1363
c0 8 3.66602 18.666 10.999 31.999l99 156c17.333 26 44.666 39 81.999 39h44c38 0 65.333 -13 82 -39l102 -156c7.33301 -11.333 11 -21.333 11 -30c0 -18 -14.333 -27 -43 -27h-4c-11.333 0 -21.666 1.83301 -30.999 5.5s-18.666 9.83398 -27.999 18.501l-111 131
l-109 -131c-16 -16 -36 -24 -60 -24h-4c-27.333 0 -41 8.33301 -41 25z" />
    <glyph glyph-name="Atilde" unicode="&#xc3;" horiz-adv-x="1090" 
d="M40 4.5c-12 5 -18.002 12.5 -18.002 22.5c0 4.66699 1.66699 12.667 5 24l421 1169c6.66699 19.333 30.334 29 71.001 29h52c40.667 0 64.334 -9.66699 71.001 -29l421 -1170c3.33301 -7.33301 5 -15 5 -23c0 -20 -25 -30 -75 -30h-15c-41.333 0 -65.333 9.33301 -72 28
l-104 292h-522l-102 -292c-6 -18.667 -29.667 -28 -71 -28h-9c-26.667 0 -46 2.5 -58 7.5zM753.998 452l-186.001 529c-5.33301 14.667 -9.66602 31.334 -12.999 50.001s-6.33301 36.667 -9 54h-4c-8 -44.667 -17 -79.334 -27 -104.001l-186 -529h425zM255.997 1374
c-11.333 4.66699 -16.998 11.665 -16.998 20.998c0 8 2 15.667 6 23c18.667 44 41.167 75.5 67.5 94.5s58.5 28.5 96.5 28.5c24 0 48.667 -3.5 74 -10.5s57 -17.167 95 -30.5c31.333 -12 58 -21 80 -27s42 -9 60 -9c16 0 29.833 3.83301 41.5 11.5s23.5 21.167 35.5 40.5
c12 17.333 23.667 26 35 26c4 0 10 -1.66699 18 -5l14 -5c7.33301 -2.66699 12.666 -5.66699 15.999 -9s5 -7.66602 5 -12.999c0 -7.33301 -2.66699 -15.333 -8 -24c-18.667 -43.333 -41.167 -74.333 -67.5 -93s-57.833 -28 -94.5 -28c-25.333 0 -50.833 3.5 -76.5 10.5
s-59.167 17.5 -100.5 31.5c-32.667 12 -59.334 20.833 -80.001 26.5s-39.667 8.5 -57 8.5c-14.667 0 -27.667 -4.16699 -39 -12.5s-23.333 -22.166 -36 -41.499c-6 -9.33301 -11.333 -16 -16 -20s-10 -6 -16 -6c-4 0 -10 1.66699 -18 5z" />
    <glyph glyph-name="Adieresis" unicode="&#xc4;" horiz-adv-x="1090" 
d="M40 4.5c-12 5 -18.002 12.5 -18.002 22.5c0 4.66699 1.66699 12.667 5 24l421 1169c6.66699 19.333 30.334 29 71.001 29h52c40.667 0 64.334 -9.66699 71.001 -29l421 -1170c3.33301 -7.33301 5 -15 5 -23c0 -20 -25 -30 -75 -30h-15c-41.333 0 -65.333 9.33301 -72 28
l-104 292h-522l-102 -292c-6 -18.667 -29.667 -28 -71 -28h-9c-26.667 0 -46 2.5 -58 7.5zM753.998 452l-186.001 529c-5.33301 14.667 -9.66602 31.334 -12.999 50.001s-6.33301 36.667 -9 54h-4c-8 -44.667 -17 -79.334 -27 -104.001l-186 -529h425zM344.997 1432v91
c0 26.667 26 40 78 40c47.333 0 71 -13.333 71 -40v-91c0 -25.333 -26 -38 -78 -38c-47.333 0 -71 12.667 -71 38zM600.997 1432v91c0 26.667 26 40 78 40c47.333 0 71 -13.333 71 -40v-91c0 -25.333 -26 -38 -78 -38c-47.333 0 -71 12.667 -71 38z" />
    <glyph glyph-name="Aring" unicode="&#xc5;" horiz-adv-x="1090" 
d="M40 4.5c-12 5 -18.002 12.5 -18.002 22.5c0 4.66699 1.66699 12.667 5 24l421 1169c6.66699 19.333 30.334 29 71.001 29h52c40.667 0 64.334 -9.66699 71.001 -29l421 -1170c3.33301 -7.33301 5 -15 5 -23c0 -20 -25 -30 -75 -30h-15c-41.333 0 -65.333 9.33301 -72 28
l-104 292h-522l-102 -292c-6 -18.667 -29.667 -28 -71 -28h-9c-26.667 0 -46 2.5 -58 7.5zM753.998 452l-186.001 529c-5.33301 14.667 -9.66602 31.334 -12.999 50.001s-6.33301 36.667 -9 54h-4c-8 -44.667 -17 -79.334 -27 -104.001l-186 -529h425zM470.497 1336.5
c-23 13 -41.167 31 -54.5 54s-20 48.167 -20 75.5s6.66699 52.666 20 75.999s31.5 41.666 54.5 54.999s48.167 20 75.5 20s52.5 -6.66699 75.5 -20s41.167 -31.666 54.5 -54.999s20 -48.666 20 -75.999s-6.66699 -52.5 -20 -75.5s-31.5 -41 -54.5 -54
s-48.167 -19.5 -75.5 -19.5s-52.5 6.5 -75.5 19.5zM608.997 1404c17.333 16.667 26 37.334 26 62.001s-8.66699 45.667 -26 63s-38.333 26 -63 26s-45.334 -8.5 -62.001 -25.5s-25 -38.167 -25 -63.5c0 -24.667 8.33301 -45.334 25 -62.001s37.334 -25 62.001 -25
s45.667 8.33301 63 25z" />
    <glyph glyph-name="AE" unicode="&#xc6;" horiz-adv-x="1626" 
d="M-4.5 4c-10.333 4.66699 -15.499 12.3359 -15.499 23.0029c0 8 2.33301 17.667 7 29l571 1140c8.66699 17.333 19 29.666 31 36.999s27.333 11 46 11h791c12.667 0 21.667 -4.16699 27 -12.5s8 -21.833 8 -40.5v-29c0 -18 -2.66699 -31.333 -8 -40s-14.333 -13 -27 -13
h-643l89 -405h500c12.667 0 21.834 -4.33301 27.501 -13s8.5 -22.334 8.5 -41.001v-27c0 -18.667 -2.83301 -32.167 -8.5 -40.5s-14.834 -12.5 -27.501 -12.5h-473l95 -435h434c24 0 36 -17.667 36 -53v-29c0 -35.333 -12 -53 -36 -53h-510
c-18.667 0 -33.334 4.16699 -44.001 12.5s-17.667 21.166 -21 38.499l-56 266h-524l-143 -292c-10 -18.667 -33.667 -28 -71 -28h-9c-26 0 -44.167 2.33301 -54.5 7zM766.001 450.002l-113 531l-8 104h-3l-38 -104l-263 -531h425z" />
    <glyph glyph-name="Ccedilla" unicode="&#xc7;" horiz-adv-x="1101" 
d="M993 63c-32.667 -20 -76.6719 -37 -132.005 -51s-115 -21.333 -179 -22l-22 -77h7c34 0 67.667 -9 101 -27s50 -51.667 50 -101c0 -62 -19.5 -104 -58.5 -126s-87.5 -33 -145.5 -33c-28 0 -58.167 3.16699 -90.5 9.5s-59.5 15.333 -81.5 27s-33 25.167 -33 40.5
c0 12.667 2.66699 23.5 8 32.5s14 13.5 26 13.5c6 0 13.833 -1.66699 23.5 -5s16.834 -5.66602 21.501 -6.99902c19.333 -7.33301 36.833 -13 52.5 -17s32.167 -6 49.5 -6c28.667 0 52.834 4 72.501 12s29.5 24.333 29.5 49c0 20 -6 34.5 -18 43.5s-29.333 17.167 -52 24.5
c-16 5.33301 -27.833 10.333 -35.5 15s-11.5 11.667 -11.5 21c0 7.33301 2.33301 19.333 7 36s12.667 42.334 24 77.001c-172 11.333 -299 68.333 -381 171s-123 256 -123 460c0 422 191.667 633 575 633c56 0 110.333 -5.83301 163 -17.5s95.334 -26.167 128.001 -43.5
s49 -34 49 -50c0 -10 -3.5 -23.333 -10.5 -40s-15.167 -31.334 -24.5 -44.001s-17.666 -19 -24.999 -19c-3.33301 0 -12.666 4.33301 -27.999 13c-34.667 18.667 -71 34.334 -109 47.001s-84.333 19 -139 19c-143.333 0 -248.833 -39.833 -316.5 -119.5
s-101.5 -206.5 -101.5 -380.5c0 -170 33.5 -295.167 100.5 -375.5s170.5 -120.5 310.5 -120.5c58.667 0 109 7 151 21s82.333 31.333 121 52c18.667 10 30 15 34 15c7.33301 0 15.833 -6.33301 25.5 -19s18.167 -26.834 25.5 -42.501s11 -26.834 11 -33.501
c0 -16.667 -16.333 -35 -49 -55z" />
    <glyph glyph-name="Egrave" unicode="&#xc8;" horiz-adv-x="971" 
d="M185 13c-8.66699 8.66699 -13 22.001 -13 40.001v1138c0 18.667 4.33301 32.167 13 40.5s22.334 12.5 41.001 12.5h620c12.667 0 21.834 -4 27.501 -12s8.5 -21.667 8.5 -41v-29c0 -18 -2.83301 -31.333 -8.5 -40s-14.834 -13 -27.501 -13h-517v-405h464
c12.667 0 21.834 -4.33301 27.501 -13s8.5 -22.334 8.5 -41.001v-27c0 -18.667 -2.83301 -32.167 -8.5 -40.5s-14.834 -12.5 -27.501 -12.5h-464v-435h519c12.667 0 21.834 -4.16699 27.501 -12.5s8.5 -21.833 8.5 -40.5v-29c0 -18 -2.83301 -31.333 -8.5 -40
s-14.834 -13 -27.501 -13h-622c-18.667 -0 -32.334 4.33301 -41.001 13zM523.5 1363c-15.667 5.33301 -28.5 13 -38.5 23l-72 82c-43.333 49.333 -70.166 80.5 -80.499 93.5s-15.5 23.167 -15.5 30.5c0 9.33301 6.83301 15.666 20.5 18.999s35.5 5 65.5 5
c28.667 0 51.667 -3.5 69 -10.5s31 -18.833 41 -35.5c43.333 -75.333 71.333 -125.166 84 -149.499s19 -40.5 19 -48.5c0 -6 -3.16699 -10.333 -9.5 -13s-16.833 -4 -31.5 -4c-18.667 0 -35.834 2.66699 -51.501 8z" />
    <glyph glyph-name="Eacute" unicode="&#xc9;" horiz-adv-x="971" 
d="M185 13c-8.66699 8.66699 -13 22.001 -13 40.001v1138c0 18.667 4.33301 32.167 13 40.5s22.334 12.5 41.001 12.5h620c12.667 0 21.834 -4 27.501 -12s8.5 -21.667 8.5 -41v-29c0 -18 -2.83301 -31.333 -8.5 -40s-14.834 -13 -27.501 -13h-517v-405h464
c12.667 0 21.834 -4.33301 27.501 -13s8.5 -22.334 8.5 -41.001v-27c0 -18.667 -2.83301 -32.167 -8.5 -40.5s-14.834 -12.5 -27.501 -12.5h-464v-435h519c12.667 0 21.834 -4.16699 27.501 -12.5s8.5 -21.833 8.5 -40.5v-29c0 -18 -2.83301 -31.333 -8.5 -40
s-14.834 -13 -27.501 -13h-622c-18.667 -0 -32.334 4.33301 -41.001 13zM455 1372c0 8 5.99805 23.3311 17.998 45.998s40.667 73.334 86 152.001c9.33301 16 22.833 27.667 40.5 35s40.834 11 69.501 11c30 0 51.667 -1.66699 65 -5s20 -9.66602 20 -18.999
c0 -6 -2.66699 -13 -8 -21s-18.166 -23.667 -38.499 -47l-77.5 -89l-43 -49c-9.33301 -10 -22 -17.667 -38 -23s-33.667 -8 -53 -8c-27.333 0 -41 5.66699 -41 17z" />
    <glyph glyph-name="Ecircumflex" unicode="&#xca;" horiz-adv-x="971" 
d="M185 13c-8.66699 8.66699 -13 22.001 -13 40.001v1138c0 18.667 4.33301 32.167 13 40.5s22.334 12.5 41.001 12.5h620c12.667 0 21.834 -4 27.501 -12s8.5 -21.667 8.5 -41v-29c0 -18 -2.83301 -31.333 -8.5 -40s-14.834 -13 -27.501 -13h-517v-405h464
c12.667 0 21.834 -4.33301 27.501 -13s8.5 -22.334 8.5 -41.001v-27c0 -18.667 -2.83301 -32.167 -8.5 -40.5s-14.834 -12.5 -27.501 -12.5h-464v-435h519c12.667 0 21.834 -4.16699 27.501 -12.5s8.5 -21.833 8.5 -40.5v-29c0 -18 -2.83301 -31.333 -8.5 -40
s-14.834 -13 -27.501 -13h-622c-18.667 -0 -32.334 4.33301 -41.001 13zM311 1363c0 8 3.66602 18.666 10.999 31.999l99 156c17.333 26 44.666 39 81.999 39h44c38 0 65.333 -13 82 -39l102 -156c7.33301 -11.333 11 -21.333 11 -30c0 -18 -14.333 -27 -43 -27h-4
c-11.333 0 -21.666 1.83301 -30.999 5.5s-18.666 9.83398 -27.999 18.501l-111 131l-109 -131c-16 -16 -36 -24 -60 -24h-4c-27.333 0 -41 8.33301 -41 25z" />
    <glyph glyph-name="Edieresis" unicode="&#xcb;" horiz-adv-x="971" 
d="M185 13c-8.66699 8.66699 -13 22.001 -13 40.001v1138c0 18.667 4.33301 32.167 13 40.5s22.334 12.5 41.001 12.5h620c12.667 0 21.834 -4 27.501 -12s8.5 -21.667 8.5 -41v-29c0 -18 -2.83301 -31.333 -8.5 -40s-14.834 -13 -27.501 -13h-517v-405h464
c12.667 0 21.834 -4.33301 27.501 -13s8.5 -22.334 8.5 -41.001v-27c0 -18.667 -2.83301 -32.167 -8.5 -40.5s-14.834 -12.5 -27.501 -12.5h-464v-435h519c12.667 0 21.834 -4.16699 27.501 -12.5s8.5 -21.833 8.5 -40.5v-29c0 -18 -2.83301 -31.333 -8.5 -40
s-14.834 -13 -27.501 -13h-622c-18.667 -0 -32.334 4.33301 -41.001 13zM325 1432v91c0 26.667 26 40 78 40c47.333 0 71 -13.333 71 -40v-91c0 -25.333 -26 -38 -78 -38c-47.333 0 -71 12.667 -71 38zM581 1432v91c0 26.667 26 40 78 40c47.333 0 71 -13.333 71 -40v-91
c0 -25.333 -26 -38 -78 -38c-47.333 0 -71 12.667 -71 38z" />
    <glyph glyph-name="Igrave" unicode="&#xcc;" horiz-adv-x="502" 
d="M172 36v1173c0 26.667 24 40 72 40h14c47.333 0 71 -13.333 71 -40v-1173c0 -26 -23.667 -39 -71 -39h-14c-48 0 -72 13 -72 39zM247.5 1363c-15.667 5.33301 -28.5 13 -38.5 23l-72 82c-43.333 49.333 -70.166 80.5 -80.499 93.5s-15.5 23.167 -15.5 30.5
c0 9.33301 6.83301 15.666 20.5 18.999s35.5 5 65.5 5c28.667 0 51.667 -3.5 69 -10.5s31 -18.833 41 -35.5c43.333 -75.333 71.333 -125.166 84 -149.499s19 -40.5 19 -48.5c0 -6 -3.16699 -10.333 -9.5 -13s-16.833 -4 -31.5 -4c-18.667 0 -35.834 2.66699 -51.501 8z" />
    <glyph glyph-name="Iacute" unicode="&#xcd;" horiz-adv-x="502" 
d="M172 36v1173c0 26.667 24 40 72 40h14c47.333 0 71 -13.333 71 -40v-1173c0 -26 -23.667 -39 -71 -39h-14c-48 0 -72 13 -72 39zM179 1372c0 8 5.99805 23.3311 17.998 45.998s40.667 73.334 86 152.001c9.33301 16 22.833 27.667 40.5 35s40.834 11 69.501 11
c30 0 51.667 -1.66699 65 -5s20 -9.66602 20 -18.999c0 -6 -2.66699 -13 -8 -21s-18.166 -23.667 -38.499 -47l-77.5 -89l-43 -49c-9.33301 -10 -22 -17.667 -38 -23s-33.667 -8 -53 -8c-27.333 0 -41 5.66699 -41 17z" />
    <glyph glyph-name="Icircumflex" unicode="&#xce;" horiz-adv-x="502" 
d="M172 36v1173c0 26.667 24 40 72 40h14c47.333 0 71 -13.333 71 -40v-1173c0 -26 -23.667 -39 -71 -39h-14c-48 0 -72 13 -72 39zM35 1363c0 8 3.66602 18.666 10.999 31.999l99 156c17.333 26 44.666 39 81.999 39h44c38 0 65.333 -13 82 -39l102 -156
c7.33301 -11.333 11 -21.333 11 -30c0 -18 -14.333 -27 -43 -27h-4c-11.333 0 -21.666 1.83301 -30.999 5.5s-18.666 9.83398 -27.999 18.501l-111 131l-109 -131c-16 -16 -36 -24 -60 -24h-4c-27.333 0 -41 8.33301 -41 25z" />
    <glyph glyph-name="Idieresis" unicode="&#xcf;" horiz-adv-x="502" 
d="M172 36v1173c0 26.667 24 40 72 40h14c47.333 0 71 -13.333 71 -40v-1173c0 -26 -23.667 -39 -71 -39h-14c-48 0 -72 13 -72 39zM49 1432v91c0 26.667 26 40 78 40c47.333 0 71 -13.333 71 -40v-91c0 -25.333 -26 -38 -78 -38c-47.333 0 -71 12.667 -71 38zM305 1432v91
c0 26.667 26 40 78 40c47.333 0 71 -13.333 71 -40v-91c0 -25.333 -26 -38 -78 -38c-47.333 0 -71 12.667 -71 38z" />
    <glyph glyph-name="Eth" unicode="&#xd0;" horiz-adv-x="1237" 
d="M164.5 13c-8.33301 8.66699 -12.498 22 -12.498 40v517h-116c-12.667 0 -21.834 4 -27.501 12s-8.5 21.667 -8.5 41v27c0 19.333 2.83301 33.166 8.5 41.499s14.834 12.5 27.501 12.5h116v487c0 19.333 4.16699 33 12.5 41s21.833 12 40.5 12h382
c107.333 0 202.166 -20.5 284.499 -61.5s147.666 -107.667 195.999 -200s72.5 -212.166 72.5 -359.499c0 -218 -50.5 -376.333 -151.5 -475s-234.833 -148 -401.5 -148h-382c-18.667 -0 -32.167 4.33301 -40.5 13zM575.002 135c78 0 147 16.5 207 49.5
s107.667 85.833 143 158.5s53 166 53 280c0 113.333 -17.667 206.166 -53 278.499s-83 125 -143 158s-129 49.5 -207 49.5h-268v-405h196c12.667 0 21.834 -4.16699 27.501 -12.5s8.5 -22.166 8.5 -41.499v-27c0 -19.333 -2.83301 -33 -8.5 -41s-14.834 -12 -27.501 -12
h-196v-435h268z" />
    <glyph glyph-name="Ntilde" unicode="&#xd1;" horiz-adv-x="1278" 
d="M177 6.5c-11.333 6.33301 -17.001 16.166 -17.001 29.499v1173c0 26.667 24 40 72 40h37c18.667 0 33.5 -2.66699 44.5 -8s20.833 -14 29.5 -26l568 -857l53 -100v951c0 26.667 23.333 40 70 40h14c46.667 0 70 -13.333 70 -40v-1173
c0 -13.333 -5.66699 -23.166 -17 -29.499s-29 -9.5 -53 -9.5h-36c-16.667 0 -30 2 -40 6s-17.667 10.333 -23 19l-586 884l-48 92v-962c0 -26 -23.667 -39 -71 -39h-12c-25.333 0 -43.666 3.16699 -54.999 9.5zM349.999 1374c-11.333 4.66699 -16.998 11.665 -16.998 20.998
c0 8 2 15.667 6 23c18.667 44 41.167 75.5 67.5 94.5s58.5 28.5 96.5 28.5c24 0 48.667 -3.5 74 -10.5s57 -17.167 95 -30.5c31.333 -12 58 -21 80 -27s42 -9 60 -9c16 0 29.833 3.83301 41.5 11.5s23.5 21.167 35.5 40.5c12 17.333 23.667 26 35 26c4 0 10 -1.66699 18 -5
l14 -5c7.33301 -2.66699 12.666 -5.66699 15.999 -9s5 -7.66602 5 -12.999c0 -7.33301 -2.66699 -15.333 -8 -24c-18.667 -43.333 -41.167 -74.333 -67.5 -93s-57.833 -28 -94.5 -28c-25.333 0 -50.833 3.5 -76.5 10.5s-59.167 17.5 -100.5 31.5
c-32.667 12 -59.334 20.833 -80.001 26.5s-39.667 8.5 -57 8.5c-14.667 0 -27.667 -4.16699 -39 -12.5s-23.333 -22.166 -36 -41.499c-6 -9.33301 -11.333 -16 -16 -20s-10 -6 -16 -6c-4 0 -10 1.66699 -18 5z" />
    <glyph glyph-name="Ograve" unicode="&#xd2;" horiz-adv-x="1300" 
d="M242 152c-93.333 108 -140 266 -140 474c0 207.333 46.5 364.166 139.5 470.499s228.833 159.5 407.5 159.5c179.333 0 315.666 -53.167 408.999 -159.5s140 -263.166 140 -470.499c0 -208 -46.667 -366 -140 -474s-229.666 -162 -408.999 -162
c-178 0 -313.667 54 -407 162zM937 253.5c66.667 85.667 100 209.832 100 372.499s-33.167 285.834 -99.5 369.501s-162.5 125.5 -288.5 125.5c-125.333 0 -221 -41.833 -287 -125.5s-99 -206.834 -99 -369.501c0 -163.333 33 -287.666 99 -372.999s161.667 -128 287 -128
s221.333 42.833 288 128.5zM646.5 1363c-15.667 5.33301 -28.5 13 -38.5 23l-72 82c-43.333 49.333 -70.166 80.5 -80.499 93.5s-15.5 23.167 -15.5 30.5c0 9.33301 6.83301 15.666 20.5 18.999s35.5 5 65.5 5c28.667 0 51.667 -3.5 69 -10.5s31 -18.833 41 -35.5
c43.333 -75.333 71.333 -125.166 84 -149.499s19 -40.5 19 -48.5c0 -6 -3.16699 -10.333 -9.5 -13s-16.833 -4 -31.5 -4c-18.667 0 -35.834 2.66699 -51.501 8z" />
    <glyph glyph-name="Oacute" unicode="&#xd3;" horiz-adv-x="1300" 
d="M242 152c-93.333 108 -140 266 -140 474c0 207.333 46.5 364.166 139.5 470.499s228.833 159.5 407.5 159.5c179.333 0 315.666 -53.167 408.999 -159.5s140 -263.166 140 -470.499c0 -208 -46.667 -366 -140 -474s-229.666 -162 -408.999 -162
c-178 0 -313.667 54 -407 162zM937 253.5c66.667 85.667 100 209.832 100 372.499s-33.167 285.834 -99.5 369.501s-162.5 125.5 -288.5 125.5c-125.333 0 -221 -41.833 -287 -125.5s-99 -206.834 -99 -369.501c0 -163.333 33 -287.666 99 -372.999s161.667 -128 287 -128
s221.333 42.833 288 128.5zM578 1372c0 8 5.99805 23.3311 17.998 45.998s40.667 73.334 86 152.001c9.33301 16 22.833 27.667 40.5 35s40.834 11 69.501 11c30 0 51.667 -1.66699 65 -5s20 -9.66602 20 -18.999c0 -6 -2.66699 -13 -8 -21s-18.166 -23.667 -38.499 -47
l-77.5 -89l-43 -49c-9.33301 -10 -22 -17.667 -38 -23s-33.667 -8 -53 -8c-27.333 0 -41 5.66699 -41 17z" />
    <glyph glyph-name="Ocircumflex" unicode="&#xd4;" horiz-adv-x="1300" 
d="M242 152c-93.333 108 -140 266 -140 474c0 207.333 46.5 364.166 139.5 470.499s228.833 159.5 407.5 159.5c179.333 0 315.666 -53.167 408.999 -159.5s140 -263.166 140 -470.499c0 -208 -46.667 -366 -140 -474s-229.666 -162 -408.999 -162
c-178 0 -313.667 54 -407 162zM937 253.5c66.667 85.667 100 209.832 100 372.499s-33.167 285.834 -99.5 369.501s-162.5 125.5 -288.5 125.5c-125.333 0 -221 -41.833 -287 -125.5s-99 -206.834 -99 -369.501c0 -163.333 33 -287.666 99 -372.999s161.667 -128 287 -128
s221.333 42.833 288 128.5zM435 1363c0 8 3.66602 18.666 10.999 31.999l99 156c17.333 26 44.666 39 81.999 39h44c38 0 65.333 -13 82 -39l102 -156c7.33301 -11.333 11 -21.333 11 -30c0 -18 -14.333 -27 -43 -27h-4c-11.333 0 -21.666 1.83301 -30.999 5.5
s-18.666 9.83398 -27.999 18.501l-111 131l-109 -131c-16 -16 -36 -24 -60 -24h-4c-27.333 0 -41 8.33301 -41 25z" />
    <glyph glyph-name="Otilde" unicode="&#xd5;" horiz-adv-x="1300" 
d="M242 152c-93.333 108 -140 266 -140 474c0 207.333 46.5 364.166 139.5 470.499s228.833 159.5 407.5 159.5c179.333 0 315.666 -53.167 408.999 -159.5s140 -263.166 140 -470.499c0 -208 -46.667 -366 -140 -474s-229.666 -162 -408.999 -162
c-178 0 -313.667 54 -407 162zM937 253.5c66.667 85.667 100 209.832 100 372.499s-33.167 285.834 -99.5 369.501s-162.5 125.5 -288.5 125.5c-125.333 0 -221 -41.833 -287 -125.5s-99 -206.834 -99 -369.501c0 -163.333 33 -287.666 99 -372.999s161.667 -128 287 -128
s221.333 42.833 288 128.5zM360 1374c-11.333 4.66699 -16.998 11.665 -16.998 20.998c0 8 2 15.667 6 23c18.667 44 41.167 75.5 67.5 94.5s58.5 28.5 96.5 28.5c24 0 48.667 -3.5 74 -10.5s57 -17.167 95 -30.5c31.333 -12 58 -21 80 -27s42 -9 60 -9
c16 0 29.833 3.83301 41.5 11.5s23.5 21.167 35.5 40.5c12 17.333 23.667 26 35 26c4 0 10 -1.66699 18 -5l14 -5c7.33301 -2.66699 12.666 -5.66699 15.999 -9s5 -7.66602 5 -12.999c0 -7.33301 -2.66699 -15.333 -8 -24c-18.667 -43.333 -41.167 -74.333 -67.5 -93
s-57.833 -28 -94.5 -28c-25.333 0 -50.833 3.5 -76.5 10.5s-59.167 17.5 -100.5 31.5c-32.667 12 -59.334 20.833 -80.001 26.5s-39.667 8.5 -57 8.5c-14.667 0 -27.667 -4.16699 -39 -12.5s-23.333 -22.166 -36 -41.499c-6 -9.33301 -11.333 -16 -16 -20s-10 -6 -16 -6
c-4 0 -10 1.66699 -18 5z" />
    <glyph glyph-name="Odieresis" unicode="&#xd6;" horiz-adv-x="1300" 
d="M242 152c-93.333 108 -140 266 -140 474c0 207.333 46.5 364.166 139.5 470.499s228.833 159.5 407.5 159.5c179.333 0 315.666 -53.167 408.999 -159.5s140 -263.166 140 -470.499c0 -208 -46.667 -366 -140 -474s-229.666 -162 -408.999 -162
c-178 0 -313.667 54 -407 162zM937 253.5c66.667 85.667 100 209.832 100 372.499s-33.167 285.834 -99.5 369.501s-162.5 125.5 -288.5 125.5c-125.333 0 -221 -41.833 -287 -125.5s-99 -206.834 -99 -369.501c0 -163.333 33 -287.666 99 -372.999s161.667 -128 287 -128
s221.333 42.833 288 128.5zM449 1432v91c0 26.667 26 40 78 40c47.333 0 71 -13.333 71 -40v-91c0 -25.333 -26 -38 -78 -38c-47.333 0 -71 12.667 -71 38zM705 1432v91c0 26.667 26 40 78 40c47.333 0 71 -13.333 71 -40v-91c0 -25.333 -26 -38 -78 -38
c-47.333 0 -71 12.667 -71 38z" />
    <glyph glyph-name="multiply" unicode="&#xd7;" horiz-adv-x="996" 
d="M145 15l-34 35.001c-9.33301 9.33301 -14 17.666 -14 24.999s4.66699 15.666 14 24.999l303 306l-303 304c-9.33301 8 -14 16 -14 24c0 8.66699 4.66699 17 14 25l34 36c7.33301 8 15.333 12 24 12c9.33301 0 17.666 -4 24.999 -12l304 -306l304 306c8 8 16.333 12 25 12
s17 -4 25 -12l34 -36c8 -8 12 -16.333 12 -25c0 -8 -4 -16 -12 -24l-304 -304l304 -306c8 -8.66699 12 -17 12 -25c0 -7.33301 -4 -15.666 -12 -24.999l-34 -35c-8.66699 -10 -17 -15 -25 -15c-7.33301 0 -15.666 5 -24.999 15l-304 307l-304 -307
c-8 -10 -16.333 -15 -25 -15c-8 0 -16 5 -24 15z" />
    <glyph glyph-name="Oslash" unicode="&#xd8;" horiz-adv-x="1300" 
d="M244 150l-119.001 -132.001c-8.66699 -10.667 -17 -16 -25 -16s-16.5 4.33301 -25.5 13s-13.5 16.667 -13.5 24c0 9.33301 3.33301 17.666 10 24.999l130 142c-66 106 -99 246 -99 420c0 207.333 46.5 364.166 139.5 470.499s228.833 159.5 407.5 159.5
c158 0 284 -43.333 378 -130l99 108c9.33301 10 17.333 15 24 15c8 0 16.5 -4.16699 25.5 -12.5s13.5 -16.166 13.5 -23.499c0 -9.33301 -3.33301 -17.666 -10 -24.999l-104 -114c82 -107.333 123 -256.666 123 -447.999c0 -208 -46.667 -366 -140 -474
s-229.666 -162 -408.999 -162c-178 0 -313 53.333 -405 160zM922.999 1010c-66 74 -157.333 111.001 -274 111.001c-125.333 0 -221 -41.833 -287 -125.5s-99 -206.834 -99 -369.501c0 -116 17.333 -213.667 52 -293zM936.999 253.5c66.667 85.667 100 209.833 100 372.5
c0 136 -23.667 245 -71 327l-616 -684c63.333 -96 163 -144 299 -144c125.333 0 221.333 42.833 288 128.5z" />
    <glyph glyph-name="Ugrave" unicode="&#xd9;" horiz-adv-x="1266" 
d="M369 38.5c-72.667 32.333 -127.667 79.167 -165 140.5s-56 134.666 -56 219.999v810c0 26.667 23.667 40 71 40h14c47.333 0 71 -13.333 71 -40v-816c0 -52 14.333 -98.333 43 -139s68 -72.334 118 -95.001s106 -34 168 -34c62.667 0 119 11.5 169 34.5
s89.167 54.833 117.5 95.5s42.5 86.667 42.5 138v816c0 26.667 23.667 40 71 40h15c46.667 0 70 -13.333 70 -40v-810c0 -85.333 -18.667 -158.666 -56 -219.999s-92.333 -108.166 -165 -140.499s-160.667 -48.5 -264 -48.5s-191.333 16.167 -264 48.5zM629.5 1363
c-15.667 5.33301 -28.5 13 -38.5 23l-72 82c-43.333 49.333 -70.166 80.5 -80.499 93.5s-15.5 23.167 -15.5 30.5c0 9.33301 6.83301 15.666 20.5 18.999s35.5 5 65.5 5c28.667 0 51.667 -3.5 69 -10.5s31 -18.833 41 -35.5c43.333 -75.333 71.333 -125.166 84 -149.499
s19 -40.5 19 -48.5c0 -6 -3.16699 -10.333 -9.5 -13s-16.833 -4 -31.5 -4c-18.667 0 -35.834 2.66699 -51.501 8z" />
    <glyph glyph-name="Uacute" unicode="&#xda;" horiz-adv-x="1266" 
d="M369 38.5c-72.667 32.333 -127.667 79.167 -165 140.5s-56 134.666 -56 219.999v810c0 26.667 23.667 40 71 40h14c47.333 0 71 -13.333 71 -40v-816c0 -52 14.333 -98.333 43 -139s68 -72.334 118 -95.001s106 -34 168 -34c62.667 0 119 11.5 169 34.5
s89.167 54.833 117.5 95.5s42.5 86.667 42.5 138v816c0 26.667 23.667 40 71 40h15c46.667 0 70 -13.333 70 -40v-810c0 -85.333 -18.667 -158.666 -56 -219.999s-92.333 -108.166 -165 -140.499s-160.667 -48.5 -264 -48.5s-191.333 16.167 -264 48.5zM561 1372
c0 8 5.99805 23.3311 17.998 45.998s40.667 73.334 86 152.001c9.33301 16 22.833 27.667 40.5 35s40.834 11 69.501 11c30 0 51.667 -1.66699 65 -5s20 -9.66602 20 -18.999c0 -6 -2.66699 -13 -8 -21s-18.166 -23.667 -38.499 -47l-77.5 -89l-43 -49
c-9.33301 -10 -22 -17.667 -38 -23s-33.667 -8 -53 -8c-27.333 0 -41 5.66699 -41 17z" />
    <glyph glyph-name="Ucircumflex" unicode="&#xdb;" horiz-adv-x="1266" 
d="M369 38.5c-72.667 32.333 -127.667 79.167 -165 140.5s-56 134.666 -56 219.999v810c0 26.667 23.667 40 71 40h14c47.333 0 71 -13.333 71 -40v-816c0 -52 14.333 -98.333 43 -139s68 -72.334 118 -95.001s106 -34 168 -34c62.667 0 119 11.5 169 34.5
s89.167 54.833 117.5 95.5s42.5 86.667 42.5 138v816c0 26.667 23.667 40 71 40h15c46.667 0 70 -13.333 70 -40v-810c0 -85.333 -18.667 -158.666 -56 -219.999s-92.333 -108.166 -165 -140.499s-160.667 -48.5 -264 -48.5s-191.333 16.167 -264 48.5zM418 1363
c0 8 3.66602 18.666 10.999 31.999l99 156c17.333 26 44.666 39 81.999 39h44c38 0 65.333 -13 82 -39l102 -156c7.33301 -11.333 11 -21.333 11 -30c0 -18 -14.333 -27 -43 -27h-4c-11.333 0 -21.666 1.83301 -30.999 5.5s-18.666 9.83398 -27.999 18.501l-111 131
l-109 -131c-16 -16 -36 -24 -60 -24h-4c-27.333 0 -41 8.33301 -41 25z" />
    <glyph glyph-name="Udieresis" unicode="&#xdc;" horiz-adv-x="1266" 
d="M369 38.5c-72.667 32.333 -127.667 79.167 -165 140.5s-56 134.666 -56 219.999v810c0 26.667 23.667 40 71 40h14c47.333 0 71 -13.333 71 -40v-816c0 -52 14.333 -98.333 43 -139s68 -72.334 118 -95.001s106 -34 168 -34c62.667 0 119 11.5 169 34.5
s89.167 54.833 117.5 95.5s42.5 86.667 42.5 138v816c0 26.667 23.667 40 71 40h15c46.667 0 70 -13.333 70 -40v-810c0 -85.333 -18.667 -158.666 -56 -219.999s-92.333 -108.166 -165 -140.499s-160.667 -48.5 -264 -48.5s-191.333 16.167 -264 48.5zM432 1432v91
c0 26.667 26 40 78 40c47.333 0 71 -13.333 71 -40v-91c0 -25.333 -26 -38 -78 -38c-47.333 0 -71 12.667 -71 38zM688 1432v91c0 26.667 26 40 78 40c47.333 0 71 -13.333 71 -40v-91c0 -25.333 -26 -38 -78 -38c-47.333 0 -71 12.667 -71 38z" />
    <glyph glyph-name="Yacute" unicode="&#xdd;" horiz-adv-x="994" 
d="M418 36l-0.000976562 601.999l-372 548c-9.33301 12.667 -14 23.334 -14 32.001c0 20.667 27.333 31 82 31h19c20 0 36.167 -2 48.5 -6s21.833 -11 28.5 -21l292 -437l298 438c10.667 17.333 37.334 26 80.001 26h12c24.667 -1.33301 42.5 -4.5 53.5 -9.5
s16.5 -12.167 16.5 -21.5c0 -6 -5 -16.667 -15 -32l-372 -553v-597c0 -26 -24 -39 -72 -39h-14c-47.333 0 -71 13 -71 39zM425.999 1372c0 8 5.99805 23.3311 17.998 45.998s40.667 73.334 86 152.001c9.33301 16 22.833 27.667 40.5 35s40.834 11 69.501 11
c30 0 51.667 -1.66699 65 -5s20 -9.66602 20 -18.999c0 -6 -2.66699 -13 -8 -21s-18.166 -23.667 -38.499 -47l-77.5 -89l-43 -49c-9.33301 -10 -22 -17.667 -38 -23s-33.667 -8 -53 -8c-27.333 0 -41 5.66699 -41 17z" />
    <glyph glyph-name="Thorn" unicode="&#xde;" horiz-adv-x="1008" 
d="M168.5 6.5c-11 6.33301 -16.5 16.1641 -16.5 29.4971v1173c0 26.667 23.333 40 70 40h15c46.667 0 70 -13.333 70 -40v-182h258c104.667 0 197 -24.667 277 -74s120 -140.666 120 -273.999c0 -98 -23 -174.167 -69 -228.5s-97.5 -90.666 -154.5 -108.999
s-108.833 -27.5 -155.5 -27.5h-276v-278c0 -13.333 -5.66699 -23.166 -17 -29.499s-29 -9.5 -53 -9.5h-15c-24.667 0 -42.5 3.16699 -53.5 9.5zM585 447.998c30 0 61.333 6.50195 94 19.502s61 36.667 85 71s36 81.166 36 140.499c0 79.333 -23.5 134.666 -70.5 165.999
s-103.5 47 -169.5 47h-253v-444h278z" />
    <glyph glyph-name="germandbls" unicode="&#xdf;" horiz-adv-x="985" 
d="M177 6.5c-11.333 6.33301 -17 16.1641 -17 29.4971v890c0 64.667 14.5 122 43.5 172s70 88.833 123 116.5s114.167 41.5 183.5 41.5c106 0 191.167 -24 255.5 -72s96.5 -125 96.5 -231c0 -34.667 -7.5 -69.5 -22.5 -104.5s-36.333 -66.833 -64 -95.5
s-59.167 -50.334 -94.5 -65.001v-5c74 -17.333 131.333 -54.833 172 -112.5s61 -125.5 61 -203.5c0 -77.333 -16.833 -143.666 -50.5 -198.999s-79.334 -97.166 -137.001 -125.499s-122.5 -42.5 -194.5 -42.5h-57c-12.667 0 -21.667 4.33301 -27 13s-8 22 -8 40v22
c0 18.667 2.66699 32.167 8 40.5s14.333 12.5 27 12.5h59c42 0 80 9.5 114 28.5s60.833 46.5 80.5 82.5s29.5 78.667 29.5 128c0 48 -9.83301 90 -29.5 126s-46.667 63.5 -81 82.5s-72.166 28.5 -113.499 28.5h-59c-12.667 0 -21.667 4.33301 -27 13s-8 22.334 -8 41.001v21
c0 18.667 2.66699 32.167 8 40.5s14.333 12.5 27 12.5h18c36 0 70.167 9.33301 102.5 28s58.5 43.834 78.5 75.501s30 66.167 30 103.5c0 69.333 -18.833 118.166 -56.5 146.499s-84.5 42.5 -140.5 42.5c-60.667 0 -108.834 -18.167 -144.501 -54.5
s-53.5 -85.5 -53.5 -147.5v-890c0 -13.333 -5.66699 -23.166 -17 -29.499s-29 -9.5 -53 -9.5h-7c-25.333 0 -43.666 3.16699 -54.999 9.5z" />
    <glyph glyph-name="agrave" unicode="&#xe0;" horiz-adv-x="969" 
d="M171 57c-56 44.667 -84 110.995 -84 198.995c0 92.667 28.333 162.5 85 209.5s125.834 77.333 207.501 91s180.834 21.5 297.501 23.5v84c0 44.667 -15.167 80.5 -45.5 107.5s-80.166 40.5 -149.499 40.5c-52.667 0 -98.834 -6.16699 -138.501 -18.5
s-76.834 -27.166 -111.501 -44.499c-14.667 -7.33301 -23.667 -11 -27 -11c-8 0 -16.833 5.83301 -26.5 17.5s-18 24.834 -25 39.501s-10.5 25.334 -10.5 32.001c0 15.333 15.833 32 47.5 50s73.167 33 124.5 45s105 18 161 18c111.333 0 197.666 -24.333 258.999 -73
s92 -117 92 -205v-399c0 -77.333 3.5 -133.166 10.5 -167.499s10.5 -53.166 10.5 -56.499c0 -14.667 -11.167 -25.167 -33.5 -31.5s-43.166 -9.5 -62.499 -9.5c-16 0 -27.833 9 -35.5 27s-15.167 44 -22.5 78l-4 20c-36.667 -40.667 -79.834 -73 -129.501 -97
s-106.167 -36 -169.5 -36c-90.667 0 -164 22.333 -220 67zM549 150.995c41.333 21.333 84.001 51.668 128.001 91.001v210c-88 -0.666992 -160.333 -4.33398 -217 -11.001s-106.334 -23.5 -149.001 -50.5s-64 -68.833 -64 -125.5c0 -47.333 12.833 -83.5 38.5 -108.5
s63.5 -37.5 113.5 -37.5c58.667 0 108.667 10.667 150 32zM482.501 1049c-15.667 5.33301 -28.5 13 -38.5 23l-72 82c-43.333 49.333 -70.166 80.5 -80.499 93.5s-15.5 23.167 -15.5 30.5c0 9.33301 6.83301 15.666 20.5 18.999s35.5 5 65.5 5
c28.667 0 51.667 -3.5 69 -10.5s31 -18.833 41 -35.5c43.333 -75.333 71.333 -125.166 84 -149.499s19 -40.5 19 -48.5c0 -6 -3.16699 -10.333 -9.5 -13s-16.833 -4 -31.5 -4c-18.667 0 -35.834 2.66699 -51.501 8z" />
    <glyph glyph-name="aacute" unicode="&#xe1;" horiz-adv-x="969" 
d="M171 57c-56 44.667 -84 110.995 -84 198.995c0 92.667 28.333 162.5 85 209.5s125.834 77.333 207.501 91s180.834 21.5 297.501 23.5v84c0 44.667 -15.167 80.5 -45.5 107.5s-80.166 40.5 -149.499 40.5c-52.667 0 -98.834 -6.16699 -138.501 -18.5
s-76.834 -27.166 -111.501 -44.499c-14.667 -7.33301 -23.667 -11 -27 -11c-8 0 -16.833 5.83301 -26.5 17.5s-18 24.834 -25 39.501s-10.5 25.334 -10.5 32.001c0 15.333 15.833 32 47.5 50s73.167 33 124.5 45s105 18 161 18c111.333 0 197.666 -24.333 258.999 -73
s92 -117 92 -205v-399c0 -77.333 3.5 -133.166 10.5 -167.499s10.5 -53.166 10.5 -56.499c0 -14.667 -11.167 -25.167 -33.5 -31.5s-43.166 -9.5 -62.499 -9.5c-16 0 -27.833 9 -35.5 27s-15.167 44 -22.5 78l-4 20c-36.667 -40.667 -79.834 -73 -129.501 -97
s-106.167 -36 -169.5 -36c-90.667 0 -164 22.333 -220 67zM549 150.995c41.333 21.333 84.001 51.668 128.001 91.001v210c-88 -0.666992 -160.333 -4.33398 -217 -11.001s-106.334 -23.5 -149.001 -50.5s-64 -68.833 -64 -125.5c0 -47.333 12.833 -83.5 38.5 -108.5
s63.5 -37.5 113.5 -37.5c58.667 0 108.667 10.667 150 32zM414.001 1058c0 8 5.99805 23.3311 17.998 45.998s40.667 73.334 86 152.001c9.33301 16 22.833 27.667 40.5 35s40.834 11 69.501 11c30 0 51.667 -1.66699 65 -5s20 -9.66602 20 -18.999
c0 -6 -2.66699 -13 -8 -21s-18.166 -23.667 -38.499 -47l-77.5 -89l-43 -49c-9.33301 -10 -22 -17.667 -38 -23s-33.667 -8 -53 -8c-27.333 0 -41 5.66699 -41 17z" />
    <glyph glyph-name="acircumflex" unicode="&#xe2;" horiz-adv-x="969" 
d="M171 57c-56 44.667 -84 110.995 -84 198.995c0 92.667 28.333 162.5 85 209.5s125.834 77.333 207.501 91s180.834 21.5 297.501 23.5v84c0 44.667 -15.167 80.5 -45.5 107.5s-80.166 40.5 -149.499 40.5c-52.667 0 -98.834 -6.16699 -138.501 -18.5
s-76.834 -27.166 -111.501 -44.499c-14.667 -7.33301 -23.667 -11 -27 -11c-8 0 -16.833 5.83301 -26.5 17.5s-18 24.834 -25 39.501s-10.5 25.334 -10.5 32.001c0 15.333 15.833 32 47.5 50s73.167 33 124.5 45s105 18 161 18c111.333 0 197.666 -24.333 258.999 -73
s92 -117 92 -205v-399c0 -77.333 3.5 -133.166 10.5 -167.499s10.5 -53.166 10.5 -56.499c0 -14.667 -11.167 -25.167 -33.5 -31.5s-43.166 -9.5 -62.499 -9.5c-16 0 -27.833 9 -35.5 27s-15.167 44 -22.5 78l-4 20c-36.667 -40.667 -79.834 -73 -129.501 -97
s-106.167 -36 -169.5 -36c-90.667 0 -164 22.333 -220 67zM549 150.995c41.333 21.333 84.001 51.668 128.001 91.001v210c-88 -0.666992 -160.333 -4.33398 -217 -11.001s-106.334 -23.5 -149.001 -50.5s-64 -68.833 -64 -125.5c0 -47.333 12.833 -83.5 38.5 -108.5
s63.5 -37.5 113.5 -37.5c58.667 0 108.667 10.667 150 32zM270.001 1049c0 8 3.66602 18.666 10.999 31.999l99 156c17.333 26 44.666 39 81.999 39h44c38 0 65.333 -13 82 -39l102 -156c7.33301 -11.333 11 -21.333 11 -30c0 -18 -14.333 -27 -43 -27h-4
c-11.333 0 -21.666 1.83301 -30.999 5.5s-18.666 9.83398 -27.999 18.501l-111 131l-109 -131c-16 -16 -36 -24 -60 -24h-4c-27.333 0 -41 8.33301 -41 25z" />
    <glyph glyph-name="atilde" unicode="&#xe3;" horiz-adv-x="969" 
d="M171 57c-56 44.667 -84 110.995 -84 198.995c0 92.667 28.333 162.5 85 209.5s125.834 77.333 207.501 91s180.834 21.5 297.501 23.5v84c0 44.667 -15.167 80.5 -45.5 107.5s-80.166 40.5 -149.499 40.5c-52.667 0 -98.834 -6.16699 -138.501 -18.5
s-76.834 -27.166 -111.501 -44.499c-14.667 -7.33301 -23.667 -11 -27 -11c-8 0 -16.833 5.83301 -26.5 17.5s-18 24.834 -25 39.501s-10.5 25.334 -10.5 32.001c0 15.333 15.833 32 47.5 50s73.167 33 124.5 45s105 18 161 18c111.333 0 197.666 -24.333 258.999 -73
s92 -117 92 -205v-399c0 -77.333 3.5 -133.166 10.5 -167.499s10.5 -53.166 10.5 -56.499c0 -14.667 -11.167 -25.167 -33.5 -31.5s-43.166 -9.5 -62.499 -9.5c-16 0 -27.833 9 -35.5 27s-15.167 44 -22.5 78l-4 20c-36.667 -40.667 -79.834 -73 -129.501 -97
s-106.167 -36 -169.5 -36c-90.667 0 -164 22.333 -220 67zM549 150.995c41.333 21.333 84.001 51.668 128.001 91.001v210c-88 -0.666992 -160.333 -4.33398 -217 -11.001s-106.334 -23.5 -149.001 -50.5s-64 -68.833 -64 -125.5c0 -47.333 12.833 -83.5 38.5 -108.5
s63.5 -37.5 113.5 -37.5c58.667 0 108.667 10.667 150 32zM195.001 1060c-11.333 4.66699 -16.998 11.665 -16.998 20.998c0 8 2 15.667 6 23c18.667 44 41.167 75.5 67.5 94.5s58.5 28.5 96.5 28.5c24 0 48.667 -3.5 74 -10.5s57 -17.167 95 -30.5
c31.333 -12 58 -21 80 -27s42 -9 60 -9c16 0 29.833 3.83301 41.5 11.5s23.5 21.167 35.5 40.5c12 17.333 23.667 26 35 26c4 0 10 -1.66699 18 -5l14 -5c7.33301 -2.66699 12.666 -5.66699 15.999 -9s5 -7.66602 5 -12.999c0 -7.33301 -2.66699 -15.333 -8 -24
c-18.667 -43.333 -41.167 -74.333 -67.5 -93s-57.833 -28 -94.5 -28c-25.333 0 -50.833 3.5 -76.5 10.5s-59.167 17.5 -100.5 31.5c-32.667 12 -59.334 20.833 -80.001 26.5s-39.667 8.5 -57 8.5c-14.667 0 -27.667 -4.16699 -39 -12.5s-23.333 -22.166 -36 -41.499
c-6 -9.33301 -11.333 -16 -16 -20s-10 -6 -16 -6c-4 0 -10 1.66699 -18 5z" />
    <glyph glyph-name="adieresis" unicode="&#xe4;" horiz-adv-x="969" 
d="M171 57c-56 44.667 -84 110.995 -84 198.995c0 92.667 28.333 162.5 85 209.5s125.834 77.333 207.501 91s180.834 21.5 297.501 23.5v84c0 44.667 -15.167 80.5 -45.5 107.5s-80.166 40.5 -149.499 40.5c-52.667 0 -98.834 -6.16699 -138.501 -18.5
s-76.834 -27.166 -111.501 -44.499c-14.667 -7.33301 -23.667 -11 -27 -11c-8 0 -16.833 5.83301 -26.5 17.5s-18 24.834 -25 39.501s-10.5 25.334 -10.5 32.001c0 15.333 15.833 32 47.5 50s73.167 33 124.5 45s105 18 161 18c111.333 0 197.666 -24.333 258.999 -73
s92 -117 92 -205v-399c0 -77.333 3.5 -133.166 10.5 -167.499s10.5 -53.166 10.5 -56.499c0 -14.667 -11.167 -25.167 -33.5 -31.5s-43.166 -9.5 -62.499 -9.5c-16 0 -27.833 9 -35.5 27s-15.167 44 -22.5 78l-4 20c-36.667 -40.667 -79.834 -73 -129.501 -97
s-106.167 -36 -169.5 -36c-90.667 0 -164 22.333 -220 67zM549 150.995c41.333 21.333 84.001 51.668 128.001 91.001v210c-88 -0.666992 -160.333 -4.33398 -217 -11.001s-106.334 -23.5 -149.001 -50.5s-64 -68.833 -64 -125.5c0 -47.333 12.833 -83.5 38.5 -108.5
s63.5 -37.5 113.5 -37.5c58.667 0 108.667 10.667 150 32zM284.001 1118v91c0 26.667 26 40 78 40c47.333 0 71 -13.333 71 -40v-91c0 -25.333 -26 -38 -78 -38c-47.333 0 -71 12.667 -71 38zM540.001 1118v91c0 26.667 26 40 78 40c47.333 0 71 -13.333 71 -40v-91
c0 -25.333 -26 -38 -78 -38c-47.333 0 -71 12.667 -71 38z" />
    <glyph glyph-name="aring" unicode="&#xe5;" horiz-adv-x="969" 
d="M171 57c-56 44.667 -84 110.995 -84 198.995c0 92.667 28.333 162.5 85 209.5s125.834 77.333 207.501 91s180.834 21.5 297.501 23.5v84c0 44.667 -15.167 80.5 -45.5 107.5s-80.166 40.5 -149.499 40.5c-52.667 0 -98.834 -6.16699 -138.501 -18.5
s-76.834 -27.166 -111.501 -44.499c-14.667 -7.33301 -23.667 -11 -27 -11c-8 0 -16.833 5.83301 -26.5 17.5s-18 24.834 -25 39.501s-10.5 25.334 -10.5 32.001c0 15.333 15.833 32 47.5 50s73.167 33 124.5 45s105 18 161 18c111.333 0 197.666 -24.333 258.999 -73
s92 -117 92 -205v-399c0 -77.333 3.5 -133.166 10.5 -167.499s10.5 -53.166 10.5 -56.499c0 -14.667 -11.167 -25.167 -33.5 -31.5s-43.166 -9.5 -62.499 -9.5c-16 0 -27.833 9 -35.5 27s-15.167 44 -22.5 78l-4 20c-36.667 -40.667 -79.834 -73 -129.501 -97
s-106.167 -36 -169.5 -36c-90.667 0 -164 22.333 -220 67zM549 150.995c41.333 21.333 84.001 51.668 128.001 91.001v210c-88 -0.666992 -160.333 -4.33398 -217 -11.001s-106.334 -23.5 -149.001 -50.5s-64 -68.833 -64 -125.5c0 -47.333 12.833 -83.5 38.5 -108.5
s63.5 -37.5 113.5 -37.5c58.667 0 108.667 10.667 150 32zM409.501 1022.5c-23 13 -41.167 31 -54.5 54s-20 48.167 -20 75.5s6.66699 52.666 20 75.999s31.5 41.666 54.5 54.999s48.167 20 75.5 20s52.5 -6.66699 75.5 -20s41.167 -31.666 54.5 -54.999
s20 -48.666 20 -75.999s-6.66699 -52.5 -20 -75.5s-31.5 -41 -54.5 -54s-48.167 -19.5 -75.5 -19.5s-52.5 6.5 -75.5 19.5zM548.001 1090c17.333 16.667 26 37.334 26 62.001s-8.66699 45.667 -26 63s-38.333 26 -63 26s-45.334 -8.5 -62.001 -25.5s-25 -38.167 -25 -63.5
c0 -24.667 8.33301 -45.334 25 -62.001s37.334 -25 62.001 -25s45.667 8.33301 63 25z" />
    <glyph glyph-name="ae" unicode="&#xe6;" horiz-adv-x="1474" 
d="M164 57c-56 44.667 -83.998 110.997 -83.998 198.997c0 79.333 24.167 140.5 72.5 183.5s109.833 72.333 184.5 88s162.667 24.834 264 27.501c8.66699 74.667 25 136.334 49 185.001c-29.333 48 -87.666 72 -174.999 72c-52.667 0 -98.834 -6.16699 -138.501 -18.5
s-76.834 -27.166 -111.501 -44.499c-14.667 -7.33301 -23.667 -11 -27 -11c-8 0 -16.833 5.83301 -26.5 17.5s-18.167 24.834 -25.5 39.501s-11 25.334 -11 32.001c0 15.333 15.833 32 47.5 50s73.334 33 125.001 45s105.5 18 161.5 18c118.667 0 209 -28.333 271 -85
c65.333 56.667 155.333 85 270 85c121.333 0 212.833 -37.333 274.5 -112s92.5 -183.334 92.5 -326.001c0 -6.66699 -3.5 -16 -10.5 -28s-15.333 -22.667 -25 -32s-17.834 -14 -24.501 -14h-561c7.33301 -107.333 32.666 -185.833 75.999 -235.5s109 -74.5 197 -74.5
c50 0 93 6 129 18s70.667 26.667 104 44c14.667 8 23.667 12 27 12c8 0 16.833 -5.66699 26.5 -17s18 -24.333 25 -39s10.5 -25.334 10.5 -32.001c0 -14.667 -14.667 -31 -44 -49s-68.5 -33.333 -117.5 -46s-101.833 -19 -158.5 -19c-146 0 -254.333 37.333 -325 112
c-40 -33.333 -87.5 -60.333 -142.5 -81s-114.833 -31 -179.5 -31c-90.667 0 -164 22.333 -220 67zM1218 555.997c0 84.667 -17.832 148.5 -53.499 191.5s-88.834 64.5 -159.501 64.5c-154 0 -237 -85.333 -249 -256h462zM524.503 143.497
c38.333 16.333 75.5 39.1641 111.5 68.4971c-26 63.333 -39.333 135 -40 215c-69.333 -1.33301 -129.333 -6.16602 -180 -14.499s-92.667 -24.166 -126 -47.499s-50 -56.666 -50 -99.999c0 -47.333 12.833 -83.5 38.5 -108.5s63.167 -37.5 112.5 -37.5
c50.667 0 95.167 8.16699 133.5 24.5z" />
    <glyph glyph-name="ccedilla" unicode="&#xe7;" horiz-adv-x="862" 
d="M773.5 40c-23.667 -13.333 -55.499 -24.668 -95.499 -34.001s-83.333 -14.666 -130 -15.999l-22 -77h7c34 0 67.667 -9 101 -27s50 -51.667 50 -101c0 -62 -19.5 -104 -58.5 -126s-87.5 -33 -145.5 -33c-28 0 -58.167 3.16699 -90.5 9.5s-59.5 15.333 -81.5 27
s-33 25.167 -33 40.5c0 12.667 2.66699 23.5 8 32.5s14 13.5 26 13.5c6 0 13.833 -1.66699 23.5 -5s16.834 -5.66602 21.501 -6.99902c19.333 -7.33301 36.833 -13 52.5 -17s32.167 -6 49.5 -6c28.667 0 52.834 4 72.501 12s29.5 24.333 29.5 49c0 20 -6 34.5 -18 43.5
s-29.333 17.167 -52 24.5c-16 5.33301 -27.833 10.333 -35.5 15s-11.5 11.667 -11.5 21c0 7.33301 2.33301 19.333 7 36s12.667 42.334 24 77.001c-127.333 9.33301 -222.5 52 -285.5 128s-94.5 192.333 -94.5 349c0 170 40.333 291 121 363s181 108 301 108
c44.667 0 87.667 -3.83301 129 -11.5s74.666 -17.834 99.999 -30.501s38 -26 38 -40c0 -9.33301 -3.16699 -21.666 -9.5 -36.999s-14 -28.833 -23 -40.5s-17.167 -17.5 -24.5 -17.5c-2 0 -5 0.833008 -9 2.5l-11 4.5c-60 28 -124.667 42 -194 42
c-82 0 -145.333 -26.833 -190 -80.5s-67 -139.834 -67 -258.501c0 -84 9 -151.833 27 -203.5s47.167 -89.834 87.5 -114.501s94.166 -37 161.499 -37c74 0 140.667 15.333 200 46c6 1.33301 10.5 2.83301 13.5 4.5s5.16699 2.5 6.5 2.5
c7.33301 0 15.666 -5.66699 24.999 -17s17.5 -24.333 24.5 -39s10.5 -26.334 10.5 -35.001c0 -13.333 -11.833 -26.666 -35.5 -39.999z" />
    <glyph glyph-name="egrave" unicode="&#xe8;" horiz-adv-x="959" 
d="M205.5 105.5c-71.667 77 -107.5 194.835 -107.5 353.502c0 157.333 35 276.833 105 358.5s173 122.5 309 122.5c121.333 0 212.833 -39.333 274.5 -118s92.5 -194 92.5 -346c0 -6.66699 -3.5 -15.834 -10.5 -27.501s-15.333 -22 -25 -31s-17.834 -13.5 -24.501 -13.5
h-561c7.33301 -99.333 32.833 -171.833 76.5 -217.5s109.5 -68.5 197.5 -68.5c49.333 0 91.833 6 127.5 18s70.167 26.667 103.5 44c3.33301 1.33301 8.33301 3.66602 15 6.99902s11.334 5 14.001 5c7.33301 0 15.833 -5.83301 25.5 -17.5s18 -24.667 25 -39
s10.5 -24.833 10.5 -31.5c0 -14.667 -14.667 -31 -44 -49s-68.5 -33.333 -117.5 -46s-101.5 -19 -157.5 -19c-147.333 0 -256.833 38.5 -328.5 115.5zM720 532.002c0 186.667 -71 280 -213 280c-152.667 0 -235.667 -93.333 -249 -280h462zM477.5 1049
c-15.667 5.33301 -28.5 13 -38.5 23l-72 82c-43.333 49.333 -70.166 80.5 -80.499 93.5s-15.5 23.167 -15.5 30.5c0 9.33301 6.83301 15.666 20.5 18.999s35.5 5 65.5 5c28.667 0 51.667 -3.5 69 -10.5s31 -18.833 41 -35.5c43.333 -75.333 71.333 -125.166 84 -149.499
s19 -40.5 19 -48.5c0 -6 -3.16699 -10.333 -9.5 -13s-16.833 -4 -31.5 -4c-18.667 0 -35.834 2.66699 -51.501 8z" />
    <glyph glyph-name="eacute" unicode="&#xe9;" horiz-adv-x="959" 
d="M205.5 105.5c-71.667 77 -107.5 194.835 -107.5 353.502c0 157.333 35 276.833 105 358.5s173 122.5 309 122.5c121.333 0 212.833 -39.333 274.5 -118s92.5 -194 92.5 -346c0 -6.66699 -3.5 -15.834 -10.5 -27.501s-15.333 -22 -25 -31s-17.834 -13.5 -24.501 -13.5
h-561c7.33301 -99.333 32.833 -171.833 76.5 -217.5s109.5 -68.5 197.5 -68.5c49.333 0 91.833 6 127.5 18s70.167 26.667 103.5 44c3.33301 1.33301 8.33301 3.66602 15 6.99902s11.334 5 14.001 5c7.33301 0 15.833 -5.83301 25.5 -17.5s18 -24.667 25 -39
s10.5 -24.833 10.5 -31.5c0 -14.667 -14.667 -31 -44 -49s-68.5 -33.333 -117.5 -46s-101.5 -19 -157.5 -19c-147.333 0 -256.833 38.5 -328.5 115.5zM720 532.002c0 186.667 -71 280 -213 280c-152.667 0 -235.667 -93.333 -249 -280h462zM409 1058
c0 8 5.99805 23.3311 17.998 45.998s40.667 73.334 86 152.001c9.33301 16 22.833 27.667 40.5 35s40.834 11 69.501 11c30 0 51.667 -1.66699 65 -5s20 -9.66602 20 -18.999c0 -6 -2.66699 -13 -8 -21s-18.166 -23.667 -38.499 -47l-77.5 -89l-43 -49
c-9.33301 -10 -22 -17.667 -38 -23s-33.667 -8 -53 -8c-27.333 0 -41 5.66699 -41 17z" />
    <glyph glyph-name="ecircumflex" unicode="&#xea;" horiz-adv-x="959" 
d="M205.5 105.5c-71.667 77 -107.5 194.835 -107.5 353.502c0 157.333 35 276.833 105 358.5s173 122.5 309 122.5c121.333 0 212.833 -39.333 274.5 -118s92.5 -194 92.5 -346c0 -6.66699 -3.5 -15.834 -10.5 -27.501s-15.333 -22 -25 -31s-17.834 -13.5 -24.501 -13.5
h-561c7.33301 -99.333 32.833 -171.833 76.5 -217.5s109.5 -68.5 197.5 -68.5c49.333 0 91.833 6 127.5 18s70.167 26.667 103.5 44c3.33301 1.33301 8.33301 3.66602 15 6.99902s11.334 5 14.001 5c7.33301 0 15.833 -5.83301 25.5 -17.5s18 -24.667 25 -39
s10.5 -24.833 10.5 -31.5c0 -14.667 -14.667 -31 -44 -49s-68.5 -33.333 -117.5 -46s-101.5 -19 -157.5 -19c-147.333 0 -256.833 38.5 -328.5 115.5zM720 532.002c0 186.667 -71 280 -213 280c-152.667 0 -235.667 -93.333 -249 -280h462zM265 1049
c0 8 3.66602 18.666 10.999 31.999l99 156c17.333 26 44.666 39 81.999 39h44c38 0 65.333 -13 82 -39l102 -156c7.33301 -11.333 11 -21.333 11 -30c0 -18 -14.333 -27 -43 -27h-4c-11.333 0 -21.666 1.83301 -30.999 5.5s-18.666 9.83398 -27.999 18.501l-111 131
l-109 -131c-16 -16 -36 -24 -60 -24h-4c-27.333 0 -41 8.33301 -41 25z" />
    <glyph glyph-name="edieresis" unicode="&#xeb;" horiz-adv-x="959" 
d="M205.5 105.5c-71.667 77 -107.5 194.835 -107.5 353.502c0 157.333 35 276.833 105 358.5s173 122.5 309 122.5c121.333 0 212.833 -39.333 274.5 -118s92.5 -194 92.5 -346c0 -6.66699 -3.5 -15.834 -10.5 -27.501s-15.333 -22 -25 -31s-17.834 -13.5 -24.501 -13.5
h-561c7.33301 -99.333 32.833 -171.833 76.5 -217.5s109.5 -68.5 197.5 -68.5c49.333 0 91.833 6 127.5 18s70.167 26.667 103.5 44c3.33301 1.33301 8.33301 3.66602 15 6.99902s11.334 5 14.001 5c7.33301 0 15.833 -5.83301 25.5 -17.5s18 -24.667 25 -39
s10.5 -24.833 10.5 -31.5c0 -14.667 -14.667 -31 -44 -49s-68.5 -33.333 -117.5 -46s-101.5 -19 -157.5 -19c-147.333 0 -256.833 38.5 -328.5 115.5zM720 532.002c0 186.667 -71 280 -213 280c-152.667 0 -235.667 -93.333 -249 -280h462zM279 1118v91
c0 26.667 26 40 78 40c47.333 0 71 -13.333 71 -40v-91c0 -25.333 -26 -38 -78 -38c-47.333 0 -71 12.667 -71 38zM535 1118v91c0 26.667 26 40 78 40c47.333 0 71 -13.333 71 -40v-91c0 -25.333 -26 -38 -78 -38c-47.333 0 -71 12.667 -71 38z" />
    <glyph glyph-name="igrave" unicode="&#xec;" horiz-adv-x="471" 
d="M162 36v858c0 26 23.667 39 71 39h7c48 0 72 -13 72 -39v-858c0 -26 -24 -39 -72 -39h-7c-47.333 0 -71 13 -71 39zM232.5 1049c-15.667 5.33301 -28.5 13 -38.5 23l-72 82c-43.333 49.333 -70.166 80.5 -80.499 93.5s-15.5 23.167 -15.5 30.5
c0 9.33301 6.83301 15.666 20.5 18.999s35.5 5 65.5 5c28.667 0 51.667 -3.5 69 -10.5s31 -18.833 41 -35.5c43.333 -75.333 71.333 -125.166 84 -149.499s19 -40.5 19 -48.5c0 -6 -3.16699 -10.333 -9.5 -13s-16.833 -4 -31.5 -4c-18.667 0 -35.834 2.66699 -51.501 8z" />
    <glyph glyph-name="iacute" unicode="&#xed;" horiz-adv-x="471" 
d="M162 36v858c0 26 23.667 39 71 39h7c48 0 72 -13 72 -39v-858c0 -26 -24 -39 -72 -39h-7c-47.333 0 -71 13 -71 39zM165 1058c0 8 5.99805 23.3311 17.998 45.998s40.667 73.334 86 152.001c9.33301 16 22.833 27.667 40.5 35s40.834 11 69.501 11
c30 0 51.667 -1.66699 65 -5s20 -9.66602 20 -18.999c0 -6 -2.66699 -13 -8 -21s-18.166 -23.667 -38.499 -47l-77.5 -89l-43 -49c-9.33301 -10 -22 -17.667 -38 -23s-33.667 -8 -53 -8c-27.333 0 -41 5.66699 -41 17z" />
    <glyph glyph-name="icircumflex" unicode="&#xee;" horiz-adv-x="471" 
d="M162 36v858c0 26 23.667 39 71 39h7c48 0 72 -13 72 -39v-858c0 -26 -24 -39 -72 -39h-7c-47.333 0 -71 13 -71 39zM21 1049c0 8 3.66602 18.666 10.999 31.999l99 156c17.333 26 44.666 39 81.999 39h44c38 0 65.333 -13 82 -39l102 -156
c7.33301 -11.333 11 -21.333 11 -30c0 -18 -14.333 -27 -43 -27h-4c-11.333 0 -21.666 1.83301 -30.999 5.5s-18.666 9.83398 -27.999 18.501l-111 131l-109 -131c-16 -16 -36 -24 -60 -24h-4c-27.333 0 -41 8.33301 -41 25z" />
    <glyph glyph-name="idieresis" unicode="&#xef;" horiz-adv-x="471" 
d="M162 36v858c0 26 23.667 39 71 39h7c48 0 72 -13 72 -39v-858c0 -26 -24 -39 -72 -39h-7c-47.333 0 -71 13 -71 39zM35 1118v91c0 26.667 26 40 78 40c47.333 0 71 -13.333 71 -40v-91c0 -25.333 -26 -38 -78 -38c-47.333 0 -71 12.667 -71 38zM291 1118v91
c0 26.667 26 40 78 40c47.333 0 71 -13.333 71 -40v-91c0 -25.333 -26 -38 -78 -38c-47.333 0 -71 12.667 -71 38z" />
    <glyph glyph-name="eth" unicode="&#xf0;" horiz-adv-x="1012" 
d="M203.5 110.5c-70.333 80.333 -105.501 197.168 -105.501 350.501s35.667 271.5 107 354.5s173 124.5 305 124.5c51.333 0 99 -6.66699 143 -20c-23.333 49.333 -50.666 102.666 -81.999 159.999c-107.333 -14.667 -158.333 -22 -153 -22c-12 0 -22.667 6.16699 -32 18.5
s-14 24.833 -14 37.5c0 13.333 9 21.333 27 24l128 17c-16.667 24.667 -28.5 43.167 -35.5 55.5s-10.5 22.5 -10.5 30.5c0 14 9 22.333 27 25c17.333 2.66699 33.333 4 48 4c18.667 0 34.334 -7 47.001 -21l59 -75l138 19c10 0 18.5 -3.83301 25.5 -11.5s12 -16 15 -25
s4.5 -15.833 4.5 -20.5c0 -6 -2.33301 -11.167 -7 -15.5s-11.334 -6.83301 -20.001 -7.5l-107 -14c63.333 -98 113 -201.167 149 -309.5s54 -217.833 54 -328.5c0 -154 -34.167 -271 -102.5 -351s-168.833 -120 -301.5 -120c-134 0 -236.167 40.167 -306.5 120.5z
M696.999 202.502c41.333 56.333 62 143.498 62 261.498c0 118.667 -20.667 206.334 -62 263.001s-105.333 85 -192 85c-86 0 -149.833 -28.167 -191.5 -84.5s-62.5 -144.166 -62.5 -263.499c0 -118 20.667 -205.167 62 -261.5s105.333 -84.5 192 -84.5
s150.667 28.167 192 84.5z" />
    <glyph glyph-name="ntilde" unicode="&#xf1;" horiz-adv-x="990" 
d="M170 6.5c-11.333 6.33301 -17.002 16.168 -17.002 29.501v624c0 77.333 -3.66699 133.166 -11 167.499s-11 53.166 -11 56.499c0 14.667 11.167 25.167 33.5 31.5s43.5 9.5 63.5 9.5c16.667 0 29 -9 37 -27s13.833 -36.333 17.5 -55s6.16699 -30.667 7.5 -36
c37.333 42 80.5 74.667 129.5 98s98.5 35 148.5 35c90.667 0 161.5 -25.5 212.5 -76.5s76.5 -121.167 76.5 -210.5v-617c0 -13.333 -5.66699 -23.166 -17 -29.499s-29.333 -9.5 -54 -9.5h-8c-24 0 -41.667 3.16699 -53 9.5s-17 16.166 -17 29.499v602
c0 54.667 -15.833 97.167 -47.5 127.5s-76.167 45.5 -133.5 45.5c-40 0 -80.167 -11.167 -120.5 -33.5s-75.166 -52.833 -104.499 -91.5v-650c0 -13.333 -5.66699 -23.166 -17 -29.499s-29 -9.5 -53 -9.5h-7c-25.333 0 -43.666 3.16699 -54.999 9.5zM204.998 1060
c-11.333 4.66699 -16.998 11.665 -16.998 20.998c0 8 2 15.667 6 23c18.667 44 41.167 75.5 67.5 94.5s58.5 28.5 96.5 28.5c24 0 48.667 -3.5 74 -10.5s57 -17.167 95 -30.5c31.333 -12 58 -21 80 -27s42 -9 60 -9c16 0 29.833 3.83301 41.5 11.5s23.5 21.167 35.5 40.5
c12 17.333 23.667 26 35 26c4 0 10 -1.66699 18 -5l14 -5c7.33301 -2.66699 12.666 -5.66699 15.999 -9s5 -7.66602 5 -12.999c0 -7.33301 -2.66699 -15.333 -8 -24c-18.667 -43.333 -41.167 -74.333 -67.5 -93s-57.833 -28 -94.5 -28c-25.333 0 -50.833 3.5 -76.5 10.5
s-59.167 17.5 -100.5 31.5c-32.667 12 -59.334 20.833 -80.001 26.5s-39.667 8.5 -57 8.5c-14.667 0 -27.667 -4.16699 -39 -12.5s-23.333 -22.166 -36 -41.499c-6 -9.33301 -11.333 -16 -16 -20s-10 -6 -16 -6c-4 0 -10 1.66699 -18 5z" />
    <glyph glyph-name="ograve" unicode="&#xf2;" horiz-adv-x="1012" 
d="M203.5 110.5c-70.333 80.333 -105.5 197.167 -105.5 350.5s35.667 271.5 107 354.5s173 124.5 305 124.5c130.667 0 230.667 -41.167 300 -123.5s104 -200.833 104 -355.5c0 -154 -34.167 -271 -102.5 -351s-168.833 -120 -301.5 -120
c-134 0 -236.167 40.167 -306.5 120.5zM697 202.501c41.333 56.333 62 143.498 62 261.498c0 118.667 -20.667 206.334 -62 263.001s-105.333 85 -192 85c-86 0 -149.333 -28.167 -190 -84.5s-61 -144.166 -61 -263.499c0 -118.667 20.167 -206 60.5 -262
s103.833 -84 190.5 -84s150.667 28.167 192 84.5zM503.5 1049c-15.667 5.33301 -28.5 13 -38.5 23l-72 82c-43.333 49.333 -70.166 80.5 -80.499 93.5s-15.5 23.167 -15.5 30.5c0 9.33301 6.83301 15.666 20.5 18.999s35.5 5 65.5 5c28.667 0 51.667 -3.5 69 -10.5
s31 -18.833 41 -35.5c43.333 -75.333 71.333 -125.166 84 -149.499s19 -40.5 19 -48.5c0 -6 -3.16699 -10.333 -9.5 -13s-16.833 -4 -31.5 -4c-18.667 0 -35.834 2.66699 -51.501 8z" />
    <glyph glyph-name="oacute" unicode="&#xf3;" horiz-adv-x="1012" 
d="M203.5 110.5c-70.333 80.333 -105.5 197.167 -105.5 350.5s35.667 271.5 107 354.5s173 124.5 305 124.5c130.667 0 230.667 -41.167 300 -123.5s104 -200.833 104 -355.5c0 -154 -34.167 -271 -102.5 -351s-168.833 -120 -301.5 -120
c-134 0 -236.167 40.167 -306.5 120.5zM697 202.501c41.333 56.333 62 143.498 62 261.498c0 118.667 -20.667 206.334 -62 263.001s-105.333 85 -192 85c-86 0 -149.333 -28.167 -190 -84.5s-61 -144.166 -61 -263.499c0 -118.667 20.167 -206 60.5 -262
s103.833 -84 190.5 -84s150.667 28.167 192 84.5zM435 1058c0 8 5.99805 23.3311 17.998 45.998s40.667 73.334 86 152.001c9.33301 16 22.833 27.667 40.5 35s40.834 11 69.501 11c30 0 51.667 -1.66699 65 -5s20 -9.66602 20 -18.999c0 -6 -2.66699 -13 -8 -21
s-18.166 -23.667 -38.499 -47l-77.5 -89l-43 -49c-9.33301 -10 -22 -17.667 -38 -23s-33.667 -8 -53 -8c-27.333 0 -41 5.66699 -41 17z" />
    <glyph glyph-name="ocircumflex" unicode="&#xf4;" horiz-adv-x="1012" 
d="M203.5 110.5c-70.333 80.333 -105.5 197.167 -105.5 350.5s35.667 271.5 107 354.5s173 124.5 305 124.5c130.667 0 230.667 -41.167 300 -123.5s104 -200.833 104 -355.5c0 -154 -34.167 -271 -102.5 -351s-168.833 -120 -301.5 -120
c-134 0 -236.167 40.167 -306.5 120.5zM697 202.501c41.333 56.333 62 143.498 62 261.498c0 118.667 -20.667 206.334 -62 263.001s-105.333 85 -192 85c-86 0 -149.333 -28.167 -190 -84.5s-61 -144.166 -61 -263.499c0 -118.667 20.167 -206 60.5 -262
s103.833 -84 190.5 -84s150.667 28.167 192 84.5zM292 1049c0 8 3.66602 18.666 10.999 31.999l99 156c17.333 26 44.666 39 81.999 39h44c38 0 65.333 -13 82 -39l102 -156c7.33301 -11.333 11 -21.333 11 -30c0 -18 -14.333 -27 -43 -27h-4
c-11.333 0 -21.666 1.83301 -30.999 5.5s-18.666 9.83398 -27.999 18.501l-111 131l-109 -131c-16 -16 -36 -24 -60 -24h-4c-27.333 0 -41 8.33301 -41 25z" />
    <glyph glyph-name="otilde" unicode="&#xf5;" horiz-adv-x="1012" 
d="M203.5 110.5c-70.333 80.333 -105.5 197.167 -105.5 350.5s35.667 271.5 107 354.5s173 124.5 305 124.5c130.667 0 230.667 -41.167 300 -123.5s104 -200.833 104 -355.5c0 -154 -34.167 -271 -102.5 -351s-168.833 -120 -301.5 -120
c-134 0 -236.167 40.167 -306.5 120.5zM697 202.501c41.333 56.333 62 143.498 62 261.498c0 118.667 -20.667 206.334 -62 263.001s-105.333 85 -192 85c-86 0 -149.333 -28.167 -190 -84.5s-61 -144.166 -61 -263.499c0 -118.667 20.167 -206 60.5 -262
s103.833 -84 190.5 -84s150.667 28.167 192 84.5zM217 1060c-11.333 4.66699 -16.998 11.665 -16.998 20.998c0 8 2 15.667 6 23c18.667 44 41.167 75.5 67.5 94.5s58.5 28.5 96.5 28.5c24 0 48.667 -3.5 74 -10.5s57 -17.167 95 -30.5c31.333 -12 58 -21 80 -27
s42 -9 60 -9c16 0 29.833 3.83301 41.5 11.5s23.5 21.167 35.5 40.5c12 17.333 23.667 26 35 26c4 0 10 -1.66699 18 -5l14 -5c7.33301 -2.66699 12.666 -5.66699 15.999 -9s5 -7.66602 5 -12.999c0 -7.33301 -2.66699 -15.333 -8 -24
c-18.667 -43.333 -41.167 -74.333 -67.5 -93s-57.833 -28 -94.5 -28c-25.333 0 -50.833 3.5 -76.5 10.5s-59.167 17.5 -100.5 31.5c-32.667 12 -59.334 20.833 -80.001 26.5s-39.667 8.5 -57 8.5c-14.667 0 -27.667 -4.16699 -39 -12.5s-23.333 -22.166 -36 -41.499
c-6 -9.33301 -11.333 -16 -16 -20s-10 -6 -16 -6c-4 0 -10 1.66699 -18 5z" />
    <glyph glyph-name="odieresis" unicode="&#xf6;" horiz-adv-x="1012" 
d="M203.5 110.5c-70.333 80.333 -105.5 197.167 -105.5 350.5s35.667 271.5 107 354.5s173 124.5 305 124.5c130.667 0 230.667 -41.167 300 -123.5s104 -200.833 104 -355.5c0 -154 -34.167 -271 -102.5 -351s-168.833 -120 -301.5 -120
c-134 0 -236.167 40.167 -306.5 120.5zM697 202.501c41.333 56.333 62 143.498 62 261.498c0 118.667 -20.667 206.334 -62 263.001s-105.333 85 -192 85c-86 0 -149.333 -28.167 -190 -84.5s-61 -144.166 -61 -263.499c0 -118.667 20.167 -206 60.5 -262
s103.833 -84 190.5 -84s150.667 28.167 192 84.5zM306 1118v91c0 26.667 26 40 78 40c47.333 0 71 -13.333 71 -40v-91c0 -25.333 -26 -38 -78 -38c-47.333 0 -71 12.667 -71 38zM562 1118v91c0 26.667 26 40 78 40c47.333 0 71 -13.333 71 -40v-91
c0 -25.333 -26 -38 -78 -38c-47.333 0 -71 12.667 -71 38z" />
    <glyph glyph-name="divide" unicode="&#xf7;" horiz-adv-x="996" 
d="M423 693v92c0 26 24 39 72 39h7c47.333 0 71 -13 71 -39v-92c0 -25.333 -23.667 -38 -71 -38h-7c-48 0 -72 12.667 -72 38zM99 364.5c-9.33301 9.66699 -14.001 22.832 -14.001 39.499v12c0 17.333 4.66699 30.5 14 39.5s22.333 13.5 39 13.5h719c36 0 54 -17.667 54 -53
v-12c0 -17.333 -4.66699 -30.666 -14 -39.999s-22.666 -14 -39.999 -14h-719c-16.667 0 -29.667 4.83301 -39 14.5zM422.999 35.998v90c0 26 24 39 72 39h7c47.333 0 71 -13 71 -39v-90c0 -26 -23.667 -39 -71 -39h-7c-48 0 -72 13 -72 39z" />
    <glyph glyph-name="oslash" unicode="&#xf8;" horiz-adv-x="1012" 
d="M232 78l-52.999 -59.999c-8.66699 -10 -16.667 -15 -24 -15c-8 0 -16.833 4.5 -26.5 13.5s-14.5 17.167 -14.5 24.5s4 15.666 12 24.999l55 65c-55.333 78 -83 188 -83 330c0 179.333 40 303.833 120 373.5s177.333 104.5 292 104.5c119.333 0 213.333 -32.667 282 -98
l60 72c8.66699 8.66699 17 13 25 13c7.33301 0 15.666 -4.5 24.999 -13.5s14 -16.833 14 -23.5c0 -8.66699 -3.66699 -16.667 -11 -24l-69 -80c52 -80 78 -188 78 -324c0 -180 -38.333 -303.333 -115 -370s-173 -100 -289 -100c-118 0 -210.667 29 -278 87zM696.001 729.001
c-42.667 54.667 -106.332 81.999 -190.999 81.999c-82.667 0 -145.334 -26.833 -188.001 -80.5s-64 -142.5 -64 -266.5c0 -91.333 10.667 -161.666 32 -210.999zM694.503 198.5c43 53 64.5 141.5 64.5 265.5c0 84 -9.66699 150 -29 198l-404 -475
c20.667 -24 45.667 -41.333 75 -52s64 -16 104 -16c83.333 0 146.5 26.5 189.5 79.5z" />
    <glyph glyph-name="ugrave" unicode="&#xf9;" horiz-adv-x="990" 
d="M210 66.5c-51.333 51 -77 121.498 -77 211.498v616c0 26 24 39 72 39h7c47.333 0 71 -13 71 -39v-602c0 -54.667 15.833 -97.167 47.5 -127.5s76.167 -45.5 133.5 -45.5c40 0 80 11.167 120 33.5s74.667 52.833 104 91.5v650c0 26 23.667 39 71 39h7c48 0 72 -13 72 -39
v-631c0 -77.333 3.33301 -133.166 10 -167.499s10 -53.166 10 -56.499c0 -14.667 -11 -25.167 -33 -31.5s-42.667 -9.5 -62 -9.5c-16.667 0 -29 9.5 -37 28.5s-13.833 38.5 -17.5 58.5s-6.16699 32.667 -7.5 38c-37.333 -42 -80.5 -74.667 -129.5 -98s-98.5 -35 -148.5 -35
c-90.667 0 -161.667 25.5 -213 76.5zM492.5 1049c-15.667 5.33301 -28.5 13 -38.5 23l-72 82c-43.333 49.333 -70.166 80.5 -80.499 93.5s-15.5 23.167 -15.5 30.5c0 9.33301 6.83301 15.666 20.5 18.999s35.5 5 65.5 5c28.667 0 51.667 -3.5 69 -10.5s31 -18.833 41 -35.5
c43.333 -75.333 71.333 -125.166 84 -149.499s19 -40.5 19 -48.5c0 -6 -3.16699 -10.333 -9.5 -13s-16.833 -4 -31.5 -4c-18.667 0 -35.834 2.66699 -51.501 8z" />
    <glyph glyph-name="uacute" unicode="&#xfa;" horiz-adv-x="990" 
d="M210 66.5c-51.333 51 -77 121.498 -77 211.498v616c0 26 24 39 72 39h7c47.333 0 71 -13 71 -39v-602c0 -54.667 15.833 -97.167 47.5 -127.5s76.167 -45.5 133.5 -45.5c40 0 80 11.167 120 33.5s74.667 52.833 104 91.5v650c0 26 23.667 39 71 39h7c48 0 72 -13 72 -39
v-631c0 -77.333 3.33301 -133.166 10 -167.499s10 -53.166 10 -56.499c0 -14.667 -11 -25.167 -33 -31.5s-42.667 -9.5 -62 -9.5c-16.667 0 -29 9.5 -37 28.5s-13.833 38.5 -17.5 58.5s-6.16699 32.667 -7.5 38c-37.333 -42 -80.5 -74.667 -129.5 -98s-98.5 -35 -148.5 -35
c-90.667 0 -161.667 25.5 -213 76.5zM424 1058c0 8 5.99805 23.3311 17.998 45.998s40.667 73.334 86 152.001c9.33301 16 22.833 27.667 40.5 35s40.834 11 69.501 11c30 0 51.667 -1.66699 65 -5s20 -9.66602 20 -18.999c0 -6 -2.66699 -13 -8 -21
s-18.166 -23.667 -38.499 -47l-77.5 -89l-43 -49c-9.33301 -10 -22 -17.667 -38 -23s-33.667 -8 -53 -8c-27.333 0 -41 5.66699 -41 17z" />
    <glyph glyph-name="ucircumflex" unicode="&#xfb;" horiz-adv-x="990" 
d="M210 66.5c-51.333 51 -77 121.498 -77 211.498v616c0 26 24 39 72 39h7c47.333 0 71 -13 71 -39v-602c0 -54.667 15.833 -97.167 47.5 -127.5s76.167 -45.5 133.5 -45.5c40 0 80 11.167 120 33.5s74.667 52.833 104 91.5v650c0 26 23.667 39 71 39h7c48 0 72 -13 72 -39
v-631c0 -77.333 3.33301 -133.166 10 -167.499s10 -53.166 10 -56.499c0 -14.667 -11 -25.167 -33 -31.5s-42.667 -9.5 -62 -9.5c-16.667 0 -29 9.5 -37 28.5s-13.833 38.5 -17.5 58.5s-6.16699 32.667 -7.5 38c-37.333 -42 -80.5 -74.667 -129.5 -98s-98.5 -35 -148.5 -35
c-90.667 0 -161.667 25.5 -213 76.5zM280 1049c0 8 3.66602 18.666 10.999 31.999l99 156c17.333 26 44.666 39 81.999 39h44c38 0 65.333 -13 82 -39l102 -156c7.33301 -11.333 11 -21.333 11 -30c0 -18 -14.333 -27 -43 -27h-4c-11.333 0 -21.666 1.83301 -30.999 5.5
s-18.666 9.83398 -27.999 18.501l-111 131l-109 -131c-16 -16 -36 -24 -60 -24h-4c-27.333 0 -41 8.33301 -41 25z" />
    <glyph glyph-name="udieresis" unicode="&#xfc;" horiz-adv-x="990" 
d="M210 66.5c-51.333 51 -77 121.498 -77 211.498v616c0 26 24 39 72 39h7c47.333 0 71 -13 71 -39v-602c0 -54.667 15.833 -97.167 47.5 -127.5s76.167 -45.5 133.5 -45.5c40 0 80 11.167 120 33.5s74.667 52.833 104 91.5v650c0 26 23.667 39 71 39h7c48 0 72 -13 72 -39
v-631c0 -77.333 3.33301 -133.166 10 -167.499s10 -53.166 10 -56.499c0 -14.667 -11 -25.167 -33 -31.5s-42.667 -9.5 -62 -9.5c-16.667 0 -29 9.5 -37 28.5s-13.833 38.5 -17.5 58.5s-6.16699 32.667 -7.5 38c-37.333 -42 -80.5 -74.667 -129.5 -98s-98.5 -35 -148.5 -35
c-90.667 0 -161.667 25.5 -213 76.5zM294 1118v91c0 26.667 26 40 78 40c47.333 0 71 -13.333 71 -40v-91c0 -25.333 -26 -38 -78 -38c-47.333 0 -71 12.667 -71 38zM550 1118v91c0 26.667 26 40 78 40c47.333 0 71 -13.333 71 -40v-91c0 -25.333 -26 -38 -78 -38
c-47.333 0 -71 12.667 -71 38z" />
    <glyph glyph-name="yacute" unicode="&#xfd;" horiz-adv-x="855" 
d="M191 -341c0 4.66699 2.66699 14.334 8 29.001l149 362l-311 830l-3 11.5c-1.33301 5 -2 8.83301 -2 11.5c0 9.33301 6.33301 16.666 19 21.999s32 8 58 8h14c40 0 63.667 -9.33301 71 -28l181 -482c16 -42 35 -101.667 57 -179h3l21 66l17 51.5
c8 24.333 15.333 44.833 22 61.5l177 482c6 18.667 30.333 28 73 28h6c46.667 0 70 -10 70 -30c0 -4.66699 -1.66699 -12.667 -5 -24l-456 -1212c-10.667 -24.667 -38.667 -37 -84 -37h-27c-38.667 0 -58 9.66699 -58 29zM356 1058c0 8 5.99805 23.3311 17.998 45.998
s40.667 73.334 86 152.001c9.33301 16 22.833 27.667 40.5 35s40.834 11 69.501 11c30 0 51.667 -1.66699 65 -5s20 -9.66602 20 -18.999c0 -6 -2.66699 -13 -8 -21s-18.166 -23.667 -38.499 -47l-77.5 -89l-43 -49c-9.33301 -10 -22 -17.667 -38 -23s-33.667 -8 -53 -8
c-27.333 0 -41 5.66699 -41 17z" />
    <glyph glyph-name="thorn" unicode="&#xfe;" horiz-adv-x="1014" 
d="M152 -331l0.000976562 1629c0 26 23.333 39 70 39h8c46.667 0 70 -13 70 -39v-479c82.667 80.667 173 121 271 121c70 0 131 -20.167 183 -60.5s92 -96.666 120 -168.999s42 -155.166 42 -248.499c0 -99.333 -15.167 -184.5 -45.5 -255.5s-72.833 -124.833 -127.5 -161.5
s-117.334 -55 -188.001 -55c-51.333 0 -97 7.66699 -137 23s-79.333 37.666 -118 66.999v-411c0 -26 -23.333 -39 -70 -39h-8c-46.667 0 -70 13 -70 39zM699.001 207.999c40 56 60 137.332 60 243.999c0 114.667 -18.833 203.167 -56.5 265.5s-91.5 93.5 -161.5 93.5
c-40 0 -81 -10.667 -123 -32s-81.333 -51.666 -118 -90.999v-487c65.333 -53.333 139 -80 221 -80c78.667 2 138 31 178 87z" />
    <glyph glyph-name="ydieresis" unicode="&#xff;" horiz-adv-x="855" 
d="M191 -341c0 4.66699 2.66699 14.334 8 29.001l149 362l-311 830l-3 11.5c-1.33301 5 -2 8.83301 -2 11.5c0 9.33301 6.33301 16.666 19 21.999s32 8 58 8h14c40 0 63.667 -9.33301 71 -28l181 -482c16 -42 35 -101.667 57 -179h3l21 66l17 51.5
c8 24.333 15.333 44.833 22 61.5l177 482c6 18.667 30.333 28 73 28h6c46.667 0 70 -10 70 -30c0 -4.66699 -1.66699 -12.667 -5 -24l-456 -1212c-10.667 -24.667 -38.667 -37 -84 -37h-27c-38.667 0 -58 9.66699 -58 29zM227 1118v91c0 26.667 26 40 78 40
c47.333 0 71 -13.333 71 -40v-91c0 -25.333 -26 -38 -78 -38c-47.333 0 -71 12.667 -71 38zM483 1118v91c0 26.667 26 40 78 40c47.333 0 71 -13.333 71 -40v-91c0 -25.333 -26 -38 -78 -38c-47.333 0 -71 12.667 -71 38z" />
    <glyph glyph-name="Amacron" unicode="&#x100;" horiz-adv-x="1090" 
d="M40 4.5c-12 5 -18.002 12.5 -18.002 22.5c0 4.66699 1.66699 12.667 5 24l421 1169c6.66699 19.333 30.334 29 71.001 29h52c40.667 0 64.334 -9.66699 71.001 -29l421 -1170c3.33301 -7.33301 5 -15 5 -23c0 -20 -25 -30 -75 -30h-15c-41.333 0 -65.333 9.33301 -72 28
l-104 292h-522l-102 -292c-6 -18.667 -29.667 -28 -71 -28h-9c-26.667 0 -46 2.5 -58 7.5zM753.998 452l-186.001 529c-5.33301 14.667 -9.66602 31.334 -12.999 50.001s-6.33301 36.667 -9 54h-4c-8 -44.667 -17 -79.334 -27 -104.001l-186 -529h425zM321.497 1415
c-5.66699 8.66699 -8.5 22.332 -8.5 40.999v17c0 18.667 2.83301 32.334 8.5 41.001s14.834 13 27.501 13h397c12 0 20.667 -4.33301 26 -13s8 -22.334 8 -41.001v-17c0 -19.333 -2.66699 -33.166 -8 -41.499s-14 -12.5 -26 -12.5h-397
c-12.667 0 -21.834 4.33301 -27.501 13z" />
    <glyph glyph-name="amacron" unicode="&#x101;" horiz-adv-x="969" 
d="M171 57c-56 44.667 -84 110.995 -84 198.995c0 92.667 28.333 162.5 85 209.5s125.834 77.333 207.501 91s180.834 21.5 297.501 23.5v84c0 44.667 -15.167 80.5 -45.5 107.5s-80.166 40.5 -149.499 40.5c-52.667 0 -98.834 -6.16699 -138.501 -18.5
s-76.834 -27.166 -111.501 -44.499c-14.667 -7.33301 -23.667 -11 -27 -11c-8 0 -16.833 5.83301 -26.5 17.5s-18 24.834 -25 39.501s-10.5 25.334 -10.5 32.001c0 15.333 15.833 32 47.5 50s73.167 33 124.5 45s105 18 161 18c111.333 0 197.666 -24.333 258.999 -73
s92 -117 92 -205v-399c0 -77.333 3.5 -133.166 10.5 -167.499s10.5 -53.166 10.5 -56.499c0 -14.667 -11.167 -25.167 -33.5 -31.5s-43.166 -9.5 -62.499 -9.5c-16 0 -27.833 9 -35.5 27s-15.167 44 -22.5 78l-4 20c-36.667 -40.667 -79.834 -73 -129.501 -97
s-106.167 -36 -169.5 -36c-90.667 0 -164 22.333 -220 67zM549 150.995c41.333 21.333 84.001 51.668 128.001 91.001v210c-88 -0.666992 -160.333 -4.33398 -217 -11.001s-106.334 -23.5 -149.001 -50.5s-64 -68.833 -64 -125.5c0 -47.333 12.833 -83.5 38.5 -108.5
s63.5 -37.5 113.5 -37.5c58.667 0 108.667 10.667 150 32zM260.501 1101c-5.66699 8.66699 -8.5 22.332 -8.5 40.999v17c0 18.667 2.83301 32.334 8.5 41.001s14.834 13 27.501 13h397c12 0 20.667 -4.33301 26 -13s8 -22.334 8 -41.001v-17
c0 -19.333 -2.66699 -33.166 -8 -41.499s-14 -12.5 -26 -12.5h-397c-12.667 0 -21.834 4.33301 -27.501 13z" />
    <glyph glyph-name="Abreve" unicode="&#x102;" horiz-adv-x="1090" 
d="M40 4.5c-12 5 -18.002 12.5 -18.002 22.5c0 4.66699 1.66699 12.667 5 24l421 1169c6.66699 19.333 30.334 29 71.001 29h52c40.667 0 64.334 -9.66699 71.001 -29l421 -1170c3.33301 -7.33301 5 -15 5 -23c0 -20 -25 -30 -75 -30h-15c-41.333 0 -65.333 9.33301 -72 28
l-104 292h-522l-102 -292c-6 -18.667 -29.667 -28 -71 -28h-9c-26.667 0 -46 2.5 -58 7.5zM753.998 452l-186.001 529c-5.33301 14.667 -9.66602 31.334 -12.999 50.001s-6.33301 36.667 -9 54h-4c-8 -44.667 -17 -79.334 -27 -104.001l-186 -529h425zM422.497 1378
c-39 15.333 -70.6689 38.333 -95.002 69s-36.5 67.667 -36.5 111c0 9.33301 2 16.166 6 20.499s10.667 6.5 20 6.5c10 0 16.833 -1.66699 20.5 -5s7.16699 -9.66602 10.5 -18.999s6 -16 8 -20c12.667 -24 36.167 -41.667 70.5 -53s74.833 -17 121.5 -17
s86.834 5.66699 120.501 17s56.834 29 69.501 53l9 20c3.33301 9.33301 6.83301 15.666 10.5 18.999s10.167 5 19.5 5c10 0 17 -2.16699 21 -6.5s6 -11.166 6 -20.499c0 -43.333 -12.167 -80.333 -36.5 -111s-56 -53.667 -95 -69s-80.5 -23 -124.5 -23
c-44.667 0 -86.5 7.66699 -125.5 23z" />
    <glyph glyph-name="abreve" unicode="&#x103;" horiz-adv-x="969" 
d="M171 57c-56 44.667 -84 110.995 -84 198.995c0 92.667 28.333 162.5 85 209.5s125.834 77.333 207.501 91s180.834 21.5 297.501 23.5v84c0 44.667 -15.167 80.5 -45.5 107.5s-80.166 40.5 -149.499 40.5c-52.667 0 -98.834 -6.16699 -138.501 -18.5
s-76.834 -27.166 -111.501 -44.499c-14.667 -7.33301 -23.667 -11 -27 -11c-8 0 -16.833 5.83301 -26.5 17.5s-18 24.834 -25 39.501s-10.5 25.334 -10.5 32.001c0 15.333 15.833 32 47.5 50s73.167 33 124.5 45s105 18 161 18c111.333 0 197.666 -24.333 258.999 -73
s92 -117 92 -205v-399c0 -77.333 3.5 -133.166 10.5 -167.499s10.5 -53.166 10.5 -56.499c0 -14.667 -11.167 -25.167 -33.5 -31.5s-43.166 -9.5 -62.499 -9.5c-16 0 -27.833 9 -35.5 27s-15.167 44 -22.5 78l-4 20c-36.667 -40.667 -79.834 -73 -129.501 -97
s-106.167 -36 -169.5 -36c-90.667 0 -164 22.333 -220 67zM549 150.995c41.333 21.333 84.001 51.668 128.001 91.001v210c-88 -0.666992 -160.333 -4.33398 -217 -11.001s-106.334 -23.5 -149.001 -50.5s-64 -68.833 -64 -125.5c0 -47.333 12.833 -83.5 38.5 -108.5
s63.5 -37.5 113.5 -37.5c58.667 0 108.667 10.667 150 32zM361.501 1064c-39 15.333 -70.6689 38.333 -95.002 69s-36.5 67.667 -36.5 111c0 9.33301 2 16.166 6 20.499s10.667 6.5 20 6.5c10 0 16.833 -1.66699 20.5 -5s7.16699 -9.66602 10.5 -18.999s6 -16 8 -20
c12.667 -24 36.167 -41.667 70.5 -53s74.833 -17 121.5 -17s86.834 5.66699 120.501 17s56.834 29 69.501 53l9 20c3.33301 9.33301 6.83301 15.666 10.5 18.999s10.167 5 19.5 5c10 0 17 -2.16699 21 -6.5s6 -11.166 6 -20.499c0 -43.333 -12.167 -80.333 -36.5 -111
s-56 -53.667 -95 -69s-80.5 -23 -124.5 -23c-44.667 0 -86.5 7.66699 -125.5 23z" />
    <glyph glyph-name="Aogonek" unicode="&#x104;" horiz-adv-x="1090" 
d="M1254 -228c0 -37.333 -12.3359 -63 -37.0029 -77s-61 -21 -109 -21c-82 0 -137.333 19.5 -166 58.5s-43 79.833 -43 122.5c0 26 3 52.5 9 79.5s17.333 48.833 34 65.5c-19.333 3.33301 -31.333 11.666 -36 24.999l-104 292h-522l-102 -292
c-6 -18.667 -29.667 -28 -71 -28h-9c-26.667 0 -46 2.5 -58 7.5s-18 12.5 -18 22.5c0 4.66699 1.66699 12.667 5 24l421 1169c6.66699 19.333 30.334 29 71.001 29h52c40.667 0 64.334 -9.66699 71.001 -29l421 -1170c3.33301 -7.33301 5 -15 5 -23
c0 -12 -9.66699 -20.333 -29 -25v-4c0 -8.66699 -3 -22 -9 -40c-8.66699 -30.667 -13 -53.667 -13 -69c0 -37.333 10.833 -61.666 32.5 -72.999s47.834 -17 78.501 -17c9.33301 0 24 2.66699 44 8c20.667 6 36.667 9 48 9c22.667 0 34 -14.667 34 -44zM753.997 452
l-186.001 529c-5.33301 14.667 -9.66602 31.334 -12.999 50.001s-6.33301 36.667 -9 54h-4c-8 -44.667 -17 -79.334 -27 -104.001l-186 -529h425z" />
    <glyph glyph-name="aogonek" unicode="&#x105;" horiz-adv-x="969" 
d="M1061 -197c0 -37.333 -12.333 -63.0068 -37 -77.0068s-61 -21 -109 -21c-82 0 -137.333 19.5 -166 58.5s-43 79.833 -43 122.5c0 50.667 8.33301 90.667 25 120c-10 8 -17.667 20.5 -23 37.5s-9.5 33.333 -12.5 49s-4.83301 25.834 -5.5 30.501
c-36.667 -40.667 -79.834 -73 -129.501 -97s-106.167 -36 -169.5 -36c-90.667 0 -164 22.333 -220 67s-84 111 -84 199c0 92.667 28.333 162.5 85 209.5s125.834 77.333 207.501 91s180.834 21.5 297.501 23.5v84c0 44.667 -15.167 80.5 -45.5 107.5
s-80.166 40.5 -149.499 40.5c-52.667 0 -98.834 -6.16699 -138.501 -18.5s-76.834 -27.166 -111.501 -44.499c-14.667 -7.33301 -23.667 -11 -27 -11c-8 0 -16.833 5.83301 -26.5 17.5s-18 24.834 -25 39.501s-10.5 25.334 -10.5 32.001c0 15.333 15.833 32 47.5 50
s73.167 33 124.5 45s105 18 161 18c111.333 0 197.666 -24.333 258.999 -73s92 -117 92 -205v-399c0 -77.333 3.5 -133.166 10.5 -167.499s10.5 -53.166 10.5 -56.499c0 -2 -0.666992 -5 -2 -9v-1c0 -8 -3 -21 -9 -39c-8.66699 -30.667 -13 -54 -13 -70
c0 -37.333 10.833 -61.666 32.5 -72.999s47.834 -17 78.501 -17c9.33301 0 24 2.66699 44 8c20.667 6 36.667 9 48 9c22.667 0 34 -14.667 34 -44zM677 451.993c-88 -0.666992 -160.332 -4.33203 -216.999 -10.999s-106.334 -23.5 -149.001 -50.5s-64 -68.833 -64 -125.5
c0 -47.333 12.833 -83.5 38.5 -108.5s63.5 -37.5 113.5 -37.5c58.667 0 108.667 10.667 150 32s84 51.666 128 90.999v210z" />
    <glyph glyph-name="Cacute" unicode="&#x106;" horiz-adv-x="1101" 
d="M242 144c-93.333 102.667 -140.004 262.335 -140.004 479.002c0 422 191.667 633 575 633c56 0 110.333 -5.83301 163 -17.5s95.334 -26.167 128.001 -43.5s49 -34 49 -50c0 -10 -3.5 -23.333 -10.5 -40s-15.167 -31.334 -24.5 -44.001s-17.666 -19 -24.999 -19
c-3.33301 0 -12.666 4.33301 -27.999 13c-34.667 18.667 -71 34.334 -109 47.001s-84.333 19 -139 19c-143.333 0 -248.833 -39.833 -316.5 -119.5s-101.5 -206.5 -101.5 -380.5c0 -170 33.5 -295.167 100.5 -375.5s170.5 -120.5 310.5 -120.5c58.667 0 109 7 151 21
s82.333 31.333 121 52c18.667 10 30 15 34 15c7.33301 0 15.833 -6.33301 25.5 -19s18.167 -26.834 25.5 -42.501s11 -26.834 11 -33.501c0 -16.667 -16.833 -35.167 -50.5 -55.5s-78.667 -37.5 -135 -51.5s-117.166 -21 -182.499 -21c-194.667 0 -338.667 51.333 -432 154z
M558.996 1372c0 8 5.99805 23.3311 17.998 45.998s40.667 73.334 86 152.001c9.33301 16 22.833 27.667 40.5 35s40.834 11 69.501 11c30 0 51.667 -1.66699 65 -5s20 -9.66602 20 -18.999c0 -6 -2.66699 -13 -8 -21s-18.166 -23.667 -38.499 -47l-77.5 -89l-43 -49
c-9.33301 -10 -22 -17.667 -38 -23s-33.667 -8 -53 -8c-27.333 0 -41 5.66699 -41 17z" />
    <glyph glyph-name="cacute" unicode="&#x107;" horiz-adv-x="862" 
d="M200.5 103.5c-72.333 75.667 -108.498 197.503 -108.498 365.503c0 170 40.333 291 121 363s181 108 301 108c44.667 0 87.667 -3.83301 129 -11.5s74.666 -17.834 99.999 -30.501s38 -26 38 -40c0 -9.33301 -3.16699 -21.666 -9.5 -36.999s-14 -28.833 -23 -40.5
s-17.167 -17.5 -24.5 -17.5c-2 0 -5 0.833008 -9 2.5l-11 4.5c-60 28 -124.667 42 -194 42c-82 0 -145.333 -26.833 -190 -80.5s-67 -139.834 -67 -258.501c0 -84 9 -151.833 27 -203.5s47.167 -89.834 87.5 -114.501s94.166 -37 161.499 -37c74 0 140.667 15.333 200 46
c6 1.33301 10.5 2.83301 13.5 4.5s5.16699 2.5 6.5 2.5c7.33301 0 15.666 -5.66699 24.999 -17s17.5 -24.333 24.5 -39s10.5 -26.334 10.5 -35.001c0 -14 -12.667 -28 -38 -42s-59.5 -25.5 -102.5 -34.5s-89.167 -13.5 -138.5 -13.5
c-147.333 0 -257.166 37.833 -329.499 113.5zM421.002 1058c0 8 5.99805 23.3311 17.998 45.998s40.667 73.334 86 152.001c9.33301 16 22.833 27.667 40.5 35s40.834 11 69.501 11c30 0 51.667 -1.66699 65 -5s20 -9.66602 20 -18.999c0 -6 -2.66699 -13 -8 -21
s-18.166 -23.667 -38.499 -47l-77.5 -89l-43 -49c-9.33301 -10 -22 -17.667 -38 -23s-33.667 -8 -53 -8c-27.333 0 -41 5.66699 -41 17z" />
    <glyph glyph-name="Ccircumflex" unicode="&#x108;" horiz-adv-x="1101" 
d="M242 144c-93.333 102.667 -140.004 262.335 -140.004 479.002c0 422 191.667 633 575 633c56 0 110.333 -5.83301 163 -17.5s95.334 -26.167 128.001 -43.5s49 -34 49 -50c0 -10 -3.5 -23.333 -10.5 -40s-15.167 -31.334 -24.5 -44.001s-17.666 -19 -24.999 -19
c-3.33301 0 -12.666 4.33301 -27.999 13c-34.667 18.667 -71 34.334 -109 47.001s-84.333 19 -139 19c-143.333 0 -248.833 -39.833 -316.5 -119.5s-101.5 -206.5 -101.5 -380.5c0 -170 33.5 -295.167 100.5 -375.5s170.5 -120.5 310.5 -120.5c58.667 0 109 7 151 21
s82.333 31.333 121 52c18.667 10 30 15 34 15c7.33301 0 15.833 -6.33301 25.5 -19s18.167 -26.834 25.5 -42.501s11 -26.834 11 -33.501c0 -16.667 -16.833 -35.167 -50.5 -55.5s-78.667 -37.5 -135 -51.5s-117.166 -21 -182.499 -21c-194.667 0 -338.667 51.333 -432 154z
M415.996 1363c0 8 3.66602 18.666 10.999 31.999l99 156c17.333 26 44.666 39 81.999 39h44c38 0 65.333 -13 82 -39l102 -156c7.33301 -11.333 11 -21.333 11 -30c0 -18 -14.333 -27 -43 -27h-4c-11.333 0 -21.666 1.83301 -30.999 5.5s-18.666 9.83398 -27.999 18.501
l-111 131l-109 -131c-16 -16 -36 -24 -60 -24h-4c-27.333 0 -41 8.33301 -41 25z" />
    <glyph glyph-name="ccircumflex" unicode="&#x109;" horiz-adv-x="862" 
d="M200.5 103.5c-72.333 75.667 -108.498 197.503 -108.498 365.503c0 170 40.333 291 121 363s181 108 301 108c44.667 0 87.667 -3.83301 129 -11.5s74.666 -17.834 99.999 -30.501s38 -26 38 -40c0 -9.33301 -3.16699 -21.666 -9.5 -36.999s-14 -28.833 -23 -40.5
s-17.167 -17.5 -24.5 -17.5c-2 0 -5 0.833008 -9 2.5l-11 4.5c-60 28 -124.667 42 -194 42c-82 0 -145.333 -26.833 -190 -80.5s-67 -139.834 -67 -258.501c0 -84 9 -151.833 27 -203.5s47.167 -89.834 87.5 -114.501s94.166 -37 161.499 -37c74 0 140.667 15.333 200 46
c6 1.33301 10.5 2.83301 13.5 4.5s5.16699 2.5 6.5 2.5c7.33301 0 15.666 -5.66699 24.999 -17s17.5 -24.333 24.5 -39s10.5 -26.334 10.5 -35.001c0 -14 -12.667 -28 -38 -42s-59.5 -25.5 -102.5 -34.5s-89.167 -13.5 -138.5 -13.5
c-147.333 0 -257.166 37.833 -329.499 113.5zM277.002 1049c0 8 3.66602 18.666 10.999 31.999l99 156c17.333 26 44.666 39 81.999 39h44c38 0 65.333 -13 82 -39l102 -156c7.33301 -11.333 11 -21.333 11 -30c0 -18 -14.333 -27 -43 -27h-4
c-11.333 0 -21.666 1.83301 -30.999 5.5s-18.666 9.83398 -27.999 18.501l-111 131l-109 -131c-16 -16 -36 -24 -60 -24h-4c-27.333 0 -41 8.33301 -41 25z" />
    <glyph glyph-name="Cdotaccent" unicode="&#x10a;" horiz-adv-x="1101" 
d="M242 144c-93.333 102.667 -140.004 262.335 -140.004 479.002c0 422 191.667 633 575 633c56 0 110.333 -5.83301 163 -17.5s95.334 -26.167 128.001 -43.5s49 -34 49 -50c0 -10 -3.5 -23.333 -10.5 -40s-15.167 -31.334 -24.5 -44.001s-17.666 -19 -24.999 -19
c-3.33301 0 -12.666 4.33301 -27.999 13c-34.667 18.667 -71 34.334 -109 47.001s-84.333 19 -139 19c-143.333 0 -248.833 -39.833 -316.5 -119.5s-101.5 -206.5 -101.5 -380.5c0 -170 33.5 -295.167 100.5 -375.5s170.5 -120.5 310.5 -120.5c58.667 0 109 7 151 21
s82.333 31.333 121 52c18.667 10 30 15 34 15c7.33301 0 15.833 -6.33301 25.5 -19s18.167 -26.834 25.5 -42.501s11 -26.834 11 -33.501c0 -16.667 -16.833 -35.167 -50.5 -55.5s-78.667 -37.5 -135 -51.5s-117.166 -21 -182.499 -21c-194.667 0 -338.667 51.333 -432 154z
M556.996 1432v91c0 12 6.33301 21.667 19 29s32.667 11 60 11c47.333 0 71 -13.333 71 -40v-91c0 -25.333 -26 -38 -78 -38c-48 0 -72 12.667 -72 38z" />
    <glyph glyph-name="cdotaccent" unicode="&#x10b;" horiz-adv-x="862" 
d="M200.5 103.5c-72.333 75.667 -108.498 197.503 -108.498 365.503c0 170 40.333 291 121 363s181 108 301 108c44.667 0 87.667 -3.83301 129 -11.5s74.666 -17.834 99.999 -30.501s38 -26 38 -40c0 -9.33301 -3.16699 -21.666 -9.5 -36.999s-14 -28.833 -23 -40.5
s-17.167 -17.5 -24.5 -17.5c-2 0 -5 0.833008 -9 2.5l-11 4.5c-60 28 -124.667 42 -194 42c-82 0 -145.333 -26.833 -190 -80.5s-67 -139.834 -67 -258.501c0 -84 9 -151.833 27 -203.5s47.167 -89.834 87.5 -114.501s94.166 -37 161.499 -37c74 0 140.667 15.333 200 46
c6 1.33301 10.5 2.83301 13.5 4.5s5.16699 2.5 6.5 2.5c7.33301 0 15.666 -5.66699 24.999 -17s17.5 -24.333 24.5 -39s10.5 -26.334 10.5 -35.001c0 -14 -12.667 -28 -38 -42s-59.5 -25.5 -102.5 -34.5s-89.167 -13.5 -138.5 -13.5
c-147.333 0 -257.166 37.833 -329.499 113.5zM418.002 1118v91c0 12 6.33301 21.667 19 29s32.667 11 60 11c47.333 0 71 -13.333 71 -40v-91c0 -25.333 -26 -38 -78 -38c-48 0 -72 12.667 -72 38z" />
    <glyph glyph-name="Ccaron" unicode="&#x10c;" horiz-adv-x="1101" 
d="M242 144c-93.333 102.667 -140.004 262.335 -140.004 479.002c0 422 191.667 633 575 633c56 0 110.333 -5.83301 163 -17.5s95.334 -26.167 128.001 -43.5s49 -34 49 -50c0 -10 -3.5 -23.333 -10.5 -40s-15.167 -31.334 -24.5 -44.001s-17.666 -19 -24.999 -19
c-3.33301 0 -12.666 4.33301 -27.999 13c-34.667 18.667 -71 34.334 -109 47.001s-84.333 19 -139 19c-143.333 0 -248.833 -39.833 -316.5 -119.5s-101.5 -206.5 -101.5 -380.5c0 -170 33.5 -295.167 100.5 -375.5s170.5 -120.5 310.5 -120.5c58.667 0 109 7 151 21
s82.333 31.333 121 52c18.667 10 30 15 34 15c7.33301 0 15.833 -6.33301 25.5 -19s18.167 -26.834 25.5 -42.501s11 -26.834 11 -33.501c0 -16.667 -16.833 -35.167 -50.5 -55.5s-78.667 -37.5 -135 -51.5s-117.166 -21 -182.499 -21c-194.667 0 -338.667 51.333 -432 154z
M525.996 1388l-99 156c-6.66699 11.333 -10 22.333 -10 33c0 7.33301 3.5 13.166 10.5 17.499s17.167 6.5 30.5 6.5h3c24 0 44 -7.66699 60 -23l109 -131l111 131c9.33301 8 18.666 13.833 27.999 17.5s20 5.5 32 5.5h3c13.333 0 23.833 -2.33301 31.5 -7s11.5 -11 11.5 -19
c0 -9.33301 -3.66699 -19.666 -11 -30.999l-101 -156c-18.667 -26.667 -46 -40 -82 -40h-45c-35.333 0 -62.666 13.333 -81.999 40z" />
    <glyph glyph-name="ccaron" unicode="&#x10d;" horiz-adv-x="862" 
d="M200.5 103.5c-72.333 75.667 -108.498 197.503 -108.498 365.503c0 170 40.333 291 121 363s181 108 301 108c44.667 0 87.667 -3.83301 129 -11.5s74.666 -17.834 99.999 -30.501s38 -26 38 -40c0 -9.33301 -3.16699 -21.666 -9.5 -36.999s-14 -28.833 -23 -40.5
s-17.167 -17.5 -24.5 -17.5c-2 0 -5 0.833008 -9 2.5l-11 4.5c-60 28 -124.667 42 -194 42c-82 0 -145.333 -26.833 -190 -80.5s-67 -139.834 -67 -258.501c0 -84 9 -151.833 27 -203.5s47.167 -89.834 87.5 -114.501s94.166 -37 161.499 -37c74 0 140.667 15.333 200 46
c6 1.33301 10.5 2.83301 13.5 4.5s5.16699 2.5 6.5 2.5c7.33301 0 15.666 -5.66699 24.999 -17s17.5 -24.333 24.5 -39s10.5 -26.334 10.5 -35.001c0 -14 -12.667 -28 -38 -42s-59.5 -25.5 -102.5 -34.5s-89.167 -13.5 -138.5 -13.5
c-147.333 0 -257.166 37.833 -329.499 113.5zM387.002 1074l-99 156c-6.66699 11.333 -10 22.333 -10 33c0 7.33301 3.5 13.166 10.5 17.499s17.167 6.5 30.5 6.5h3c24 0 44 -7.66699 60 -23l109 -131l111 131c9.33301 8 18.666 13.833 27.999 17.5s20 5.5 32 5.5h3
c13.333 0 23.833 -2.33301 31.5 -7s11.5 -11 11.5 -19c0 -9.33301 -3.66699 -19.666 -11 -30.999l-101 -156c-18.667 -26.667 -46 -40 -82 -40h-45c-35.333 0 -62.666 13.333 -81.999 40z" />
    <glyph glyph-name="Dcaron" unicode="&#x10e;" horiz-adv-x="1236" 
d="M185 13c-8.66699 8.66699 -13 22.001 -13 40.001v1138c0 18.667 4.33301 32.167 13 40.5s22.334 12.5 41.001 12.5h359c166.667 0 300 -49.333 400 -148s150 -256.334 150 -473.001c0 -218 -50 -376.333 -150 -475s-233.333 -148 -400 -148h-359
c-18.667 -0 -32.334 4.33301 -41.001 13zM573 135.001c120 0 216.667 39.168 290 117.501s110 201.833 110 370.5c0 113.333 -17.333 206.166 -52 278.499s-82 125 -142 158s-128.667 49.5 -206 49.5h-244v-974h244zM450 1388l-99 156c-6.66699 11.333 -10 22.333 -10 33
c0 7.33301 3.5 13.166 10.5 17.499s17.167 6.5 30.5 6.5h3c24 0 44 -7.66699 60 -23l109 -131l111 131c9.33301 8 18.666 13.833 27.999 17.5s20 5.5 32 5.5h3c13.333 0 23.833 -2.33301 31.5 -7s11.5 -11 11.5 -19c0 -9.33301 -3.66699 -19.666 -11 -30.999l-101 -156
c-18.667 -26.667 -46 -40 -82 -40h-45c-35.333 0 -62.666 13.333 -81.999 40z" />
    <glyph glyph-name="dcaron" unicode="&#x10f;" horiz-adv-x="1005" 
d="M255 50.5c-52 40.333 -92.1689 96.4951 -120.502 168.495s-42.5 153.667 -42.5 245c0 100.667 15.167 186.834 45.5 258.501s72.833 125.834 127.5 162.501s117.667 55 189 55c51.333 0 96.833 -7.66699 136.5 -23s78.834 -37.666 117.501 -66.999v448
c0 26 23.333 39 70 39h8c47.333 0 71 -13 71 -39v-1035c0 -77.333 3.66699 -133.166 11 -167.499s11 -53.166 11 -56.499c0 -14.667 -11.167 -25.167 -33.5 -31.5s-43.166 -9.5 -62.499 -9.5c-13.333 0 -24 6.33301 -32 19s-13.5 25.5 -16.5 38.5s-7.83301 35.5 -14.5 67.5
c-84.667 -88.667 -179 -133 -283 -133c-69.333 0 -130 20.167 -182 60.5zM590.498 150.995c42.333 21.333 81.499 51.667 117.499 91v487c-64 53.333 -137 80 -219 80c-79.333 -2 -139.166 -31 -179.499 -87s-60.5 -137.333 -60.5 -244
c0 -114.667 18.833 -203.167 56.5 -265.5s91.834 -93.5 162.501 -93.5c39.333 0 80.166 10.667 122.499 32zM958.997 940.996c-10.667 4 -16.001 10.999 -16.001 20.999c0 9.33301 2.33301 26.333 7 51c5.33301 33.333 9.33301 62 12 86s4 53.667 4 89c0 17.333 6 31 18 41
s29.667 15 53 15h16c22 0 39.333 -4.33301 52 -13s19 -20.667 19 -36c0 -50 -7.5 -94.667 -22.5 -134s-32.667 -70.166 -53 -92.499s-38.166 -33.5 -53.499 -33.5c-13.333 0 -25.333 2 -36 6z" />
    <glyph glyph-name="Dcroat" unicode="&#x110;" horiz-adv-x="1237" 
d="M164.5 13c-8.33301 8.66699 -12.498 22 -12.498 40v517h-116c-12.667 0 -21.834 4 -27.501 12s-8.5 21.667 -8.5 41v27c0 19.333 2.83301 33.166 8.5 41.499s14.834 12.5 27.501 12.5h116v487c0 19.333 4.16699 33 12.5 41s21.833 12 40.5 12h382
c107.333 0 202.166 -20.5 284.499 -61.5s147.666 -107.667 195.999 -200s72.5 -212.166 72.5 -359.499c0 -218 -50.5 -376.333 -151.5 -475s-234.833 -148 -401.5 -148h-382c-18.667 -0 -32.167 4.33301 -40.5 13zM575.002 135c78 0 147 16.5 207 49.5
s107.667 85.833 143 158.5s53 166 53 280c0 113.333 -17.667 206.166 -53 278.499s-83 125 -143 158s-129 49.5 -207 49.5h-268v-405h196c12.667 0 21.834 -4.16699 27.501 -12.5s8.5 -22.166 8.5 -41.499v-27c0 -19.333 -2.83301 -33 -8.5 -41s-14.834 -12 -27.501 -12
h-196v-435h268z" />
    <glyph glyph-name="dcroat" unicode="&#x111;" horiz-adv-x="1005" 
d="M964 1177c5.33301 -8.66699 7.99805 -22.3408 7.99805 -41.0078v-17c0 -19.333 -2.66699 -33.166 -8 -41.499s-14 -12.5 -26 -12.5h-81v-802c0 -77.333 3.66699 -133.166 11 -167.499s11 -53.166 11 -56.499c0 -14.667 -11.167 -25.167 -33.5 -31.5
s-43.166 -9.5 -62.499 -9.5c-13.333 0 -24 6.33301 -32 19s-13.5 25.5 -16.5 38.5s-7.83301 35.5 -14.5 67.5c-84.667 -88.667 -179 -133 -283 -133c-69.333 0 -130 20.167 -182 60.5s-92.167 96.5 -120.5 168.5s-42.5 153.667 -42.5 245
c0 100.667 15.167 186.834 45.5 258.501s72.833 125.834 127.5 162.501s117.667 55 189 55c51.333 0 96.833 -7.66699 136.5 -23s78.834 -37.666 117.501 -66.999v215h-167c-12.667 0 -21.834 4.33301 -27.501 13s-8.5 22.334 -8.5 41.001v17
c0 18.667 2.83301 32.334 8.5 41.001s14.834 13 27.501 13h167v108c0 26 23.333 39 70 39h8c47.333 0 71 -13 71 -39v-108h81c12 0 20.667 -4.33301 26 -13zM707.998 728.993c-64 53.333 -137.001 80.001 -219.001 80.001c-79.333 -2 -139.166 -31 -179.499 -87
s-60.5 -137.333 -60.5 -244c0 -114.667 18.833 -203.167 56.5 -265.5s91.834 -93.5 162.501 -93.5c39.333 0 80.166 10.667 122.499 32s81.5 51.666 117.5 90.999v487z" />
    <glyph glyph-name="Emacron" unicode="&#x112;" horiz-adv-x="971" 
d="M185 13c-8.66699 8.66699 -13 22.001 -13 40.001v1138c0 18.667 4.33301 32.167 13 40.5s22.334 12.5 41.001 12.5h620c12.667 0 21.834 -4 27.501 -12s8.5 -21.667 8.5 -41v-29c0 -18 -2.83301 -31.333 -8.5 -40s-14.834 -13 -27.501 -13h-517v-405h464
c12.667 0 21.834 -4.33301 27.501 -13s8.5 -22.334 8.5 -41.001v-27c0 -18.667 -2.83301 -32.167 -8.5 -40.5s-14.834 -12.5 -27.501 -12.5h-464v-435h519c12.667 0 21.834 -4.16699 27.501 -12.5s8.5 -21.833 8.5 -40.5v-29c0 -18 -2.83301 -31.333 -8.5 -40
s-14.834 -13 -27.501 -13h-622c-18.667 -0 -32.334 4.33301 -41.001 13zM301.5 1415c-5.66699 8.66699 -8.5 22.332 -8.5 40.999v17c0 18.667 2.83301 32.334 8.5 41.001s14.834 13 27.501 13h397c12 0 20.667 -4.33301 26 -13s8 -22.334 8 -41.001v-17
c0 -19.333 -2.66699 -33.166 -8 -41.499s-14 -12.5 -26 -12.5h-397c-12.667 0 -21.834 4.33301 -27.501 13z" />
    <glyph glyph-name="emacron" unicode="&#x113;" horiz-adv-x="959" 
d="M205.5 105.5c-71.667 77 -107.5 194.835 -107.5 353.502c0 157.333 35 276.833 105 358.5s173 122.5 309 122.5c121.333 0 212.833 -39.333 274.5 -118s92.5 -194 92.5 -346c0 -6.66699 -3.5 -15.834 -10.5 -27.501s-15.333 -22 -25 -31s-17.834 -13.5 -24.501 -13.5
h-561c7.33301 -99.333 32.833 -171.833 76.5 -217.5s109.5 -68.5 197.5 -68.5c49.333 0 91.833 6 127.5 18s70.167 26.667 103.5 44c3.33301 1.33301 8.33301 3.66602 15 6.99902s11.334 5 14.001 5c7.33301 0 15.833 -5.83301 25.5 -17.5s18 -24.667 25 -39
s10.5 -24.833 10.5 -31.5c0 -14.667 -14.667 -31 -44 -49s-68.5 -33.333 -117.5 -46s-101.5 -19 -157.5 -19c-147.333 0 -256.833 38.5 -328.5 115.5zM720 532.002c0 186.667 -71 280 -213 280c-152.667 0 -235.667 -93.333 -249 -280h462zM255.5 1101
c-5.66699 8.66699 -8.5 22.332 -8.5 40.999v17c0 18.667 2.83301 32.334 8.5 41.001s14.834 13 27.501 13h397c12 0 20.667 -4.33301 26 -13s8 -22.334 8 -41.001v-17c0 -19.333 -2.66699 -33.166 -8 -41.499s-14 -12.5 -26 -12.5h-397
c-12.667 0 -21.834 4.33301 -27.501 13z" />
    <glyph glyph-name="Ebreve" unicode="&#x114;" horiz-adv-x="971" 
d="M185 13c-8.66699 8.66699 -13 22.001 -13 40.001v1138c0 18.667 4.33301 32.167 13 40.5s22.334 12.5 41.001 12.5h620c12.667 0 21.834 -4 27.501 -12s8.5 -21.667 8.5 -41v-29c0 -18 -2.83301 -31.333 -8.5 -40s-14.834 -13 -27.501 -13h-517v-405h464
c12.667 0 21.834 -4.33301 27.501 -13s8.5 -22.334 8.5 -41.001v-27c0 -18.667 -2.83301 -32.167 -8.5 -40.5s-14.834 -12.5 -27.501 -12.5h-464v-435h519c12.667 0 21.834 -4.16699 27.501 -12.5s8.5 -21.833 8.5 -40.5v-29c0 -18 -2.83301 -31.333 -8.5 -40
s-14.834 -13 -27.501 -13h-622c-18.667 -0 -32.334 4.33301 -41.001 13zM402.5 1378c-39 15.333 -70.6689 38.333 -95.002 69s-36.5 67.667 -36.5 111c0 9.33301 2 16.166 6 20.499s10.667 6.5 20 6.5c10 0 16.833 -1.66699 20.5 -5s7.16699 -9.66602 10.5 -18.999
s6 -16 8 -20c12.667 -24 36.167 -41.667 70.5 -53s74.833 -17 121.5 -17s86.834 5.66699 120.501 17s56.834 29 69.501 53l9 20c3.33301 9.33301 6.83301 15.666 10.5 18.999s10.167 5 19.5 5c10 0 17 -2.16699 21 -6.5s6 -11.166 6 -20.499
c0 -43.333 -12.167 -80.333 -36.5 -111s-56 -53.667 -95 -69s-80.5 -23 -124.5 -23c-44.667 0 -86.5 7.66699 -125.5 23z" />
    <glyph glyph-name="ebreve" unicode="&#x115;" horiz-adv-x="959" 
d="M205.5 105.5c-71.667 77 -107.5 194.835 -107.5 353.502c0 157.333 35 276.833 105 358.5s173 122.5 309 122.5c121.333 0 212.833 -39.333 274.5 -118s92.5 -194 92.5 -346c0 -6.66699 -3.5 -15.834 -10.5 -27.501s-15.333 -22 -25 -31s-17.834 -13.5 -24.501 -13.5
h-561c7.33301 -99.333 32.833 -171.833 76.5 -217.5s109.5 -68.5 197.5 -68.5c49.333 0 91.833 6 127.5 18s70.167 26.667 103.5 44c3.33301 1.33301 8.33301 3.66602 15 6.99902s11.334 5 14.001 5c7.33301 0 15.833 -5.83301 25.5 -17.5s18 -24.667 25 -39
s10.5 -24.833 10.5 -31.5c0 -14.667 -14.667 -31 -44 -49s-68.5 -33.333 -117.5 -46s-101.5 -19 -157.5 -19c-147.333 0 -256.833 38.5 -328.5 115.5zM720 532.002c0 186.667 -71 280 -213 280c-152.667 0 -235.667 -93.333 -249 -280h462zM356.5 1064
c-39 15.333 -70.6689 38.333 -95.002 69s-36.5 67.667 -36.5 111c0 9.33301 2 16.166 6 20.499s10.667 6.5 20 6.5c10 0 16.833 -1.66699 20.5 -5s7.16699 -9.66602 10.5 -18.999s6 -16 8 -20c12.667 -24 36.167 -41.667 70.5 -53s74.833 -17 121.5 -17
s86.834 5.66699 120.501 17s56.834 29 69.501 53l9 20c3.33301 9.33301 6.83301 15.666 10.5 18.999s10.167 5 19.5 5c10 0 17 -2.16699 21 -6.5s6 -11.166 6 -20.499c0 -43.333 -12.167 -80.333 -36.5 -111s-56 -53.667 -95 -69s-80.5 -23 -124.5 -23
c-44.667 0 -86.5 7.66699 -125.5 23z" />
    <glyph glyph-name="Edotaccent" unicode="&#x116;" horiz-adv-x="971" 
d="M185 13c-8.66699 8.66699 -13 22.001 -13 40.001v1138c0 18.667 4.33301 32.167 13 40.5s22.334 12.5 41.001 12.5h620c12.667 0 21.834 -4 27.501 -12s8.5 -21.667 8.5 -41v-29c0 -18 -2.83301 -31.333 -8.5 -40s-14.834 -13 -27.501 -13h-517v-405h464
c12.667 0 21.834 -4.33301 27.501 -13s8.5 -22.334 8.5 -41.001v-27c0 -18.667 -2.83301 -32.167 -8.5 -40.5s-14.834 -12.5 -27.501 -12.5h-464v-435h519c12.667 0 21.834 -4.16699 27.501 -12.5s8.5 -21.833 8.5 -40.5v-29c0 -18 -2.83301 -31.333 -8.5 -40
s-14.834 -13 -27.501 -13h-622c-18.667 -0 -32.334 4.33301 -41.001 13zM452 1432v91c0 12 6.33301 21.667 19 29s32.667 11 60 11c47.333 0 71 -13.333 71 -40v-91c0 -25.333 -26 -38 -78 -38c-48 0 -72 12.667 -72 38z" />
    <glyph glyph-name="edotaccent" unicode="&#x117;" horiz-adv-x="959" 
d="M205.5 105.5c-71.667 77 -107.5 194.835 -107.5 353.502c0 157.333 35 276.833 105 358.5s173 122.5 309 122.5c121.333 0 212.833 -39.333 274.5 -118s92.5 -194 92.5 -346c0 -6.66699 -3.5 -15.834 -10.5 -27.501s-15.333 -22 -25 -31s-17.834 -13.5 -24.501 -13.5
h-561c7.33301 -99.333 32.833 -171.833 76.5 -217.5s109.5 -68.5 197.5 -68.5c49.333 0 91.833 6 127.5 18s70.167 26.667 103.5 44c3.33301 1.33301 8.33301 3.66602 15 6.99902s11.334 5 14.001 5c7.33301 0 15.833 -5.83301 25.5 -17.5s18 -24.667 25 -39
s10.5 -24.833 10.5 -31.5c0 -14.667 -14.667 -31 -44 -49s-68.5 -33.333 -117.5 -46s-101.5 -19 -157.5 -19c-147.333 0 -256.833 38.5 -328.5 115.5zM720 532.002c0 186.667 -71 280 -213 280c-152.667 0 -235.667 -93.333 -249 -280h462zM406 1118v91
c0 12 6.33301 21.667 19 29s32.667 11 60 11c47.333 0 71 -13.333 71 -40v-91c0 -25.333 -26 -38 -78 -38c-48 0 -72 12.667 -72 38z" />
    <glyph glyph-name="Eogonek" unicode="&#x118;" horiz-adv-x="971" 
d="M1064 -228c0 -37.333 -12.335 -63 -37.002 -77s-61 -21 -109 -21c-82 0 -137.333 19.5 -166 58.5s-43 79.833 -43 122.5c0 26 3 52.5 9 79.5s17.667 48.833 35 65.5h-527c-18.667 -0 -32.334 4.33301 -41.001 13s-13 22 -13 40v1138c0 18.667 4.33301 32.167 13 40.5
s22.334 12.5 41.001 12.5h620c12.667 0 21.834 -4 27.501 -12s8.5 -21.667 8.5 -41v-29c0 -18 -2.83301 -31.333 -8.5 -40s-14.834 -13 -27.501 -13h-517v-405h464c12.667 0 21.834 -4.33301 27.501 -13s8.5 -22.334 8.5 -41.001v-27c0 -18.667 -2.83301 -32.167 -8.5 -40.5
s-14.834 -12.5 -27.501 -12.5h-464v-435h519c12.667 0 21.834 -4.16699 27.501 -12.5s8.5 -21.833 8.5 -40.5v-29c0 -35.333 -11.667 -53 -35 -53v-2c0 -8.66699 -3 -22 -9 -40c-8.66699 -30.667 -13 -53.667 -13 -69c0 -37.333 10.833 -61.666 32.5 -72.999
s47.834 -17 78.501 -17c9.33301 0 24 2.66699 44 8c20.667 6 36.667 9 48 9c22.667 0 34 -14.667 34 -44z" />
    <glyph glyph-name="eogonek" unicode="&#x119;" horiz-adv-x="959" 
d="M986 -210c0 -37.333 -12.334 -62.998 -37.001 -76.998s-61 -21 -109 -21c-82 0 -137.333 19.5 -166 58.5s-43 79.833 -43 122.5c0 56 10 99 30 129c-44.667 -8 -87 -12 -127 -12c-147.333 0 -256.833 38.5 -328.5 115.5s-107.5 194.833 -107.5 353.5
c0 157.333 35 276.833 105 358.5s173 122.5 309 122.5c121.333 0 212.833 -39.333 274.5 -118s92.5 -194 92.5 -346c0 -6.66699 -3.5 -15.834 -10.5 -27.501s-15.333 -22 -25 -31s-17.834 -13.5 -24.501 -13.5h-561c7.33301 -99.333 32.833 -171.833 76.5 -217.5
s109.5 -68.5 197.5 -68.5c49.333 0 91.833 6 127.5 18s70.167 26.667 103.5 44c3.33301 1.33301 8.33301 3.66602 15 6.99902s11.334 5 14.001 5c7.33301 0 15.833 -5.83301 25.5 -17.5s18 -24.667 25 -39s10.5 -24.833 10.5 -31.5c0 -10.667 -7.66699 -22.334 -23 -35.001
s-36.333 -24.667 -63 -36c2.66699 -3.33301 4 -9 4 -17c0 -8.66699 -3 -22 -9 -40c-8.66699 -30.667 -13 -53.667 -13 -69c0 -37.333 10.833 -61.666 32.5 -72.999s47.834 -17 78.501 -17c9.33301 0 24 2.66699 44 8c20.667 6 36.667 9 48 9c22.667 0 34 -14.667 34 -44z
M257.999 532.002h462c0 186.667 -71 280 -213 280c-152.667 0 -235.667 -93.333 -249 -280z" />
    <glyph glyph-name="Ecaron" unicode="&#x11a;" horiz-adv-x="971" 
d="M185 13c-8.66699 8.66699 -13 22.001 -13 40.001v1138c0 18.667 4.33301 32.167 13 40.5s22.334 12.5 41.001 12.5h620c12.667 0 21.834 -4 27.501 -12s8.5 -21.667 8.5 -41v-29c0 -18 -2.83301 -31.333 -8.5 -40s-14.834 -13 -27.501 -13h-517v-405h464
c12.667 0 21.834 -4.33301 27.501 -13s8.5 -22.334 8.5 -41.001v-27c0 -18.667 -2.83301 -32.167 -8.5 -40.5s-14.834 -12.5 -27.501 -12.5h-464v-435h519c12.667 0 21.834 -4.16699 27.501 -12.5s8.5 -21.833 8.5 -40.5v-29c0 -18 -2.83301 -31.333 -8.5 -40
s-14.834 -13 -27.501 -13h-622c-18.667 -0 -32.334 4.33301 -41.001 13zM421 1388l-99 156c-6.66699 11.333 -10 22.333 -10 33c0 7.33301 3.5 13.166 10.5 17.499s17.167 6.5 30.5 6.5h3c24 0 44 -7.66699 60 -23l109 -131l111 131c9.33301 8 18.666 13.833 27.999 17.5
s20 5.5 32 5.5h3c13.333 0 23.833 -2.33301 31.5 -7s11.5 -11 11.5 -19c0 -9.33301 -3.66699 -19.666 -11 -30.999l-101 -156c-18.667 -26.667 -46 -40 -82 -40h-45c-35.333 0 -62.666 13.333 -81.999 40z" />
    <glyph glyph-name="ecaron" unicode="&#x11b;" horiz-adv-x="959" 
d="M205.5 105.5c-71.667 77 -107.5 194.835 -107.5 353.502c0 157.333 35 276.833 105 358.5s173 122.5 309 122.5c121.333 0 212.833 -39.333 274.5 -118s92.5 -194 92.5 -346c0 -6.66699 -3.5 -15.834 -10.5 -27.501s-15.333 -22 -25 -31s-17.834 -13.5 -24.501 -13.5
h-561c7.33301 -99.333 32.833 -171.833 76.5 -217.5s109.5 -68.5 197.5 -68.5c49.333 0 91.833 6 127.5 18s70.167 26.667 103.5 44c3.33301 1.33301 8.33301 3.66602 15 6.99902s11.334 5 14.001 5c7.33301 0 15.833 -5.83301 25.5 -17.5s18 -24.667 25 -39
s10.5 -24.833 10.5 -31.5c0 -14.667 -14.667 -31 -44 -49s-68.5 -33.333 -117.5 -46s-101.5 -19 -157.5 -19c-147.333 0 -256.833 38.5 -328.5 115.5zM720 532.002c0 186.667 -71 280 -213 280c-152.667 0 -235.667 -93.333 -249 -280h462zM375 1074l-99 156
c-6.66699 11.333 -10 22.333 -10 33c0 7.33301 3.5 13.166 10.5 17.499s17.167 6.5 30.5 6.5h3c24 0 44 -7.66699 60 -23l109 -131l111 131c9.33301 8 18.666 13.833 27.999 17.5s20 5.5 32 5.5h3c13.333 0 23.833 -2.33301 31.5 -7s11.5 -11 11.5 -19
c0 -9.33301 -3.66699 -19.666 -11 -30.999l-101 -156c-18.667 -26.667 -46 -40 -82 -40h-45c-35.333 0 -62.666 13.333 -81.999 40z" />
    <glyph glyph-name="Gcircumflex" unicode="&#x11c;" horiz-adv-x="1195" 
d="M242 144.5c-93.333 103 -140.007 258.833 -140.007 467.5c0 429.333 191.667 644 575 644c56 0 110.333 -5.83301 163 -17.5s95.334 -26.167 128.001 -43.5s49 -34 49 -50c0 -10 -3.5 -23.333 -10.5 -40s-15.167 -31.334 -24.5 -44.001s-17.666 -19 -24.999 -19
c-3.33301 0 -12.666 4.33301 -27.999 13c-34.667 18.667 -71 34.334 -109 47.001s-84.333 19 -139 19c-150.667 0 -258 -41.5 -322 -124.5s-96 -205.833 -96 -368.5c0 -153.333 29.833 -275.5 89.5 -366.5s162.834 -136.5 309.501 -136.5
c44.667 0 87.834 2.16699 129.501 6.5s74.834 9.83301 99.501 16.5v359h-208c-12.667 0 -21.834 4.16699 -27.501 12.5s-8.5 21.833 -8.5 40.5v29c0 18.667 2.83301 32.167 8.5 40.5s14.834 12.5 27.501 12.5h311c18.667 0 32.334 -4.16699 41.001 -12.5
s13 -21.833 13 -40.5v-471c0 -46 -37.333 -78.833 -112 -98.5s-170 -29.5 -286 -29.5c-178.667 0 -314.667 51.5 -408 154.5zM381.993 1363c0 8 3.66602 18.666 10.999 31.999l99 156c17.333 26 44.666 39 81.999 39h44c38 0 65.333 -13 82 -39l102 -156
c7.33301 -11.333 11 -21.333 11 -30c0 -18 -14.333 -27 -43 -27h-4c-11.333 0 -21.666 1.83301 -30.999 5.5s-18.666 9.83398 -27.999 18.501l-111 131l-109 -131c-16 -16 -36 -24 -60 -24h-4c-27.333 0 -41 8.33301 -41 25z" />
    <glyph glyph-name="gcircumflex" unicode="&#x11d;" horiz-adv-x="971" 
d="M181 -324c-66 35.333 -98.999 90.999 -98.999 166.999c0 52 15 97.333 45 136s69 67.667 117 87l2 4c-23.333 18 -41.166 38.667 -53.499 62s-18.5 51 -18.5 83c0 77.333 33.333 139.333 100 186c-50 24 -88 57.833 -114 101.5s-39 92.834 -39 147.501s13.5 104 40.5 148
s66.833 78.667 119.5 104s116 38 190 38c39.333 0 74.333 -3.33301 105 -10h323c12.667 0 21.834 -4.16699 27.501 -12.5s8.5 -21.833 8.5 -40.5v-22c0 -18.667 -2.83301 -32.167 -8.5 -40.5s-14.834 -12.5 -27.501 -12.5c-44.667 0 -86 1.66699 -124 5l-2 -3
c15.333 -21.333 26.833 -45.166 34.5 -71.499s11.5 -53.833 11.5 -82.5c0 -54.667 -13.5 -104 -40.5 -148s-66.667 -78.667 -119 -104s-115.833 -38 -190.5 -38c-56 -2 -98.167 -12.333 -126.5 -31s-42.5 -49.334 -42.5 -92.001c0 -31.333 10.167 -55.333 30.5 -72
s45.833 -28.334 76.5 -35.001s73.334 -13 128.001 -19l52 -6c55.333 -7.33301 101.666 -17.333 138.999 -30s68.166 -33.667 92.499 -63s36.5 -69.666 36.5 -120.999c0 -86 -34.333 -152.167 -103 -198.5s-169.334 -69.5 -302.001 -69.5c-113.333 0 -203 17.667 -269 53z
M625.001 517.999c38.667 26.667 58 70.334 58 131.001c0 114.667 -71.333 172 -214 172c-140.667 0 -211 -57.333 -211 -172c0 -60.667 19.167 -104.334 57.5 -131.001s89.5 -40 153.5 -40c65.333 0 117.333 13.333 156 40zM653.001 -223.501c40 21.667 60 54.499 60 98.499
c0 28.667 -10.667 50.834 -32 66.501s-47.5 26.667 -78.5 33s-71.833 12.166 -122.5 17.499c-34.667 4 -63.167 7.66699 -85.5 11s-42.833 8 -61.5 14c-78.667 -33.333 -118 -81.666 -118 -144.999c0 -85.333 84.667 -128 254 -128c82.667 0 144 10.833 184 32.5z
M270.001 1049c0 8 3.66602 18.666 10.999 31.999l99 156c17.333 26 44.666 39 81.999 39h44c38 0 65.333 -13 82 -39l102 -156c7.33301 -11.333 11 -21.333 11 -30c0 -18 -14.333 -27 -43 -27h-4c-11.333 0 -21.666 1.83301 -30.999 5.5s-18.666 9.83398 -27.999 18.501
l-111 131l-109 -131c-16 -16 -36 -24 -60 -24h-4c-27.333 0 -41 8.33301 -41 25z" />
    <glyph glyph-name="Gbreve" unicode="&#x11e;" horiz-adv-x="1195" 
d="M242 144.5c-93.333 103 -140.007 258.833 -140.007 467.5c0 429.333 191.667 644 575 644c56 0 110.333 -5.83301 163 -17.5s95.334 -26.167 128.001 -43.5s49 -34 49 -50c0 -10 -3.5 -23.333 -10.5 -40s-15.167 -31.334 -24.5 -44.001s-17.666 -19 -24.999 -19
c-3.33301 0 -12.666 4.33301 -27.999 13c-34.667 18.667 -71 34.334 -109 47.001s-84.333 19 -139 19c-150.667 0 -258 -41.5 -322 -124.5s-96 -205.833 -96 -368.5c0 -153.333 29.833 -275.5 89.5 -366.5s162.834 -136.5 309.501 -136.5
c44.667 0 87.834 2.16699 129.501 6.5s74.834 9.83301 99.501 16.5v359h-208c-12.667 0 -21.834 4.16699 -27.501 12.5s-8.5 21.833 -8.5 40.5v29c0 18.667 2.83301 32.167 8.5 40.5s14.834 12.5 27.501 12.5h311c18.667 0 32.334 -4.16699 41.001 -12.5
s13 -21.833 13 -40.5v-471c0 -46 -37.333 -78.833 -112 -98.5s-170 -29.5 -286 -29.5c-178.667 0 -314.667 51.5 -408 154.5zM473.493 1378c-39 15.333 -70.6689 38.333 -95.002 69s-36.5 67.667 -36.5 111c0 9.33301 2 16.166 6 20.499s10.667 6.5 20 6.5
c10 0 16.833 -1.66699 20.5 -5s7.16699 -9.66602 10.5 -18.999s6 -16 8 -20c12.667 -24 36.167 -41.667 70.5 -53s74.833 -17 121.5 -17s86.834 5.66699 120.501 17s56.834 29 69.501 53l9 20c3.33301 9.33301 6.83301 15.666 10.5 18.999s10.167 5 19.5 5
c10 0 17 -2.16699 21 -6.5s6 -11.166 6 -20.499c0 -43.333 -12.167 -80.333 -36.5 -111s-56 -53.667 -95 -69s-80.5 -23 -124.5 -23c-44.667 0 -86.5 7.66699 -125.5 23z" />
    <glyph glyph-name="gbreve" unicode="&#x11f;" horiz-adv-x="971" 
d="M181 -324c-66 35.333 -98.999 90.999 -98.999 166.999c0 52 15 97.333 45 136s69 67.667 117 87l2 4c-23.333 18 -41.166 38.667 -53.499 62s-18.5 51 -18.5 83c0 77.333 33.333 139.333 100 186c-50 24 -88 57.833 -114 101.5s-39 92.834 -39 147.501s13.5 104 40.5 148
s66.833 78.667 119.5 104s116 38 190 38c39.333 0 74.333 -3.33301 105 -10h323c12.667 0 21.834 -4.16699 27.501 -12.5s8.5 -21.833 8.5 -40.5v-22c0 -18.667 -2.83301 -32.167 -8.5 -40.5s-14.834 -12.5 -27.501 -12.5c-44.667 0 -86 1.66699 -124 5l-2 -3
c15.333 -21.333 26.833 -45.166 34.5 -71.499s11.5 -53.833 11.5 -82.5c0 -54.667 -13.5 -104 -40.5 -148s-66.667 -78.667 -119 -104s-115.833 -38 -190.5 -38c-56 -2 -98.167 -12.333 -126.5 -31s-42.5 -49.334 -42.5 -92.001c0 -31.333 10.167 -55.333 30.5 -72
s45.833 -28.334 76.5 -35.001s73.334 -13 128.001 -19l52 -6c55.333 -7.33301 101.666 -17.333 138.999 -30s68.166 -33.667 92.499 -63s36.5 -69.666 36.5 -120.999c0 -86 -34.333 -152.167 -103 -198.5s-169.334 -69.5 -302.001 -69.5c-113.333 0 -203 17.667 -269 53z
M625.001 517.999c38.667 26.667 58 70.334 58 131.001c0 114.667 -71.333 172 -214 172c-140.667 0 -211 -57.333 -211 -172c0 -60.667 19.167 -104.334 57.5 -131.001s89.5 -40 153.5 -40c65.333 0 117.333 13.333 156 40zM653.001 -223.501c40 21.667 60 54.499 60 98.499
c0 28.667 -10.667 50.834 -32 66.501s-47.5 26.667 -78.5 33s-71.833 12.166 -122.5 17.499c-34.667 4 -63.167 7.66699 -85.5 11s-42.833 8 -61.5 14c-78.667 -33.333 -118 -81.666 -118 -144.999c0 -85.333 84.667 -128 254 -128c82.667 0 144 10.833 184 32.5z
M361.501 1064c-39 15.333 -70.6689 38.333 -95.002 69s-36.5 67.667 -36.5 111c0 9.33301 2 16.166 6 20.499s10.667 6.5 20 6.5c10 0 16.833 -1.66699 20.5 -5s7.16699 -9.66602 10.5 -18.999s6 -16 8 -20c12.667 -24 36.167 -41.667 70.5 -53s74.833 -17 121.5 -17
s86.834 5.66699 120.501 17s56.834 29 69.501 53l9 20c3.33301 9.33301 6.83301 15.666 10.5 18.999s10.167 5 19.5 5c10 0 17 -2.16699 21 -6.5s6 -11.166 6 -20.499c0 -43.333 -12.167 -80.333 -36.5 -111s-56 -53.667 -95 -69s-80.5 -23 -124.5 -23
c-44.667 0 -86.5 7.66699 -125.5 23z" />
    <glyph glyph-name="Gdotaccent" unicode="&#x120;" horiz-adv-x="1195" 
d="M242 144.5c-93.333 103 -140.007 258.833 -140.007 467.5c0 429.333 191.667 644 575 644c56 0 110.333 -5.83301 163 -17.5s95.334 -26.167 128.001 -43.5s49 -34 49 -50c0 -10 -3.5 -23.333 -10.5 -40s-15.167 -31.334 -24.5 -44.001s-17.666 -19 -24.999 -19
c-3.33301 0 -12.666 4.33301 -27.999 13c-34.667 18.667 -71 34.334 -109 47.001s-84.333 19 -139 19c-150.667 0 -258 -41.5 -322 -124.5s-96 -205.833 -96 -368.5c0 -153.333 29.833 -275.5 89.5 -366.5s162.834 -136.5 309.501 -136.5
c44.667 0 87.834 2.16699 129.501 6.5s74.834 9.83301 99.501 16.5v359h-208c-12.667 0 -21.834 4.16699 -27.501 12.5s-8.5 21.833 -8.5 40.5v29c0 18.667 2.83301 32.167 8.5 40.5s14.834 12.5 27.501 12.5h311c18.667 0 32.334 -4.16699 41.001 -12.5
s13 -21.833 13 -40.5v-471c0 -46 -37.333 -78.833 -112 -98.5s-170 -29.5 -286 -29.5c-178.667 0 -314.667 51.5 -408 154.5zM522.993 1432v91c0 12 6.33301 21.667 19 29s32.667 11 60 11c47.333 0 71 -13.333 71 -40v-91c0 -25.333 -26 -38 -78 -38
c-48 0 -72 12.667 -72 38z" />
    <glyph glyph-name="gdotaccent" unicode="&#x121;" horiz-adv-x="971" 
d="M181 -324c-66 35.333 -98.999 90.999 -98.999 166.999c0 52 15 97.333 45 136s69 67.667 117 87l2 4c-23.333 18 -41.166 38.667 -53.499 62s-18.5 51 -18.5 83c0 77.333 33.333 139.333 100 186c-50 24 -88 57.833 -114 101.5s-39 92.834 -39 147.501s13.5 104 40.5 148
s66.833 78.667 119.5 104s116 38 190 38c39.333 0 74.333 -3.33301 105 -10h323c12.667 0 21.834 -4.16699 27.501 -12.5s8.5 -21.833 8.5 -40.5v-22c0 -18.667 -2.83301 -32.167 -8.5 -40.5s-14.834 -12.5 -27.501 -12.5c-44.667 0 -86 1.66699 -124 5l-2 -3
c15.333 -21.333 26.833 -45.166 34.5 -71.499s11.5 -53.833 11.5 -82.5c0 -54.667 -13.5 -104 -40.5 -148s-66.667 -78.667 -119 -104s-115.833 -38 -190.5 -38c-56 -2 -98.167 -12.333 -126.5 -31s-42.5 -49.334 -42.5 -92.001c0 -31.333 10.167 -55.333 30.5 -72
s45.833 -28.334 76.5 -35.001s73.334 -13 128.001 -19l52 -6c55.333 -7.33301 101.666 -17.333 138.999 -30s68.166 -33.667 92.499 -63s36.5 -69.666 36.5 -120.999c0 -86 -34.333 -152.167 -103 -198.5s-169.334 -69.5 -302.001 -69.5c-113.333 0 -203 17.667 -269 53z
M625.001 517.999c38.667 26.667 58 70.334 58 131.001c0 114.667 -71.333 172 -214 172c-140.667 0 -211 -57.333 -211 -172c0 -60.667 19.167 -104.334 57.5 -131.001s89.5 -40 153.5 -40c65.333 0 117.333 13.333 156 40zM653.001 -223.501c40 21.667 60 54.499 60 98.499
c0 28.667 -10.667 50.834 -32 66.501s-47.5 26.667 -78.5 33s-71.833 12.166 -122.5 17.499c-34.667 4 -63.167 7.66699 -85.5 11s-42.833 8 -61.5 14c-78.667 -33.333 -118 -81.666 -118 -144.999c0 -85.333 84.667 -128 254 -128c82.667 0 144 10.833 184 32.5z
M411.001 1118v91c0 12 6.33301 21.667 19 29s32.667 11 60 11c47.333 0 71 -13.333 71 -40v-91c0 -25.333 -26 -38 -78 -38c-48 0 -72 12.667 -72 38z" />
    <glyph glyph-name="Gcommaaccent" unicode="&#x122;" horiz-adv-x="1195" 
d="M242 144.5c-93.333 103 -140.007 258.833 -140.007 467.5c0 429.333 191.667 644 575 644c56 0 110.333 -5.83301 163 -17.5s95.334 -26.167 128.001 -43.5s49 -34 49 -50c0 -10 -3.5 -23.333 -10.5 -40s-15.167 -31.334 -24.5 -44.001s-17.666 -19 -24.999 -19
c-3.33301 0 -12.666 4.33301 -27.999 13c-34.667 18.667 -71 34.334 -109 47.001s-84.333 19 -139 19c-150.667 0 -258 -41.5 -322 -124.5s-96 -205.833 -96 -368.5c0 -153.333 29.833 -275.5 89.5 -366.5s162.834 -136.5 309.501 -136.5
c44.667 0 87.834 2.16699 129.501 6.5s74.834 9.83301 99.501 16.5v359h-208c-12.667 0 -21.834 4.16699 -27.501 12.5s-8.5 21.833 -8.5 40.5v29c0 18.667 2.83301 32.167 8.5 40.5s14.834 12.5 27.501 12.5h311c18.667 0 32.334 -4.16699 41.001 -12.5
s13 -21.833 13 -40.5v-471c0 -46 -37.333 -78.833 -112 -98.5s-170 -29.5 -286 -29.5c-178.667 0 -314.667 51.5 -408 154.5zM547.493 -412c-10.333 4 -15.5 11.002 -15.5 21.002c0 6.66699 1.66699 14.167 5 22.5s9 19.166 17 32.499c16 30.667 28.833 60.167 38.5 88.5
s14.5 61.5 14.5 99.5c0 17.333 6.16699 31.166 18.5 41.499s30.166 15.5 53.499 15.5h16c22 0 39.333 -4.5 52 -13.5s19 -21.167 19 -36.5c0 -52.667 -10.667 -100.167 -32 -142.5s-46.5 -75.333 -75.5 -99s-54.167 -35.5 -75.5 -35.5c-13.333 0 -25.166 2 -35.499 6z" />
    <glyph glyph-name="gcommaaccent" unicode="&#x123;" horiz-adv-x="971" 
d="M629 1361c10.667 -4 16.002 -11.001 16.002 -21.001c0 -6 -1.83301 -13.167 -5.5 -21.5s-7 -15.333 -10 -21l-6.5 -12.5c-16.667 -32 -29.834 -61.833 -39.501 -89.5s-14.5 -60.5 -14.5 -98.5c0 -17.333 -6 -31.166 -18 -41.499s-30 -15.5 -54 -15.5h-16
c-22 0 -39.333 4.5 -52 13.5s-19 21.167 -19 36.5c0 52.667 10.667 100.167 32 142.5s46.666 75.333 75.999 99s54.666 35.5 75.999 35.5c12.667 0 24.334 -2 35.001 -6zM181.002 -324.001c-66 35.333 -98.999 90.999 -98.999 166.999c0 52 15 97.333 45 136
s69 67.667 117 87l2 4c-23.333 18 -41.166 38.667 -53.499 62s-18.5 51 -18.5 83c0 77.333 33.333 139.333 100 186c-50 24 -88 57.833 -114 101.5s-39 92.834 -39 147.501s13.5 104 40.5 148s66.833 78.667 119.5 104s116 38 190 38c39.333 0 74.333 -3.33301 105 -10h323
c12.667 0 21.834 -4.16699 27.501 -12.5s8.5 -21.833 8.5 -40.5v-22c0 -18.667 -2.83301 -32.167 -8.5 -40.5s-14.834 -12.5 -27.501 -12.5c-44.667 0 -86 1.66699 -124 5l-2 -3c15.333 -21.333 26.833 -45.166 34.5 -71.499s11.5 -53.833 11.5 -82.5
c0 -54.667 -13.5 -104 -40.5 -148s-66.667 -78.667 -119 -104s-115.833 -38 -190.5 -38c-56 -2 -98.167 -12.333 -126.5 -31s-42.5 -49.334 -42.5 -92.001c0 -31.333 10.167 -55.333 30.5 -72s45.833 -28.334 76.5 -35.001s73.334 -13 128.001 -19l52 -6
c55.333 -7.33301 101.666 -17.333 138.999 -30s68.166 -33.667 92.499 -63s36.5 -69.666 36.5 -120.999c0 -86 -34.333 -152.167 -103 -198.5s-169.334 -69.5 -302.001 -69.5c-113.333 0 -203 17.667 -269 53zM625.003 517.998c38.667 26.667 58 70.334 58 131.001
c0 114.667 -71.333 172 -214 172c-140.667 0 -211 -57.333 -211 -172c0 -60.667 19.167 -104.334 57.5 -131.001s89.5 -40 153.5 -40c65.333 0 117.333 13.333 156 40zM653.003 -223.502c40 21.667 60 54.499 60 98.499c0 28.667 -10.667 50.834 -32 66.501
s-47.5 26.667 -78.5 33s-71.833 12.166 -122.5 17.499c-34.667 4 -63.167 7.66699 -85.5 11s-42.833 8 -61.5 14c-78.667 -33.333 -118 -81.666 -118 -144.999c0 -85.333 84.667 -128 254 -128c82.667 0 144 10.833 184 32.5z" />
    <glyph glyph-name="Hcircumflex" unicode="&#x124;" horiz-adv-x="1303" 
d="M172 36v1173c0 26.667 24 40 72 40h14c47.333 0 71 -13.333 71 -40v-503h644v503c0 26.667 23.667 40 71 40h14c47.333 0 71 -13.333 71 -40v-1173c0 -13.333 -5.66699 -23.166 -17 -29.499s-29.333 -9.5 -54 -9.5h-14c-24.667 0 -42.667 3.16699 -54 9.5
s-17 16.166 -17 29.499v535h-644v-535c0 -26 -23.667 -39 -71 -39h-14c-48 0 -72 13 -72 39zM437 1363c0 8 3.66602 18.666 10.999 31.999l99 156c17.333 26 44.666 39 81.999 39h44c38 0 65.333 -13 82 -39l102 -156c7.33301 -11.333 11 -21.333 11 -30
c0 -18 -14.333 -27 -43 -27h-4c-11.333 0 -21.666 1.83301 -30.999 5.5s-18.666 9.83398 -27.999 18.501l-111 131l-109 -131c-16 -16 -36 -24 -60 -24h-4c-27.333 0 -41 8.33301 -41 25z" />
    </font>
</defs>
</svg>
