<?xml version="1.0" standalone="no"?>
<!DOCTYPE svg PUBLIC "-//W3C//DTD SVG 1.1//EN" "http://www.w3.org/Graphics/SVG/1.1/DTD/svg11.dtd" >
<svg xmlns="http://www.w3.org/2000/svg" xmlns:xlink="http://www.w3.org/1999/xlink" version="1.1">
<metadata>
Created by FontForge 20161013 at Fri Jan  1 02:30:17 1904
 By ,,,
</metadata>
<defs>
<font id="NEMA5x7-Regular" horiz-adv-x="715" >
  <font-face 
    font-family="NEMA 5x7"
    font-weight="400"
    font-stretch="normal"
    units-per-em="2048"
    panose-1="0 0 5 4 0 0 0 0 0 4"
    ascent="1565"
    descent="-483"
    x-height="715"
    cap-height="1001"
    bbox="-6034 -963 2021 1901"
    underline-thickness="109"
    underline-position="-383"
    unicode-range="U+0020-0178"
  />
<missing-glyph horiz-adv-x="1240" 
d="M100 -360v1804h1026v-1804h-1026zM217 -248h795v1577h-795v-1577z" />
    <glyph glyph-name=".notdef" horiz-adv-x="1240" 
d="M100 -360v1804h1026v-1804h-1026zM217 -248h795v1577h-795v-1577z" />
    <glyph glyph-name=".null" horiz-adv-x="0" 
 />
    <glyph glyph-name="nonmarkingreturn" horiz-adv-x="600" 
 />
    <glyph glyph-name="space" unicode=" " horiz-adv-x="600" 
 />
    <glyph glyph-name="exclam" unicode="!" 
d="M-6034 -787v0v0v0v0zM2021 -963v0v0v0v0zM286 1001h143v-572h-143v572zM286 143h143v-143h-143v143z" />
    <glyph glyph-name="quotedbl" unicode="&#x22;" 
d="M143 1001h143v-429h-143v429zM429 1001h143v-429h-143v429z" />
    <glyph glyph-name="numbersign" unicode="#" 
d="M143 1001h143v-1001h-143v1001zM429 1001h143v-1001h-143v1001zM286 715h143v-143h-143v143zM286 429h143v-143h-143v143zM572 715h143v-143h-143v143zM-286 858v0v0v0v0zM572 429h143v-143h-143v143zM0 429h143v-143h-143v143zM0 715h143v-143h-143v143z" />
    <glyph glyph-name="dollar" unicode="$" 
d="M286 1001h143v-1001h-143v1001zM429 858h286v-143h-286v143zM143 858h143v-143h-143v143zM0 715h143v-143h-143v143zM143 572h143v-143h-143v143zM429 572h143v-143h-143v143zM572 429h143v-143h-143v143zM429 286h143v-143h-143v143zM0 286h286v-143h-286v143z" />
    <glyph glyph-name="percent" unicode="%" 
d="M0 1001h286v-286h-286v286zM429 286h286v-286h-286v286zM0 286h143v-143h-143v143zM143 429h143v-143h-143v143zM286 572h143v-143h-143v143zM429 715h143v-143h-143v143zM572 858h143v-143h-143v143z" />
    <glyph glyph-name="ampersand" unicode="&#x26;" 
d="M143 1001h286v-143h-286v143zM0 858h143v-286h-143v286zM143 572h143v-143h-143v143zM0 429h143v-286h-143v286zM143 143h286v-143h-286v143zM429 286h143v-143h-143v143zM572 143h143v-143h-143v143zM286 429h143v-143h-143v143zM286 715h143v-143h-143v143zM429 858
h143v-143h-143v143zM572 429h143v-143h-143v143z" />
    <glyph glyph-name="quotesingle" unicode="'" 
d="M143 1001h286v-143h-286v143zM286 858h143v-143h-143v143zM143 715h143v-143h-143v143z" />
    <glyph glyph-name="parenleft" unicode="(" 
d="M429 1001h143v-143h-143v143zM286 858h143v-143h-143v143zM429 143h143v-143h-143v143zM286 286h143v-143h-143v143zM143 715h143v-429h-143v429z" />
    <glyph glyph-name="parenright" unicode=")" 
d="M143 1001h143v-143h-143v143zM286 858h143v-143h-143v143zM429 715h143v-429h-143v429zM286 286h143v-143h-143v143zM143 143h143v-143h-143v143z" />
    <glyph glyph-name="asterisk" unicode="*" 
d="M286 858h143v-715h-143v715zM143 572h143v-143h-143v143zM0 429h143v-143h-143v143zM0 715h143v-143h-143v143zM429 572h143v-143h-143v143zM572 715h143v-143h-143v143zM572 429h143v-143h-143v143z" />
    <glyph glyph-name="plus" unicode="+" 
d="M286 858h143v-715h-143v715zM429 572h286v-143h-286v143zM0 572h286v-143h-286v143z" />
    <glyph glyph-name="comma" unicode="," 
d="M143 429h286v-143h-286v143zM286 286h143v-143h-143v143zM143 143h143v-143h-143v143z" />
    <glyph glyph-name="hyphen" unicode="-" 
d="M0 572h715v-143h-715v143z" />
    <glyph glyph-name="period" unicode="." 
d="M143 286h286v-286h-286v286zM1716 715v0v0v0v0z" />
    <glyph glyph-name="slash" unicode="/" 
d="M0 286h143v-143h-143v143zM143 429h143v-143h-143v143zM286 572h143v-143h-143v143zM429 715h143v-143h-143v143zM572 858h143v-143h-143v143z" />
    <glyph glyph-name="zero" unicode="0" 
d="M143 143h143v-143h-143v143zM286 143h143v-143h-143v143zM429 143h143v-143h-143v143zM143 1001h143v-143h-143v143zM286 1001h143v-143h-143v143zM429 1001h143v-143h-143v143zM0 858h143v-143h-143v143zM0 715h143v-143h-143v143zM0 572h143v-143h-143v143zM0 429h143
v-143h-143v143zM0 286h143v-143h-143v143zM572 858h143v-143h-143v143zM572 715h143v-143h-143v143zM572 572h143v-143h-143v143zM572 429h143v-143h-143v143zM572 286h143v-143h-143v143zM143 429h143v-143h-143v143zM286 572h143v-143h-143v143zM429 715h143v-143h-143
v143z" />
    <glyph glyph-name="one" unicode="1" 
d="M143 143h143v-143h-143v143zM286 143h143v-143h-143v143zM429 143h143v-143h-143v143zM286 286h143v-143h-143v143zM286 429h143v-143h-143v143zM286 572h143v-143h-143v143zM286 715h143v-143h-143v143zM286 858h143v-143h-143v143zM286 1001h143v-143h-143v143z
M143 858h143v-143h-143v143z" />
    <glyph glyph-name="two" unicode="2" 
d="M0 143h143v-143h-143v143zM143 143h143v-143h-143v143zM286 143h143v-143h-143v143zM429 143h143v-143h-143v143zM572 143h143v-143h-143v143zM143 1001h143v-143h-143v143zM286 1001h143v-143h-143v143zM429 1001h143v-143h-143v143zM0 858h143v-143h-143v143zM572 858
h143v-143h-143v143zM572 715h143v-143h-143v143zM429 572h143v-143h-143v143zM286 429h143v-143h-143v143zM143 286h143v-143h-143v143zM1144 429v0v0v0v0z" />
    <glyph glyph-name="three" unicode="3" 
d="M143 143h143v-143h-143v143zM286 143h143v-143h-143v143zM429 143h143v-143h-143v143zM0 286h143v-143h-143v143zM572 286h143v-143h-143v143zM572 429h143v-143h-143v143zM0 1001h143v-143h-143v143zM143 1001h143v-143h-143v143zM286 1001h143v-143h-143v143zM429 1001
h143v-143h-143v143zM572 1001h143v-143h-143v143zM429 858h143v-143h-143v143zM286 715h143v-143h-143v143zM429 572h143v-143h-143v143z" />
    <glyph glyph-name="four" unicode="4" 
d="M429 143h143v-143h-143v143zM429 286h143v-143h-143v143zM429 429h143v-143h-143v143zM429 572h143v-143h-143v143zM429 715h143v-143h-143v143zM429 858h143v-143h-143v143zM429 1001h143v-143h-143v143zM572 429h143v-143h-143v143zM286 429h143v-143h-143v143z
M143 429h143v-143h-143v143zM0 429h143v-143h-143v143zM0 572h143v-143h-143v143zM143 715h143v-143h-143v143zM286 858h143v-143h-143v143z" />
    <glyph glyph-name="five" unicode="5" 
d="M0 1001h143v-143h-143v143zM143 1001h143v-143h-143v143zM286 1001h143v-143h-143v143zM429 1001h143v-143h-143v143zM572 1001h143v-143h-143v143zM0 858h143v-143h-143v143zM143 143h143v-143h-143v143zM-2288 1001v0v0v0v0zM0 286h143v-143h-143v143zM286 143h143
v-143h-143v143zM429 143h143v-143h-143v143zM572 286h143v-143h-143v143zM572 429h143v-143h-143v143zM572 572h143v-143h-143v143zM429 715h143v-143h-143v143zM286 715h143v-143h-143v143zM143 715h143v-143h-143v143zM0 715h143v-143h-143v143z" />
    <glyph glyph-name="six" unicode="6" 
d="M143 143h143v-143h-143v143zM286 143h143v-143h-143v143zM429 143h143v-143h-143v143zM572 286h143v-143h-143v143zM572 429h143v-143h-143v143zM0 286h143v-143h-143v143zM0 429h143v-143h-143v143zM0 572h143v-143h-143v143zM0 715h143v-143h-143v143zM429 572h143
v-143h-143v143zM286 572h143v-143h-143v143zM143 572h143v-143h-143v143zM143 858h143v-143h-143v143zM286 1001h143v-143h-143v143zM429 1001h143v-143h-143v143z" />
    <glyph glyph-name="seven" unicode="7" 
d="M0 1001h143v-143h-143v143zM143 1001h143v-143h-143v143zM286 1001h143v-143h-143v143zM429 1001h143v-143h-143v143zM572 1001h143v-143h-143v143zM572 858h143v-143h-143v143zM429 715h143v-143h-143v143zM286 572h143v-143h-143v143zM143 429h143v-143h-143v143z
M143 286h143v-143h-143v143zM143 143h143v-143h-143v143z" />
    <glyph glyph-name="eight" unicode="8" 
d="M143 143h143v-143h-143v143zM286 143h143v-143h-143v143zM429 143h143v-143h-143v143zM572 286h143v-143h-143v143zM572 429h143v-143h-143v143zM429 572h143v-143h-143v143zM286 572h143v-143h-143v143zM143 572h143v-143h-143v143zM0 429h143v-143h-143v143zM0 286h143
v-143h-143v143zM0 715h143v-143h-143v143zM0 858h143v-143h-143v143zM143 1001h143v-143h-143v143zM286 1001h143v-143h-143v143zM429 1001h143v-143h-143v143zM572 858h143v-143h-143v143zM572 715h143v-143h-143v143z" />
    <glyph glyph-name="nine" unicode="9" 
d="M143 1001h143v-143h-143v143zM286 1001h143v-143h-143v143zM429 1001h143v-143h-143v143zM572 858h143v-143h-143v143zM572 715h143v-143h-143v143zM572 572h143v-143h-143v143zM0 858v0v-143v0v143zM0 858h143v-143h-143v143zM0 715h143v-143h-143v143zM0 572v0v0v0v0z
M143 572h143v-143h-143v143zM286 572h143v-143h-143v143zM429 572h143v-143h-143v143zM572 429h143v-143h-143v143zM429 286h143v-143h-143v143zM286 143h143v-143h-143v143zM143 143h143v-143h-143v143z" />
    <glyph glyph-name="colon" unicode=":" 
d="M143 858h143v-143h-143v143zM286 858h143v-143h-143v143zM143 715h143v-143h-143v143zM286 715h143v-143h-143v143zM143 286h143v-143h-143v143zM286 286h143v-143h-143v143zM143 429h143v-143h-143v143zM286 429h143v-143h-143v143z" />
    <glyph glyph-name="semicolon" unicode=";" 
d="M143 858h143v-143h-143v143zM286 858h143v-143h-143v143zM143 715h143v-143h-143v143zM286 715h143v-143h-143v143zM143 429h143v-143h-143v143zM286 429h143v-143h-143v143zM286 286h143v-143h-143v143zM143 143h143v-143h-143v143z" />
    <glyph glyph-name="less" unicode="&#x3c;" 
d="M429 143h143v-143h-143v143zM286 286h143v-143h-143v143zM143 429h143v-143h-143v143zM0 572h143v-143h-143v143zM143 715h143v-143h-143v143zM286 858h143v-143h-143v143zM429 1001h143v-143h-143v143z" />
    <glyph glyph-name="equal" unicode="=" 
d="M0 715h143v-143h-143v143zM-1716 -692v0v0v0v0zM143 715h143v-143h-143v143zM286 715h143v-143h-143v143zM429 715h143v-143h-143v143zM572 715h143v-143h-143v143zM0 429h143v-143h-143v143zM143 429h143v-143h-143v143zM286 429h143v-143h-143v143zM429 429h143v-143
h-143v143zM572 429h143v-143h-143v143z" />
    <glyph glyph-name="greater" unicode="&#x3e;" 
d="M143 1001h143v-143h-143v143zM286 1001v0v0v0v0zM286 858h143v-143h-143v143zM429 715h143v-143h-143v143zM572 572h143v-143h-143v143zM429 429h143v-143h-143v143zM286 286h143v-143h-143v143zM143 143h143v-143h-143v143z" />
    <glyph glyph-name="question" unicode="?" 
d="M0 858h143v-143h-143v143zM-715 -861v0v0v0v0zM143 1001h143v-143h-143v143zM286 1001h143v-143h-143v143zM429 1001h143v-143h-143v143zM572 858h143v-143h-143v143zM572 715h143v-143h-143v143zM429 572h143v-143h-143v143zM286 429h143v-143h-143v143zM286 143h143
v-143h-143v143z" />
    <glyph glyph-name="at" unicode="@" 
d="M0 858h143v-143h-143v143zM143 1001h143v-143h-143v143zM286 1001h143v-143h-143v143zM429 1001h143v-143h-143v143zM572 858h143v-143h-143v143zM572 715h143v-143h-143v143zM572 572h143v-143h-143v143zM572 429h143v-143h-143v143zM572 286h143v-143h-143v143z
M429 143h143v-143h-143v143zM286 143h143v-143h-143v143zM143 143h143v-143h-143v143zM0 286h143v-143h-143v143zM0 429h143v-143h-143v143zM143 572h143v-143h-143v143zM286 572h143v-143h-143v143zM286 429h143v-143h-143v143zM286 286h143v-143h-143v143z" />
    <glyph glyph-name="A" unicode="A" 
d="M0 143h143v-143h-143v143zM0 286h143v-143h-143v143zM0 429h143v-143h-143v143zM0 572h143v-143h-143v143zM0 715h143v-143h-143v143zM143 858h143v-143h-143v143zM286 1001h143v-143h-143v143zM429 858h143v-143h-143v143zM572 715h143v-143h-143v143zM572 572h143v-143
h-143v143zM572 429h143v-143h-143v143zM572 286h143v-143h-143v143zM572 143h143v-143h-143v143zM143 429h143v-143h-143v143zM286 429h143v-143h-143v143zM429 429h143v-143h-143v143z" />
    <glyph glyph-name="B" unicode="B" 
d="M143 1001h143v-143h-143v143zM143 858h143v-143h-143v143zM143 715h143v-143h-143v143zM143 572h143v-143h-143v143zM143 429h143v-143h-143v143zM143 286h143v-143h-143v143zM143 143h143v-143h-143v143zM0 1001h143v-143h-143v143zM0 143h143v-143h-143v143zM286 1001
h143v-143h-143v143zM429 1001h143v-143h-143v143zM572 858h143v-143h-143v143zM572 715h143v-143h-143v143zM429 572h143v-143h-143v143zM286 572h143v-143h-143v143zM572 429h143v-143h-143v143zM572 286h143v-143h-143v143zM429 143h143v-143h-143v143zM286 143h143v-143
h-143v143z" />
    <glyph glyph-name="C" unicode="C" 
d="M143 1001h143v-143h-143v143zM286 1001h143v-143h-143v143zM429 1001h143v-143h-143v143zM572 858h143v-143h-143v143zM0 858h143v-143h-143v143zM0 715h143v-143h-143v143zM0 572h143v-143h-143v143zM0 429h143v-143h-143v143zM0 286h143v-143h-143v143zM143 143h143
v-143h-143v143zM286 143h143v-143h-143v143zM429 143h143v-143h-143v143zM572 286h143v-143h-143v143z" />
    <glyph glyph-name="D" unicode="D" 
d="M143 1001h143v-143h-143v143zM143 858h143v-143h-143v143zM143 715h143v-143h-143v143zM143 572h143v-143h-143v143zM143 429h143v-143h-143v143zM143 286h143v-143h-143v143zM143 143h143v-143h-143v143zM0 143h143v-143h-143v143zM286 143h143v-143h-143v143zM429 143
h143v-143h-143v143zM572 286h143v-143h-143v143zM572 429h143v-143h-143v143zM572 572h143v-143h-143v143zM572 715h143v-143h-143v143zM572 858h143v-143h-143v143zM429 1001h143v-143h-143v143zM286 1001h143v-143h-143v143zM0 1001h143v-143h-143v143z" />
    <glyph glyph-name="E" unicode="E" 
d="M0 1001h143v-143h-143v143zM0 858h143v-143h-143v143zM0 715h143v-143h-143v143zM0 572h143v-143h-143v143zM0 429h143v-143h-143v143zM0 286h143v-143h-143v143zM0 143h143v-143h-143v143zM143 143h143v-143h-143v143zM286 143h143v-143h-143v143zM429 143h143v-143
h-143v143zM572 143h143v-143h-143v143zM143 572h143v-143h-143v143zM286 572h143v-143h-143v143zM429 572h143v-143h-143v143zM143 1001h143v-143h-143v143zM286 1001h143v-143h-143v143zM429 1001h143v-143h-143v143zM572 1001h143v-143h-143v143z" />
    <glyph glyph-name="F" unicode="F" 
d="M0 1001h143v-143h-143v143zM143 1001h143v-143h-143v143zM286 1001h143v-143h-143v143zM429 1001h143v-143h-143v143zM572 1001h143v-143h-143v143zM0 858h143v-143h-143v143zM0 715h143v-143h-143v143zM0 572h143v-143h-143v143zM0 429h143v-143h-143v143zM0 286h143
v-143h-143v143zM0 143h143v-143h-143v143zM143 572h143v-143h-143v143zM286 572h143v-143h-143v143zM429 572h143v-143h-143v143z" />
    <glyph glyph-name="G" unicode="G" 
d="M143 143h143v-143h-143v143zM286 143h143v-143h-143v143zM429 143h143v-143h-143v143zM0 286h143v-143h-143v143zM0 429h143v-143h-143v143zM0 572h143v-143h-143v143zM0 715h143v-143h-143v143zM0 858h143v-143h-143v143zM143 1001h143v-143h-143v143zM286 1001h143
v-143h-143v143zM429 1001h143v-143h-143v143zM572 858h143v-143h-143v143zM572 286h143v-143h-143v143zM572 429h143v-143h-143v143zM572 572h143v-143h-143v143zM429 572h143v-143h-143v143zM286 572h143v-143h-143v143z" />
    <glyph glyph-name="H" unicode="H" 
d="M0 1001h143v-143h-143v143zM0 858h143v-143h-143v143zM0 715h143v-143h-143v143zM0 572h143v-143h-143v143zM0 429h143v-143h-143v143zM0 286h143v-143h-143v143zM0 143h143v-143h-143v143zM572 143h143v-143h-143v143zM572 286h143v-143h-143v143zM572 429h143v-143
h-143v143zM572 572h143v-143h-143v143zM572 715h143v-143h-143v143zM572 858h143v-143h-143v143zM572 1001h143v-143h-143v143zM143 572h143v-143h-143v143zM286 572h143v-143h-143v143zM429 572h143v-143h-143v143z" />
    <glyph glyph-name="I" unicode="I" 
d="M143 143h143v-143h-143v143zM286 143h143v-143h-143v143zM429 143h143v-143h-143v143zM143 1001h143v-143h-143v143zM286 1001h143v-143h-143v143zM429 1001h143v-143h-143v143zM286 858h143v-143h-143v143zM286 715h143v-143h-143v143zM286 572h143v-143h-143v143z
M286 429h143v-143h-143v143zM286 286h143v-143h-143v143z" />
    <glyph glyph-name="J" unicode="J" 
d="M572 1001h143v-143h-143v143zM572 858h143v-143h-143v143zM572 715h143v-143h-143v143zM572 572h143v-143h-143v143zM572 429h143v-143h-143v143zM572 286h143v-143h-143v143zM429 143h143v-143h-143v143zM286 143h143v-143h-143v143zM143 143h143v-143h-143v143zM0 286
h143v-143h-143v143z" />
    <glyph glyph-name="K" unicode="K" 
d="M0 1001h143v-143h-143v143zM0 858h143v-143h-143v143zM0 715h143v-143h-143v143zM0 572h143v-143h-143v143zM0 429h143v-143h-143v143zM0 286h143v-143h-143v143zM0 143h143v-143h-143v143zM143 572h143v-143h-143v143zM286 715h143v-143h-143v143zM429 858h143v-143
h-143v143zM572 1001h143v-143h-143v143zM286 429h143v-143h-143v143zM429 286h143v-143h-143v143zM572 143h143v-143h-143v143z" />
    <glyph glyph-name="L" unicode="L" 
d="M0 1001h143v-143h-143v143zM0 858h143v-143h-143v143zM0 715h143v-143h-143v143zM0 572h143v-143h-143v143zM0 429h143v-143h-143v143zM0 286h143v-143h-143v143zM0 143h143v-143h-143v143zM143 143h143v-143h-143v143zM286 143h143v-143h-143v143zM429 143h143v-143
h-143v143zM572 143h143v-143h-143v143z" />
    <glyph glyph-name="M" unicode="M" 
d="M0 1001h143v-143h-143v143zM0 858h143v-143h-143v143zM0 715h143v-143h-143v143zM0 572h143v-143h-143v143zM0 429h143v-143h-143v143zM0 286h143v-143h-143v143zM0 143h143v-143h-143v143zM572 1001h143v-143h-143v143zM572 858h143v-143h-143v143zM572 715h143v-143
h-143v143zM572 572h143v-143h-143v143zM572 429h143v-143h-143v143zM572 286h143v-143h-143v143zM572 143h143v-143h-143v143zM143 858h143v-143h-143v143zM429 858h143v-143h-143v143zM286 715h143v-143h-143v143zM286 572h143v-143h-143v143z" />
    <glyph glyph-name="N" unicode="N" 
d="M0 1001h143v-143h-143v143zM0 858h143v-143h-143v143zM0 715h143v-143h-143v143zM0 572h143v-143h-143v143zM-2288 286v0v0v0v0zM-2288 286v0v0v0v0zM0 429h143v-143h-143v143zM-2288 1001v0v0v0v0zM-2288 1001v0v0v0v0zM-2288 1001v0v0v0v0zM0 286h143v-143h-143v143z
M-2288 1573v0v0v0v0zM0 143h143v-143h-143v143zM286 -692v0v0v0v0zM572 1001h143v-143h-143v143zM286 -692v0v0v0v0zM286 -692v0v0v0v0zM572 858v0v0v0v0zM572 858h143v-143h-143v143zM286 -692v0v0v0v0zM286 -692v0v0v0v0zM572 715h143v-143h-143v143zM-1001 1901v0v0v0v0z
M-1001 1901v0v0v0v0zM-2344 572v0v0v0v0zM286 -858v0v0v0v0zM572 572h143v-143h-143v143zM286 -143v0v0v0v0zM572 429h143v-143h-143v143zM572 286h143v-143h-143v143zM572 143h143v-143h-143v143zM143 715h143v-143h-143v143zM286 572h143v-143h-143v143zM429 429h143v-143
h-143v143z" />
    <glyph glyph-name="O" unicode="O" 
d="M0 858h143v-143h-143v143zM143 1001h143v-143h-143v143zM286 1001h143v-143h-143v143zM429 1001h143v-143h-143v143zM572 858h143v-143h-143v143zM572 715h143v-143h-143v143zM572 572h143v-143h-143v143zM572 429h143v-143h-143v143zM572 286h143v-143h-143v143z
M429 143h143v-143h-143v143zM286 143h143v-143h-143v143zM143 143h143v-143h-143v143zM0 715h143v-143h-143v143zM0 572h143v-143h-143v143zM0 429h143v-143h-143v143zM-2288 572v0v0v0v0zM0 286h143v-143h-143v143z" />
    <glyph glyph-name="P" unicode="P" 
d="M0 1001h143v-143h-143v143zM143 1001h143v-143h-143v143zM286 1001h143v-143h-143v143zM429 1001h143v-143h-143v143zM572 858h143v-143h-143v143zM572 715h143v-143h-143v143zM429 572h143v-143h-143v143zM286 572h143v-143h-143v143zM143 572h143v-143h-143v143zM0 858
h143v-143h-143v143zM0 715h143v-143h-143v143zM0 572h143v-143h-143v143zM0 429h143v-143h-143v143zM0 286h143v-143h-143v143zM0 143h143v-143h-143v143z" />
    <glyph glyph-name="Q" unicode="Q" 
d="M143 1001h143v-143h-143v143zM286 1001h143v-143h-143v143zM429 1001h143v-143h-143v143zM143 143h143v-143h-143v143zM286 143h143v-143h-143v143zM0 858h143v-143h-143v143zM0 715h143v-143h-143v143zM0 572h143v-143h-143v143zM0 429h143v-143h-143v143zM0 286h143
v-143h-143v143zM572 858h143v-143h-143v143zM572 715h143v-143h-143v143zM572 572h143v-143h-143v143zM572 429h143v-143h-143v143zM429 286h143v-143h-143v143zM572 143h143v-143h-143v143zM286 429h143v-143h-143v143z" />
    <glyph glyph-name="R" unicode="R" 
d="M0 1001h143v-143h-143v143zM0 858h143v-143h-143v143zM0 715h143v-143h-143v143zM0 572h143v0h-143v0zM0 572h143v-143h-143v143zM0 429h143v-143h-143v143zM0 286h143v0h-143v0zM0 286h143v-143h-143v143zM0 143h143v0h-143v0zM0 143h143v-143h-143v143zM143 1001h143
v-143h-143v143zM286 1001h143v-143h-143v143zM429 1001h143v-143h-143v143zM572 858h143v-143h-143v143zM572 715h143v-143h-143v143zM429 572h143v-143h-143v143zM286 572h143v-143h-143v143zM143 572h143v-143h-143v143zM286 429h143v-143h-143v143zM429 286h143v-143
h-143v143zM572 143h143v-143h-143v143z" />
    <glyph glyph-name="S" unicode="S" 
d="M143 1001h143v-143h-143v143zM286 1001h143v-143h-143v143zM429 1001h143v-143h-143v143zM572 858h143v-143h-143v143zM0 858h143v-143h-143v143zM0 715h143v-143h-143v143zM143 572h143v-143h-143v143zM286 572h143v-143h-143v143zM429 572h143v-143h-143v143zM572 429
h143v-143h-143v143zM572 286h143v-143h-143v143zM429 143h143v-143h-143v143zM286 143h143v-143h-143v143zM143 143h143v-143h-143v143zM0 286h143v-143h-143v143z" />
    <glyph glyph-name="T" unicode="T" 
d="M0 1001h143v-143h-143v143zM143 1001h143v-143h-143v143zM286 1001h143v-143h-143v143zM429 1001h143v-143h-143v143zM572 1001h143v-143h-143v143zM286 858h143v-143h-143v143zM286 715h143v-143h-143v143zM286 572h143v-143h-143v143zM286 429h143v-143h-143v143z
M286 286v0v0v0v0zM286 286h143v-143h-143v143zM286 143h143v-143h-143v143z" />
    <glyph glyph-name="U" unicode="U" 
d="M0 1001h143v-143h-143v143zM0 858h143v-143h-143v143zM0 715h143v-143h-143v143zM0 572h143v-143h-143v143zM0 429h143v-143h-143v143zM0 286h143v-143h-143v143zM143 143h143v-143h-143v143zM286 143h143v0h-143v0zM286 143h143v-143h-143v143zM429 143h143v-143h-143
v143zM572 286h143v-143h-143v143zM572 429h143v-143h-143v143zM572 572h143v-143h-143v143zM572 715h143v-143h-143v143zM572 858h143v-143h-143v143zM572 1001h143v-143h-143v143z" />
    <glyph glyph-name="V" unicode="V" 
d="M286 143h143v-143h-143v143zM143 286h143v-143h-143v143zM429 286h143v-143h-143v143zM572 429h143v-143h-143v143zM572 572h143v-143h-143v143zM572 715h143v-143h-143v143zM572 858h143v-143h-143v143zM572 1001h143v-143h-143v143zM0 1001h143v-143h-143v143zM0 858
h143v-143h-143v143zM0 715h143v-143h-143v143zM0 572h143v-143h-143v143zM0 429h143v-143h-143v143z" />
    <glyph glyph-name="W" unicode="W" 
d="M0 1001h143v-143h-143v143zM0 858h143v-143h-143v143zM0 715v0v0v0v0zM0 715h143v-143h-143v143zM0 572h143v-143h-143v143zM0 429h143v-143h-143v143zM0 286h143v-143h-143v143zM0 143h143v-143h-143v143zM143 286h143v-143h-143v143zM429 286h143v-143h-143v143z
M572 143h143v-143h-143v143zM572 429h143v-143h-143v143zM572 286h143v-143h-143v143zM572 572h143v-143h-143v143zM572 715h143v-143h-143v143zM572 858h143v-143h-143v143zM572 1001h143v-143h-143v143zM286 429h143v-143h-143v143zM286 572h143v-143h-143v143z" />
    <glyph glyph-name="X" unicode="X" 
d="M0 1001h143v-143h-143v143zM0 858h143v-143h-143v143zM0 286h143v-143h-143v143zM0 143h143v-143h-143v143zM572 286h143v-143h-143v143zM572 143h143v-143h-143v143zM572 1001h143v-143h-143v143zM572 858h143v-143h-143v143zM286 572h143v-143h-143v143zM143 715h143
v-143h-143v143zM143 429h143v-143h-143v143zM-286 -143v0v0v0v0zM429 429h143v-143h-143v143zM429 715h143v-143h-143v143zM-2344 1901v0v0v0v0z" />
    <glyph glyph-name="Y" unicode="Y" 
d="M286 143h143v-143h-143v143zM286 286h143v-143h-143v143zM286 429h143v-143h-143v143zM286 572h143v-143h-143v143zM0 1001h143v-143h-143v143zM0 858h143v-143h-143v143zM143 715h143v-143h-143v143zM429 715h143v-143h-143v143zM572 858h143v-143h-143v143zM572 1001
h143v-143h-143v143z" />
    <glyph glyph-name="Z" unicode="Z" 
d="M0 1001h143v-143h-143v143zM143 1001h143v-143h-143v143zM286 1001h143v-143h-143v143zM429 1001h143v-143h-143v143zM572 1001h143v-143h-143v143zM572 858h143v-143h-143v143zM429 715h143v-143h-143v143zM286 572h143v-143h-143v143zM143 429h143v-143h-143v143z
M0 286h143v-143h-143v143zM0 143h143v-143h-143v143zM143 143h143v-143h-143v143zM286 143h143v-143h-143v143zM429 143h143v-143h-143v143zM572 143h143v0h-143v0z" />
    <glyph glyph-name="bracketleft" unicode="[" 
d="M143 1001h143v-143h-143v143zM143 858h143v-143h-143v143zM143 715h143v-143h-143v143zM143 572h143v-143h-143v143zM143 429h143v-143h-143v143zM143 286h143v-143h-143v143zM143 143h143v-143h-143v143zM286 143h143v-143h-143v143zM429 143h143v-143h-143v143z
M286 1001h143v-143h-143v143zM429 1001h143v-143h-143v143z" />
    <glyph glyph-name="backslash" unicode="\" 
d="M0 858h143v-143h-143v143zM143 715h143v-143h-143v143zM286 572h143v-143h-143v143zM429 429h143v-143h-143v143zM572 286h143v-143h-143v143z" />
    <glyph glyph-name="bracketright" unicode="]" 
d="M429 1001h143v-143h-143v143zM429 858h143v-143h-143v143zM429 715h143v-143h-143v143zM429 572h143v-143h-143v143zM429 429h143v-143h-143v143zM429 286h143v-143h-143v143zM429 143h143v-143h-143v143zM286 143h143v-143h-143v143zM143 143h143v-143h-143v143z
M143 1001h143v-143h-143v143zM286 1001h143v-143h-143v143z" />
    <glyph glyph-name="asciicircum" unicode="^" 
d="M286 1001h143v-143h-143v143zM143 858h143v-143h-143v143zM0 715h143v-143h-143v143zM429 858h143v-143h-143v143zM572 715h143v-143h-143v143z" />
    <glyph glyph-name="underscore" unicode="_" 
d="M0 143h143v-143h-143v143zM143 143h143v-143h-143v143zM286 143h143v-143h-143v143zM429 143h143v-143h-143v143zM572 143h143v-143h-143v143z" />
    <glyph glyph-name="grave" unicode="`" 
d="M143 1001h143v-143h-143v143zM286 858h143v-143h-143v143zM429 715h143v-143h-143v143z" />
    <glyph glyph-name="a" unicode="a" 
d="M143 143h143v-143h-143v143zM286 143h143v-143h-143v143zM429 143h143v-143h-143v143zM572 143h143v-143h-143v143zM0 286h143v-143h-143v143zM572 286h143v-143h-143v143zM572 429h143v-143h-143v143zM572 572h143v-143h-143v143zM143 429h143v-143h-143v143zM286 429
h143v-143h-143v143zM429 429h143v-143h-143v143zM143 715h143v-143h-143v143zM286 715h143v-143h-143v143zM429 715h143v-143h-143v143z" />
    <glyph glyph-name="b" unicode="b" 
d="M0 1001h143v-143h-143v143zM0 858h143v-143h-143v143zM0 715h143v-143h-143v143zM0 572h143v-143h-143v143zM0 429h143v-143h-143v143zM0 286h143v-143h-143v143zM0 143h143v-143h-143v143zM143 143h143v-143h-143v143zM286 143h143v-143h-143v143zM429 143h143v-143
h-143v143zM572 286h143v-143h-143v143zM572 429h143v-143h-143v143zM572 572h143v-143h-143v143zM286 715h143v-143h-143v143zM429 715h143v-143h-143v143zM143 572h143v-143h-143v143z" />
    <glyph glyph-name="c" unicode="c" 
d="M143 143h143v-143h-143v143zM286 143h143v-143h-143v143zM429 143h143v-143h-143v143zM572 143h143v-143h-143v143zM0 286h143v-143h-143v143zM0 429h143v-143h-143v143zM0 572h143v-143h-143v143zM143 715h143v-143h-143v143zM286 715h143v-143h-143v143zM429 715h143
v-143h-143v143zM572 715h143v-143h-143v143z" />
    <glyph glyph-name="d" unicode="d" 
d="M572 1001h143v-143h-143v143zM572 858h143v-143h-143v143zM572 715h143v-143h-143v143zM572 572h143v-143h-143v143zM572 429h143v-143h-143v143zM572 286h143v-143h-143v143zM572 143h143v-143h-143v143zM429 143h143v-143h-143v143zM286 143h143v-143h-143v143z
M143 143h143v-143h-143v143zM0 286h143v-143h-143v143zM0 429h143v-143h-143v143zM0 572h143v-143h-143v143zM143 715h143v-143h-143v143zM286 715h143v-143h-143v143zM429 572h143v-143h-143v143z" />
    <glyph glyph-name="e" unicode="e" 
d="M143 143h143v-143h-143v143zM286 143h143v-143h-143v143zM429 143h143v-143h-143v143zM0 286h143v-143h-143v143zM0 429h143v-143h-143v143zM0 572h143v-143h-143v143zM143 715h143v-143h-143v143zM286 715h143v-143h-143v143zM429 715h143v-143h-143v143zM572 572h143
v-143h-143v143zM429 429h143v-143h-143v143zM286 429h143v-143h-143v143zM143 429h143v-143h-143v143z" />
    <glyph glyph-name="f" unicode="f" 
d="M143 143h143v-143h-143v143zM143 286h143v-143h-143v143zM143 429h143v-143h-143v143zM143 572h143v-143h-143v143zM143 715h143v-143h-143v143zM143 858h143v-143h-143v143zM286 1001h143v-143h-143v143zM429 1001h143v-143h-143v143zM572 858h143v-143h-143v143zM0 572
h143v-143h-143v143zM286 572h143v-143h-143v143z" />
    <glyph glyph-name="g" unicode="g" 
d="M143 143h143v-143h-143v143zM286 143h143v-143h-143v143zM429 143h143v-143h-143v143zM572 286h143v-143h-143v143zM572 429h143v-143h-143v143zM572 572h143v-143h-143v143zM572 715h143v-143h-143v143zM143 858h143v-143h-143v143zM286 858h143v-143h-143v143zM429 858
h143v-143h-143v143zM0 715h143v-143h-143v143zM0 572h143v-143h-143v143zM143 429h143v-143h-143v143zM286 429h143v-143h-143v143zM429 429h143v-143h-143v143z" />
    <glyph glyph-name="h" unicode="h" 
d="M0 1001h143v-143h-143v143zM0 858h143v-143h-143v143zM0 715h143v-143h-143v143zM0 572h143v-143h-143v143zM0 429h143v-143h-143v143zM0 286h143v-143h-143v143zM0 143h143v-143h-143v143zM572 143h143v-143h-143v143zM572 286h143v-143h-143v143zM572 429h143v-143
h-143v143zM572 572h143v-143h-143v143zM429 715h143v-143h-143v143zM286 715h143v-143h-143v143zM143 572h143v-143h-143v143z" />
    <glyph glyph-name="i" unicode="i" 
d="M143 143h143v-143h-143v143zM286 143h143v-143h-143v143zM429 143h143v-143h-143v143zM286 286h143v-143h-143v143zM286 429h143v-143h-143v143zM286 572h143v-143h-143v143zM286 715h143v-143h-143v143zM286 1001h143v-143h-143v143zM143 715h143v-143h-143v143z" />
    <glyph glyph-name="j" unicode="j" 
d="M0 286h143v-143h-143v143zM143 143h143v-143h-143v143zM286 143h143v-143h-143v143zM429 286h143v-143h-143v143zM429 429h143v-143h-143v143zM429 572h143v-143h-143v143zM429 715h143v-143h-143v143zM429 1001h143v-143h-143v143z" />
    <glyph glyph-name="k" unicode="k" 
d="M0 1001h143v-143h-143v143zM0 858h143v-143h-143v143zM0 715h143v-143h-143v143zM0 572h143v-143h-143v143zM0 429h143v-143h-143v143zM0 286h143v-143h-143v143zM0 143h143v-143h-143v143zM429 143h143v-143h-143v143zM286 286h143v-143h-143v143zM143 429h143v-143
h-143v143zM286 572h143v-143h-143v143zM429 715h143v-143h-143v143z" />
    <glyph glyph-name="l" unicode="l" 
d="M143 143h143v-143h-143v143zM286 143h143v-143h-143v143zM429 143h143v-143h-143v143zM286 286h143v-143h-143v143zM286 429h143v-143h-143v143zM286 572h143v-143h-143v143zM286 715h143v-143h-143v143zM286 858h143v-143h-143v143zM286 1001h143v-143h-143v143z
M143 1001h143v-143h-143v143z" />
    <glyph glyph-name="m" unicode="m" 
d="M0 143h143v-143h-143v143zM0 286h143v-143h-143v143zM0 429h143v-143h-143v143zM0 572h143v-143h-143v143zM0 715h143v-143h-143v143zM572 572h143v-143h-143v143zM572 429h143v-143h-143v143zM572 286h143v-143h-143v143zM572 143h143v-143h-143v143zM143 715h143v-143
h-143v143zM286 572h143v-143h-143v143zM429 715h143v-143h-143v143z" />
    <glyph glyph-name="n" unicode="n" 
d="M0 143h143v-143h-143v143zM0 286h143v-143h-143v143zM0 429h143v-143h-143v143zM0 572h143v-143h-143v143zM0 715h143v-143h-143v143zM572 572h143v-143h-143v143zM572 429h143v-143h-143v143zM572 286h143v-143h-143v143zM572 143h143v-143h-143v143zM286 715h143v-143
h-143v143zM429 715h143v-143h-143v143zM143 572h143v-143h-143v143z" />
    <glyph glyph-name="o" unicode="o" 
d="M143 143h143v-143h-143v143zM286 143h143v-143h-143v143zM429 143h143v-143h-143v143zM572 286h143v-143h-143v143zM572 429h143v-143h-143v143zM572 572h143v-143h-143v143zM429 715h143v-143h-143v143zM286 715h143v-143h-143v143zM143 715h143v-143h-143v143zM0 572
h143v-143h-143v143zM0 429h143v-143h-143v143zM0 286h143v-143h-143v143z" />
    <glyph glyph-name="p" unicode="p" 
d="M0 143h143v-143h-143v143zM0 286h143v-143h-143v143zM0 429h143v-143h-143v143zM0 572h143v-143h-143v143zM0 715h143v-143h-143v143zM0 858h143v-143h-143v143zM143 858h143v-143h-143v143zM286 858h143v-143h-143v143zM429 858h143v-143h-143v143zM572 715h143v-143
h-143v143zM572 572h143v-143h-143v143zM429 429h143v-143h-143v143zM286 429h143v-143h-143v143zM143 429h143v-143h-143v143z" />
    <glyph glyph-name="q" unicode="q" 
d="M572 143h143v-143h-143v143zM572 286h143v-143h-143v143zM572 429h143v-143h-143v143zM572 572h143v-143h-143v143zM572 715h143v-143h-143v143zM572 858h143v-143h-143v143zM429 858h143v-143h-143v143zM286 858h143v-143h-143v143zM143 858h143v-143h-143v143zM0 715
h143v-143h-143v143zM0 572h143v-143h-143v143zM143 429h143v-143h-143v143zM286 429h143v-143h-143v143zM429 429h143v-143h-143v143z" />
    <glyph glyph-name="r" unicode="r" 
d="M0 143h143v-143h-143v143zM0 286h143v-143h-143v143zM0 429h143v-143h-143v143zM0 572h143v-143h-143v143zM0 715h143v-143h-143v143zM143 572h143v-143h-143v143zM286 715h143v-143h-143v143zM429 715h143v-143h-143v143zM572 572h143v-143h-143v143z" />
    <glyph glyph-name="s" unicode="s" 
d="M0 143h143v-143h-143v143zM143 143h143v-143h-143v143zM286 143h143v-143h-143v143zM429 143h143v-143h-143v143zM572 286h143v-143h-143v143zM429 429h143v-143h-143v143zM286 429h143v-143h-143v143zM143 429h143v-143h-143v143zM0 572h143v-143h-143v143zM143 715h143
v-143h-143v143zM286 715h143v-143h-143v143zM429 715h143v-143h-143v143z" />
    <glyph glyph-name="t" unicode="t" 
d="M143 1001h143v-143h-143v143zM143 858h143v-143h-143v143zM143 715h143v-143h-143v143zM143 572h143v-143h-143v143zM143 429h143v-143h-143v143zM143 286h143v-143h-143v143zM286 143h143v-143h-143v143zM429 143h143v-143h-143v143zM572 286h143v-143h-143v143zM0 715
h143v-143h-143v143zM286 715h143v-143h-143v143zM429 715h143v-143h-143v143z" />
    <glyph glyph-name="u" unicode="u" 
d="M0 572h143v-143h-143v143zM0 429h143v-143h-143v143zM0 286h143v-143h-143v143zM0 143h143v0h-143v0zM0 715h143v-143h-143v143zM143 143h143v-143h-143v143zM286 143h143v-143h-143v143zM429 286h143v-143h-143v143zM572 143h143v-143h-143v143zM572 286h143v-143h-143
v143zM572 429h143v-143h-143v143zM572 572h143v-143h-143v143zM572 715h143v-143h-143v143z" />
    <glyph glyph-name="v" unicode="v" 
d="M0 429h143v-143h-143v143zM0 572h143v-143h-143v143zM0 715h143v-143h-143v143zM572 715h143v-143h-143v143zM572 572h143v-143h-143v143zM572 429h143v-143h-143v143zM429 286h143v-143h-143v143zM286 143h143v-143h-143v143zM143 286h143v-143h-143v143z" />
    <glyph glyph-name="w" unicode="w" 
d="M0 286h143v-143h-143v143zM0 429h143v-143h-143v143zM0 572h143v-143h-143v143zM0 715h143v-143h-143v143zM572 715h143v-143h-143v143zM572 572h143v-143h-143v143zM572 429h143v-143h-143v143zM572 286h143v-143h-143v143zM429 143h143v-143h-143v143zM143 143h143
v-143h-143v143zM286 286h143v-143h-143v143zM286 429h143v-143h-143v143z" />
    <glyph glyph-name="x" unicode="x" 
d="M0 143h143v-143h-143v143zM143 286h143v-143h-143v143zM286 429h143v-143h-143v143zM429 572h143v-143h-143v143zM572 715h143v-143h-143v143zM429 286h143v-143h-143v143zM572 143h143v-143h-143v143zM0 715h143v-143h-143v143zM143 572h143v-143h-143v143z" />
    <glyph glyph-name="y" unicode="y" 
d="M143 143h143v-143h-143v143zM286 143h143v-143h-143v143zM429 143h143v-143h-143v143zM429 429h143v-143h-143v143zM286 429h143v-143h-143v143zM143 429h143v-143h-143v143zM0 572h143v-143h-143v143zM0 715h143v-143h-143v143zM0 858h143v-143h-143v143zM572 858h143
v-143h-143v143zM572 715h143v-143h-143v143zM572 572h143v-143h-143v143zM572 429h143v-143h-143v143zM572 286h143v-143h-143v143z" />
    <glyph glyph-name="z" unicode="z" 
d="M0 143h143v-143h-143v143zM143 143h143v-143h-143v143zM286 143h143v-143h-143v143zM429 143h143v-143h-143v143zM572 143h143v-143h-143v143zM143 286h143v-143h-143v143zM286 429h143v-143h-143v143zM429 572h143v-143h-143v143zM0 715h143v-143h-143v143zM143 715h143
v-143h-143v143zM286 715h143v-143h-143v143zM429 715h143v-143h-143v143zM572 715h143v-143h-143v143z" />
    <glyph glyph-name="braceleft" unicode="{" 
d="M143 572h143v-143h-143v143zM286 715h143v-143h-143v143zM286 858h143v-143h-143v143zM429 1001h143v-143h-143v143zM286 429h143v-143h-143v143zM286 286h143v-143h-143v143zM429 143h143v-143h-143v143z" />
    <glyph glyph-name="bar" unicode="|" 
d="M286 1001h143v-143h-143v143zM286 858h143v-143h-143v143zM286 715h143v-143h-143v143zM286 572h143v-143h-143v143zM286 429h143v-143h-143v143zM286 286h143v-143h-143v143zM286 143h143v-143h-143v143z" />
    <glyph glyph-name="braceright" unicode="}" 
d="M429 572h143v-143h-143v143zM286 715h143v-143h-143v143zM286 858h143v-143h-143v143zM143 1001h143v-143h-143v143zM286 429h143v-143h-143v143zM286 286h143v-143h-143v143zM143 143h143v-143h-143v143z" />
    <glyph glyph-name="asciitilde" unicode="~" 
 />
    <glyph glyph-name="controlDEL" horiz-adv-x="1240" 
 />
    <glyph glyph-name="Agrave" unicode="&#xc0;" 
d="M0 1001h143v-143h-143v143zM143 858h143v-143h-143v143zM0 143h143v-143h-143v143zM0 286h143v-143h-143v143zM0 429h143v-143h-143v143zM143 572h143v-143h-143v143zM429 572h143v-143h-143v143zM572 429h143v-143h-143v143zM572 286h143v-143h-143v143zM572 143h143
v-143h-143v143zM143 286h143v-143h-143v143zM286 286h143v-143h-143v143zM429 286h143v-143h-143v143zM286 572h143v-143h-143v143z" />
    <glyph glyph-name="Aacute" unicode="&#xc1;" horiz-adv-x="1240" 
 />
    <glyph glyph-name="Acircumflex" unicode="&#xc2;" 
d="M0 143h143v-143h-143v143zM0 286h143v-143h-143v143zM0 429h143v-143h-143v143zM143 572h143v-143h-143v143zM429 572h143v-143h-143v143zM572 429h143v-143h-143v143zM572 286h143v-143h-143v143zM572 143h143v-143h-143v143zM143 286h143v-143h-143v143zM286 286h143
v-143h-143v143zM429 286h143v-143h-143v143zM286 1001h143v-143h-143v143zM429 858h143v-143h-143v143zM143 858h143v-143h-143v143zM286 572h143v-143h-143v143z" />
    <glyph glyph-name="AE" unicode="&#xc6;" 
d="M0 143h143v-143h-143v143zM0 286h143v-143h-143v143zM0 429h143v-143h-143v143zM0 572h143v-143h-143v143zM429 572h143v-143h-143v143zM429 429h143v-143h-143v143zM429 286h143v-143h-143v143zM429 143h143v-143h-143v143zM572 143h143v-143h-143v143zM429 715h143
v-143h-143v143zM572 572h143v-143h-143v143zM429 858h143v-143h-143v143zM429 1001h143v-143h-143v143zM572 1001h143v-143h-143v143zM143 715h143v-143h-143v143zM143 858h143v-143h-143v143zM286 1001h143v-143h-143v143zM143 572h143v-143h-143v143zM286 572h143v-143
h-143v143z" />
    <glyph glyph-name="Ccedilla" unicode="&#xc7;" 
d="M143 1001h143v-143h-143v143zM286 1001h143v-143h-143v143zM429 1001h143v-143h-143v143zM572 858h143v-143h-143v143zM0 858h143v-143h-143v143zM0 715h143v-143h-143v143zM0 572h143v-143h-143v143zM0 429h143v-143h-143v143zM143 286h143v-143h-143v143zM286 286h143
v-143h-143v143zM429 286h143v-143h-143v143zM572 429h143v-143h-143v143zM429 143v-143h-143v143h143z" />
    <glyph glyph-name="Egrave" unicode="&#xc8;" 
d="M0 715h143v-143h-143v143zM0 572h143v-143h-143v143zM0 429h143v-143h-143v143zM0 286h143v-143h-143v143zM0 143h143v-143h-143v143zM143 143h143v-143h-143v143zM286 143h143v-143h-143v143zM429 143h143v-143h-143v143zM572 143h143v-143h-143v143zM143 429h143v-143
h-143v143zM286 429h143v-143h-143v143zM429 429h143v-143h-143v143zM143 715h143v-143h-143v143zM286 715h143v-143h-143v143zM429 715h143v-143h-143v143zM572 715h143v-143h-143v143zM431 718l-2 140h-143v-143l145 -2v5zM143 1001v-143h143v143h-143zM143 143h143v-143
h-143v143zM286 143h143v-143h-143v143zM429 143h143v-143h-143v143zM0 286h143v-143h-143v143zM0 429h143v-143h-143v143zM0 572h143v-143h-143v143zM143 715h143v-143h-143v143zM286 715h143v-143h-143v143zM429 715h143v-143h-143v143zM572 572h143v-143h-143v143z
M429 429h143v-143h-143v143zM286 429h143v-143h-143v143zM143 429h143v-143h-143v143z" />
    <glyph glyph-name="Eacute" unicode="&#xc9;" 
d="M0 715h143v-143h-143v143zM0 572h143v-143h-143v143zM0 429h143v-143h-143v143zM0 286h143v-143h-143v143zM0 143h143v-143h-143v143zM143 143h143v-143h-143v143zM286 143h143v-143h-143v143zM429 143h143v-143h-143v143zM572 143h143v-143h-143v143zM143 429h143v-143
h-143v143zM286 429h143v-143h-143v143zM429 429h143v-143h-143v143zM143 715h143v-143h-143v143zM286 715h143v-143h-143v143zM429 715h143v-143h-143v143zM572 715h143v-143h-143v143zM431 718l-2 140h-143v-143l145 -2v5zM429 1001v-143h143v143h-143z" />
    <glyph glyph-name="Ecircumflex" unicode="&#xca;" 
d="M0 715h143v-143h-143v143zM0 572h143v-143h-143v143zM0 429h143v-143h-143v143zM0 286h143v-143h-143v143zM0 143h143v-143h-143v143zM143 143h143v-143h-143v143zM286 143h143v-143h-143v143zM429 143h143v-143h-143v143zM572 143h143v-143h-143v143zM143 429h143v-143
h-143v143zM286 429h143v-143h-143v143zM429 429h143v-143h-143v143zM143 715h143v-143h-143v143zM286 715h143v-143h-143v143zM429 715h143v-143h-143v143zM572 715h143v-143h-143v143zM286 1001v-143h143v143h-143zM429 858v-143h143v143h-143zM143 858v-143h143v143h-143z
" />
    <glyph glyph-name="Edieresis" unicode="&#xcb;" 
d="M0 715h143v-143h-143v143zM0 572h143v-143h-143v143zM0 429h143v-143h-143v143zM0 286h143v-143h-143v143zM0 143h143v-143h-143v143zM143 143h143v-143h-143v143zM286 143h143v-143h-143v143zM429 143h143v-143h-143v143zM572 143h143v-143h-143v143zM143 429h143v-143
h-143v143zM286 429h143v-143h-143v143zM429 429h143v-143h-143v143zM143 715h143v-143h-143v143zM286 715h143v-143h-143v143zM429 715h143v-143h-143v143zM572 715h143v-143h-143v143zM143 1001v-143h143v143h-143zM143 1001v-143h143v143h-143zM429 1001v-143h143v143
h-143z" />
    <glyph glyph-name="Icircumflex" unicode="&#xce;" 
d="M286 143h143v-143h-143v143zM286 572h143v-143h-143v143zM286 429h143v-143h-143v143zM286 286h143v-143h-143v143zM286 715v286h143v-286h143v143h-429v-143h143z" />
    <glyph glyph-name="Idieresis" unicode="&#xcf;" 
d="M286 143h143v-143h-143v143zM286 572h143v-143h-143v143zM286 429h143v-143h-143v143zM286 286h143v-143h-143v143zM149 1001l-6 -143h143v143h-137zM429 1001v-143h143v143h-143zM429 572v143h-143v-143l140 -8z" />
    <glyph glyph-name="Ocircumflex" unicode="&#xd4;" 
d="M0 572h143v-143h-143v143zM143 715h143v-143h-143v143zM286 715h143v-143h-143v143zM429 715h143v-143h-143v143zM572 572h143v-143h-143v143zM572 429h143v-143h-143v143zM572 286h143v-143h-143v143zM429 143h143v-143h-143v143zM286 143h143v-143h-143v143zM143 143
h143v-143h-143v143zM0 429h143v-143h-143v143zM0 286h143v-143h-143v143zM286 715v286h143v-286h143v143h-429v-143h143z" />
    <glyph glyph-name="Ugrave" unicode="&#xd9;" 
d="M0 715h143v-143h-143v143zM0 572h143v-143h-143v143zM0 429h143v-143h-143v143zM0 286h143v-143h-143v143zM143 143h143v-143h-143v143zM286 143h143v0h-143v0zM286 143h143v-143h-143v143zM429 143h143v-143h-143v143zM572 286h143v-143h-143v143zM572 429h143v-143
h-143v143zM572 572h143v-143h-143v143zM572 715h143v-143h-143v143zM143 1001h143v-143h-143v143zM286 858h143v-143h-143v143z" />
    <glyph glyph-name="Ucircumflex" unicode="&#xdb;" 
d="M0 572h143v-143h-143v143zM0 429h143v-143h-143v143zM0 286h143v-143h-143v143zM143 143h143v-143h-143v143zM286 143h143v0h-143v0zM286 143h143v-143h-143v143zM429 143h143v-143h-143v143zM572 286h143v-143h-143v143zM572 429h143v-143h-143v143zM572 572h143v-143
h-143v143zM286 1001h143v-143h-143v143zM429 858h143v-143h-143v143zM143 858h143v-143h-143v143z" />
    <glyph glyph-name="Udieresis" unicode="&#xdc;" 
d="M0 715h143v-143h-143v143zM0 572h143v-143h-143v143zM0 429h143v-143h-143v143zM0 286h143v-143h-143v143zM143 143h143v-143h-143v143zM286 143h143v0h-143v0zM286 143h143v-143h-143v143zM429 143h143v-143h-143v143zM572 286h143v-143h-143v143zM572 429h143v-143
h-143v143zM572 572h143v-143h-143v143zM572 715h143v-143h-143v143zM143 1001h143v-143h-143v143zM429 1001h143v-143h-143v143z" />
    <glyph glyph-name="agrave" unicode="&#xe0;" 
d="M286 143h143v-143h-143v143zM429 143h143v-143h-143v143zM572 143h143v-143h-143v143zM143 286h143v-143h-143v143zM572 286h143v-143h-143v143zM572 429h143v-143h-143v143zM572 572h143v-143h-143v143zM286 429h143v-143h-143v143zM429 429h143v-143h-143v143zM286 715
h143v-143h-143v143zM429 715h143v-143h-143v143zM143 1001h143v-143h-143v143zM286 858h143v-143h-143v143z" />
    <glyph glyph-name="acircumflex" unicode="&#xe2;" 
d="M286 143h143v-143h-143v143zM429 143h143v-143h-143v143zM572 143h143v-143h-143v143zM143 286h143v-143h-143v143zM572 286h143v-143h-143v143zM572 429h143v-143h-143v143zM572 572h143v-143h-143v143zM286 429h143v-143h-143v143zM429 429h143v-143h-143v143zM286 715
h143v-143h-143v143zM429 715h143v-143h-143v143zM286 1001h143v-143h-143v143zM429 858h143v-143h-143v143zM143 858h143v-143h-143v143z" />
    <glyph glyph-name="ae" unicode="&#xe6;" 
d="M143 143h143v-143h-143v143zM0 286h143v-143h-143v143zM286 286h143v-143h-143v143zM286 429h143v-143h-143v143zM286 572h143v-143h-143v143zM143 429h143v-143h-143v143zM0 715h143v-143h-143v143zM143 715h143v-143h-143v143zM572 0h143v143h-143v-143zM429 286h143
v143h-143v-143zM572 286h143v143h-143v-143zM572 429h143v143h-143v-143zM429 572h143v143h-143v-143zM429 0h143v143h-143v-143z" />
    <glyph glyph-name="ccedilla" unicode="&#xe7;" 
d="M143 286h143v-143h-143v143zM286 286h143v-143h-143v143zM429 286h143v-143h-143v143zM572 286h143v-143h-143v143zM0 429h143v-143h-143v143zM0 572h143v-143h-143v143zM0 715h143v-143h-143v143zM143 858h143v-143h-143v143zM286 858h143v-143h-143v143zM429 858h143
v-143h-143v143zM572 858h143v-143h-143v143zM286 143v-143h143v143h-143z" />
    <glyph glyph-name="egrave" unicode="&#xe8;" 
d="M143 143h143v-143h-143v143zM286 143h143v-143h-143v143zM429 143h143v-143h-143v143zM0 286h143v-143h-143v143zM0 429h143v-143h-143v143zM0 572h143v-143h-143v143zM143 715h143v-143h-143v143zM286 715h143v-143h-143v143zM429 715h143v-143h-143v143zM572 572h143
v-143h-143v143zM429 429h143v-143h-143v143zM286 429h143v-143h-143v143zM143 429h143v-143h-143v143zM431 718l-2 140h-143v-143l145 -2v5zM143 1001v-143h143v143h-143zM143 143h143v-143h-143v143zM286 143h143v-143h-143v143zM429 143h143v-143h-143v143zM0 286h143
v-143h-143v143zM0 429h143v-143h-143v143zM0 572h143v-143h-143v143zM143 715h143v-143h-143v143zM286 715h143v-143h-143v143zM429 715h143v-143h-143v143zM572 572h143v-143h-143v143zM429 429h143v-143h-143v143zM286 429h143v-143h-143v143zM143 429h143v-143h-143v143z
" />
    <glyph glyph-name="eacute" unicode="&#xe9;" 
d="M143 143h143v-143h-143v143zM286 143h143v-143h-143v143zM429 143h143v-143h-143v143zM0 286h143v-143h-143v143zM0 429h143v-143h-143v143zM0 572h143v-143h-143v143zM143 715h143v-143h-143v143zM286 715h143v-143h-143v143zM429 715h143v-143h-143v143zM572 572h143
v-143h-143v143zM429 429h143v-143h-143v143zM286 429h143v-143h-143v143zM143 429h143v-143h-143v143zM431 718l-2 140h-143v-143l145 -2v5zM429 1001v-143h143v143h-143zM143 143h143v-143h-143v143zM286 143h143v-143h-143v143zM429 143h143v-143h-143v143zM0 286h143
v-143h-143v143zM0 429h143v-143h-143v143zM0 572h143v-143h-143v143zM143 715h143v-143h-143v143zM286 715h143v-143h-143v143zM429 715h143v-143h-143v143zM572 572h143v-143h-143v143zM429 429h143v-143h-143v143zM286 429h143v-143h-143v143zM143 429h143v-143h-143v143z
" />
    <glyph glyph-name="ecircumflex" unicode="&#xea;" 
d="M143 143h143v-143h-143v143zM286 143h143v-143h-143v143zM429 143h143v-143h-143v143zM0 286h143v-143h-143v143zM0 429h143v-143h-143v143zM0 572h143v-143h-143v143zM143 715h143v-143h-143v143zM286 715h143v-143h-143v143zM429 715h143v-143h-143v143zM572 572h143
v-143h-143v143zM429 429h143v-143h-143v143zM286 429h143v-143h-143v143zM143 429h143v-143h-143v143zM286 715v143h-143v-143h143zM286 1001v-143h143v143h-143zM143 143h143v-143h-143v143zM286 143h143v-143h-143v143zM429 143h143v-143h-143v143zM0 286h143v-143h-143
v143zM0 429h143v-143h-143v143zM0 572h143v-143h-143v143zM143 715h143v-143h-143v143zM286 715h143v-143h-143v143zM429 715h143v-143h-143v143zM572 572h143v-143h-143v143zM429 429h143v-143h-143v143zM286 429h143v-143h-143v143zM143 429h143v-143h-143v143zM572 715
l-2 140h-143v-143l145 -2v5z" />
    <glyph glyph-name="edieresis" unicode="&#xeb;" 
d="M143 143h143v-143h-143v143zM286 143h143v-143h-143v143zM429 143h143v-143h-143v143zM0 286h143v-143h-143v143zM0 429h143v-143h-143v143zM0 572h143v-143h-143v143zM143 715h143v-143h-143v143zM286 715h143v-143h-143v143zM429 715h143v-143h-143v143zM572 572h143
v-143h-143v143zM429 429h143v-143h-143v143zM286 429h143v-143h-143v143zM143 429h143v-143h-143v143zM574 861l-2 140h-143v-143l145 -2v5zM143 1001v-143h143v143h-143zM143 143h143v-143h-143v143zM286 143h143v-143h-143v143zM429 143h143v-143h-143v143zM0 286h143
v-143h-143v143zM0 429h143v-143h-143v143zM0 572h143v-143h-143v143zM143 715h143v-143h-143v143zM286 715h143v-143h-143v143zM429 715h143v-143h-143v143zM572 572h143v-143h-143v143zM429 429h143v-143h-143v143zM286 429h143v-143h-143v143zM143 429h143v-143h-143v143z
" />
    <glyph glyph-name="icircumflex" unicode="&#xee;" 
d="M143 143h143v-143h-143v143zM286 143h143v-143h-143v143zM429 143h143v-143h-143v143zM286 286h143v-143h-143v143zM286 429h143v-143h-143v143zM286 572h143v-143h-143v143zM286 715h143v-143h-143v143zM286 1001h143v-143h-143v143zM429 858h143v-143h-143v143z
M143 858h143v-143h-143v143z" />
    <glyph glyph-name="idieresis" unicode="&#xef;" 
d="M143 143h143v-143h-143v143zM286 143h143v-143h-143v143zM429 143h143v-143h-143v143zM286 286h143v-143h-143v143zM286 429h143v-143h-143v143zM286 572h143v-143h-143v143zM286 715h143v-143h-143v143zM429 1001h143v-143h-143v143zM143 1001h143v-143h-143v143z" />
    <glyph glyph-name="ocircumflex" unicode="&#xf4;" 
d="M0 429h143v-143h-143v143zM143 572h143v-143h-143v143zM286 572h143v-143h-143v143zM429 572h143v-143h-143v143zM572 429h143v-143h-143v143zM572 286h143v-143h-143v143zM429 143h143v-143h-143v143zM286 143h143v-143h-143v143zM143 143h143v-143h-143v143zM0 286h143
v-143h-143v143zM286 715v286h143v-286h143v143h-429v-143h143z" />
    <glyph glyph-name="oslash" unicode="&#xf8;" horiz-adv-x="1240" 
 />
    <glyph glyph-name="ugrave" unicode="&#xf9;" 
d="M0 572h143v-143h-143v143zM0 429h143v-143h-143v143zM0 286h143v-143h-143v143zM0 143h143v0h-143v0zM143 143h143v-143h-143v143zM286 143h143v-143h-143v143zM429 286h143v-143h-143v143zM572 143h143v-143h-143v143zM572 286h143v-143h-143v143zM572 429h143v-143
h-143v143zM572 572h143v-143h-143v143zM431 718l-2 140h-143v-143l145 -2v5zM143 1001v-143h143v143h-143z" />
    <glyph glyph-name="ucircumflex" unicode="&#xfb;" 
d="M0 572h143v-143h-143v143zM0 429h143v-143h-143v143zM0 286h143v-143h-143v143zM0 143h143v0h-143v0zM143 143h143v-143h-143v143zM286 143h143v-143h-143v143zM429 286h143v-143h-143v143zM572 143h143v-143h-143v143zM572 286h143v-143h-143v143zM572 429h143v-143
h-143v143zM572 572h143v-143h-143v143zM431 861l-2 140h-143v-143l145 -2v5zM143 858v-143h143v143h-143zM429 858v-143h143v143h-143z" />
    <glyph glyph-name="udieresis" unicode="&#xfc;" 
d="M0 572h143v-143h-143v143zM0 429h143v-143h-143v143zM0 286h143v-143h-143v143zM0 143h143v0h-143v0zM143 143h143v-143h-143v143zM286 143h143v-143h-143v143zM429 286h143v-143h-143v143zM572 143h143v-143h-143v143zM572 286h143v-143h-143v143zM572 429h143v-143
h-143v143zM572 572h143v-143h-143v143zM574 861l-2 140h-143v-143l145 -2v5zM143 1001v-143h143v143h-143z" />
    <glyph glyph-name="ydieresis" unicode="&#xff;" 
d="M143 143h143v-143h-143v143zM286 143h143v-143h-143v143zM429 143h143v-143h-143v143zM429 429h143v-143h-143v143zM286 429h143v-143h-143v143zM143 429h143v-143h-143v143zM0 572h143v-143h-143v143zM0 715h143v-143h-143v143zM572 715h143v-143h-143v143zM572 572h143
v-143h-143v143zM572 429h143v-143h-143v143zM572 286h143v-143h-143v143zM574 861l-2 140h-143v-143l145 -2v5zM143 1001v-143h143v143h-143z" />
    <glyph glyph-name="OE" unicode="&#x152;" 
d="M286 143h143v-143h-143v143zM0 429h143v-143h-143v143zM0 572h143v-143h-143v143zM429 572h143v-143h-143v143zM429 429h143v-143h-143v143zM429 286h143v-143h-143v143zM429 143h143v-143h-143v143zM572 143h143v-143h-143v143zM429 715h143v-143h-143v143zM572 572h143
v-143h-143v143zM429 858h143v-143h-143v143zM429 1001h143v-143h-143v143zM572 1001h143v-143h-143v143zM286 1001h143v-143h-143v143zM143 143h143v-143h-143v143zM0 286h143v-143h-143v143zM143 1001h143v-143h-143v143zM0 715h143v-143h-143v143zM0 858h143v-143h-143
v143z" />
    <glyph glyph-name="oe" unicode="&#x153;" 
d="M143 143h143v-143h-143v143zM286 143h143v-143h-143v143zM572 143h143v-143h-143v143zM0 429h143v-143h-143v143zM0 572h143v-143h-143v143zM286 715h143v-143h-143v143zM429 715h143v-143h-143v143zM572 572h143v-143h-143v143zM429 429h143v-143h-143v143zM286 429h143
v-143h-143v143zM429 143h143v-143h-143v143zM143 715h143v-143h-143v143zM0 286h143v-143h-143v143zM286 286h143v-143h-143v143zM286 572h143v-143h-143v143z" />
    <glyph glyph-name="Ydieresis" unicode="&#x178;" 
d="M286 143h143v-143h-143v143zM286 286h143v-143h-143v143zM0 715h143v-143h-143v143zM0 572h143v-143h-143v143zM143 429h143v-143h-143v143zM429 429h143v-143h-143v143zM572 572h143v-143h-143v143zM572 715h143v-143h-143v143zM143 1001h143v-143h-143v143zM429 1001
h143v-143h-143v143z" />
    <glyph glyph-name="glyph73" horiz-adv-x="1240" 
d="M143 715h143v-429h-143v429z" />
  </font>
</defs>
</svg>
